<svg xmlns="http://www.w3.org/2000/svg" xmlns:xlink="http://www.w3.org/1999/xlink" width="796.701" height="293.058" viewBox="0 0 796.701 293.058">
  <defs>
    <linearGradient id="linear-gradient" x1="0.127" y1="0.13" x2="1" y2="1" gradientUnits="objectBoundingBox">
      <stop offset="0" stop-color="#00e0ee"/>
      <stop offset="0.478" stop-color="#ad26fb"/>
      <stop offset="1" stop-color="#0740db"/>
    </linearGradient>
  </defs>
  <path id="Trazado_789" data-name="Trazado 789" d="M-312.8,16.524V-42.858L-199.534-221h53.883v79.175h-30.79l-61.031,96.77v2.2H-70.324V16.524ZM-175.891,60.51V-1.621l1.649-25.842V-221h71.478V60.51Zm260.069,7.7q-38.35-.137-66.254-17.732T-25.1-.246Q-40.221-33.373-40.084-79.7q.137-46.46,15.189-78.9t42.887-49.347q27.835-16.907,66.186-16.907t66.254,16.976q27.9,16.976,43.024,49.416T208.438-79.7q0,46.6-15.12,79.725T150.363,50.682Q122.528,68.207,84.177,68.207Zm0-62.131q19.794,0,32.509-20.687T129.263-79.7q0-29-5.773-47.423T107.545-154.4a34.53,34.53,0,0,0-23.368-8.866q-19.794,0-32.3,20.069T39.091-79.7q-.137,29.553,5.636,48.591T60.741-3A34.333,34.333,0,0,0,84.177,6.077ZM241.428,16.524V-42.858L354.693-221h53.883v79.175h-30.79l-61.031,96.77v2.2H483.9V16.524ZM378.335,60.51V-1.621l1.65-25.842V-221h71.478V60.51Z" transform="translate(312.798 224.851)" fill="url(#linear-gradient)"/>
</svg>
