<svg xmlns="http://www.w3.org/2000/svg" xmlns:xlink="http://www.w3.org/1999/xlink" width="641.112" height="866.503" viewBox="0 0 641.112 866.503">
  <defs>
    <linearGradient id="linear-gradient" x1="0.216" y1="0.104" x2="0.716" y2="0.935" gradientUnits="objectBoundingBox">
      <stop offset="0" stop-color="#00e0ee"/>
      <stop offset="0.478" stop-color="#ad26fb"/>
      <stop offset="1" stop-color="#0740db"/>
    </linearGradient>
  </defs>
  <path id="Trazado_141" data-name="Trazado 141" d="M557.5,279.431q91.826,65.113,91.826,185.321a216.333,216.333,0,0,1-25.878,103.513q-25.878,48.418-70.956,85.148t-105.182,57.6q-60.1,20.87-128.556,20.87a384.209,384.209,0,0,1-101.009-13.357A399.223,399.223,0,0,1,126.754,681.8a303.978,303.978,0,0,1-72.626-55.93Q23.241,593.309,8.215,553.239q38.4-18.365,85.148-40.9t81.809-40.9q15.026,25.043,46.748,45.913t86.817,20.87q56.765,0,83.478-26.713t26.713-50.087c0-29.865-44.522-47.861-60.1-53.426-39.17-9.7-86.261-17.809-105.182-23.374q-90.156-21.7-137.739-57.6T46.615,254.388q-21.7-36.73-24.209-70.122T19.9,130.84A231.387,231.387,0,0,1,43.276,29a263.694,263.694,0,0,1,64.278-84.313q40.9-35.9,95.165-57.6t116.035-21.7A320.672,320.672,0,0,1,502.405-77.855a285.841,285.841,0,0,1,65.948,63.443,256.692,256.692,0,0,1,40.9,81.809L430.614,127.5Q420.6,97.449,389.71,79.084a126.908,126.908,0,0,0-65.948-18.365Q288.7,60.719,267,84.093t-21.7,46.748q0,28.382,20.869,44.243a130.99,130.99,0,0,0,45.913,22.539q18.365,3.339,35.9,5.844T382.2,209.31q58.435,13.357,101.008,30.052T557.5,279.431Z" transform="translate(-8.215 134.62)" fill="url(#linear-gradient)"/>
</svg>
