<svg id="Grupo_380" data-name="Grupo 380" xmlns="http://www.w3.org/2000/svg" xmlns:xlink="http://www.w3.org/1999/xlink" width="952.302" height="552.465" viewBox="0 0 952.302 552.465">
  <defs>
    <clipPath id="clip-path">
      <rect id="Rectángulo_539" data-name="Rectángulo 539" width="952.302" height="552.465" fill="none"/>
    </clipPath>
    <linearGradient id="linear-gradient" y1="0.221" x2="0.96" y2="0.928" gradientUnits="objectBoundingBox">
      <stop offset="0" stop-color="#00e0ee"/>
      <stop offset="0.478" stop-color="#ad26fb"/>
      <stop offset="1" stop-color="#0740db"/>
    </linearGradient>
    <linearGradient id="linear-gradient-2" x1="0.092" y1="0.057" x2="0.532" y2="0.87" xlink:href="#linear-gradient"/>
  </defs>
  <g id="Grupo_379" data-name="Grupo 379" clip-path="url(#clip-path)">
    <path id="Trazado_381" data-name="Trazado 381" d="M537.547,244.8c30.712,10.361,77.539,15.567,75.887,27.287s-239.512,177.2-249.14,173.958S259.837,379.58,219.5,356.95,46.709,248.189,46.709,248.189l20.92-95.433s64.642-16.492,75.079-21.2,19.909-9.4,21.434-8.87,70.725,26.062,70.725,26.062l210.49,51.79s10.667,13.649,10.99,14.621,24.124,10.388,81.2,29.643" transform="translate(266.114 68.273)" fill="#fffeff"/>
    <path id="Trazado_382" data-name="Trazado 382" d="M115.881,201.685c-2.942,12.46-10.491,35.108-14.729,48.882s-4.636,22.119-6.358,24.37-9.8,9.536-34.039,6.093-35.893-14.172-35.76-16.557a283.571,283.571,0,0,0-2.78-38.805c-2.649-18.808-6.87-36.75-5.254-39.526s98.92,15.544,98.92,15.544" transform="translate(810.577 103.465)" fill="#fffeff"/>
    <path id="Trazado_383" data-name="Trazado 383" d="M226.481,223.839c-30.18-7.623-62.562.836-66.882,19.412s12.452,35.22,44.6,36.872,56.175-3.355,60.239-19.888c3.551-14.443-6.266-28.391-37.954-36.4" transform="translate(439.773 123.054)" fill="#ad26fb"/>
    <path id="Trazado_384" data-name="Trazado 384" d="M394.043,231.014c.722,5.986,2.077,8.459-1.334,9.67s-49.54,18.215-51.65,18.478S225.22,205.567,223.374,202.8c-1.108-1.664,48.631-22.659,50.842-22.664,2.913,0,24.9,10.489,51.685,21.826,32.221,13.637,67.945,27.426,68.141,29.053" transform="translate(209.68 100.28)" fill="#181818"/>
    <path id="Trazado_385" data-name="Trazado 385" d="M326.718,218.993c1.043.694-9.23,5.132-9.926,4.958s-41.185-19.294-41.273-19.921,7.576-4.633,8.881-4.546,36.519,15.649,42.317,19.509" transform="translate(196.61 111.051)" fill="#fffeff"/>
    <path id="Trazado_386" data-name="Trazado 386" d="M287.285,177.756c1.575,9.924,3.78,17.169-9.608,23.312s-35.6,17.212-38.119,17.427S191.753,203.87,190.84,202c-.543-1.113-.629-5.847.409-6.571,1.473-1.026,41.064-15.941,44.686-19.879s-1.733-16.381-1.733-16.381Z" transform="translate(367.361 88.609)" fill="#181818"/>
    <path id="Trazado_387" data-name="Trazado 387" d="M123.452,5.873c-3.311.106.221,60.966,0,100.869s.534,100.488,1.259,103.7,248.961,82.063,251.165,82.321,7.712-.613,8.926-2.933,6.065-72.864,8.49-112.988,11.9-147.461,11.9-156.3c0-6.392-2.2-3.966-41.667-6.832S243.16,9.08,213.178,8.416,127.2,5.756,123.452,5.873" transform="translate(357.145 3.267)" fill="#181818"/>
    <path id="Trazado_388" data-name="Trazado 388" d="M133.149,46.555c1.183,32.722.7,127.229,2.242,128.645.28.265,3.051,1.136,7.581,2.444,7.021,2.039,18.244,5.106,30.791,8.5,24.051,6.476,52.928,14.088,66.3,17.653,24.814,6.616,131.837,36.613,134.67,36.5,2.833-.125,3.067-25.3,5.075-46.67,2.008-21.389,6.865-80.917,8.048-101.123,1.168-20.206,6.133-63.56,4.95-64.027-1.183-.483-94.273-4.966-115.538-6.507-21.264-1.526-131.6-9.091-143.418-8.5-1.666.078-1.884.358-.7,33.08" transform="translate(353.205 7.483)" fill="#fffeff"/>
    <path id="Trazado_389" data-name="Trazado 389" d="M330.552,51.565c-7.759-.82-186.055-16.895-186.869-15.877s.2,98.321,0,99.133S319.967,175.534,321.6,174.11c.865-.758,2.159-33.787,4.682-65.953,2.228-28.391,5.889-56.419,4.275-56.592" transform="translate(398.179 19.842)" fill="#0740db"/>
    <path id="Trazado_390" data-name="Trazado 390" d="M328.179,120.219c-12.284-.553-20.413,1.863-20.637,5.065s-.556,47.085.318,50.14,8.847,8.94,16.594,8.643,17.88-4.524,18.626-9,.249-16.1.423-26.012.321-23.142-.573-24.98-6.482-3.479-14.751-3.851" transform="translate(130.313 66.881)" fill="#fffeff"/>
    <path id="Trazado_391" data-name="Trazado 391" d="M473.154,102.621c-.314-3.937-.671-4.493,1.577-7.021,2.33-2.621,3.06-4.746,1.876-6.943-1.113-2.063-7.967-7.481-9.076-9.144S456.1,48.96,448.756,41.477s-25.427-3.255-30.415,8.176-1.594,29.236,1.108,41.291,19.538,25.08,30.276,25.841,24.364-2.428,23.428-14.164" transform="translate(-172.119 21.004)" fill="#fffeff"/>
    <path id="Trazado_392" data-name="Trazado 392" d="M327.876,147.356c.342.95,68.993,100.921,68.993,100.921,23.771,15.053,62.828,28.861,91.409,24.456,28.581-4.39,32.722-12.251,34.029-41.486.654-14.493-1.977-26.946-7.394-40.381-5.511-13.637-13.9-28.285-24.674-47.09-21.389-37.314-38.4-54.329-52.149-60.431-13.746-6.118-30.76-.436-42.093,5.448-11.348,5.884-19.863,24.222-19.863,24.222s5.682,5.013,11.13,0c5.448-5.028,10.477-12.22,14.835-9.169,0,0,3.58,5.651,4.592,6.4,0,0,6.32,5.993,5.106,9.5-2.242,6.491-21.4-6.569-27.585,4.234-1.292,2.257,11.208,4.592,17.762,7.176,6.538,2.6,10.01,3.471,15.816,2.849s16.314-.5,20.019.747c3.7,1.23,3.456,5.184,4.686,7.534,1.245,2.351,8.033,22.977,13.356,44.241,0,0-6.507-2.8-15.8-6.834-13.9-6.056-34.06-14.882-48.008-21.264-23.288-10.648-49.269-19.568-64.167-11.068" transform="translate(-80.506 44.931)" fill="url(#linear-gradient)"/>
    <path id="Trazado_393" data-name="Trazado 393" d="M368.353,119.74c-2.242,6.491-21.4-6.569-27.585,4.234-1.292,2.257,11.208,4.592,17.762,7.176,6.538,2.6,10.01,3.471,15.816,2.849s16.314-.5,20.019.747c3.7,1.23,3.456,5.184,4.686,7.534,1.245,2.351,8.033,22.977,13.356,44.241.623,2.678,1.183,5.48,1.7,8.282,29.733,4.11,45.751,2.288,57.364-3.938-5.511-13.637-13.9-28.285-24.674-47.09-21.389-37.314-38.4-54.329-52.149-60.431-13.746-6.118-30.76-.436-42.093,5.448-11.348,5.884-19.863,24.222-19.863,24.222s5.682,5.013,11.13,0c5.448-5.028,10.476-12.22,14.835-9.169,0,0,3.58,5.651,4.592,6.4,0,0,6.32,5.993,5.106,9.5" transform="translate(-37.062 44.931)" fill="#fffeff"/>
    <path id="Trazado_394" data-name="Trazado 394" d="M392.525,123.526s22.98,3.9,38.79,14.708,12.01,17.9,17.681,30.832,11.163,24.1,16.657,38.1,10.808,36.148,19.138,61.133,12.581,44.3,12.935,54.442l-82.383,38.623s-49.687-206.626-22.817-237.837" transform="translate(-144.058 68.766)" fill="#181818"/>
    <path id="Trazado_395" data-name="Trazado 395" d="M440.779,144.45c2.083-9.936,14.264-41.189,17.629-45.2L452,72.489s38.3-8.333,39.106-6.25,15.225,62.185,15.225,62.185-5.344,5.455-7.748,18.6-2.828,29.323-2.349,33.491-4.967,7.372-11.059,7.854Z" transform="translate(-240.185 36.689)" fill="#fffeff"/>
    <path id="Trazado_396" data-name="Trazado 396" d="M601.045,166.829c-72.529,9.613-157.41,51.662-151.751,96.085,6.217,48.8,43.771,120.121,82.088,170.007s151.769,26,167.692-40.181-98.028-225.911-98.028-225.911" transform="translate(-447.292 92.873)" fill="#fffeff"/>
    <path id="Trazado_397" data-name="Trazado 397" d="M292.391,256.228c2.055,41.61,21.623,91.892,46,132.459,27.242,45.347,53.114,57.489,97.869,51.947,10.959-1.354,28.192-8.593,49.41-21.669a452.838,452.838,0,0,0,51.387-37.485c44.366-36.956,71.639-62.626,81.913-68.292,6.85-3.783,9.994,2.864,31.726-13.434,0,0-2.491,12.345,2.833,11.115s13.73-5.122,14.135-14.648c.42-9.543-1.432-16.1-6.04-17.326,0-.514.311-8.095-13.73-8.095,0,0,.716-3.58-2.257-4.2,0,0,18.556.918,17.217-7.893,0,0-6.554.2-10.352.2s-15.365.716-23.88,3.6c-8.5,2.864-69.787,37.1-84.03,44.163-10.788,5.355-52.274,24.175-73.569,33.687-6.834,3.051-11.582,5.153-12.578,5.526,0,0,8.173-12.454,7.192-40.085-.965-27.631-5.448-53.893-11.473-68.308-6.024-14.384-14.01-27.429-12.454-35.8,1.557-8.359,2.818-15.411,0-21.015-4-7.939-62.595-48.273-70.876-69.273-9.013.981-12.064,13.823-16.081,27.055-.42,1.354-24.767,20.673-37.376,35.617-12.625,14.944-27.055,40.567-24.985,82.162" transform="translate(-170.273 62.012)" fill="url(#linear-gradient-2)"/>
    <path id="Trazado_398" data-name="Trazado 398" d="M307.409,366.285A452.839,452.839,0,0,0,358.8,328.8c44.366-36.956,71.639-62.626,81.913-68.292,6.849-3.783,9.994,2.864,31.725-13.434,0,0-2.491,12.345,2.833,11.115S489,253.066,489.4,243.539c.42-9.543-1.432-16.1-6.04-17.326,0-.514.311-8.095-13.73-8.095,0,0,.716-3.58-2.257-4.2,0,0,18.556.918,17.217-7.892,0,0-6.554.2-10.352.2s-15.365.716-23.88,3.6c-8.5,2.864-69.787,37.1-84.03,44.163-10.788,5.355-52.274,24.175-73.569,33.687-2.958,20.969,6.165,62.813,14.648,78.613" transform="translate(7.988 114.692)" fill="#fffeff"/>
    <path id="Trazado_399" data-name="Trazado 399" d="M424.971,73.86s-6.038,4.147-5,9.831C421.61,92.675,430.1,94.8,430.1,94.8c1.9,3.369,25.95,45.826,25.95,45.826,19.507-3.97,29.557-22.393,29.557-22.393l7.729,9.877c1.119,13.806.993,26.543,10.735,29.666s30.219-1,35.089-6.244,7.117-7.992,7.617-16.608a129.505,129.505,0,0,0-.873-21.355s-1.748,3.372-6.619,3.372-26.6-1.624-30.844-4-7.117-8.616-7.492-13.112.125-5.869-1.249-8.49,2.123-4.62-.749-9.74S493.578,71.615,497.7,66s7.153-10.7,8.367-9.365c4.544,4.988,15.7,4.669,16.233-2,0,0,11.425,8.461,13.772-5.07s-12.7-18.364-21.54-18.089c0,0,5.195-9.371-13.532-13.117-11.736-2.347-18.64,9.8-18.64,9.8S469.241,13.522,454.743,31.2C438.7,24.131,427.576,37.24,433.48,49.561c-9.127.2-25.2,15.343-8.509,24.3" transform="translate(-244.866 10.051)" fill="#181818"/>
    <path id="Trazado_400" data-name="Trazado 400" d="M427.151,66.766a2.192,2.192,0,1,0,.959-3.314,2.477,2.477,0,0,0-.959,3.314" transform="translate(-143.605 35.254)" fill="#181818"/>
    <path id="Trazado_401" data-name="Trazado 401" d="M394.852,3.944c1.958,1.3-2.562,21.471-3.772,22.561s-17.913-2.3-18.518-5.084S375.345,1.572,376.556.482s12.337-.489,18.3,3.462" transform="translate(-22.889 0)" fill="#00e0ee"/>
    <path id="Trazado_402" data-name="Trazado 402" d="M437.5,66.167C436.468,68.67,429.76,68.13,399,60.6s-35.016-8.945-35.343-11.563S369,22.969,389.626,13.284C400.144,8.347,411.908,9.2,423,16.642,436.72,25.856,445.14,47.731,437.5,66.167" transform="translate(-54.169 5.67)" fill="#fffeff"/>
    <path id="Trazado_403" data-name="Trazado 403" d="M309.46,139.975c1.261-.047,2.522-.125,3.767-.234.685-.062,1.354-.125,2.024-.2.872-.078,1.728-.187,2.569-.311.669-5.013,1.619-12.189,2.709-20.346.156-1.121.3-2.179.4-3.191,1.6-13.2.887-17.622-1.012-17.746-2.024-.14-4.5,2.958-7.1,17.124-.3,1.635-.591,3.425-.9,5.386v.016c-.451,2.9-.9,6.149-1.354,9.807v.016q-.56,4.437-1.105,9.683" transform="translate(148.748 54.523)" fill="#fffeff"/>
    <path id="Trazado_404" data-name="Trazado 404" d="M316.182,108.44c2.864-5.371,13.138-3.689,15.442-.047-.342-.623-4-7.254-1.4-10.445,2.724-3.331,10.056-1.043,15.053,6.273a18.849,18.849,0,0,1,3.518,11.675,23,23,0,0,1-.9,5.386v.016c-1.277,4.421-3.97,3.8-2.615,6.4a28.279,28.279,0,0,1,1.261,3.409v.016c.95,3.02,2.039,7.083,2.662,9.449-1.245.109-2.506.187-3.767.234-2.242.093-4.483.093-6.632-.031-2.693-5.355-4.686-9.48-5.262-9.589-.654-.14-10.663-.218-14.073-4.016-3.394-3.814-6.164-13.356-3.285-18.727m27.04,12.889c1.385,0,3.02-4.81.638-11.66-2.382-6.865-9.683-8.017-10.072-7.3s7.519,18.961,9.434,18.961m-22.339-3.145c1.417,4.841,9.325,10.321,12.656,7.441,1.619-1.4-5.013-12.251-8.142-13.948s-6.04,1.245-4.514,6.507" transform="translate(112.777 53.694)" fill="#00e0ee"/>
    <path id="Trazado_405" data-name="Trazado 405" d="M305.565,37.96c-.263,9.058.188,25.485-1.132,26.241s-31.877-3.207-32.632-4.527-.754-24.9,0-25.464,33.852.729,33.763,3.75" transform="translate(224.504 18.973)" fill="#0740db"/>
    <path id="Trazado_406" data-name="Trazado 406" d="M305.186,60.61c-13.176,0-32.6-3.753-33.122-2.8s-2.039,21.361-.847,22.485,31.115,6.572,32.585,6.227,3.892-25.91,1.384-25.91" transform="translate(224.522 32.096)" fill="#0740db"/>
    <path id="Trazado_407" data-name="Trazado 407" d="M304.165,85.121c-3.336-.705-29.848-5.325-30.676-4.365s-1.063,24.943,0,25.415,30.48,5.388,30.717,4.821,1.387-25.569-.04-25.871" transform="translate(222.805 44.884)" fill="#0740db"/>
    <path id="Trazado_408" data-name="Trazado 408" d="M272.934,126.472c7.021,2.039,18.245,5.106,30.791,8.5.685-10.523.607-21.809-.249-22.183-.95-.42-29.5-8.3-30.029-7.348-.374.654-.483,13.341-.514,21.031" transform="translate(223.243 58.655)" fill="#0740db"/>
    <path id="Trazado_409" data-name="Trazado 409" d="M287.493,147.981c-12.067-2.548-22.376-6.7-22.72-5.894s-1.5,15.035-5.221,25.7c-.523,1.5,23.889,10.491,24.85,10.305,2.044-.392,5.859-29.532,3.092-30.116" transform="translate(259.807 79.043)" fill="#fffeff"/>
    <path id="Trazado_410" data-name="Trazado 410" d="M308.334,143.744c-7.422-3.546-24-7.85-24.375-7.253s-2.467,23.327-1.719,24.3,24.75,10.248,24.974,9.575,2.516-25.955,1.119-26.623" transform="translate(204.407 75.953)" fill="#fffeff"/>
    <path id="Trazado_411" data-name="Trazado 411" d="M115.553,204.617c-2.021,8.7-29.611,10.954-57.341,4.793S14.92,197.8,16.632,189.073s31.31-10.131,54.931-6.879,46.215,12.838,43.989,22.423" transform="translate(810.905 100.533)" fill="#00e0ee"/>
    <path id="Trazado_412" data-name="Trazado 412" d="M72.534,204.423c-9.127-8.934-24.21-41.5-21.391-46.432s21.391,46.432,21.391,46.432" transform="translate(800.691 87.767)" fill="#fffeff"/>
    <path id="Trazado_413" data-name="Trazado 413" d="M87.552,183.415c-.741,3.009-42.176-47-39.682-47.73,11.983-3.523,43.969,30.318,39.682,47.73" transform="translate(790.007 75.393)" fill="#fffeff"/>
    <path id="Trazado_414" data-name="Trazado 414" d="M24.979,204.258c3.655-15.01,30.667-41.741,35-38.622,5.906,4.254-19.99,18.022-35,38.622" transform="translate(852.58 92.07)" fill="#fffeff"/>
    <path id="Trazado_415" data-name="Trazado 415" d="M49.555,197.347c-5.039,3.752-10.4-61-6.54-62.561,4.574-1.848,10.908,59.307,6.54,62.561" transform="translate(836.368 75.012)" fill="#fffeff"/>
    <path id="Trazado_416" data-name="Trazado 416" d="M98.428,160.556c-8.928-7.706-16.633-22.085-28.287-32.516s-23.682-17.95-23.4-19.547,25.994,1.636,36.307,17.535c9.021,13.907,16.1,32.227,15.38,34.529" transform="translate(781.071 60.193)" fill="#fffeff"/>
    <path id="Trazado_417" data-name="Trazado 417" d="M117.928,145.587c-9.869-4.936-20.36-14.894-32.719-15.249s-32.983,4.178-33.517,2.489,10.072-14.65,14.225-15.382c9.6-1.689,38.008,4.535,52.011,28.142" transform="translate(753.935 65.236)" fill="#fffeff"/>
    <path id="Trazado_418" data-name="Trazado 418" d="M62.429,145.264c-.959,1.055-10.075-26.416-12.536-31.062S42.6,87.878,43.242,86.784s13.686,13.391,16.909,24.5,3.52,32.61,2.277,33.976" transform="translate(821.969 48.28)" fill="#fffeff"/>
    <path id="Trazado_419" data-name="Trazado 419" d="M59,103.578c0,6.807-7.71,13.925-18.168,21.834-16.012,12.113-23.2,27.175-24.379,25.538s15.2-32.5,23.341-39.64S59,100.32,59,103.578" transform="translate(867.782 57.009)" fill="#fffeff"/>
    <path id="Trazado_420" data-name="Trazado 420" d="M.853,153.175c-.534-4.7,25-22.963,32.264-26.6,7.692-3.85,27.989-8.872,28.951-4.6s-19.764,11.878-28.738,14.859S1.3,157.139.853,153.175" transform="translate(888.885 66.996)" fill="#fffeff"/>
    <path id="Trazado_421" data-name="Trazado 421" d="M65.282,144.217c-.031,4.4-12.3,1.132-30.628,7.508S1.02,167.982.847,166.016,11.335,146.937,30.11,143.6c20.388-3.624,35.183-1.017,35.172.616" transform="translate(885.705 78.924)" fill="#fffeff"/>
    <path id="Trazado_422" data-name="Trazado 422" d="M226.785,241.6c1.557-8.864-3.353-14.673-4.253-14.374s-13.3,10.062-19.7,13c0,0-27.191-10.959-28.989-10.9s-5.09,6.108-1.916,13.237,13.6,11.558,20.363,9.462c0,0,5.45,7.547,14.076,5.511,0,0,10.78,9.223,23.178,2.635s15.871-23.118,9.642-27.371c-1.161-.792-7.48,5.989-12.4,8.8" transform="translate(444.524 126.489)" fill="#fffeff"/>
    <path id="Trazado_423" data-name="Trazado 423" d="M208.748,232.5c-1.323-.135-3.92,2.933-2.882,3.778,3.059,2.486,4.033-3.66,2.882-3.778" transform="translate(422.987 129.431)" fill="#181818"/>
    <path id="Trazado_424" data-name="Trazado 424" d="M212.388,232.983c.076.817-3.067,2.881-3.647,1.031s3.566-1.9,3.647-1.031" transform="translate(415.053 129.397)" fill="#181818"/>
    <path id="Trazado_425" data-name="Trazado 425" d="M195.083,236.481c-.7-.711-3.546,4.188-1.589,4.7,2.773.718,2.581-3.688,1.589-4.7" transform="translate(456.392 131.609)" fill="#181818"/>
    <path id="Trazado_426" data-name="Trazado 426" d="M188.758,235.968c-.747.8,2.1,6.017,3.98,4.057,2.432-2.533-3.117-4.986-3.98-4.057" transform="translate(465.305 131.25)" fill="#181818"/>
    <path id="Trazado_427" data-name="Trazado 427" d="M184.746,240.488c-1.381-.358-3.618,5.477-.722,5.995,3.345.6,2.106-5.635.722-5.995" transform="translate(481.867 133.87)" fill="#181818"/>
    <path id="Trazado_428" data-name="Trazado 428" d="M181.116,242.665c-1.767,1.505-5.146-3.739-4.094-4.665.716-.629,7.024,2.168,4.094,4.665" transform="translate(495.157 132.443)" fill="#181818"/>
    <path id="Trazado_429" data-name="Trazado 429" d="M478.243,97.408c-1.469-13.44-4.6-21.306-5.859-22.111-3.794-2.436-18.413-4.673-20.172,5.207-1.736,9.756,26.031,16.9,26.031,16.9" transform="translate(-229.776 40.757)" fill="#fffeff"/>
    <path id="Trazado_430" data-name="Trazado 430" d="M308.451,133.2c.872-.078,1.728-.187,2.569-.311q1.471-.21,2.849-.467c1.417-10.617,3.238-21,2.584-21.965a3.389,3.389,0,0,0-2.319-1.105,1.881,1.881,0,0,0-1.961.763c-.5,1.012-2.631,15.536-3.72,23.086" transform="translate(155.549 60.865)" fill="#181818"/>
    <path id="Trazado_431" data-name="Trazado 431" d="M609.191,404.881c-.321.216-1.815-1.463-6.3-7.79-4.357-6.4-11.772-17.433-22.462-36.761-4.989-9.167-11.669-22.038-18.265-37.231-1.666-3.789-3.238-7.762-4.888-11.8-1.515-4.1-3.194-8.241-4.6-12.559a218.7,218.7,0,0,1-7.558-26.753c-.484-2.3-1.01-4.589-1.325-6.924l-.548-3.484a30.077,30.077,0,0,1-.434-3.549,37.192,37.192,0,0,1,1.678-14.258,50.843,50.843,0,0,1,6.042-12.474,72.331,72.331,0,0,1,8.213-10.31A122.057,122.057,0,0,1,576.8,205.551a179.635,179.635,0,0,1,16.31-10.217,239.4,239.4,0,0,1,28.38-13.375c7.6-3,13.364-4.88,17.6-6.2,8.514-2.55,10.979-2.8,11.09-2.428.062.205-.442.564-1.988,1.225-1.552.646-4.136,1.622-8.213,3.126-4.061,1.547-9.631,3.594-17.015,6.708a271.42,271.42,0,0,0-27.645,13.454c-4.69,2.67-10.139,5.972-15.914,10.047a122.333,122.333,0,0,0-17.542,14.873c-5.595,5.929-10.913,12.972-13.738,21.227a34.055,34.055,0,0,0-1.845,12.855,63.666,63.666,0,0,0,.867,6.7l.532,3.4.71,3.372c.859,4.514,2.088,8.953,3.222,13.375,1.333,4.373,2.553,8.744,4.058,12.964,2.811,8.5,6.071,16.583,9.224,24.151,6.438,15.092,12.961,27.936,17.79,37.13,10.5,19.585,17.664,31,21.669,37.834,4.135,6.75,5.164,8.9,4.84,9.119" transform="translate(-542.697 96.413)" fill="#181818"/>
    <path id="Trazado_432" data-name="Trazado 432" d="M320.866,346.1c-.21-.336.7-1.256,4.2-3.836,3.5-2.6,9.625-6.825,19.521-14.256,4.676-3.512,11.11-8.462,18.291-14.323,3.6-2.913,7.358-6.1,11.211-9.426,3.864-3.31,7.84-6.712,11.823-10.123,15.942-13.635,32.034-27.322,41.474-35.253,11.06-9.334,17.975-14.594,22.426-17.136a11.364,11.364,0,0,1,5-1.792c1.031-.044,1.393.14,1.421.346s-.286.425-1.127.785a18.473,18.473,0,0,0-4.055,2.369c-3.893,2.81-10.414,8.224-21.249,17.673-9.265,8.047-25.264,21.77-41.2,35.367-3.985,3.4-7.966,6.787-11.833,10.08s-7.632,6.49-11.281,9.4c-7.257,5.845-13.785,10.758-18.568,14.2a241.742,241.742,0,0,1-20.637,13.619c-3.9,2.221-5.218,2.626-5.419,2.305" transform="translate(-3.381 133.577)" fill="#181818"/>
    <path id="Trazado_433" data-name="Trazado 433" d="M495.836,206.347c.011.386-1.582.741-7.161,1.11-2.822.193-6.488.271-11.471.918-2.48.311-5.266.735-8.35,1.379A41.106,41.106,0,0,0,459,212.94c-13.363,6.507-36.663,19.437-60.244,32.136-5.887,3.193-11.811,6.361-17.654,9.381-5.83,3.067-11.674,5.668-17.131,8.233-10.954,5.069-20.687,9.474-27.871,12.7-16.873,7.562-26.984,11.892-32.915,14.248s-7.682,2.732-7.854,2.343c-.352-.8,5.629-3.931,38.95-19.362,7.1-3.3,16.755-7.776,27.661-12.835,5.43-2.572,11.232-5.182,16.977-8.176l8.732-4.575,8.812-4.742c23.554-12.659,46.847-25.418,60.532-31.861.911-.434,1.845-.825,2.745-1.214l1.426-.535,1.362-.416q2.7-.766,5.143-1.23a87.1,87.1,0,0,1,8.775-1.225c2.6-.237,4.871-.339,6.867-.367,2.016-.017,3.689.048,5.106.073,5.694.149,7.4.442,7.415.831" transform="translate(-3.255 114.368)" fill="#181818"/>
    <path id="Trazado_434" data-name="Trazado 434" d="M455.634,168.076c-.3.056-.551-.227-1.037-1.143a17.84,17.84,0,0,0-1.077-1.814,9.551,9.551,0,0,0-2.312-2.413,4.245,4.245,0,0,0-4.208-.686c-1.49.682-2.352,2.978-2.055,5.232a9.309,9.309,0,0,0,2.939,5.8,4.408,4.408,0,0,0,4.254,1.228,3.949,3.949,0,0,0,2.267-2.363,10.674,10.674,0,0,0,.59-2.243c.167-1.149.3-1.54.638-1.6.288-.05.683.21.94,1.541a7.178,7.178,0,0,1-.151,2.892,6.493,6.493,0,0,1-.947,2.086,5.45,5.45,0,0,1-2.349,1.938,5.77,5.77,0,0,1-3.353.313,7.775,7.775,0,0,1-3.5-1.729,11.6,11.6,0,0,1-3.949-7.422,9.444,9.444,0,0,1,.462-4.457,6.26,6.26,0,0,1,2.927-3.439,5.735,5.735,0,0,1,4.027-.422,7.318,7.318,0,0,1,2.743,1.361,9.686,9.686,0,0,1,2.695,3.311,8.208,8.208,0,0,1,.792,2.394c.168,1.2-.076,1.586-.341,1.633" transform="translate(-192.794 88.623)" fill="#fffeff"/>
    <path id="Trazado_435" data-name="Trazado 435" d="M457.488,134.849c.1-.4.845-.249,1.91.525a45.776,45.776,0,0,1,5.406,5.039c4.969,5.1,16.915,18.738,21.563,24.605,5.473,6.877,6.037,8.579,5.378,9.1-.688.54-2.044-.4-7.8-6.892-4.9-5.55-16.766-19.164-21.345-24.586a64.171,64.171,0,0,1-4.57-5.881c-.766-1.175-.654-1.5-.539-1.905" transform="translate(-251.703 74.951)" fill="#fffeff"/>
    <path id="Trazado_436" data-name="Trazado 436" d="M426.611,273.85c-.117-.59.82-1.085,5.7-2.639,2.305-.741,6.414-2.021,10.5-3.456,4.094-1.418,8.168-2.973,10.545-3.885,5.573-2.153,6.739-2.349,7.025-1.74.26.554-.526,1.479-6.01,3.976-2.34,1.063-6.44,2.7-10.586,4.122-4.141,1.435-8.331,2.637-10.726,3.208-5.131,1.213-6.348.967-6.454.414" transform="translate(-172.215 145.759)" fill="#fffeff"/>
    <path id="Trazado_437" data-name="Trazado 437" d="M452.005,204.079c.3-.19,1.034.4,2.285,2.956a134.9,134.9,0,0,1,5.49,14.521c4.807,14.2,15.664,50.772,20.1,65.833,5.168,17.7,5.995,21.056,5.153,21.375-.757.291-2.615-2.7-8.208-20.172-4.815-14.9-15.6-51.419-19.916-65.735-2.3-7.653-3.635-12.307-4.4-15.02-.739-2.709-.872-3.54-.506-3.758" transform="translate(-236.348 113.591)" fill="#fffeff"/>
    <path id="Trazado_438" data-name="Trazado 438" d="M439.694,266.562c.275.092.335.722-.073,2.692-.2.987-.542,2.3-.976,4.063-.374,1.781-.973,3.977-1.554,6.758a136.721,136.721,0,0,0-3.232,24.2,101.824,101.824,0,0,0,1.852,24.635,95.2,95.2,0,0,0,3.471,12.256c.766,2.139.8,2.833.511,2.98s-.774-.288-1.932-2.291a49.47,49.47,0,0,1-4.412-12.233,95.29,95.29,0,0,1-2.158-25.2,121.582,121.582,0,0,1,3.555-24.618A76,76,0,0,1,438.2,268.9c.8-1.919,1.216-2.427,1.491-2.335" transform="translate(-158.675 148.388)" fill="#fffeff"/>
    <path id="Trazado_439" data-name="Trazado 439" d="M485.169,98.9c.543.216.638,1-.408,4.254-1.007,3.071-3.8,10.8-4.98,13.971-1.407,3.713-1.972,4.326-2.6,4.139-.6-.176-.825-1.012.254-4.86a133.17,133.17,0,0,1,5.112-14.018c1.438-3.169,2.086-3.7,2.625-3.487" transform="translate(-275.304 55.034)" fill="#181818"/>
    <path id="Trazado_440" data-name="Trazado 440" d="M442.315,163.445c-.12-.283.223-.623,1.357-1.468a11.439,11.439,0,0,0,2.041-1.941,4.586,4.586,0,0,0,.842-1.65,6,6,0,0,0-.034-2.446,129.563,129.563,0,0,1,.442-18.43,112.193,112.193,0,0,1,2.872-18.54,32.807,32.807,0,0,1,3.764-9.024c.973-1.46,1.465-1.715,1.734-1.558.285.165.26.672-.3,2.225a77.2,77.2,0,0,0-2.782,8.845,134.658,134.658,0,0,0-2.625,18.1,177.143,177.143,0,0,0-.772,18.047c.026.537.05,1.051.073,1.54a5.138,5.138,0,0,1-.234,1.7,6.179,6.179,0,0,1-1.4,2.379,8.514,8.514,0,0,1-2.833,1.988c-1.508.61-2.041.487-2.145.237" transform="translate(-191.724 60.316)" fill="#181818"/>
    <path id="Trazado_441" data-name="Trazado 441" d="M305.111,214.375c-.184-.531.215-1.144,2.964-2.151a35.282,35.282,0,0,1,6.141-1.48,29.517,29.517,0,0,1,6.473-.319c3.473.344,4.021,1.046,3.9,1.627-.125.676-.767.809-3.931.83a49.535,49.535,0,0,0-6,.479c-2.313.325-4.6.833-5.894,1.1-2.772.595-3.464.479-3.66-.089" transform="translate(152.791 117.108)" fill="#181818"/>
    <path id="Trazado_442" data-name="Trazado 442" d="M315.8,220.057c-.251.145-.554.129-1.009-.2s-1.052-.975-2.232-1.773a13.416,13.416,0,0,0-5.808-2.168,29.455,29.455,0,0,0-6.649-.121c-3.583.318-4.335.28-4.513-.391-.157-.565.367-1.328,4.163-2.041a23.568,23.568,0,0,1,7.334-.081,13.535,13.535,0,0,1,6.862,2.909,7.511,7.511,0,0,1,1.462,1.641,3.644,3.644,0,0,1,.579,1.191c.184.623.065.886-.188,1.031" transform="translate(176.118 118.595)" fill="#181818"/>
    <path id="Trazado_443" data-name="Trazado 443" d="M291.215,252.15c-.039-.3.322-.548,1.529-.992a31.063,31.063,0,0,0,6.334-3.043c.727-.455,1.58-1.031,2.522-1.712l1.473-1.1c.238-.195.553-.406.743-.6s.4-.36.582-.579c1.507-1.792,2.268-4.852,2.531-7.832a28.967,28.967,0,0,0-.576-8.75,11.746,11.746,0,0,0-2.838-5.771,6.346,6.346,0,0,0-4.077-1.689,28.287,28.287,0,0,0-3-.026c-1.485.05-1.954-.086-2.022-.413-.062-.3.255-.672,1.728-1.136a12.7,12.7,0,0,1,3.277-.531,9.234,9.234,0,0,1,2.615.286,7.5,7.5,0,0,1,3.036,1.608,10.565,10.565,0,0,1,2.273,2.886,18.407,18.407,0,0,1,1.524,4.023,30.381,30.381,0,0,1,.724,9.574,24.337,24.337,0,0,1-.9,4.9,12.046,12.046,0,0,1-2.232,4.395,17.434,17.434,0,0,1-3.288,2.674c-1.007.69-1.933,1.273-2.741,1.722a17.963,17.963,0,0,1-7.327,2.536c-1.42.09-1.854-.153-1.887-.425" transform="translate(189.282 121.342)" fill="#181818"/>
    <path id="Trazado_444" data-name="Trazado 444" d="M298.114,246.025c-.037-.286.179-.573.959-.911.777-.355,2.122-.817,4.29-1.831a68.5,68.5,0,0,0,9.048-5.193c1.719-1.143,3.411-2.344,4.936-3.439,1.561-1.11,2.842-2.017,3.759-2.783,1.079-.88,1.961-1.652,2.769-2.211a7.931,7.931,0,0,1,2.007-1.049c1.038-.322,1.4-.143,1.524.139.132.307-.034.623-.741,1.231-.349.311-.817.7-1.427,1.283s-1.378,1.4-2.464,2.413a42.589,42.589,0,0,1-3.806,3.037c-1.512,1.126-3.23,2.366-5,3.532a51.157,51.157,0,0,1-9.589,5.159,14.444,14.444,0,0,1-4.982,1.136c-.956-.028-1.247-.224-1.284-.514" transform="translate(160.787 127.169)" fill="#181818"/>
    <path id="Trazado_445" data-name="Trazado 445" d="M479.558,97.833c-.072.279-.542.416-1.989.2a46.725,46.725,0,0,1-7.8-2.14,63.492,63.492,0,0,1-7.217-3.032,37.728,37.728,0,0,1-4.335-2.5,18.574,18.574,0,0,1-4.136-3.64,9.643,9.643,0,0,1-1.527-2.593,6.676,6.676,0,0,1-.36-3.155,9.641,9.641,0,0,1,2.4-5.087,10.2,10.2,0,0,1,4.183-2.609,15.509,15.509,0,0,1,3.772-.769,20.723,20.723,0,0,1,6.082.444,15.512,15.512,0,0,1,3.439,1.139c1.568.813,1.806,1.4,1.635,1.631-.2.294-.63.218-2.13-.132-.766-.143-1.793-.389-3.222-.551a23.3,23.3,0,0,0-5.447-.1,10.535,10.535,0,0,0-6.312,2.629,7.518,7.518,0,0,0-1.756,3.632,4.84,4.84,0,0,0,1.222,3.736c1.9,2.4,4.893,4.167,7.5,5.557,2.648,1.389,5.1,2.416,6.868,3.141,3.8,1.538,6.154,2.374,7.5,2.983s1.712.932,1.639,1.217" transform="translate(-231.091 40.331)" fill="#181818"/>
    <path id="Trazado_446" data-name="Trazado 446" d="M415.1,40.159c.244-.369,2.727.651,7.648,9.753A216.517,216.517,0,0,1,431.9,70.031l2.416,5.929.3.7c.1.252.2.459.271.595a1.647,1.647,0,0,0,.276.441c.157.167.285.327.461.5.665.683,1.393,1.359,2.1,2.011,1.417,1.312,2.782,2.544,3.988,3.75A22.366,22.366,0,0,1,443.4,85.8a5.99,5.99,0,0,1,.729,1.115,5.424,5.424,0,0,1,.433,1.171,5.271,5.271,0,0,1-.031,2.7,7.514,7.514,0,0,1-.922,2.041,17.191,17.191,0,0,1-2.137,2.615,5.451,5.451,0,0,0-1.158,1.684,5.534,5.534,0,0,0-.237,1.533c-.055,2-.248,2.635-.576,2.646s-.634-.461-1-2.511a6.05,6.05,0,0,1-.012-2.064,6.233,6.233,0,0,1,1.292-2.548,20.664,20.664,0,0,0,1.789-2.436,3.963,3.963,0,0,0,.645-2.922,3.369,3.369,0,0,0-.68-1.331,17.922,17.922,0,0,0-1.494-1.588c-1.15-1.121-2.508-2.326-3.946-3.629-.721-.659-1.462-1.329-2.22-2.088a7.966,7.966,0,0,1-1.172-1.392,17.3,17.3,0,0,1-.75-1.607l-2.43-5.948c-3.2-7.97-6.616-15.763-8.749-20.041-4.505-9.2-6.194-10.515-5.673-11.04" transform="translate(-138.467 22.322)" fill="#181818"/>
    <path id="Trazado_447" data-name="Trazado 447" d="M423.377,85.992c.635-.479,1.292-.349,2.9,1.124a21.6,21.6,0,0,0,3.434,2.757,9.923,9.923,0,0,0,3.9,1.294c2.295.209,2.945.464,3.1,1.361a1.03,1.03,0,0,1-.4,1.129,4.95,4.95,0,0,1-2.774.786,10.185,10.185,0,0,1-5.606-1.508,13.921,13.921,0,0,1-3.976-3.716c-1.387-2.039-1.18-2.772-.578-3.225" transform="translate(-142.787 47.733)" fill="#fffeff"/>
    <path id="Trazado_448" data-name="Trazado 448" d="M432.473,61.528c-.525-.12-.95-.7-.145-2.621a9.966,9.966,0,0,1,2.76-3.471,11.09,11.09,0,0,1,3.963-2.077,4.4,4.4,0,0,1,2.274-.156.767.767,0,0,1,.62.679.867.867,0,0,1-.3.867,7.824,7.824,0,0,1-1.75.917,14.606,14.606,0,0,0-3.109,1.812,12.818,12.818,0,0,0-2.4,2.556c-.967,1.357-1.312,1.649-1.912,1.494" transform="translate(-161.968 29.57)" fill="#181818"/>
    <path id="Trazado_449" data-name="Trazado 449" d="M405.829,133.67c.118-.265.814-.181,3.029.735a44.968,44.968,0,0,1,4.368,2.346c1.792,1.183,4.069,2.646,6.709,4.721a197.959,197.959,0,0,1,21.274,19.5,278.556,278.556,0,0,1,19.2,22.128,121.533,121.533,0,0,1,8.649,12.407c1.348,2.335,1.543,3.087,1.275,3.264s-.887-.265-2.536-2.315l-3.414-4.354c-1.462-1.93-3.383-4.309-5.767-7.313-4.091-5.112-11.376-13.705-19.124-21.767a235.427,235.427,0,0,0-20.769-19.516c-2.566-2.144-4.731-3.7-6.432-5-1.768-1.175-3.053-2.153-4.052-2.774-2-1.242-2.534-1.793-2.414-2.059" transform="translate(-149.866 74.34)" fill="#fffeff"/>
    <path id="Trazado_450" data-name="Trazado 450" d="M440.017,165.972c-.792.207-1.893-2.649-6.35-16.952-1.069-3.376-2.544-8.064-4.312-13.381l-1.384-4.091q-.364-1.039-.735-2.1c-.277-.778-.5-1.522-.722-2.262a29.9,29.9,0,0,0-1.477-4.139,5.005,5.005,0,0,0-2.242-2.581,8.624,8.624,0,0,0-1.884-.486c-.722-.125-1.471-.221-2.226-.3-1.512-.153-3.045-.244-4.564-.291-3.035-.095-6.021-.058-8.8.114-.7.042-1.373.1-2.036.162q-1.079.105-2.139.156a25.131,25.131,0,0,1-4.108-.14,30.132,30.132,0,0,1-6.656-1.677c-2.131-.758-3.937-1.588-5.515-2.158-1.62-.588-3.1-1.074-4.407-1.515-2.625-.872-4.585-1.566-6-2.172-2.841-1.21-3.467-2-3.274-2.362.206-.4.99-.308,3.851.338,1.435.327,3.4.78,6.07,1.462,1.336.346,2.849.747,4.561,1.281,1.754.534,3.569,1.3,5.562,1.954a29.558,29.558,0,0,0,5.943,1.432,22.194,22.194,0,0,0,3.549.115q.939-.042,1.924-.145c.665-.064,1.424-.148,2.142-.2,2.919-.216,5.973-.269,9.125-.2,1.577.047,3.174.126,4.8.279a23.786,23.786,0,0,1,5.087.925,7.958,7.958,0,0,1,4.24,4.13,27.548,27.548,0,0,1,1.728,4.669c.817,2.843,1.908,5.707,2.726,8.394,1.72,5.372,3.11,10.112,4.069,13.545,4.032,14.708,4.164,18,3.454,18.187" transform="translate(-65.82 60.992)" fill="#181818"/>
    <path id="Trazado_451" data-name="Trazado 451" d="M416.564,95.672a.968.968,0,0,1-.56.61c-.3.128-.7.218-1.365.472a11.173,11.173,0,0,0-2.928,1.814c-1.138.928-2.263,1.991-2.961,2.578-1.633,1.392-2.214,1.418-2.674.962s-.487-1.015.92-2.682a23.97,23.97,0,0,1,3.029-2.908,9.36,9.36,0,0,1,4.01-2.031,2.927,2.927,0,0,1,2.26.366.667.667,0,0,1,.269.82" transform="translate(-96.013 52.567)" fill="#181818"/>
    <path id="Trazado_452" data-name="Trazado 452" d="M406.55,111.017c-.518-.1-.884-1.278.649-6.21a41.868,41.868,0,0,1,4.915-10.02,27.426,27.426,0,0,1,8.2-8.047c.677-.378,1.287-.729,1.838-1l1.491-.61a18.516,18.516,0,0,1,2.053-.7c1.009-.258,1.367-.139,1.5.156s0,.648-.81,1.264a17.493,17.493,0,0,1-1.759,1.141l-1.353.761c-.489.294-.987.654-1.572,1.021a28.711,28.711,0,0,0-7.34,7.424,52.42,52.42,0,0,0-4.925,9.314c-1.859,4.637-2.27,5.64-2.888,5.508" transform="translate(-107.113 46.922)" fill="#181818"/>
    <path id="Trazado_453" data-name="Trazado 453" d="M333.315,80.948c.022-.341,1.09-.764,4.784-.335,3.663.417,10.086,2.444,18.338,8.895a101.52,101.52,0,0,1,13.956,13.618,201.032,201.032,0,0,1,15.08,20.114c4.826,7.243,9.27,14.765,13.145,21.543,3.856,6.77,7.243,12.793,9.667,17.279a189.857,189.857,0,0,1,10.154,20.919c1.482,3.876,1.563,5.075,1.183,5.235-.408.174-1.116-.708-3.048-4.254s-5.149-9.74-11-20.025c-2.517-4.388-5.933-10.344-9.793-17.074-3.885-6.712-8.268-14.132-13.009-21.294a211.816,211.816,0,0,0-14.664-19.854,109.416,109.416,0,0,0-13.262-13.462,57.552,57.552,0,0,0-10.167-6.943,31.937,31.937,0,0,0-6.831-2.76c-3.462-.932-4.572-1.171-4.536-1.6" transform="translate(13.619 44.776)" fill="#181818"/>
    <path id="Trazado_454" data-name="Trazado 454" d="M407.454,84.465c.121.263,0,.6-.593,1.13a24.412,24.412,0,0,0-2.937,3.18,12.8,12.8,0,0,0-1.79,3.624,9.465,9.465,0,0,0-.154,5.075,14.129,14.129,0,0,0,2.391,4.771,16.613,16.613,0,0,0,2.78,3.215,6.277,6.277,0,0,0,4.231,1.456c.937.059,1.266.241,1.323.565.056.308-.12.634-1.073.992a6.107,6.107,0,0,1-2.215.341,6.685,6.685,0,0,1-3.7-1.356,19.734,19.734,0,0,1-6.288-9.258,11.706,11.706,0,0,1,.221-6.448A13.083,13.083,0,0,1,402,87.431a9.991,9.991,0,0,1,4.085-3.074c.914-.265,1.244-.156,1.365.109" transform="translate(-81.653 46.876)" fill="#181818"/>
    <path id="Trazado_455" data-name="Trazado 455" d="M403.591,106.014c-.081.277-.361.43-1.224.3a4.989,4.989,0,0,1-1.734-.523l-1.2-.643a9.138,9.138,0,0,1-1.336-1.068,7.787,7.787,0,0,1-1.4-1.591,11.561,11.561,0,0,1-1.3-2.3,14.236,14.236,0,0,1-1.006-5.975,14.725,14.725,0,0,1,4.262-9.8,10.569,10.569,0,0,1,2.934-1.98,9.11,9.11,0,0,1,1.115-.456c.342-.072.635-.121.884-.151,1-.12,1.292.059,1.368.372s-.1.646-.825,1.11c-.182.115-.4.237-.657.367s-.509.371-.825.576a12.794,12.794,0,0,0-2.206,1.842,13.33,13.33,0,0,0-3.4,8.149,12.934,12.934,0,0,0,.69,4.9,10.722,10.722,0,0,0,1.954,3.21c.364.353.644.736.971,1s.637.475.9.688a12.579,12.579,0,0,0,1.306.9c.645.462.8.789.724,1.069" transform="translate(-66.578 45.537)" fill="#181818"/>
    <path id="Trazado_456" data-name="Trazado 456" d="M396.538,80.871c.044.294-.17.562-.831.94a10.365,10.365,0,0,0-3.106,2.671,15.125,15.125,0,0,0-2.933,8.761,7.975,7.975,0,0,0,1.438,4.7,12.35,12.35,0,0,0,2.961,2.843c2.123,1.462,3.644,2.052,4.435,2.576.823.472,1,.8.912,1.115s-.4.484-1.392.388a14.1,14.1,0,0,1-5.234-1.979,13.294,13.294,0,0,1-3.748-3.339,10.261,10.261,0,0,1-2.024-6.23,16.09,16.09,0,0,1,3.725-10.268,7.315,7.315,0,0,1,4.494-2.623c.971-.068,1.263.165,1.3.441" transform="translate(-49.599 44.768)" fill="#181818"/>
    <path id="Trazado_457" data-name="Trazado 457" d="M372.661,184.843c-.584.054-1.04-.97-1.834-6.172-.366-2.525-.992-6.85-1.628-11.222-.649-4.393-1.371-8.8-1.8-11.372-.988-6.034-.939-7.237-.286-7.391.595-.142,1.339.848,2.684,6.851.581,2.559,1.373,6.99,2.011,11.411s1.138,8.83,1.334,11.328c.411,5.344.093,6.515-.483,6.568" transform="translate(8.226 82.766)" fill="#fffeff"/>
    <path id="Trazado_458" data-name="Trazado 458" d="M331.254,161.891c.2-.207.7-.106,1.879.649a36.773,36.773,0,0,0,7.1,3.267,72.279,72.279,0,0,0,17.265,3.154,167.866,167.866,0,0,0,18.064.26c4.816-.149,7.689-.279,9.367-.232s2.162.271,2.2.59-.378.621-2.007.976a66.634,66.634,0,0,1-9.306,1.113,130.008,130.008,0,0,1-18.333-.047,65.209,65.209,0,0,1-17.86-3.549,21.451,21.451,0,0,1-7.334-4.34c-1.068-1.169-1.231-1.633-1.029-1.842" transform="translate(49.634 90.071)" fill="#fffeff"/>
    <path id="Trazado_459" data-name="Trazado 459" d="M326.438,8.044c.521-.526,3.216,1.292,14.012,12.545,10.254,10.6,35.455,38.449,45.493,50.245,11.831,13.8,13.518,16.92,12.883,17.438-.693.567-3.1-1.711-15.179-15.089-10.316-11.448-35.343-39.218-45.238-50.2C327.9,11.255,325.866,8.617,326.438,8.044" transform="translate(45.334 4.433)" fill="#181818"/>
    <path id="Trazado_460" data-name="Trazado 460" d="M365.375,37.3c.314-.753,2.279-.31,12.366,2.047,9.533,2.211,33.86,8.272,43.869,10.315a72.05,72.05,0,0,0,11.2,1.806,7.746,7.746,0,0,0,1.624-.142,1.064,1.064,0,0,1,.732-.067c.19.078.327.283.151.836a3.226,3.226,0,0,1-2.162,1.451c-2.3.568-6,.377-11.988-.634-10.252-1.673-34.485-7.766-43.975-10.477-10.148-2.914-12.109-4.454-11.812-5.136" transform="translate(-51.825 20.578)" fill="#181818"/>
    <path id="Trazado_461" data-name="Trazado 461" d="M363.309,49.664c-.361.095-.872-1.13-.212-4.49a37.859,37.859,0,0,1,2.044-6.856,51.724,51.724,0,0,1,5.579-10.534,46.966,46.966,0,0,1,13.213-12.852,21.746,21.746,0,0,1,2.444-1.423c.848-.444,1.683-.934,2.578-1.351a33.924,33.924,0,0,1,5.7-2.044,32.7,32.7,0,0,1,12.531-.775,36.285,36.285,0,0,1,11.957,3.812,47.972,47.972,0,0,1,5.173,3.12l2.365,1.856,2.12,1.974a44.675,44.675,0,0,1,12.589,29.845,37.522,37.522,0,0,1-.227,4.773c-.081.683-.134,1.315-.233,1.895-.121.568-.234,1.094-.338,1.585a15.109,15.109,0,0,1-1.25,3.787c-.347.69-.6.892-.8.833s-.333-.36-.335-1.1c-.039-.746.21-1.9.293-3.747.078-.917.188-2,.177-3.278a43.185,43.185,0,0,0-.086-4.429,47.082,47.082,0,0,0-2.724-12.614,43.194,43.194,0,0,0-9.278-14.832l-1.913-1.782c-.663-.576-1.376-1.087-2.069-1.645a40.291,40.291,0,0,0-4.74-2.917A33.55,33.55,0,0,0,407.127,12.9a29.845,29.845,0,0,0-11.191.5,31.586,31.586,0,0,0-5.159,1.737c-.825.339-1.6.8-2.38,1.2-.769.428-1.571.775-2.284,1.25a45.821,45.821,0,0,0-12.575,11.657,57.961,57.961,0,0,0-5.864,9.854,64.62,64.62,0,0,0-2.66,6.446c-1.146,3.2-1.289,4.047-1.7,4.122" transform="translate(-53.827 5.043)" fill="#181818"/>
    <path id="Trazado_462" data-name="Trazado 462" d="M346.047,200.71c-.772.044-1.571-4.575-3.218-27.53-1.557-21.7-4.91-77.064-6.08-99.892-1.376-26.8-1.136-31.912-.28-31.97s1.691,4.793,3.526,31.391c1.566,22.692,4.865,77.983,5.923,99.741,1.133,23.266.908,28.217.129,28.26" transform="translate(82.908 23.001)" fill="#181818"/>
    <path id="Trazado_463" data-name="Trazado 463" d="M400.307,135.338c.153.559-.427,1.129-3.736,2.273-3.129,1.082-11.225,3.394-14.6,4.194-3.968.94-4.827.757-5.006.139s.422-1.21,4.275-2.484c3.286-1.087,11.4-3.364,14.634-4.086,3.462-.772,4.286-.6,4.438-.034" transform="translate(-34.795 75.072)" fill="#181818"/>
    <path id="Trazado_464" data-name="Trazado 464" d="M336.232,128.976c-.237-.529.02-1.074,2-2.159a70.535,70.535,0,0,1,9.018-3.842c2.536-.8,3.19-.525,3.369.079.188.626-.118,1.107-2.442,2.195-1.989.92-6.944,3.011-8.957,3.7-2.154.725-2.749.567-2.987.031" transform="translate(78.339 68.185)" fill="#181818"/>
    <path id="Trazado_465" data-name="Trazado 465" d="M335.586,125.582a1.044,1.044,0,0,1-1.314.729,11.277,11.277,0,0,1-3.157-1.22c-.775-.506-.781-.951-.542-1.547s.545-.911,1.451-.735a11.464,11.464,0,0,1,3.123,1.326,1.044,1.044,0,0,1,.439,1.448" transform="translate(102.199 68.34)" fill="#181818"/>
    <path id="Trazado_466" data-name="Trazado 466" d="M308.827,134.853c-.17.554-.4.89-1.062.894a7.313,7.313,0,0,1-2.615-.757c-.643-.386-.648-.817-.448-1.429s.451-.959,1.191-.912a7.225,7.225,0,0,1,2.553.853,1.033,1.033,0,0,1,.381,1.351" transform="translate(169.229 73.842)" fill="#181818"/>
    <path id="Trazado_467" data-name="Trazado 467" d="M418.218,236.265c-.288.5-2.19-.146-10.719-4.844-8.064-4.443-28.393-16.169-36.688-21.138-9.74-5.833-11.4-7.265-11.076-7.822s2.318.128,12.17,5.618c8.406,4.684,28.681,16.423,36.567,21.2,8.431,5.1,10.041,6.485,9.746,6.991" transform="translate(-25.889 112.62)" fill="#181818"/>
    <path id="Trazado_468" data-name="Trazado 468" d="M375.978,329.341c-.146.251-1.33-.157-5.1-2.128s-10.145-5.508-20.664-11.512c-19.893-11.356-70.369-40.7-91.09-52.934-12.161-7.179-19.348-11.53-23.455-14.157s-5.131-3.527-4.969-3.806,1.406.145,5.654,2.379,11.5,6.286,23.671,13.266c20.771,11.91,71.152,41.246,90.875,52.939,10.545,6.25,16.89,10.112,20.561,12.475s4.669,3.225,4.521,3.478" transform="translate(217.212 136.24)" fill="#181818"/>
    <path id="Trazado_469" data-name="Trazado 469" d="M409.7,243.637c-.409.655-2.007.255-8.677-3.678-6.308-3.72-22.06-13.727-28.435-18.027-7.485-5.047-8.627-6.423-8.157-7.141s2.156-.286,9.837,4.328c6.554,3.937,22.228,13.953,28.268,18.1,6.457,4.429,7.578,5.763,7.164,6.423" transform="translate(-24.641 119.42)" fill="#181818"/>
    <path id="Trazado_470" data-name="Trazado 470" d="M217.924,250.794c.406-.658,6.049,2.212,32.722,18.35,25.218,15.259,89.183,54.682,115.429,71.107,15.405,9.641,24.5,15.481,29.688,19s6.468,4.723,6.241,5.087-1.824-.212-7.221-3.221-14.594-8.453-30.021-17.829c-26.325-16-90.153-55.4-115.13-71.1-26.708-16.786-32.116-20.735-31.707-21.4" transform="translate(211.065 139.568)" fill="#181818"/>
    <path id="Trazado_471" data-name="Trazado 471" d="M343.1,124.07c.157.509-.755,1.381-6,2.458-1.238.282-2.983.4-4.969.623-1.991.17-4.223.507-6.484.507a49.364,49.364,0,0,1-11.742-1.013,13.686,13.686,0,0,1-5.733-2.483c-.872-.764-.912-1.2-.719-1.431.212-.262.571-.263,1.494.058a31.9,31.9,0,0,0,5.38,1.434,59.667,59.667,0,0,0,11.161.783c2.186.014,4.346-.279,6.278-.4,1.927-.173,3.636-.205,4.848-.38,5.193-.654,6.311-.766,6.487-.16" transform="translate(130.721 68.218)" fill="#181818"/>
    <path id="Trazado_472" data-name="Trazado 472" d="M340.973,157.008c.21.184.232.559-.35,1.359a12.528,12.528,0,0,1-4.214,3.2,32.278,32.278,0,0,1-11.026,3.239,18.465,18.465,0,0,1-6.72-.428,22.3,22.3,0,0,1-4.9-1.891,14.99,14.99,0,0,1-4.819-3.725c-.671-.881-.652-1.3-.425-1.507.243-.226.6-.185,1.456.313a48.185,48.185,0,0,0,4.812,2.684,19.176,19.176,0,0,0,10.218,1.926,36.372,36.372,0,0,0,10.288-2.674,40.152,40.152,0,0,0,4.332-2.2c.769-.433,1.119-.49,1.347-.29" transform="translate(131.143 87.344)" fill="#181818"/>
    <path id="Trazado_473" data-name="Trazado 473" d="M311.437,172.856c-.609-.062-.732-1.608-.959-9.455-.1-3.7-.243-10.332-.121-16.993.095-6.638.167-13.325.087-17.187q-.026-1.7-.1-3.042c-.022-.445-.053-.864-.093-1.233a7.812,7.812,0,0,0-.126-.827,2.628,2.628,0,0,0-.92-.9c-.4-.272-.786-.486-1.113-.668-1.339-.711-1.728-1.031-1.633-1.356.082-.291.556-.5,2.164-.129a7.941,7.941,0,0,1,1.431.493,4.212,4.212,0,0,1,1.89,1.508,4.7,4.7,0,0,1,.475,1.443c.092.445.153.889.21,1.364.117.945.2,1.982.262,3.134.238,3.931.235,10.621.12,17.268-.073,6.613-.146,13.173-.188,16.934-.165,7.989-.834,9.712-1.387,9.648" transform="translate(162.168 67.285)" fill="#181818"/>
    <path id="Trazado_474" data-name="Trazado 474" d="M335.681,120.551c.039.3-.377.567-1.82,1.007-.718.227-1.7.49-2.951.932a18.487,18.487,0,0,0-2.031.852,5.507,5.507,0,0,0-1.9,1.421,1.357,1.357,0,0,0-.2.389,1.415,1.415,0,0,0-.054.523c-.008.595-.019,1.23-.03,1.9-.006,1.376-.014,2.9-.023,4.521-.012,3.255-.026,6.909-.041,10.575-.025,7.33-.05,14.7-.064,19.037-.076,10.122-.243,12-.909,12.061-.613.058-1.267-1.817-1.546-11.9-.126-4.3-.179-11.685-.135-19.02.044-3.668.089-7.323.129-10.581.04-1.627.081-3.154.115-4.535q.047-1.051.089-1.982c.008-.157.016-.31.023-.461a5.114,5.114,0,0,1,.109-.644,3.612,3.612,0,0,1,.515-1.087,6.791,6.791,0,0,1,2.85-2.122,15.989,15.989,0,0,1,2.422-.806,18.135,18.135,0,0,1,3.324-.5c1.607-.075,2.1.142,2.134.42" transform="translate(112.318 66.868)" fill="#181818"/>
    <path id="Trazado_475" data-name="Trazado 475" d="M309.023,131c-.525-.068-.8-2.361.753-13.439.386-2.347.878-5.512,1.751-9.164a49.582,49.582,0,0,1,1.726-5.8,17.722,17.722,0,0,1,1.485-3.084l.551-.777c.237-.257.478-.512.738-.758a3.619,3.619,0,0,1,2.47-.88,6,6,0,0,1,.883.238,2.568,2.568,0,0,1,.739.536,3.822,3.822,0,0,1,.785,1.222,8.968,8.968,0,0,1,.526,2.14,26.388,26.388,0,0,1,.195,3.956c-.034,2.575-.249,5.069-.489,7.436-.5,4.737-1.15,8.929-1.575,11.94-1.887,12.837-2.618,15.221-3.257,15.136s-.727-2.486.8-15.287c.346-3.042.95-7.279,1.409-11.962.224-2.341.427-4.805.456-7.254a24.64,24.64,0,0,0-.165-3.579,6.63,6.63,0,0,0-.347-1.51,2.111,2.111,0,0,0-.2-.356c0-.02,0-.012,0-.012a1.232,1.232,0,0,0-.525.254l-.392.4-.38.532a14.957,14.957,0,0,0-1.252,2.553,49.58,49.58,0,0,0-1.677,5.389c-.884,3.479-1.441,6.552-1.9,8.828-1.971,11.029-2.48,13.386-3.112,13.3" transform="translate(150.262 54.051)" fill="#181818"/>
    <path id="Trazado_476" data-name="Trazado 476" d="M317.405,104.176c.465-.305,1.476.353,3.94,4.854,1.168,2.126,3,6.01,4.648,10s3.16,8.053,3.948,10.458c1.852,5.646,1.789,6.853,1.194,7.057-.62.212-1.319-.691-3.475-6.138-.915-2.324-2.463-6.323-4.079-10.259s-3.313-7.8-4.287-9.969c-2.084-4.642-2.4-5.668-1.89-6" transform="translate(127.027 57.959)" fill="#fffeff"/>
    <path id="Trazado_477" data-name="Trazado 477" d="M295,214.143c.335-.694,3.347.132,16.97,6.264l5.329,2.428c.051-.006-.026.011.128-.04l.775-.28c.539-.207,1.1-.439,1.672-.685,1.136-.49,2.323-1.035,3.5-1.631.831-.428.584-.313.641-.346.009-.011.037-.031.006-.039l-.059-.022c-.6-.321-1.261-.68-1.923-1.006-2.634-1.35-5.423-2.668-8.213-3.991-5.592-2.628-11.267-5.206-16.406-7.5-2.572-1.138-5.008-2.215-7.236-3.2-2.052-.872-3.909-1.661-5.508-2.343-.034,0,.017-.011-.087.017-.134.039-.247.073-.349.1l-.567.2c-.951.367-1.885.8-2.754,1.213q-.644.325-1.258.63l-.6.313-.107.045c-.093.05-.31.1-.336.212a2.192,2.192,0,0,0,.3.244l.134.089.431.241c.286.159.56.313.828.462l1.487.837,2.354,1.371c2.617,1.583,3.221,2.262,3.032,2.649s-1.066.349-3.887-.727c-.705-.269-1.533-.6-2.5-1.02l-1.558-.682-.861-.392c-.367-.174-.749-.355-1.139-.542-.509-.255-1.129-.551-1.652-.881a4.164,4.164,0,0,1-.615-.55c-.134-.179-.268-.361-.4-.546a1.115,1.115,0,0,1-.165-.277l.072-.366a2.167,2.167,0,0,1,.2-.662,4.559,4.559,0,0,1,1.508-1.371c1.656-1.048,2.122-1.277,3.107-1.815.9-.478,1.854-.96,2.933-1.423.235-.092.47-.187.791-.314.164-.061.355-.129.606-.2l.2-.056.322-.072a4.115,4.115,0,0,1,.727-.058,11.175,11.175,0,0,1,1.169.311l.733.276,1.51.592c1.018.417,2.1.861,3.227,1.326l7.271,3.127c5.146,2.262,10.805,4.82,16.4,7.461,2.8,1.329,5.573,2.66,8.252,4.051.671.339,1.339.69,2,1.057l.752.409c.321.167.615.353.914.535a9.058,9.058,0,0,1,1.11,1.147c.311.4.822.707.646,1.258a2.21,2.21,0,0,1-.687,1.248,7.611,7.611,0,0,1-1.541,1.11l-.884.49-.551.283c-1.269.637-2.5,1.186-3.7,1.689-.6.251-1.2.489-1.79.711l-.9.321-.489.157a6.419,6.419,0,0,1-.813.185,3.179,3.179,0,0,1-.778-.054l-.495-.235-.768-.369-1.451-.7q-1.4-.679-2.6-1.261c-14.01-6.846-16.72-8.711-16.386-9.41" transform="translate(196.263 110.462)" fill="#181818"/>
    <path id="Trazado_478" data-name="Trazado 478" d="M80.156,187.808c.249-.736,2.965-.352,15.71,3.591,12.068,3.834,42.608,13.539,55.258,17.56,14.806,4.665,17.549,5.7,17.338,6.589-.177.778-3.163.808-18.078-3.392-12.737-3.534-43.3-13.453-55.2-17.689-12.74-4.5-15.277-5.925-15.03-6.66" transform="translate(659.075 104.382)" fill="#181818"/>
    <path id="Trazado_479" data-name="Trazado 479" d="M238.672,153.2c.26-.1.607,0,.995.786a4.68,4.68,0,0,1,.406,1.781,5.763,5.763,0,0,1-.716,3.076,5.339,5.339,0,0,1-4.226,2.765,6.367,6.367,0,0,1-5.662-2.885,7.426,7.426,0,0,1-1.026-6.21,5.72,5.72,0,0,1,3.506-3.815,5.144,5.144,0,0,1,3.812.174,4.506,4.506,0,0,1,1.719,1.319c.564.862.514,1.2.265,1.4s-.626.2-1.275-.185a6.934,6.934,0,0,0-1.4-.546,3.542,3.542,0,0,0-2.207.118,3.354,3.354,0,0,0-1.884,2.21,4.92,4.92,0,0,0,.644,3.974,3.894,3.894,0,0,0,3.253,1.893,3.08,3.08,0,0,0,2.435-1.353,6.286,6.286,0,0,0,.937-3.378c.036-.715.145-1.017.425-1.124" transform="translate(357.049 82.619)" fill="#fffeff"/>
    <path id="Trazado_480" data-name="Trazado 480" d="M135.973,19.6c.025-.385,1.879-.588,8.257-.431s17.276.671,35.393,1.72c34.258,1.986,121.553,7.667,157.511,10.218,21.107,1.5,33.653,2.511,40.916,3.261s9.244,1.228,9.219,1.658-1.972.649-9.16.451-19.614-.813-40.6-2.064C301.7,32.28,214.544,26.558,180.281,24.072c-18.318-1.333-29.408-2.253-35.911-2.939s-8.422-1.14-8.4-1.529" transform="translate(353.365 10.644)" fill="#181818"/>
    <path id="Trazado_481" data-name="Trazado 481" d="M139.672,123.855c.118-.3,1.921.126,8.23,1.753,6.3,1.653,17.057,4.578,34.931,9.53l77.021,21.64c30.155,8.559,60.474,17.356,78.132,22.625,20.721,6.208,33,10.062,40.063,12.474,7.067,2.394,8.948,3.25,8.851,3.557s-2.059-.026-9.135-1.994c-7.069-1.986-19.281-5.515-39.907-11.512-17.622-5.059-47.875-13.741-77.944-22.371l-76.871-21.921c-18.036-5.2-28.931-8.475-35.29-10.55-6.362-2.049-8.182-2.986-8.081-3.23" transform="translate(347.979 68.9)" fill="#fffeff"/>
    <path id="Trazado_482" data-name="Trazado 482" d="M167.738,96.971c.123-.567,3.987-.131,22.718,3.714,17.709,3.633,62.758,13.352,81.288,17.511,21.753,4.882,25.8,6.175,25.661,6.806s-4.2.165-25.882-4.34c-18.5-3.845-63.47-13.584-81.118-17.589-18.87-4.282-22.79-5.531-22.667-6.1" transform="translate(393.783 53.87)" fill="#fffeff"/>
    <path id="Trazado_483" data-name="Trazado 483" d="M151.826,124.775c.232-.738,2.134-.713,11.333,1.3l39.8,9.216c10.654,2.477,12.608,3.277,12.455,4.152-.139.811-2.243,1.094-12.991-.917-9.175-1.686-31.23-6.926-39.808-9.362-9.17-2.558-11.028-3.647-10.794-4.393" transform="translate(500.559 69.215)" fill="#181818"/>
    <path id="Trazado_484" data-name="Trazado 484" d="M154.146,139.03c.168-.761,1.175-1.026,5.26-.207,3.878.791,13.618,3.268,17.6,4.339,4.662,1.272,5.459,1.893,5.321,2.758-.129.825-1.147,1.275-5.978.451a168.332,168.332,0,0,1-17.651-4.5c-4.043-1.359-4.72-2.084-4.55-2.839" transform="translate(530.04 77.002)" fill="#181818"/>
    <path id="Trazado_485" data-name="Trazado 485" d="M288.234,148.42c-.039-.139.447-.229.844.358a6.674,6.674,0,0,1,.814,2.86c.322,2.8.3,7.541-.658,15.318-.195,1.516-.442,3.272-.813,5.315-.184,1.021-.4,2.112-.688,3.291-.14.59-.307,1.2-.52,1.849-.047.157-.117.332-.182.5a3.292,3.292,0,0,1-.361.735,2.464,2.464,0,0,1-1.294,1.133,3.358,3.358,0,0,1-1.336-.173l-.82-.237-1.479-.472-3.05-1.048c-2.078-.736-4.245-1.54-6.454-2.393s-4.455-1.754-6.689-2.723c-1.116-.486-2.228-.985-3.333-1.536-.554-.279-1.1-.564-1.67-.912l-.223-.142c-.126-.078-.243-.167-.36-.255a2.971,2.971,0,0,1-.621-.584,1.627,1.627,0,0,1-.35-.721,4.7,4.7,0,0,1,.048-.792l.447-1.364c.109-.333.223-.662.316-1q.287-1,.571-1.99c.36-1.322.676-2.629.971-3.909.576-2.565,1.035-5.033,1.424-7.348s.7-4.483.981-6.465c.07-.5.139-.982.2-1.454.034-.24.069-.475.1-.707a7.066,7.066,0,0,1,.265-1.234,1.117,1.117,0,0,1,.59-.867,1.4,1.4,0,0,1,1.01-.255,6.157,6.157,0,0,1,1.161.173c.227.056.451.114.671.17l16.783,5.223c2.972.925,3.766,1.329,3.7,1.653-.064.305-.934.42-3.993-.1-1.527-.266-3.6-.7-6.367-1.412-2.76-.683-6.247-1.751-10.508-2.925-.353-.093-.878-.213-.757-.179-.022,0-.067-.009-.061.031.051-.341-.145,1.133-.255,2.022-.257,2.013-.556,4.234-.937,6.614s-.836,4.919-1.423,7.573c-.3,1.328-.624,2.684-.995,4.061q-.294,1.03-.593,2.08c-.1.35-.213.7-.328,1.049-.1.311-.283.862-.227.7l.157.1c.445.272.956.54,1.471.8,1.035.517,2.12,1.007,3.211,1.484,2.187.951,4.412,1.851,6.594,2.706s4.324,1.661,6.367,2.4l2.98,1.052,2.036.658c.016,0,.026-.014.033-.026s-.008.028.037-.086.1-.235.142-.372c.177-.521.335-1.06.47-1.591.279-1.062.5-2.084.687-3.04.383-1.915.657-3.58.884-5.023a127.724,127.724,0,0,0,1.58-15.165,17.031,17.031,0,0,0-.082-2.69,7.036,7.036,0,0,1-.123-.716" transform="translate(259.066 78.604)" fill="#181818"/>
    <path id="Trazado_486" data-name="Trazado 486" d="M265.162,149.917c.193-.548.543-.831,1.733-.651a37.114,37.114,0,0,1,4.953,1.4c1.283.507,1.451.948,1.311,1.583-.137.62-.484.979-1.907.8a21.187,21.187,0,0,1-5.059-1.547c-1.107-.574-1.225-1.038-1.031-1.588" transform="translate(266.444 83.066)" fill="#181818"/>
    <path id="Trazado_487" data-name="Trazado 487" d="M265.3,153.462c.177-.553.579-.845,2.022-.654a38.411,38.411,0,0,1,6.04,1.611c1.569.616,1.778,1.1,1.624,1.725s-.55.937-2.225.657a39.649,39.649,0,0,1-6.094-1.742c-1.365-.585-1.546-1.041-1.367-1.6" transform="translate(264.366 85.035)" fill="#181818"/>
    <path id="Trazado_488" data-name="Trazado 488" d="M309.11,144.188c.028-.061.1-.106.282.006a1.286,1.286,0,0,1,.377.551,9.533,9.533,0,0,1,.514,2.732A111.338,111.338,0,0,1,310,162.121c-.067.925-.14,1.944-.234,3.254-.054.655-.115,1.384-.185,2.211q-.056.621-.12,1.319c-.028.269-.054.545-.084.83a13.391,13.391,0,0,1-.205,1.429,1.12,1.12,0,0,1-.226.417c-.114.1-.12.271-.363.232a1,1,0,0,1-.909.26,7.311,7.311,0,0,1-1.227-.265l-.834-.246c-.9-.28-1.824-.59-2.774-.917-1.9-.657-3.906-1.39-5.99-2.172-4.173-1.589-8.632-3.282-13.092-5.305-.308-.149-.5-.235-.925-.467a1.9,1.9,0,0,1-1.113-1.242,2.587,2.587,0,0,1-.159-.853l-.022-.5-.006-.942c.014-1.23.072-2.421.135-3.6.131-2.357.307-4.651.49-6.849.2-2.195.4-4.295.584-6.253q.161-1.471.311-2.828.086-.682.168-1.331.07-.469.139-.929a4.707,4.707,0,0,1,.305-1.087,1.57,1.57,0,0,1,.243-.28c.206.062.244-.109.36-.14a1.155,1.155,0,0,1,.7-.22,3.547,3.547,0,0,1,.8.053c.254.031.562.076.646.1l1.385.28,1.972.473a99.53,99.53,0,0,1,16.11,5.414c2.755,1.294,3.372,1.955,3.236,2.229-.148.3-.94.143-3.733-.73-2.8-.842-7.64-2.449-15.965-4.471l-2.005-.45-1.354-.263-.213-.036-.023,0c-.014,0-.041,0-.037.02-.142,1.347-.3,2.849-.467,4.466-.168,1.951-.349,4.04-.537,6.224-.171,2.186-.336,4.466-.462,6.787-.061,1.16-.114,2.333-.125,3.484l.006.842.017.378,0-.009.713.352c4.264,1.937,8.774,3.674,12.877,5.266,2.063.791,4.044,1.533,5.9,2.2l2.676.92a5.223,5.223,0,0,1,.5.163c.031.019.059.014.058-.022.168-1.645.3-2.9.4-3.931.117-1.241.209-2.206.291-3.087.69-7.5,1.012-12.043,1.192-14.689.07-1.121.12-1.941.165-2.671a2.214,2.214,0,0,1,.122-.743" transform="translate(203.631 75.508)" fill="#181818"/>
    <path id="Trazado_489" data-name="Trazado 489" d="M288.166,144.141c.207-.545.534-.825,1.611-.683a40.925,40.925,0,0,1,4.511,1.116c1.183.409,1.362.83,1.262,1.473-.1.626-.4,1.017-1.725.94a15.815,15.815,0,0,1-4.743-1.289c-1.029-.545-1.124-1.013-.917-1.557" transform="translate(208.28 79.842)" fill="#181818"/>
    <path id="Trazado_490" data-name="Trazado 490" d="M288.644,147.748c.168-.557.554-.839,2.017-.648a55.628,55.628,0,0,1,6.2,1.456c1.63.531,1.871.988,1.743,1.622s-.517.973-2.245.781a32.02,32.02,0,0,1-6.277-1.586c-1.406-.59-1.6-1.068-1.437-1.625" transform="translate(204.419 81.857)" fill="#181818"/>
    <path id="Trazado_491" data-name="Trazado 491" d="M74.827,190.967c.788-.093,1.468,1.79,3.423,11.481.909,4.584,2.45,12.757,3.608,21.089s1.8,16.784,2.008,21.717c.444,11.591-.274,13.814-1.085,13.814-.9.006-1.276-2.081-2.173-13.45-.4-4.848-1.11-13.174-2.228-21.387s-2.508-16.381-3.173-21.02c-1.459-9.922-1.138-12.156-.381-12.243" transform="translate(752.813 106.309)" fill="#181818"/>
    <path id="Trazado_492" data-name="Trazado 492" d="M17.614,257.862c.367-.251,1.021.518,3.956,2.516a64.168,64.168,0,0,0,18,8.134,95.1,95.1,0,0,0,18.831,3.4,63.737,63.737,0,0,0,11.948-.036c1.024-.09,2.035-.283,3.064-.419,1-.237,2.036-.378,3.015-.69a23.269,23.269,0,0,0,5.662-2.257,14.72,14.72,0,0,0,2.368-1.7,8.423,8.423,0,0,0,.917-.959,4.235,4.235,0,0,0,.458-.982,59.08,59.08,0,0,0,1.448-6.082c.864-4.212,1.809-8.349,2.885-12.2,2.214-7.71,4.471-14.286,6.049-19.219,7.569-23.022,9.082-27.332,9.958-27.1.78.2.342,4.728-6.736,27.775-1.47,4.907-3.671,11.593-5.8,19.084-1.04,3.761-1.955,7.774-2.807,11.955-.447,2.1-.817,4.208-1.5,6.5a9.583,9.583,0,0,1-.788,1.871l-.336.525-.325.394c-.216.272-.445.475-.671.711a16.43,16.43,0,0,1-2.93,2.228,32.837,32.837,0,0,1-13.082,4,64.1,64.1,0,0,1-12.586.04,90.961,90.961,0,0,1-19.48-3.717c-10.254-3.246-15.758-7.12-18.651-9.634-2.889-2.609-3.169-3.982-2.875-4.144" transform="translate(818.569 111.486)" fill="#181818"/>
    <path id="Trazado_493" data-name="Trazado 493" d="M54.227,160.314c.57.139.55,1.7-1.116,8.862-.783,3.384-2.173,9.363-3.065,15.46a136.7,136.7,0,0,0-1.337,15.914c-.125,4.251-.112,6.79-.23,8.271s-.361,1.909-.682,1.932-.6-.347-.89-1.8a47.357,47.357,0,0,1-.655-8.307,105.744,105.744,0,0,1,1.144-16.238,129.289,129.289,0,0,1,3.4-15.642c2.083-7.19,2.872-8.587,3.433-8.451" transform="translate(825.759 89.241)" fill="#181818"/>
    <path id="Trazado_494" data-name="Trazado 494" d="M73.758,204.9c-.571.209-1.87-2.556-7.467-16.471-1.337-3.282-3.177-7.843-5.388-12.992-1.107-2.572-2.305-5.294-3.616-8.047-.658-1.373-1.34-2.758-2.074-4.107-.366-.676-.747-1.34-1.144-1.975-.2-.318-.4-.629-.612-.915l-.1-.134h0v0s0-.009,0,.008a9.961,9.961,0,0,0,.058,1.03,27.407,27.407,0,0,0,.946,4.367,86.208,86.208,0,0,0,2.947,8.322c2.126,5.241,4.346,9.757,6.028,13.051a134.069,134.069,0,0,0,8.5,14.484c1.692,2.435,2.164,3.124,1.919,3.378-.2.212-1.046-.1-3.109-2.341-2.025-2.254-5.184-6.456-9.37-14.163A145.446,145.446,0,0,1,55,175.246,89.644,89.644,0,0,1,51.9,166.7a32.383,32.383,0,0,1-1.082-4.77c-.068-.413-.079-.867-.12-1.3l.014-.906a3.568,3.568,0,0,1,.226-1.079,2.389,2.389,0,0,1,.388-.926,1.973,1.973,0,0,1,.612-.657A1.844,1.844,0,0,1,53.686,157a5.064,5.064,0,0,1,1.616,1.442c.293.35.314.422.47.629l.353.528c.453.705.856,1.412,1.245,2.119.772,1.413,1.473,2.829,2.137,4.231,1.328,2.807,2.52,5.557,3.615,8.157,2.184,5.2,3.965,9.8,5.221,13.135,5.315,14.269,5.937,17.468,5.414,17.658" transform="translate(799.468 87.295)" fill="#181818"/>
    <path id="Trazado_495" data-name="Trazado 495" d="M88.421,183.882c-.14-.033-.229-.3-.238-.939a25.538,25.538,0,0,0-.135-3.235c-.282-3.113-1.611-8.588-6.527-16.4a81.668,81.668,0,0,0-10.775-13.5,68.5,68.5,0,0,0-8.156-7.151c-3-2.187-6.35-4.3-9.86-5.151a8.686,8.686,0,0,0-1.294-.221,2.578,2.578,0,0,0-.632-.037l-.308,0-.023,0,0,0,.177.3.374.595.789,1.194q.834,1.177,1.659,2.348c2.253,3.1,4.556,6.066,6.751,8.858,4.4,5.579,8.4,10.441,11.369,14.01,6.966,8.378,11.233,13.249,13.716,16.031,1.241,1.389,2.044,2.254,2.519,2.748a3.349,3.349,0,0,1,.42.451c-.014,0-.006.051.034.095-.039-.053,0,0,.014-.006.039.012.09.006.128.016a.1.1,0,0,1,.075.1.242.242,0,0,1-.205.246,1.376,1.376,0,0,1-.94-.171,14.458,14.458,0,0,1-3.093-2.3c-2.793-2.509-7.262-7.159-14.351-15.4-3.022-3.517-7.07-8.341-11.512-13.914-2.218-2.788-4.539-5.754-6.839-8.887-1.146-1.583-2.295-3.16-3.362-4.944a4.748,4.748,0,0,1-.866-2.466c0-.819.948-1.071,1.689-1.35a3.508,3.508,0,0,1,1.329-.2l.892-.006c.554.056,1.1.134,1.649.218a21.625,21.625,0,0,1,5.85,2.254,40.881,40.881,0,0,1,5.059,3.221,69.787,69.787,0,0,1,8.47,7.408,80.906,80.906,0,0,1,11.018,14C88.3,169.946,89.584,176,89.5,179.5a11.642,11.642,0,0,1-.174,2.184,5.618,5.618,0,0,1-.346,1.356c-.241.663-.416.875-.557.841" transform="translate(789.138 74.927)" fill="#181818"/>
    <path id="Trazado_496" data-name="Trazado 496" d="M24.357,204.729c-.223-.162.016-.96,1.568-3.239a81.966,81.966,0,0,1,10.028-11.513c2.625-2.6,6.414-6.052,10.816-9.857,2.193-1.91,4.542-3.91,6.859-6.031,1.149-1.062,2.3-2.154,3.33-3.3a13.055,13.055,0,0,0,1.362-1.754,2.741,2.741,0,0,0,.553-1.431c.006-.148-.314-.483-.4-.392a4.207,4.207,0,0,0-1.7.5,24.041,24.041,0,0,0-3.879,2.421,73.22,73.22,0,0,0-6.9,5.926,121.891,121.891,0,0,0-10.022,10.9,78.132,78.132,0,0,0-9.6,14.325c-1.343,2.73-1.663,3.534-2.021,3.448-.266-.054-.467-.987.537-3.99,1.017-2.981,3.434-7.928,9-15.12A112.766,112.766,0,0,1,43.96,174.378a75.987,75.987,0,0,1,7.1-6.185,28.123,28.123,0,0,1,4.275-2.748,8.45,8.45,0,0,1,2.8-.9,5.781,5.781,0,0,1,.985.05,3.541,3.541,0,0,1,1.088.49,6.038,6.038,0,0,1,.687.668,3.7,3.7,0,0,1,.5.948,4.328,4.328,0,0,1-.607,3.4,14.631,14.631,0,0,1-1.6,2.164,46.47,46.47,0,0,1-3.507,3.518c-2.38,2.167-4.742,4.156-6.948,6.04-4.426,3.752-8.215,7.1-10.878,9.591-5.7,5.322-8.817,8.861-10.7,10.9s-2.531,2.6-2.78,2.419" transform="translate(853.203 91.599)" fill="#181818"/>
    <path id="Trazado_497" data-name="Trazado 497" d="M41.606,144.747c-.205,0-.374-.478-.486-1.941-.051-.732-.112-1.714-.114-3,.011-.648.037-1.378.123-2.207.03-.227.059-.461.09-.7a8.808,8.808,0,0,1,.237-1.041,2.513,2.513,0,0,1,1.074-1.58c1.105-.486,2.077.357,2.794,1.786.084.157.187.4.237.511l.148.347.276.708c.177.483.341.979.5,1.494.627,2.058,1.169,4.4,1.694,7.055a252.894,252.894,0,0,1,4.075,40.012c.014,1.982,0,3.97-.132,5.97-.067,1-.157,2-.324,3.029-.04.255-.089.514-.148.778-.03.131-.053.258-.092.4l-.142.509a3.5,3.5,0,0,1-1.468,2.066,1.985,1.985,0,0,1-2.209-.258,3.6,3.6,0,0,1-.847-1.009,4.662,4.662,0,0,1-.342-.609c-.062-.125-.12-.248-.171-.369a21.49,21.49,0,0,1-.97-2.832c-.512-1.849-.889-3.654-1.219-5.411-1.286-7.027-1.918-13.271-2.358-17.88a187.954,187.954,0,0,1-.954-21.043c.114-3.753.417-4.781.73-4.779.328,0,.553.988.844,4.642.316,3.65.676,9.988,1.8,20.643.5,4.536,1.185,10.724,2.449,17.58.327,1.706.688,3.459,1.157,5.187a23.111,23.111,0,0,0,.816,2.511c.079.193.16.391.249.564.022.047.008.014.012.025h0l0,0,.042-.162c.056-.193.092-.417.14-.623a25.872,25.872,0,0,0,.327-2.74c.135-1.885.167-3.82.157-5.755a280.69,280.69,0,0,0-3.649-39.581c-.467-2.721-.948-5.111-1.482-7.153-.134-.509-.271-1-.417-1.457q-.107-.348-.224-.668l-.184-.5c-.067-.17-.184-.559-.441-.465a.706.706,0,0,0-.2.325l-.064.2c-.036.171-.07.338-.1.5-.139.747-.226,1.438-.3,2.061-.132,1.255-.216,2.215-.324,2.936-.2,1.443-.4,1.933-.606,1.932" transform="translate(836.459 74.674)" fill="#181818"/>
    <path id="Trazado_498" data-name="Trazado 498" d="M99.061,159.7c-.179.195-1.2-.3-3.837-2.945-1.314-1.328-3-3.216-5.131-5.822l-8.006-10A96.371,96.371,0,0,0,68.5,126.983c-2.978-2.531-6.235-5.118-9.641-7.734q-2.566-1.961-5.2-3.968l-2.634-2.063c-.441-.353-.878-.715-1.315-1.094-.137-.109-.663-.6-1.02-.956a5.278,5.278,0,0,1-.523-.584,2.26,2.26,0,0,1-.4-.582,1.892,1.892,0,0,1-.262-1.065.7.7,0,0,1,.135-.537,1.066,1.066,0,0,1,.266-.45,2.078,2.078,0,0,1,1-.531,6.992,6.992,0,0,1,1.529-.143,19.975,19.975,0,0,1,2.206.125c.576.061,1.144.135,1.709.221a54.226,54.226,0,0,1,6.579,1.46,57.626,57.626,0,0,1,11.888,4.84,40.89,40.89,0,0,1,9.262,6.851,31.278,31.278,0,0,1,3.269,3.861c.929,1.32,1.647,2.527,2.34,3.658a131.231,131.231,0,0,1,6.974,13.3c1.611,3.563,2.664,6.267,3.367,8.275,1.395,4.027,1.451,5.244,1.166,5.339-.322.109-.862-.886-2.587-4.648-.87-1.879-2.053-4.446-3.755-7.866s-3.924-7.7-7.088-12.829a35.747,35.747,0,0,0-5.24-7.024,38.047,38.047,0,0,0-8.623-6.423,55.015,55.015,0,0,0-11.289-4.661,53.628,53.628,0,0,0-6.233-1.434,31.012,31.012,0,0,0-3.088-.363c-.061,0-.019,0-.033,0v0l1.074.912c.834.685,1.7,1.359,2.562,2.028l5.179,3.979c3.414,2.634,6.7,5.257,9.706,7.833a88.521,88.521,0,0,1,8.061,7.615c2.29,2.481,4.186,4.793,5.749,6.753,3.322,4.2,5.817,7.671,7.857,10.391s3.588,4.735,4.759,6.2c2.351,2.922,3.067,3.8,2.849,4.03" transform="translate(779.004 59.72)" fill="#181818"/>
    <path id="Trazado_499" data-name="Trazado 499" d="M118.356,144.758c-.132.241-1.11.017-4.035-1.572-1.46-.792-3.392-1.946-5.961-3.479a79.552,79.552,0,0,0-10-5.244,31.6,31.6,0,0,0-8.168-2.251,59.241,59.241,0,0,0-10.807.2c-3.915.339-8.05.87-12.257,1.423-2.116.268-4.245.537-6.372.808-1.074.118-2.148.235-3.252.3l-.841.039-.436.008c-.232.009-.512-.025-.766-.037a2.505,2.505,0,0,1-.744-.107,1.973,1.973,0,0,1-.643-.229l-.271-.163c-.065-.075-.12-.162-.181-.244l-.187-.258c-.153-.04-.12-.174-.188-.258a3.411,3.411,0,0,1,.492-2.363,2.8,2.8,0,0,1,.148-.291l.095-.165.188-.325.389-.62c.525-.81,1.074-1.568,1.635-2.309q1.688-2.2,3.495-4.173a49.538,49.538,0,0,1,3.728-3.708,14.867,14.867,0,0,1,4.471-2.962,7.432,7.432,0,0,1,1.393-.255,12.068,12.068,0,0,1,1.227-.114c.8-.044,1.589-.067,2.347-.033a36.972,36.972,0,0,1,4.329.358,53.175,53.175,0,0,1,7.175,1.473,62.572,62.572,0,0,1,12.615,4.929,51.148,51.148,0,0,1,6.839,4.261c3.059,2.318,3.663,3.238,3.485,3.462-.216.279-1.124-.2-4.278-2.1-.8-.464-1.72-1.037-2.858-1.625-1.113-.634-2.433-1.29-3.957-2.03a68.549,68.549,0,0,0-12.187-4.451,54.623,54.623,0,0,0-6.924-1.37,38.214,38.214,0,0,0-4.1-.328c-.71-.02-1.429-.02-2.15.031a8.445,8.445,0,0,0-1.077.093l-.536.07a2.039,2.039,0,0,0-.437.078,11.93,11.93,0,0,0-3.554,2.4,46.451,46.451,0,0,0-3.551,3.543c-1.158,1.272-2.291,2.62-3.366,4.029-.534.7-1.055,1.423-1.53,2.154l-.342.549-.249.427h0l.363-.006.746-.031c1.01-.064,2.052-.171,3.092-.288,2.1-.258,4.191-.52,6.272-.778,4.175-.537,8.3-1.045,12.248-1.37a63.965,63.965,0,0,1,11.193-.16,32.074,32.074,0,0,1,8.736,2.416,67.119,67.119,0,0,1,10.308,5.768c2.561,1.7,4.426,3.015,5.806,3.988,2.757,1.949,3.531,2.617,3.38,2.885" transform="translate(751.116 64.777)" fill="#181818"/>
    <path id="Trazado_500" data-name="Trazado 500" d="M44.481,124.259c.562-.042,1.06.693,1.382,4.486a80.308,80.308,0,0,1,.117,8.188c-.095,3.207-.374,6.429-.632,8.3-.626,4.39-1.208,5.153-1.826,5.065-.652-.092-.889-.931-.626-5.24.1-1.838.314-4.994.428-8.135s.151-6.263.2-8.026c.083-3.77.361-4.594.96-4.637" transform="translate(839.66 69.173)" fill="#181818"/>
    <path id="Trazado_501" data-name="Trazado 501" d="M63.135,145.74c-.184-.154-.054-.872-.118-4.083-.083-3.155-.146-8.629-1.158-17.612-.254-2.12-.595-4.645-1.135-7.432A35,35,0,0,0,58,107.861,61.626,61.626,0,0,0,52.635,98.8a73.324,73.324,0,0,0-7.067-8.689l-.069-.07,0,0h0q.2,1.123.4,2.239.278,1.385.553,2.757c.771,3.655,1.616,7.207,2.5,10.531a50.546,50.546,0,0,0,3,8.959c1.284,2.832,2.147,5.311,2.951,7.45,3.626,10.014,5.632,15.992,6.834,19.435.517,1.529.875,2.586,1.174,3.468a6.679,6.679,0,0,1,.19.655c.02.02-.042.117-.028.151-.022-.028.039.048.064.058.028.025.051.067-.012.137a.327.327,0,0,1-.322,0,1.857,1.857,0,0,1-.644-.556,17.207,17.207,0,0,1-1.846-3.235c-1.58-3.283-3.856-9.128-7.606-18.982-.814-2.081-1.747-4.6-2.922-7.2-.266-.556-.708-1.379-.987-2.13-.305-.76-.571-1.526-.83-2.31-.515-1.568-.993-3.2-1.454-4.88-.917-3.366-1.789-6.937-2.581-10.634q-.283-1.392-.571-2.8l-.266-1.42-.269-1.6a15.757,15.757,0,0,1-.237-2.7,1.636,1.636,0,0,1,.739-1.37,1.556,1.556,0,0,1,1.582.028,9.657,9.657,0,0,1,2.053,1.647l.732.736.511.539.989,1.094c.649.735,1.275,1.482,1.885,2.234q1.831,2.26,3.465,4.592a64.86,64.86,0,0,1,5.6,9.44A34.289,34.289,0,0,1,62,111.168c.462,1.586.794,3.1,1.069,4.55.543,2.889.859,5.472,1.077,7.64a98.044,98.044,0,0,1,.339,18.229,13.923,13.923,0,0,1-.655,3.392c-.234.66-.6.884-.691.761" transform="translate(821.263 47.804)" fill="#181818"/>
    <path id="Trazado_502" data-name="Trazado 502" d="M15.577,151.424c.058-.047.163-.051.216-.1.023-.045.134-.162.31-.38.361-.464.943-1.342,1.863-2.72A104.81,104.81,0,0,1,29.5,133.595c1.607-1.684,3.6-3.646,5.987-5.7,1.182-1.034,2.484-2.069,3.847-3.124,1.343-1.034,2.735-2.114,4.141-3.257a75.256,75.256,0,0,0,8.324-7.643,26.771,26.771,0,0,0,3.411-4.6,9.492,9.492,0,0,0,.632-1.248,7.892,7.892,0,0,0,.492-1.281,7.8,7.8,0,0,0,.324-1.3,2.852,2.852,0,0,0,.084-.654l.04-.542,0,0-.243-.026a4.139,4.139,0,0,0-.551.008,12.321,12.321,0,0,0-2.565.554,32.523,32.523,0,0,0-5.109,2.181,43.065,43.065,0,0,0-8.777,6.048,51.291,51.291,0,0,0-6.018,7.326c-1.692,2.427-3.157,4.661-4.365,6.591-5.825,9.323-8.879,15.137-10.729,18.439-1.82,3.32-2.358,4.212-2.685,4.1-.28-.1-.227-1.191,1.222-4.693a151.53,151.53,0,0,1,9.944-18.88c1.2-1.982,2.651-4.3,4.381-6.811a53.5,53.5,0,0,1,6.367-7.888,44.722,44.722,0,0,1,9.368-6.546,35,35,0,0,1,5.573-2.391,14.984,14.984,0,0,1,3.183-.677,7,7,0,0,1,.926-.011c.16.006.342.039.517.062a4.035,4.035,0,0,1,.68.191,2.386,2.386,0,0,1,1.552,2.232,13.567,13.567,0,0,1-1.908,6.471,29.044,29.044,0,0,1-3.717,5.031,74.934,74.934,0,0,1-8.551,7.81c-2.846,2.309-5.632,4.244-7.91,6.185-2.315,1.933-4.279,3.773-5.875,5.363a186.449,186.449,0,0,0-12.276,14.08,13.173,13.173,0,0,1-2.567,2.537c-.338.188-.641.335-.934.2-.218-.137-.188-.282-.137-.308" transform="translate(868.659 56.535)" fill="#181818"/>
    <path id="Trazado_503" data-name="Trazado 503" d="M.275,153.65c.179-.022.269.269.708.181a12.462,12.462,0,0,0,3.141-1.376c3.137-1.675,8.279-5.094,17.089-10.522,2.1-1.264,4.6-2.776,7.59-4.275.746-.375,1.532-.738,2.366-1.082.862-.355,1.72-.629,2.547-.915,1.689-.582,3.443-1.208,5.245-1.874,3.6-1.336,7.4-2.829,11.2-4.55,1.9-.866,3.8-1.789,5.615-2.829a24.733,24.733,0,0,0,2.592-1.675,5.8,5.8,0,0,0,1.764-1.815c.07-.241.045-.134.033-.184a1.694,1.694,0,0,0-.724-.344,10.956,10.956,0,0,0-2.855-.232,40.779,40.779,0,0,0-6.189.738,86.814,86.814,0,0,0-11.727,3.085,49.88,49.88,0,0,0-5.159,2.039,49.148,49.148,0,0,0-4.466,2.528c-2.819,1.754-5.3,3.443-7.4,4.893-9.8,6.853-15.238,11.476-18.135,14.3a18.867,18.867,0,0,0-2.629,3.017c-.374.606-.422.859-.613.892-.12.045-.4-.3-.21-1.2a10.208,10.208,0,0,1,2.218-3.7c2.687-3.219,7.953-8.085,17.686-15.13,2.083-1.494,4.561-3.224,7.413-5.045,1.434-.906,2.936-1.842,4.651-2.721a49.04,49.04,0,0,1,5.408-2.221,88.3,88.3,0,0,1,12.044-3.269,46.549,46.549,0,0,1,6.574-.85,15.267,15.267,0,0,1,3.559.19,5.089,5.089,0,0,1,2.03.806,2.8,2.8,0,0,1,.948,1.127,2.653,2.653,0,0,1,.207,1.552,4.136,4.136,0,0,1-1.079,2.075,9.95,9.95,0,0,1-1.362,1.276,25.26,25.26,0,0,1-2.849,1.915,65.26,65.26,0,0,1-5.828,2.969c-3.892,1.768-7.737,3.26-11.381,4.6-1.823.665-3.6,1.286-5.307,1.865a34.3,34.3,0,0,0-4.675,1.778c-2.875,1.368-5.388,2.83-7.491,4.035-8.963,5.268-14.421,8.559-17.939,10a8.158,8.158,0,0,1-3.921.931c-.483-.086-.828-.441-.809-.672-.012-.23.044-.3.114-.311" transform="translate(889.464 66.522)" fill="#181818"/>
    <path id="Trazado_504" data-name="Trazado 504" d="M66.42,144.6c-.174-.037-.218-.1-.856-.29a25.322,25.322,0,0,0-3.507-.623,94.286,94.286,0,0,0-19.888.033c-2.405.23-5.273.581-8.468,1.1a40.036,40.036,0,0,0-10.045,2.794,44.213,44.213,0,0,0-18.526,15.4c-.305.428-.551.88-.831,1.317a2.642,2.642,0,0,0-.177.3l-.059.114h0l.623-.269,1.443-.663L9,162.417c3.819-1.88,7.569-3.721,11.166-5.355A145.742,145.742,0,0,1,38.927,149.8a82.183,82.183,0,0,1,14.555-2.774c3.829-.385,6.663-.486,8.677-.691,2.027-.181,3.166-.546,3.588-.968.416-.437.486-.794.672-.774.1-.009.439.3.062,1.248-.469.968-1.947,1.642-3.979,2.036-2.066.428-4.849.7-8.559,1.214a91.348,91.348,0,0,0-14.007,2.973,150.74,150.74,0,0,0-18.319,7.206c-3.545,1.622-7.245,3.445-11.062,5.333q-1.441.7-2.9,1.414l-1.488.7-.761.339-.453.19c-.254.109-.5.207-.755.3a3.865,3.865,0,0,1-2.556.283,1.66,1.66,0,0,1-.427-.254c-.187-.081-.207-.366-.338-.436L.7,166.691a2.8,2.8,0,0,1,.065-.6,7.31,7.31,0,0,1,.951-2.567l.153-.316.112-.182.226-.366.45-.73a46.4,46.4,0,0,1,19.53-16.473,42.77,42.77,0,0,1,5.448-1.946c1.815-.4,3.563-.827,5.184-1.052,3.264-.511,6.194-.833,8.655-1.032,10.54-.8,16.984-.016,20.685.8a11.468,11.468,0,0,1,3.717,1.35,1.519,1.519,0,0,1,.632.7c.072.226-.028.347-.089.328" transform="translate(884.567 78.544)" fill="#181818"/>
    <path id="Trazado_505" data-name="Trazado 505" d="M193.768,203.334c-.241-.475,1.035-1.715,8.605-5.2,3.571-1.653,10.069-4.2,16.489-6.863a97.1,97.1,0,0,0,9.066-4.24,30.31,30.31,0,0,0,6.255-4.37,6.407,6.407,0,0,0,1.754-2.175,9.548,9.548,0,0,0,.721-2.2,31.508,31.508,0,0,0,.451-3.3c.146-1.625.336-2.111.666-2.137.31-.026.643.38.909,2.056a14.839,14.839,0,0,1,.067,3.622,10.661,10.661,0,0,1-.658,2.771,8.088,8.088,0,0,1-.834,1.585A11.3,11.3,0,0,1,236,184.315a29.306,29.306,0,0,1-6.66,4.928,89.2,89.2,0,0,1-9.287,4.405c-6.5,2.684-12.974,5.1-16.588,6.569-7.731,3.109-9.42,3.68-9.7,3.115" transform="translate(411.875 96.226)" fill="#fffeff"/>
    <path id="Trazado_506" data-name="Trazado 506" d="M198.344,247.516c-.254.139-.532.125-.956-.3a6.247,6.247,0,0,1-1.273-2.856,12.621,12.621,0,0,1-.263-2.981c.013-.3.028-.615.065-.943.02-.19.034-.274.084-.571a3.549,3.549,0,0,1,.258-.824,1.827,1.827,0,0,1,.213-.366c.129-.072.215-.185.339-.258l.352-.244.409-.146a5.724,5.724,0,0,1,.59-.188l.465-.128c2.428-.609,4.745-1.217,6.105-1.622,3.162-.942,3.842-.985,4.15-.374.276.529-.067,1.329-3.308,2.681a48.457,48.457,0,0,1-6.216,1.868l-.774.2c-.036.009-.026,0-.034,0a5.557,5.557,0,0,0-.137.976,16.085,16.085,0,0,0,.009,2.492c.277,2.66.5,3.255-.081,3.573" transform="translate(438.468 130.996)" fill="#181818"/>
    <path id="Trazado_507" data-name="Trazado 507" d="M204.755,229.1c.28.073.479.333.553,1,.023.332.033.766.118,1.328a9.2,9.2,0,0,0,.394,2.053,8.463,8.463,0,0,0,1.512,2.768,13.348,13.348,0,0,0,3.291,2.743,29.314,29.314,0,0,0,7.617,2.88c2.148.536,3.464.8,4.214,1.08s.948.567.923.887-.252.56-1.059.685a14.944,14.944,0,0,1-4.519-.235,25.9,25.9,0,0,1-8.464-2.97,15.264,15.264,0,0,1-3.959-3.4,9.666,9.666,0,0,1-1.8-3.755,7.456,7.456,0,0,1-.128-2.724c.048-.352.095-.657.156-.917.089-.254.176-.467.258-.644.332-.708.609-.85.89-.777" transform="translate(412.328 127.529)" fill="#181818"/>
    <path id="Trazado_508" data-name="Trazado 508" d="M185.025,252.474c-.19.213-.534.24-1.3-.238a7.256,7.256,0,0,1-1.409-1.244,7.707,7.707,0,0,1-1.664-2.863,4.272,4.272,0,0,1-.134-.551,3.6,3.6,0,0,1-.067-.732,2.55,2.55,0,0,1,.7-1.8,2.657,2.657,0,0,1,.968-.465l.658-.2c.4-.121.8-.249,1.23-.378,1.692-.522,3.59-1.122,5.476-1.761,3.781-1.266,7.5-2.743,9.625-3.674,2.506-1.079,3.974-1.764,4.885-2.07s1.275-.229,1.446.042.1.623-.615,1.3a20.967,20.967,0,0,1-4.606,2.922,74.761,74.761,0,0,1-9.789,3.963c-1.927.645-3.865,1.227-5.6,1.708-.431.118-.851.232-1.255.341-.2.054-.4.106-.595.156-.059.014-.039,0-.064.006-.053.033-.1-.036-.023.522a7.522,7.522,0,0,0,.962,2.3c.325.525.607.982.883,1.429.441.715.476,1.065.276,1.284" transform="translate(465.861 131.547)" fill="#181818"/>
    <path id="Trazado_509" data-name="Trazado 509" d="M189,243.185c.224-.184.612-.126,1.4.431.2.14.42.31.672.517l.956.637c.68.525,1.63,1.071,2.788,1.779a47.358,47.358,0,0,0,10.982,4.415,51.189,51.189,0,0,0,11.91,1.86,32.965,32.965,0,0,0,6.063-.389c1.027-.21,1.451-.1,1.6.185s0,.632-1.052,1.292a14.761,14.761,0,0,1-6.516,1.365,44.2,44.2,0,0,1-12.587-1.722,50.161,50.161,0,0,1-6.674-2.338c-.984-.481-1.919-.9-2.732-1.347l-2.112-1.248a20.724,20.724,0,0,1-2.866-2.279c-.322-.322-.618-.618-.9-.9-.232-.291-.411-.56-.56-.786-.59-.914-.606-1.289-.38-1.473" transform="translate(432.864 135.327)" fill="#fffeff"/>
    <path id="Trazado_510" data-name="Trazado 510" d="M187.8,230.593c-.134-.523.523-1.217,4.258-1.831a50.608,50.608,0,0,1,8.071-.427,46.468,46.468,0,0,1,8.2.814,12.132,12.132,0,0,1,4.094,1.427c.666.461.753.774.632,1.069s-.411.472-1.124.43-1.9-.24-3.952-.5a77.247,77.247,0,0,0-7.833-.59c-3.046-.087-6.076.014-7.776.1-3.629.19-4.426.111-4.572-.5" transform="translate(446.883 127.106)" fill="#fffeff"/>
    <path id="Trazado_511" data-name="Trazado 511" d="M161.391,239.369c.128-.068.35.048.736.473.195.212.428.5.713.881.311.366.68.819,1.113,1.378a54.719,54.719,0,0,0,11.428,10.7,57.932,57.932,0,0,0,13.328,7,71.611,71.611,0,0,0,19.133,4.128,147.048,147.048,0,0,0,19.923-.163,86.079,86.079,0,0,0,15.408-2.432c9.136-2.365,13.585-5.939,16.026-7.952l2.438-2.195c.5-.408.758-.5.887-.4s.107.352-.187.928a11.707,11.707,0,0,1-.672,1.121c-.335.439-.761.973-1.3,1.617a27.987,27.987,0,0,1-5.436,4.5,42.324,42.324,0,0,1-10.847,4.687C236.1,266.072,222,267.445,208,266.59a72.65,72.65,0,0,1-19.821-4.267,57.7,57.7,0,0,1-13.837-7.4,49.049,49.049,0,0,1-7.72-6.9c-.92-1-1.641-1.957-2.285-2.768-.593-.858-1.118-1.571-1.507-2.22a13.641,13.641,0,0,1-1.379-2.772c-.195-.578-.187-.831-.058-.9" transform="translate(438.61 133.245)" fill="#fffeff"/>
    <path id="Trazado_512" data-name="Trazado 512" d="M334.559,155.408c.123-.634,1.532-.532,8.63-.28,3.353.118,9.323.277,15.323.086a146.307,146.307,0,0,0,15.47-1.219c4.066-.571,6.435-1.093,7.821-1.354s1.86-.157,1.98.14-.135.666-1.445,1.343a30.19,30.19,0,0,1-7.854,2.279,108.54,108.54,0,0,1-15.74,1.459,142.755,142.755,0,0,1-15.53-.381c-7.284-.655-8.769-1.563-8.657-2.072" transform="translate(47.693 84.888)" fill="#181818"/>
    <path id="Trazado_513" data-name="Trazado 513" d="M426.743,343.039c-.271.271-.923.025-2.639-1.594a40.113,40.113,0,0,1-6.471-10.872,128.369,128.369,0,0,1-7.673-26.518,186.5,186.5,0,0,1-3.106-27.807,92.615,92.615,0,0,1,.377-14.418c.321-2.553.685-3.239,1.115-3.224s.763.7.989,3.2.318,6.814.781,14.079a227.123,227.123,0,0,0,3.272,27.241,149.112,149.112,0,0,0,7.029,25.98c4.625,11.741,7.1,13.188,6.326,13.931" transform="translate(-107.789 143.964)" fill="#181818"/>
    <path id="Trazado_514" data-name="Trazado 514" d="M192.772,164.957c.17-.554,1.549-.542,7.863,1.177,5.97,1.624,21.054,6.208,27.223,8.249,7.242,2.394,8.5,3.208,8.317,3.825s-1.638.6-8.935-1.446c-6.227-1.742-21.275-6.354-27.141-8.339-6.272-2.122-7.5-2.906-7.327-3.465" transform="translate(416.045 91.65)" fill="#fffeff"/>
    <path id="Trazado_515" data-name="Trazado 515" d="M250.409,190.853c.257-.5,3.4.483,18.553,6.876,14.315,6.029,50.583,21.94,65.361,28.9,17.379,8.092,20.369,10.352,20.083,10.869-.33.613-3.478-.814-20.864-8.524L268.38,200.034c-15.142-6.823-18.241-8.644-17.97-9.181" transform="translate(208.092 106.184)" fill="#fffeff"/>
    <path id="Trazado_516" data-name="Trazado 516" d="M244.328,187.548c.2-.238.951-.067,3.686.981,2.713,1.057,7.312,3,14.912,6.317,14.368,6.3,50.9,22.6,65.886,29.464,17.594,8.057,20.766,9.969,20.5,10.553s-3.636-.518-21.26-8.2c-15.033-6.558-51.492-22.863-65.73-29.513-7.615-3.549-12.183-5.8-14.815-7.243-2.626-1.423-3.361-2.14-3.177-2.355" transform="translate(222.674 104.354)" fill="#fffeff"/>
    <path id="Trazado_517" data-name="Trazado 517" d="M238.923,184.994c.232-.532,3.489.473,18.9,7.03,14.566,6.2,51.519,22.423,66.678,29.252,17.795,8.015,21.006,9.874,20.73,10.456s-3.71-.484-21.526-8.124c-15.2-6.516-52.047-22.736-66.466-29.28-15.419-7-18.545-8.8-18.311-9.334" transform="translate(235.149 102.917)" fill="#fffeff"/>
    <path id="Trazado_518" data-name="Trazado 518" d="M300.454,201.153c-.272-.511.5-1.37,5.139-4.093,4.384-2.57,15.776-8.719,20.547-11.115,5.6-2.811,6.846-3.017,7.159-2.453s-.5,1.459-5.9,4.566c-4.608,2.648-16.015,8.764-20.586,11.01-4.888,2.4-6.085,2.6-6.361,2.084" transform="translate(151.305 102.009)" fill="#fffeff"/>
    <path id="Trazado_519" data-name="Trazado 519" d="M295.92,202.041c-.291-.5.3-1.3,4.074-3.756,3.571-2.321,12.9-7.838,16.831-9.975,4.611-2.511,5.682-2.665,6.018-2.117s-.277,1.382-4.686,4.181c-3.759,2.39-13.117,7.878-16.885,9.88-4.032,2.142-5.059,2.293-5.352,1.787" transform="translate(168.826 103.508)" fill="#fffeff"/>
    <path id="Trazado_520" data-name="Trazado 520" d="M291.621,207.69c-.279-.509.515-1.4,5.255-4.281,4.483-2.727,16.129-9.269,21.011-11.826,5.729-3.006,7.01-3.254,7.34-2.7s-.492,1.476-6.02,4.773c-4.715,2.815-16.4,9.331-21.076,11.739-5,2.57-6.23,2.808-6.51,2.295" transform="translate(173.124 105.019)" fill="#fffeff"/>
    <path id="Trazado_521" data-name="Trazado 521" d="M284.549,204.205c-.286-.509.131-1.172,2.978-3.082l12.5-8.019c3.328-2.142,4.116-2.348,4.536-1.828.389.476.106,1.329-3.081,3.808A108.542,108.542,0,0,1,288.79,203.1c-3.11,1.6-3.957,1.611-4.242,1.105" transform="translate(204.768 106.349)" fill="#fffeff"/>
    <path id="Trazado_522" data-name="Trazado 522" d="M278.362,206.823c-.311-.489.082-1.2,2.955-3.254,2.716-1.943,9.888-6.5,12.928-8.249,3.568-2.049,4.444-2.119,4.785-1.572s-.076,1.291-3.432,3.622c-2.861,1.989-10.036,6.509-12.953,8.134-3.121,1.739-3.97,1.812-4.282,1.319" transform="translate(219.989 107.697)" fill="#fffeff"/>
    <path id="Trazado_523" data-name="Trazado 523" d="M273.709,209.3c-.288-.509.087-1.147,2.72-2.959,2.511-1.683,8.935-5.877,11.453-7.718,2.979-2.117,3.658-2.385,4.142-1.9.431.419.28,1.322-2.6,3.817a80.644,80.644,0,0,1-11.716,7.773c-2.9,1.512-3.711,1.5-4,.992" transform="translate(234.145 109.4)" fill="#fffeff"/>
    <path id="Trazado_524" data-name="Trazado 524" d="M266.923,212.269c-.324-.479.019-1.185,2.682-3.236,2.517-1.94,9.2-6.5,12.036-8.247,3.336-2.053,4.181-2.133,4.547-1.6s0,1.266-3.113,3.6c-2.659,1.989-9.356,6.516-12.088,8.149-2.923,1.745-3.738,1.823-4.064,1.339" transform="translate(250.637 110.73)" fill="#fffeff"/>
    <path id="Trazado_525" data-name="Trazado 525" d="M280.7,202.141c.3.5-.117,1.2-3.067,3.215-2.79,1.9-10.139,6.356-13.249,8.056-3.65,2-4.536,2.05-4.869,1.5s.107-1.29,3.552-3.574c2.941-1.947,10.3-6.362,13.282-7.945,3.193-1.692,4.049-1.751,4.351-1.25" transform="translate(267.68 112.378)" fill="#fffeff"/>
    <path id="Trazado_526" data-name="Trazado 526" d="M253.028,222.855c-.268-.517.5-1.339,5.016-3.954,4.281-2.458,15.332-8.459,19.828-10.983,5.305-2.919,6.347-3.339,6.758-2.794.369.478-.28,1.621-5.441,4.869-4.382,2.808-15.467,8.788-19.938,10.922-4.773,2.3-5.954,2.456-6.222,1.94" transform="translate(273.773 114.078)" fill="#fffeff"/>
    <path id="Trazado_527" data-name="Trazado 527" d="M245.553,226.955c-.266-.517.562-1.373,5.414-4.135,4.592-2.6,16.448-8.939,21.308-11.56,5.721-3.05,6.893-3.44,7.267-2.881.342.509-.417,1.6-5.978,4.975-4.732,2.9-16.613,9.209-21.392,11.482-5.1,2.444-6.353,2.637-6.619,2.119" transform="translate(290.51 115.884)" fill="#fffeff"/>
    <path id="Trazado_528" data-name="Trazado 528" d="M237.819,229.67c-.248-.528.629-1.359,5.655-3.98,4.759-2.466,17.027-8.464,22.041-10.967,5.915-2.894,7.053-3.31,7.436-2.744.346.5-.448,1.659-6.216,4.879-4.9,2.786-17.2,8.756-22.128,10.891-5.269,2.3-6.541,2.45-6.789,1.923" transform="translate(309.127 117.887)" fill="#fffeff"/>
  </g>
</svg>
