<svg xmlns="http://www.w3.org/2000/svg" xmlns:xlink="http://www.w3.org/1999/xlink" width="861.008" height="493.25" viewBox="0 0 861.008 493.25">
  <defs>
    <linearGradient id="linear-gradient" x1="0.233" x2="0.641" y2="0.911" gradientUnits="objectBoundingBox">
      <stop offset="0" stop-color="#00e0ee"/>
      <stop offset="0.478" stop-color="#ad26fb"/>
      <stop offset="1" stop-color="#0740db"/>
    </linearGradient>
  </defs>
  <g id="Grupo_372" data-name="Grupo 372" transform="translate(0.001 -2.631)">
    <g id="Grupo_373" data-name="Grupo 373" transform="translate(-0.001 2.631)">
      <path id="Trazado_183" data-name="Trazado 183" d="M275.651,67.673c-1.673-8.348-13.135-23.468-33.159-22.92C219.2,45.394,209.4,71.6,213.232,94.112l6.219,8.005s21.235-7.232,16.821-31.588c0,0,37.732,5.4,39.38-2.856" transform="translate(241.623 24.739)" fill="#181818"/>
      <path id="Trazado_184" data-name="Trazado 184" d="M66.571,226.092a3.146,3.146,0,0,1,1.091-.871c-.06-1.786.722-3.621,1.971-3.979,1.3-.371,3.045.579,3.552,3.01.992.146,1.725.524,1.848,1.2.04.225.116.689.214,1.322-.04-3.314-.058-5.468-.044-5.99.1-3.731,3.168-3.22,3.168-3.22.256-3.832,5.468-2.707,5.672-.46,0,0,3.322-.5,3.683.833.542,1.984.856,16.481.725,16.978-.4,1.529-1.43,1.18-1.327,2.253s1.246,22.128,1.246,22.128l-4.225,49.483-2.642.88a10.092,10.092,0,0,1-.152,2.9c-3.007,5.494-9.081,2.011-9.081,0s-4.049-55.419-4.345-61.144-2.706-23.4-1.353-25.323" transform="translate(665.468 130.016)" fill="#fffeff"/>
      <path id="Trazado_185" data-name="Trazado 185" d="M44.378,205.3c3.22-1.78,10.1.437,11.7,6.78,6.359-4.9,16.7-6.44,21.2,6.958,4.482,13.4.5,22.039-8.819,30.017-9.321,7.994-15.518,2.7-16.214,4.223-.1.194-.453,1.2-1.019,2.783-2.087-2.524-8.77-3.786-16.279-3.916,3.835-23.593,7.929-46.02,9.434-46.846M57.4,240.467c1.651,2.217,6.618,2.88,9.5-3.932,1.57-3.706.793-14.855-3.511-13.463-3.77,1.23-8.8,13.609-5.987,17.4" transform="translate(725.345 123.627)" fill="#00e0ee"/>
      <path id="Trazado_186" data-name="Trazado 186" d="M120.163,125.872c-8.866-14.018-36.818-20.525-55.729-10.387-13.259,7.107-15.169,12.86-13.19,27.37s17.271,41.132,45.506,44.024c15.633,1.6,24.641-2.571,29.6-12.149,6.031-11.649,5.324-30.656-6.188-48.857" transform="translate(649.066 65.425)" fill="#fffeff"/>
      <path id="Trazado_187" data-name="Trazado 187" d="M223.01,101.393c-10.334-5.884-13.9-14.728-10.936-22.1,2.689-6.677,14.272,3.887,15.672,10.474,0,0,11.337-6.117,11.746-11.838s-.409-19.416.817-20.132,38.525,5.518,43.737,1.838c0,0,1.534,4.4,2.146,28.716.681,26.971-5.5,52.954-31.985,46.5-10.125-2.469-31.2-33.457-31.2-33.457" transform="translate(233.227 32.776)" fill="#fffeff"/>
      <path id="Trazado_189" data-name="Trazado 189" d="M207.586,263.894s22.525,24.5,59.208,31.6c14.159,2.735,29.839.971,43.755-2.233a203.8,203.8,0,0,0,39.92-13.851c-.631-17.8,3.188-43.5,4.854-56.522.21-1.634.388-3.058.518-4.256.388-3.528,1.133-8.22,1.942-13.544,1.019-6.683,2.12-14.369,2.686-21.958v-.1a113.522,113.522,0,0,0,.259-13.8s-113.951-12.654-123.53-2.654c-1.311,1.359-2.816,4.175-4.434,8.01-3.609,8.512-7.783,22.072-11.683,36.085-7.217,25.842-13.5,53.221-13.5,53.221" transform="translate(164.264 97.676)" fill="#0740db"/>
      <path id="Trazado_190" data-name="Trazado 190" d="M397.536,243.836c-3.738,22.866,1.945,40.485,1.945,40.485s-187.1,3.965-186.535,2.549,5.662-37.938,1.982-45.582Z" transform="translate(116.948 146.237)" fill="#0740db"/>
      <path id="Trazado_192" data-name="Trazado 192" d="M621.77,163.658c-23.4-21.081-42.164-39.423-55.867-52.915S545.875,87.973,529.221,79.33s-22.557-6.325-55.234-4.638c0,0-10.542-16.866-34.365-25.931s-51.44-7.8-76.948,13.492-52.283,48.7-70.625,89.387-18.293,61.018-18.293,61.018,2.062,62.1,37.689,70.744,106.886,0,106.886,0l14.377-23.682s17.457-36.824,24.413-50.737,4.638-19.4,42.585-46.38c0,0,33.993,24.227,55.446,50.055Z" transform="translate(-203.743 23.931)" fill="#fffeff"/>
      <path id="Trazado_193" data-name="Trazado 193" d="M209.122,237.329c6.274-4.2,20.759-9.9,33.889-9.942,11.932-.037,22.544,4.874,28.651,14.646L248.94,288.384s-11.355-21.56-13.9-24.622c0,0-6.555-.887-8.8.256-3.007,1.524-13.07,6.855-28.177-7.864Z" transform="translate(268.862 137.644)" fill="#fffeff"/>
      <path id="Trazado_194" data-name="Trazado 194" d="M167.549,323.72c21.845,23.916,112.3,25.065,152.2,16.894a114.767,114.767,0,0,1,4.272-14.256c3.657-10.486,8.236-21.845,8.236-21.845-7.605.356-33.059-5.647-52.315-11.829-19.256-6.2-49.176-13.431-49.176-13.431a161.827,161.827,0,0,1,8.916-36.263c6.942-19.3,15.195-33.544,15.518-33.544.534,0,116.054,28.722,116.054,28.722v.016c.761,2.864,1.7,5.922,2.864,9.175,4.871,13.868,13.706,31.182,30.162,49.775l60.972-24.483c-7.476-17.428-14.483-32.849-21.068-46.506-5.518-11.457-10.745-21.651-15.68-30.745-21.036-38.771-36.765-57.234-48.221-65.762-17.33-12.913-43.917-14.612-43.917-14.612l-40.389-5.21c-30.858-2.427-52.833,1.926-75.244,19.11-17.735,13.593-34.256,44.694-46.182,71.409-3.139,7.055-5.971,13.787-8.414,19.822-1.909,4.676-3.9,9.741-5.777,15.081-9.758,27.622-16.586,62.445,7.185,88.481" transform="translate(150.789 64.583)" fill="url(#linear-gradient)"/>
      <path id="Trazado_195" data-name="Trazado 195" d="M130.614,205.267c-3.35.874-53.807,109.637-53.807,111.255s188.325,4.047,189.741,2.023,43.491-111.457,41.064-113.278-172.345-1.214-177,0" transform="translate(429.011 123.261)" fill="#181818"/>
      <path id="Trazado_196" data-name="Trazado 196" d="M237.305,80.831c1.092,16.052-1.515,37.731-7.277,46.512,0,0,4.309,11.618,18.8,14.131,14.358,2.49,19.445-3.155,21.591-8.918,0,0,.487-14.847,1.6-18.963s-34.714-32.763-34.714-32.763" transform="translate(216.741 47.049)" fill="#fffeff"/>
      <path id="Trazado_197" data-name="Trazado 197" d="M368,15.616c-.324.215-27.145,14.777-30.465,27.128L346.573,52S370.257,39.515,368,15.616" transform="translate(-53.319 6.736)" fill="#181818"/>
      <path id="Trazado_198" data-name="Trazado 198" d="M334.258,59.1c9.612,19.644,23.253,28.14,35.858,27.039s21.667-15.664,25.454-39.774c2.346-14.839,1.8-24.531,1.036-29.79-9.029-1.731-23.528-4.369-40.325,5C350.941,43.5,338.3,49.178,338.3,49.178c-.615-2.621-2.832-4.935-5.7-6.683-4.547-2.783-10.712-4.126-14.677-2.961a4.84,4.84,0,0,0-3.867,4.142c-1.1,8.932,14.563,15.049,20.195,15.421" transform="translate(-44.368 6.269)" fill="#fffeff"/>
      <path id="Trazado_199" data-name="Trazado 199" d="M413.378,70.731c6.636,13.18,2.532,28.085-12.371,26.444s-25.3-10.118-29.81-16.546c0,0-5.7,10.256-17.64,8.342-17.913-2.872-19.418-38.7-3.419-40.748s63.239,22.509,63.239,22.509" transform="translate(-104.104 26.817)" fill="#ad26fb"/>
      <path id="Trazado_200" data-name="Trazado 200" d="M366.364,42.245c-7.6,8.482-28.4,18.827-28.4,18.827,2.215,7.2,6.515,27.478,16.91,31.35,4.324,1.612,13.662,1.108,21.376-9.107s23.816-24.29,23.816-24.29L372.737,37.035Z" transform="translate(-85.95 19.977)" fill="#fffeff"/>
      <path id="Trazado_201" data-name="Trazado 201" d="M42.185,26.955c-10.073-1.243-23.552-1.175-24.191-1.573S7.453,7.028,0,5.332c0,0,6.43-10.772,32.077-1.694,8.135,3.976,13.8,23.772,10.107,23.318" transform="translate(316.566 2.245) rotate(9)" fill="#181818"/>
      <path id="Trazado_202" data-name="Trazado 202" d="M324.017,50.811c3.276-1.012,8.407.034,12.21,2.292,6.667-8.522,13.212-14.076,19.408-17.625,13.83-7.962,25.89-5.935,33.4-4.6,5.217.4,11.509-5.226,8.294-11.3C392.3,13.672,391.384,7.653,372.081,6.1c-19.921.45-26.331,4.4-38.107,16.321-9.5,9.608-13.81,7.639-14.291,15.717a17.978,17.978,0,0,0,4.334,12.671" transform="translate(-49.112 -5.374)" fill="#181818"/>
      <path id="Trazado_203" data-name="Trazado 203" d="M381.639,228.35c3.528,19.466,8.317,39.176,12.9,66.118h73.206a151.211,151.211,0,0,1,6.036-48.642s5.259,22.379,10.016,48.642h76.523C554.6,265.519,542.1,210.161,536.06,195.08c0,0-11.764,15.227-45.454,15.227-33.674,0-95.277-14.531-113.5-62.3,0,0-5.5,25.017,4.531,80.342" transform="translate(-307.094 88.576)" fill="#181818"/>
      <path id="Trazado_204" data-name="Trazado 204" d="M260.615,110.246s4.272,35.583,23.253,75.422c18.981,39.855,49.419,57.59,93.222,57.412,43.706-.194,60.034-10.372,87.267-38.269,2.8-2.864,5.712-5.922,8.787-9.175,4.725,5.55,22.12-.5,24.855-6.165,3.091-6.392,1.909-15.308-2.007-23.221,8.382,1.262,12.589,3.981,20.761,6.02,11.942,2.994,16.036-4.757,13.317-6.052-10.356-4.887-35.341-16.117-62.38-9.24-8.56,2.168-14.79,4.644-21.878,7.152-15.275,5.4-34.5,10.955-89.6,14,0,0-4.256-15.453-9.369-28.269-5.1-12.816-7.945-30.357-8.188-33.69-.243-3.317-31.554-32.25-78.044-5.922" transform="translate(-91.585 58.456)" fill="#fffeff"/>
      <path id="Trazado_205" data-name="Trazado 205" d="M336.86,50.626c-7.257,1.238-8.379-6.2-8.948-6.6s-3.4,10.724,1.142,12.144,9.143-5.774,7.806-5.545" transform="translate(-4.448 24.292)" fill="#181818"/>
      <path id="Trazado_206" data-name="Trazado 206" d="M258.87,32.817a3.353,3.353,0,0,0,3.209,2.93,2.521,2.521,0,0,0,2.513-2.93,3.354,3.354,0,0,0-3.209-2.93,2.521,2.521,0,0,0-2.513,2.93" transform="translate(-231.542 15.558)" fill="#181818"/>
      <path id="Trazado_207" data-name="Trazado 207" d="M273.759,32.861a2.862,2.862,0,0,0,2.906,2.744,2.749,2.749,0,0,0,2.816-2.744,2.863,2.863,0,0,0-2.908-2.744,2.748,2.748,0,0,0-2.814,2.744" transform="translate(-270.536 15.7)" fill="#181818"/>
      <path id="Trazado_208" data-name="Trazado 208" d="M266.141,32.822A2.861,2.861,0,1,0,269,29.913a2.885,2.885,0,0,0-2.861,2.909" transform="translate(-250.591 15.574)" fill="#181818"/>
      <path id="Trazado_211" data-name="Trazado 211" d="M218.7,127.118c5.7,1.168,11.228,8.283,5.241,23.18s-9.346-2.337-9.346-2.337c-1.749,6.812-6.719,5.4-8.178-4.821,0,0-3.652,3.652-5.842,3.5s-.877-8.469-.877-8.469-3.5,4.235-5.842,1.752-1.46-25.256,3.5-24.311c0,0,6.719-11.177,13.29,2.99,0,0,6.3-3.9,8.049,8.51" transform="translate(322.792 65.965)" fill="#fffeff"/>
      <path id="Trazado_212" data-name="Trazado 212" d="M332.534,36a2.047,2.047,0,1,1-3.926-.591,2.047,2.047,0,1,1,3.926.591" transform="translate(-3.245 17.586)" fill="#181818"/>
      <path id="Trazado_213" data-name="Trazado 213" d="M229.822,78.385a2.047,2.047,0,1,1-1.984-2.549,2.32,2.32,0,0,1,1.984,2.549" transform="translate(265.72 43.962)" fill="#181818"/>
      <path id="Trazado_214" data-name="Trazado 214" d="M320.233,38.031a1.811,1.811,0,1,1-1.4-2.49,2.051,2.051,0,0,1,1.4,2.49" transform="translate(28.227 19.043)" fill="#181818"/>
      <path id="Trazado_215" data-name="Trazado 215" d="M218.067,79.665a1.811,1.811,0,1,1-1.756-2.254,2.053,2.053,0,0,1,1.756,2.254" transform="translate(295.755 44.935)" fill="#181818"/>
      <path id="Trazado_216" data-name="Trazado 216" d="M273.428,282.719c-8.851-3.445-61.16-18.719-61.147-19.831.006-.508,3.809-3.662,5.327-3.927,2.814-.49,65.935.337,67.393,0s-11.573,23.758-11.573,23.758" transform="translate(232.39 157.064)" fill="#181818"/>
      <path id="Trazado_217" data-name="Trazado 217" d="M295.973,258.294c-10.353,5.808-41.915,21.716-43.051,23.1s-2.021,3.283-1.011,5.05,5.176-1.01,6.693-2.019,25.881-11.363,50.247,12.877c9.727-6.931,22.834-12.241,42.548-19.507,1.481-.545-2.487-5.859-3.769-6.622s-24.007-14.735-51.657-12.884" transform="translate(102.368 156.646)" fill="#fffeff"/>
      <path id="Trazado_218" data-name="Trazado 218" d="M375.824,264.594c-11.258-5.672-31.709-10.206-47.351-5.79s-39.185,18.523-39.7,19.589,3.953,4.246,4.469,3.731,8.227-4.555,18.678-3.351,14.505,2.717,20.358,8.421c2.078,2.024,5.992-1.718,5.037-5.118.773-1.461,38.509-17.483,38.509-17.483" transform="translate(17.973 155.968)" fill="#fffeff"/>
      <path id="Trazado_219" data-name="Trazado 219" d="M355.383,271.777c.2-.654,2.77-1.749,8.992-1.6.061-1.057.162-2.358.314-3.9a30.354,30.354,0,0,1-3.879-1.228c-2.688-1.434-.419-11.641,2.756-12.649,3.568-1.133,61.006.471,73.727.2,0,0,36.334,9.414,64.987,15.813a2.15,2.15,0,0,1-.343.379,8.64,8.64,0,0,0-1.362,6.851c5.034,1.3,12.138,3.223,13.814,4.108,2.66,1.4.312,9.471-.783,9.628-.107.016-1.081.021-2.74.021,2.524,5.353-1.254,11.817-2.343,12.076-1.191.283-86.463.113-89.128.227s-63.5-18.824-64.011-19.334-.227-9.866,0-10.6" transform="translate(-229.207 152.858)" fill="#fffeff"/>
      <path id="Trazado_220" data-name="Trazado 220" d="M1.158,193.038c-.29,3.895,2.176,7.052,5.508,7.052s6.267-3.157,6.557-7.052-2.176-7.052-5.508-7.052-6.267,3.157-6.557,7.052" transform="translate(845.926 112.052)" fill="#181818"/>
      <path id="Trazado_221" data-name="Trazado 221" d="M98.464,293.623c-2.369,5.183-10.453,5.3-46.219,5.3S7.823,291.542,8.286,288.889s13.882-22.2,46.762-21.246c35.247,1.028,45.263,21.941,43.417,25.98" transform="translate(748.955 162.508)" fill="#fffeff"/>
      <path id="Trazado_222" data-name="Trazado 222" d="M78.814,109.2c-5.058-5.492-11.57-1.961-25.221,11.563s-11.049,19.261-8.3,21.746c2.806,2.534,9.436,4.591,22.455-7.91s14.733-21.416,11.063-25.4" transform="translate(710.767 63.056)" fill="#00e0ee"/>
      <path id="Trazado_223" data-name="Trazado 223" d="M85.971,202.392c.521-2.73-11.568-2.6-12.062-1.608-1.861,3.722-23.08,121.483-22.335,122.477s12.037,2.233,12.41,0S84.945,207.774,85.971,202.392" transform="translate(691.596 120.8)" fill="#181818"/>
      <path id="Trazado_224" data-name="Trazado 224" d="M164.4,202.307c18.2,8.188,54.192,10.874,74.193,8.528,1.861-.21,3.576-.469,5.13-.777.178-.032.372-.081.55-.113,19.628,14.483,89.112,25.373,128.563,13.107.21-1.634.388-3.058.518-4.256.388-3.528,1.133-8.22,1.942-13.544.761,2.864,1.7,5.922,2.864,9.175,24.143.761,48.108-1.715,70.066-21.214-5.518-11.457-10.745-21.651-15.68-30.745-13.059,11.23-35.567,18.4-54.192,15.971l-.372,4.757v.1c-58.351,7.492-89.112,1.845-117.883-7.411a81.494,81.494,0,0,1-9.822-1.133c-10.923-1.845-23.463-5.324-26.959-6.246l-44.726-1.1c-3.139,7.055-5.971,13.787-8.414,19.822-1.909,4.676-3.9,9.741-5.777,15.081" transform="translate(146.75 97.514)" fill="#fffeff"/>
      <path id="Trazado_225" data-name="Trazado 225" d="M382.209,213.263c-.369.01-.851-2.042-.018-8.884.913-6.806,3.214-18.445,10.1-36.718,1.626-4.317,3.712-9.411,6.191-15.065,1.251-2.825,2.67-5.77,4.12-8.851,1.6-3.008,3.1-6.228,4.947-9.39a226.581,226.581,0,0,1,27.31-38.918,297.813,297.813,0,0,1,34.334-33.321c11.474-9.709,23.946-15.517,33.577-17.628a68,68,0,0,1,15.5-1.987l1.725-.045c.566.024,1.125.045,1.675.068l3.2.136c2.058.243,4,.379,5.8.693A72.71,72.71,0,0,1,546.7,47.724a37.237,37.237,0,0,1,4.46,2.049c1.17.6,2.057,1.087,2.715,1.476,1.316.778,1.715,1.175,1.615,1.374s-.662.172-2.081-.252c-.71-.212-1.633-.524-2.819-.956-1.2-.406-2.6-1.062-4.439-1.565l-2.969-.929L539.632,48a84.469,84.469,0,0,0-8.986-1.7c-1.717-.3-3.576-.341-5.534-.547-.982-.073-2-.055-3.044-.089-1.044-.016-2.12-.076-3.225.006a68.724,68.724,0,0,0-14.672,1.973c-9.107,2.086-20.984,7.431-32.074,16.769A306.8,306.8,0,0,0,438.192,97.2a226.374,226.374,0,0,0-14.918,18.916A212.44,212.44,0,0,0,411.1,135.292a263.254,263.254,0,0,0-15.45,32.684c-7.2,18.161-9.957,29.7-11.411,36.46-1.4,6.785-1.591,8.832-2.029,8.827" transform="translate(-312.194 23.327)" fill="#181818"/>
      <path id="Trazado_226" data-name="Trazado 226" d="M284.764,62.251c.053-.369.973-.681,4.034-.241s8.243,1.939,15.864,6.078A78.092,78.092,0,0,1,318.14,77.35c5.008,4.214,9.952,9.547,14.952,14.711,4.95,5.2,10.245,10.13,14.9,14.67l11.809,11.51c14.183,13.978,16.52,17.013,15.911,17.665s-3.613-1.456-18.067-15.015c-3.071-2.913-7.236-6.863-11.944-11.329-4.673-4.5-9.987-9.419-14.994-14.675-5.026-5.209-9.853-10.473-14.583-14.584a82.529,82.529,0,0,0-12.709-9.186A78.754,78.754,0,0,0,288.435,64c-2.853-.956-3.736-1.325-3.672-1.752" transform="translate(24.423 35.282)" fill="#181818"/>
      <path id="Trazado_227" data-name="Trazado 227" d="M364.9,152.606c-.587.592-2.037-.212-7.955-5.376-2.793-2.445-7.733-6.806-12.795-11.1l-13.206-11.073c-7.034-5.879-8.138-7.285-7.6-8.023.51-.7,2.27-.218,9.618,5.28,3.133,2.348,8.376,6.552,13.444,10.906s9.965,8.845,12.614,11.505c5.67,5.686,6.427,7.332,5.877,7.884" transform="translate(-27.077 69.273)" fill="#181818"/>
      <path id="Trazado_228" data-name="Trazado 228" d="M506.811,197.759c.277.267-.96,2.1-6.123,7.654-2.612,2.749-6.151,6.494-11.348,11.088-1.265,1.183-2.7,2.348-4.227,3.587-.765.615-1.529,1.28-2.366,1.906l-2.6,1.9a81.92,81.92,0,0,1-12.735,7.61,80.9,80.9,0,0,1-17.313,5.935,126.04,126.04,0,0,1-22.515,2.911,172.1,172.1,0,0,1-25.687-.328,107.754,107.754,0,0,1-26.734-5.934,88.106,88.106,0,0,1-12.62-5.806c-2.026-1.092-3.96-2.379-5.908-3.589-1.9-1.295-3.751-2.638-5.526-4.052a94.858,94.858,0,0,1-17.916-19.054,127.315,127.315,0,0,1-11.6-20.107c-2.955-6.41-5.45-12.243-7.338-17.279A267.35,267.35,0,0,1,304.89,135c-1.986-7.743-3.112-13.567-3.825-17.856-1.39-8.591-1.193-11.042-.78-11.089.469-.058.985,2.173,2.88,10.448.966,4.133,2.293,9.775,4.422,17.314s5.07,16.975,9.592,28.514l1.515,3.851q.845,1.981,1.752,4.113c1.168,2.858,2.584,5.83,4.031,8.984a124.356,124.356,0,0,0,11.191,19.52,92.32,92.32,0,0,0,17.046,18.41,83.325,83.325,0,0,0,22.848,13.1,103.316,103.316,0,0,0,25.717,6c4.317.46,8.6.689,12.795.757,2.1.045,4.178.01,6.236-.037s4.091-.021,6.079-.167c15.968-.568,29.693-3.61,38.718-7.889,2.479-.99,4.651-2.324,6.808-3.4,2.04-1.295,4.055-2.395,5.824-3.668,3.6-2.445,6.662-4.854,9.332-7.057L490.8,211.7l3.18-2.859c2-1.748,3.623-3.337,5.055-4.636,5.659-5.274,7.469-6.738,7.775-6.442" transform="translate(-131.255 62.643)" fill="#181818"/>
      <path id="Trazado_229" data-name="Trazado 229" d="M281.406,163.915c-.272-.131-.427-.4-.383-1.016s.251-1.579.511-3.181a27.179,27.179,0,0,0,.084-7.047,40.562,40.562,0,0,0-1.553-7.125c-1.2-3.72-1.3-4.542-.662-4.856.552-.277,1.413.128,3.052,3.958a29.865,29.865,0,0,1,1.895,7.638,22.252,22.252,0,0,1-.413,7.843,8.786,8.786,0,0,1-1.506,3.338c-.447.521-.749.579-1.024.448" transform="translate(125.006 84.009)" fill="#181818"/>
      <path id="Trazado_230" data-name="Trazado 230" d="M452.222,158.04c-.18.387-1.869-.139-7.481-2.248-2.82-1.011-6.631-2.408-11.848-3.866q-1.949-.57-4.183-1.078c-1.481-.385-3.071-.683-4.751-1.015-1.673-.361-3.473-.552-5.351-.864-1.895-.163-3.88-.477-5.984-.532a79.636,79.636,0,0,0-12.719.285,87.421,87.421,0,0,0-15.347,3.382c-5.447,1.633-11.107,3.822-17.1,5.929a179.853,179.853,0,0,1-18.748,5.5,311.661,311.661,0,0,1-38.268,5.819c-6.073.657-11.887,1.008-17.269,1.456l-16.123.974c-.581-2.049-1.086-3.835-1.532-5.418-.35-1.18-.655-2.207-.927-3.126-.563-1.835-.994-3.24-1.4-4.566-1.487-4.756-2.911-9-4.282-12.769-1.377-3.715-2.72-7.183-3.591-10.262a125.264,125.264,0,0,1-3.335-14.238c-1.152-6.858-.982-8.816-.571-8.88.468-.076,1.008,1.689,2.672,8.249.858,3.272,1.982,7.759,3.913,13.66.477,1.476,1.036,3.028,1.652,4.667q.985,2.478,2.091,5.264c1.46,3.767,2.973,8,4.526,12.751.445,1.392.916,2.867,1.531,4.8.479,1.592,1.068,3.558,1.861,6.2,3.926-.265,8.369-.563,13.19-.887,5.321-.473,11.078-.833,17.064-1.5a318.56,318.56,0,0,0,37.564-5.683,177.327,177.327,0,0,0,18.277-5.254c5.876-2.024,11.586-4.21,17.141-5.871a87.068,87.068,0,0,1,15.884-3.484,75.091,75.091,0,0,1,13.227-.29,88.262,88.262,0,0,1,21.172,4.007,99.549,99.549,0,0,1,12.112,4.672c5.626,2.694,7.1,3.871,6.935,4.214" transform="translate(-13.73 66.64)" fill="#181818"/>
      <path id="Trazado_231" data-name="Trazado 231" d="M302.315,139.359c.3-.015.581.3.875,1.413l.528,2.306c.11.518.228,1.078.361,1.7l.532,2.1a71.56,71.56,0,0,0,4.756,12.973,99.74,99.74,0,0,0,7,12.272c2.078,3.141,3.38,4.971,4.049,6.109s.7,1.591.447,1.809-.681.131-1.686-.736a35.666,35.666,0,0,1-4.848-5.641,78.3,78.3,0,0,1-7.388-12.5,59.566,59.566,0,0,1-4.668-13.589c-.144-.827-.273-1.579-.392-2.269-.065-.672-.121-1.28-.175-1.841a13.2,13.2,0,0,1-.018-2.515c.1-1.214.33-1.574.633-1.589" transform="translate(51.917 83.229)" fill="#181818"/>
      <path id="Trazado_232" data-name="Trazado 232" d="M295.347,145.609a.377.377,0,0,1,.455-.1,2.039,2.039,0,0,1,.827.659,15.336,15.336,0,0,1,2.181,4.453,44.3,44.3,0,0,1,2.262,10.575,18.036,18.036,0,0,1-.045,3.338,9.252,9.252,0,0,1-1.117,3.253A6.365,6.365,0,0,1,297.6,170.1a5.932,5.932,0,0,1-2.586.7,7.7,7.7,0,0,1-3.887-.927,7.014,7.014,0,0,1-1.824-1.35c-.736-.791-.725-1.207-.511-1.443.231-.259.591-.259,1.435.091.419.178.984.417,1.733.68a7.261,7.261,0,0,0,2.824.411,3.311,3.311,0,0,0,2.736-1.772,6.878,6.878,0,0,0,.756-2.235,15.081,15.081,0,0,0,.05-2.775,58.115,58.115,0,0,0-1.812-10.037c-.608-2.34-1.028-3.725-1.21-4.537a2.89,2.89,0,0,1-.118-.833.771.771,0,0,1,.162-.464" transform="translate(92.774 87.012)" fill="#181818"/>
      <path id="Trazado_233" data-name="Trazado 233" d="M430.334,199.125c.5.348.681.728.215,2.311-.463,1.476-1.777,5.287-2.419,6.838-.772,1.811-1.282,2.049-1.924,1.851s-.942-.665-.515-2.608a33.03,33.03,0,0,1,2.6-7.011c.9-1.547,1.545-1.725,2.039-1.38" transform="translate(-258.329 120.082)" fill="#fffeff"/>
      <path id="Trazado_234" data-name="Trazado 234" d="M387.858,112.007c.029.4-.157.727-1.324,1.644l-6.6,5.008c-3.157,2.511-9.1,6.785-14.847,11.162-5.788,4.382-11.4,9.02-14.526,11.85-3.7,3.3-5.741,5.39-7.044,6.521s-1.854,1.316-2.218,1.042c-.348-.26-.38-.858.5-2.393a39.067,39.067,0,0,1,6.335-7.56,154.845,154.845,0,0,1,14.576-12.274c5.863-4.445,11.78-8.5,15.169-10.874a36.3,36.3,0,0,1,7.654-4.24c1.549-.531,2.3-.309,2.329.113" transform="translate(-78.757 66.059)" fill="#181818"/>
      <path id="Trazado_235" data-name="Trazado 235" d="M285.268,144.164c.541-.17,1.223.3,2.21,3.482a29.365,29.365,0,0,1,1.089,7.155,21.979,21.979,0,0,1-.319,4.214,13.261,13.261,0,0,1-1.062,3.264,6.357,6.357,0,0,1-2.723,3.065c-.712.293-1,.168-1.191-.107s-.2-.613.1-1.12a17.744,17.744,0,0,0,1.455-2.825,14.251,14.251,0,0,0,.723-2.7,22.436,22.436,0,0,0,.252-3.683,44.7,44.7,0,0,0-.689-6.652c-.539-3.142-.464-3.906.15-4.1" transform="translate(114.27 86.18)" fill="#181818"/>
      <path id="Trazado_236" data-name="Trazado 236" d="M352.316,150.106c-.048-.6,1.018-1.091,6.437-1.722,5.123-.6,18.225-1.638,23.633-1.9,6.35-.311,7.575.021,7.613.689s-1.094,1.178-7.368,1.853c-5.354.574-18.411,1.573-23.564,1.78-5.507.222-6.7-.094-6.753-.7" transform="translate(-99.093 87.56)" fill="#181818"/>
      <path id="Trazado_237" data-name="Trazado 237" d="M327.837,183.351c-.46.316-1.693-.471-4.854-6.063a86.6,86.6,0,0,1-5.625-12.639,85.186,85.186,0,0,1-3.646-13.6c-.291-1.854-.45-3.345-.573-4.524-.057-1.191-.06-2.074-.024-2.727.073-1.3.307-1.672.641-1.7s.641.285.987,1.5c.173.607.356,1.439.555,2.563.262,1.118.542,2.532.9,4.3a115.477,115.477,0,0,0,3.715,13.135,125.2,125.2,0,0,0,5.17,12.447c2.749,5.714,3.3,6.952,2.754,7.309" transform="translate(26.351 84.92)" fill="#181818"/>
      <path id="Trazado_238" data-name="Trazado 238" d="M358.885,57.116c-.29-.54.3-1.275,3.9-3.545,1.7-1.078,4.754-2.922,7.761-4.864s5.939-4.013,7.6-5.262c3.884-2.939,4.634-3.486,5.185-3,.246.225.29.571-.168,1.346a16.7,16.7,0,0,1-3.366,3.6,71.44,71.44,0,0,1-7.678,5.581c-3.073,1.966-6.22,3.743-8.041,4.664-3.9,1.963-4.916,2-5.2,1.477" transform="translate(-103.138 21.988)" fill="#181818"/>
      <path id="Trazado_239" data-name="Trazado 239" d="M366.273,51.9c.574-.189,1.285.77,2.911,5.787.783,2.364,2.086,6.571,3.749,10.626a41.214,41.214,0,0,0,5.437,9.73,21.821,21.821,0,0,0,3.969,3.895c.79.62.96,1.01.843,1.322s-.463.448-1.571.147a6.773,6.773,0,0,1-2.142-1.036,7.308,7.308,0,0,1-1.411-1.065,12.586,12.586,0,0,1-1.578-1.54,36.458,36.458,0,0,1-6.052-10.295,84.411,84.411,0,0,1-3.552-10.989c-1.259-5.241-1.178-6.393-.6-6.583" transform="translate(-114.247 29.15)" fill="#181818"/>
      <path id="Trazado_240" data-name="Trazado 240" d="M342.809,81.953c.021-.314.366-.508,1.439-.733a26.533,26.533,0,0,0,5.7-1.676,22.109,22.109,0,0,0,4.863-2.947,28.662,28.662,0,0,0,5.175-5.395,102.8,102.8,0,0,1,9.557-10.644c5.45-5.251,6.838-5.856,7.283-5.392.479.5-.29,1.694-5.387,7.1-2.147,2.322-5.922,6.269-9.168,10.491a29.71,29.71,0,0,1-5.706,5.848A21.817,21.817,0,0,1,351,81.745a14.071,14.071,0,0,1-6.66.99c-1.223-.175-1.55-.5-1.529-.782" transform="translate(-70.654 31.106)" fill="#181818"/>
      <path id="Trazado_241" data-name="Trazado 241" d="M361.818,30.166c.062.3-.12.57-.72.956a5.885,5.885,0,0,0-2.4,2.3,3.774,3.774,0,0,0-.312,1.286,7.419,7.419,0,0,0,.131,1.824,8.789,8.789,0,0,0,2.129,3.906,26.485,26.485,0,0,0,7.11,5.212c2.131,1.139,3.46,1.73,4.181,2.214.733.464.88.8.782,1.12s-.392.51-1.286.44a16.14,16.14,0,0,1-4.736-1.448,24.679,24.679,0,0,1-8.06-5.641,11.1,11.1,0,0,1-2.719-5.185,7.244,7.244,0,0,1,.568-4.751,5.268,5.268,0,0,1,2.369-2.231,5,5,0,0,1,1.767-.485c.867-.044,1.141.2,1.2.484" transform="translate(-87.414 15.428)" fill="#181818"/>
      <path id="Trazado_242" data-name="Trazado 242" d="M313.865,67.313c.235-.215.851.147,2.644,1.621.9.728,2.1,1.738,3.809,2.935a36.636,36.636,0,0,0,6.871,3.861,25.982,25.982,0,0,0,11.683,2.045,17.133,17.133,0,0,0,6.966-2.032,21.815,21.815,0,0,0,5.981-5.094c3.516-4.121,5.851-9.261,7.558-13.934a95.426,95.426,0,0,0,3.44-12.262c1.6-7.558,2.138-12.169,2.621-14.8.447-2.647.743-3.371,1.083-3.35s.578.751.557,3.429a90.971,90.971,0,0,1-1.714,15.021,89.852,89.852,0,0,1-3.335,12.633c-1.743,4.851-4.086,10.272-7.911,14.813a23.764,23.764,0,0,1-6.681,5.762,19.58,19.58,0,0,1-8.068,2.458,27.327,27.327,0,0,1-12.846-2.325,32.341,32.341,0,0,1-7.285-4.463,30.355,30.355,0,0,1-3.709-3.534c-1.613-1.859-1.874-2.592-1.663-2.783" transform="translate(-13.853 13.342)" fill="#181818"/>
      <path id="Trazado_243" data-name="Trazado 243" d="M345.25,36.615c-.5-.328-.636-.88.264-2.576a44.5,44.5,0,0,1,4.822-6.777c1.537-1.655,2.168-1.685,2.665-1.252s.553,1-.633,2.8c-1.029,1.528-3.665,5.193-4.814,6.565-1.241,1.458-1.795,1.574-2.3,1.241" transform="translate(-50.363 13.016)" fill="#fffeff"/>
      <path id="Trazado_244" data-name="Trazado 244" d="M254,25.1Z" transform="translate(195.996 12.601)" fill="none" stroke="#353535" stroke-miterlimit="10" stroke-width="0.2"/>
      <path id="Trazado_245" data-name="Trazado 245" d="M365.733,25.19c0-.8,7.855-1.33,46.655-1.532,36.68-.191,130.2-.037,168.73.246,45.236.33,53.81.916,53.809,1.807s-8.257,1.439-53.2,1.6c-38.341.136-131.705-.068-168.424-.4-39.261-.351-47.571-.909-47.571-1.72" transform="translate(-365.733 11.655)" fill="#181818"/>
      <path id="Trazado_246" data-name="Trazado 246" d="M257.691,25.661c0-.8,2.736-1.34,16.24-1.591,12.769-.238,45.317-.2,58.729.032,15.743.273,18.729.848,18.727,1.74s-2.877,1.45-18.518,1.665c-13.347.183-45.842.1-58.623-.186-13.665-.3-16.557-.85-16.555-1.66" transform="translate(92.636 11.862)" fill="#181818"/>
      <path id="Trazado_247" data-name="Trazado 247" d="M254.7,28.795c.8,0,1.345.921,1.621,5.474.264,4.3.29,15.279.083,19.8-.244,5.308-.812,6.314-1.7,6.314s-1.455-.968-1.7-6.243c-.21-4.5-.186-15.455.073-19.764.275-4.607.817-5.583,1.628-5.583" transform="translate(195.292 14.883)" fill="#181818"/>
      <path id="Trazado_248" data-name="Trazado 248" d="M640.364,239.224c0,.8-8.762,1.345-52.058,1.621-40.935.264-145.29.29-188.292.082-50.478-.244-60.05-.812-60.05-1.7s9.211-1.455,59.362-1.7c42.787-.21,146.974-.186,187.949.073,43.815.275,53.089.817,53.089,1.628" transform="translate(-329.472 143.823)" fill="#181818"/>
      <path id="Trazado_249" data-name="Trazado 249" d="M367.623,38.631c0-.6,7.413-1.008,44.037-1.217,34.627-.2,122.9-.217,159.28-.061,42.7.183,50.8.61,50.8,1.278s-7.791,1.091-50.215,1.275c-36.2.157-124.33.139-158.991-.053-37.064-.207-44.909-.613-44.909-1.222" transform="translate(-355.602 20.109)" fill="#181818"/>
      <path id="Trazado_250" data-name="Trazado 250" d="M257.543,38.631c0-.6,2.586-1.008,15.358-1.217,12.076-.2,42.863-.217,55.55-.061,14.892.183,17.716.61,17.716,1.278s-2.717,1.091-17.512,1.275c-12.623.157-43.362.139-55.449-.053-12.926-.207-15.662-.613-15.662-1.222" transform="translate(98.096 20.109)" fill="#181818"/>
      <path id="Trazado_251" data-name="Trazado 251" d="M328.867,31.124a.755.755,0,0,1-.524-.681,3.661,3.661,0,0,1,.485-1.934,8.851,8.851,0,0,1,2.977-3.374,5.49,5.49,0,0,1,4.966-.8,2.972,2.972,0,0,1,1.919,1.858.743.743,0,0,1-.335.9,1.046,1.046,0,0,1-.918.163,11.864,11.864,0,0,0-1.43-.481,3.575,3.575,0,0,0-2.665.659,10.033,10.033,0,0,0-2.422,2.337c-1.027,1.324-1.453,1.607-2.053,1.361" transform="translate(-9.006 11.941)" fill="#181818"/>
      <path id="Trazado_252" data-name="Trazado 252" d="M324.552,33.637c.6.053.99.455,1.33,3.084.157,1.228.327,3.414.442,5.63.052,1.134.11,2.16.092,3.316a2.8,2.8,0,0,1-.338,1.256,3.764,3.764,0,0,1-.581.816,5.245,5.245,0,0,1-1.167.934,4.42,4.42,0,0,1-3.494.55c-.6-.223-.709-.526-.673-.853a.941.941,0,0,1,.654-.786,10.552,10.552,0,0,0,2.1-1.044,3.555,3.555,0,0,0,.563-.528c.178-.215.239-.411.21-.4-.039-.958-.081-2.015-.125-3.073-.094-2.2-.157-4.392-.12-5.636.071-2.628.489-3.316,1.1-3.264" transform="translate(16.522 17.874)" fill="#181818"/>
      <path id="Trazado_256" data-name="Trazado 256" d="M201.13,112.254c-.083-.273.1-.626,1.133-1a5.1,5.1,0,0,1,2.329-.152,6.588,6.588,0,0,1,3.518,1.752,12.829,12.829,0,0,1,3.086,4.8,25.2,25.2,0,0,1,1.51,6.922,31.191,31.191,0,0,1-1.455,12.478,14.825,14.825,0,0,1-3.259,5.689c-.872.814-1.286.861-1.536.647s-.267-.621.183-1.571a36.742,36.742,0,0,0,2.154-5.465,32.825,32.825,0,0,0,1.172-11.436,24.476,24.476,0,0,0-1.223-6.214,11.681,11.681,0,0,0-2.251-4.016,5.738,5.738,0,0,0-4.008-1.929c-.9-.068-1.264-.2-1.351-.5" transform="translate(322.75 65.72)" fill="#181818"/>
      <path id="Trazado_257" data-name="Trazado 257" d="M206.8,114.226c.019-.275.23-.584,1.039-.539a4.579,4.579,0,0,1,3.283,2.523,17.328,17.328,0,0,1,1.895,8.052,27.793,27.793,0,0,1-.99,8.138,11.437,11.437,0,0,1-1.754,3.872c-.5.6-.835.659-1.136.513-.665-.322-.456-1.073.4-4.939a35,35,0,0,0,.725-7.445A18.768,18.768,0,0,0,209,117.421a5.915,5.915,0,0,0-1.642-2.3c-.4-.351-.591-.579-.56-.9" transform="translate(313.354 67.357)" fill="#181818"/>
      <path id="Trazado_258" data-name="Trazado 258" d="M196.578,115.709c.018-.269.288-.587,1.3-.481a4.09,4.09,0,0,1,1.922.841,7.571,7.571,0,0,1,2.057,2.621c1.209,2.244,1.932,6.468,1.769,10.618a39.486,39.486,0,0,1-1.751,10.6,15.906,15.906,0,0,1-2.44,5.029c-.657.782-1.036.861-1.319.691s-.387-.529-.149-1.421.761-2.369,1.435-4.94a47.764,47.764,0,0,0,1.461-9.939,25.026,25.026,0,0,0-1.178-9.529,6.188,6.188,0,0,0-2.282-3.128c-.592-.414-.856-.633-.824-.96" transform="translate(339.27 68.299)" fill="#181818"/>
      <path id="Trazado_259" data-name="Trazado 259" d="M191.886,121.94c.131-.27.4-.406,1.113-.2a3.718,3.718,0,0,1,.62.231c.212.133.451.3.722.5a3.831,3.831,0,0,1,.835.761,6.857,6.857,0,0,1,.867,1.1,15.731,15.731,0,0,1,2.113,8.173,25.856,25.856,0,0,1-1.233,8.272,11.373,11.373,0,0,1-1.963,3.858c-.532.591-.862.636-1.155.474s-.442-.468-.324-1.181c.134-.7.466-1.858.974-3.8a30.974,30.974,0,0,0,.94-7.505,16.023,16.023,0,0,0-1.419-6.986,12.43,12.43,0,0,0-1.782-2.608c-.385-.476-.442-.812-.309-1.084" transform="translate(352.452 72.276)" fill="#181818"/>
      <path id="Trazado_260" data-name="Trazado 260" d="M228.17,70.052c-.707-.259-1.209-.973-.2-2.492a6.609,6.609,0,0,1,3.068-2.2,6.88,6.88,0,0,1,3.8-.285,2.5,2.5,0,0,1,1.673.969,1.277,1.277,0,0,1,.023,1.149c-.293.879-.772,1.2-2.044,1.267a8.265,8.265,0,0,0-2.212.364,9.082,9.082,0,0,0-1.96.981,1.979,1.979,0,0,1-2.142.244" transform="translate(256.386 37.22)" fill="#181818"/>
      <path id="Trazado_261" data-name="Trazado 261" d="M212.238,68.146c-.442-.642-.141-1.578,1.39-1.809a6.187,6.187,0,0,1,2.96.46,6.9,6.9,0,0,1,2.477,1.6c1.052,1.189.72,1.827.078,2.4a1.654,1.654,0,0,1-2.175.286c-.408-.2-1.063-.579-1.743-.862-.68-.3-1.366-.489-1.719-.629-.74-.29-.819-.718-1.269-1.439" transform="translate(298.131 38.067)" fill="#181818"/>
      <path id="Trazado_262" data-name="Trazado 262" d="M218.089,91.722c.235-.188.57-.186,1.165.2a28.993,28.993,0,0,0,3.1,1.955,3.987,3.987,0,0,0,2.683.439.678.678,0,0,0,.354-.251c.087-.079.118-.23.175-.5a15.645,15.645,0,0,0,.091-2.312c-.087-3.353-.416-6.846-.5-8.879-.231-4.793.209-5.766.866-5.78.678-.016,1.083.8,1.673,5.5.235,2.016.631,5.463.714,9.029a16.628,16.628,0,0,1-.146,2.8,3.748,3.748,0,0,1-.689,1.735,3.437,3.437,0,0,1-1.54,1.139,4.98,4.98,0,0,1-2.872.068,7.445,7.445,0,0,1-1.869-.786,8.392,8.392,0,0,1-3.151-3.117c-.35-.725-.291-1.049-.053-1.238" transform="translate(280.008 44.43)" fill="#181818"/>
      <path id="Trazado_263" data-name="Trazado 263" d="M227.066,90.408c.651.068.877-.045,1.761,1.094a25.965,25.965,0,0,0,1.987,2.293,14.4,14.4,0,0,0,2.314,1.856c1.274.782,1.562,1.091,1.473,1.806a.777.777,0,0,1-.545.723,3.013,3.013,0,0,1-2.042-.231,9.626,9.626,0,0,1-3.133-2.186,11.116,11.116,0,0,1-2.129-2.982c-.73-1.568-.291-2.471.315-2.372" transform="translate(260.09 52.965)" fill="#181818"/>
      <path id="Trazado_264" data-name="Trazado 264" d="M257.886,58.911c.579-.189,2.194,3.325,3.107,20.675.181,4.1.528,9.785.348,16.355a81.219,81.219,0,0,1-3.083,21.182,36.532,36.532,0,0,1-4.811,10.212,25.607,25.607,0,0,1-3.736,4.172,21.636,21.636,0,0,1-4.547,2.971,22.3,22.3,0,0,1-9.542,1.961,35.179,35.179,0,0,1-7.73-1.037,17.624,17.624,0,0,1-6.353-3.626,50.561,50.561,0,0,1-4.076-3.788,69.576,69.576,0,0,1-4.863-5.562c-2.149-2.774-2.524-3.7-2.277-3.913.264-.22,1.04.337,3.448,2.762,1.209,1.206,2.825,2.885,5.1,5.029,1.141,1.065,2.442,2.256,3.986,3.464a27.877,27.877,0,0,0,2.51,1.757,10.5,10.5,0,0,0,2.888,1.327,33.878,33.878,0,0,0,7.084.939,20.027,20.027,0,0,0,8.376-1.649,18.522,18.522,0,0,0,7.274-6.126,32.819,32.819,0,0,0,4.524-9.358,79.2,79.2,0,0,0,3.151-20.4c.256-6.4,0-12.068-.091-16.161-.49-17.51-1.27-21.036-.686-21.187" transform="translate(259.388 33.495)" fill="#181818"/>
      <path id="Trazado_265" data-name="Trazado 265" d="M265.077,82.818c-.335.07-.56-.545-1.7-2.388a27.486,27.486,0,0,0-2.772-3.608,21.271,21.271,0,0,0-5.78-4.634c-1.186-.61-2.911-1.066-3.644-.269a2.6,2.6,0,0,0-.55.861c-.152.432-.333.926-.464,1.411a12.642,12.642,0,0,0-.426,3.142,14.09,14.09,0,0,0,1.707,6.7,21.267,21.267,0,0,0,4.79,5.859c.51.4,1,.827,1.526,1.218l.8.565.83.587c.108.115.346.162.348.332l0,.511q.01,1.231.019,2.453c.013.684-.013,1.364-.019,2.039-.031,2.7-.181,5.332-.358,7.814a114.8,114.8,0,0,1-1.638,12.537c-1.447,7.518-3.233,11.832-4.555,14.162a9.394,9.394,0,0,1-1.586,2.22c-.379.374-.6.445-.736.353s-.178-.324-.05-.811.437-1.214.858-2.395a73.025,73.025,0,0,0,3.52-13.78c.531-3.115,1.1-7.384,1.452-12.238.168-2.426.3-5,.332-7.636q.012-.99.023-1.992l-.016-1.882c0-.01,0,0,0,0l.007,0-.21-.149-.437-.309c-.591-.4-1.125-.885-1.688-1.327a23.287,23.287,0,0,1-5.474-6.588,16.834,16.834,0,0,1-2.123-7.948,15.141,15.141,0,0,1,.5-3.808,14.574,14.574,0,0,1,.552-1.722,5.452,5.452,0,0,1,1.023-1.752,4.063,4.063,0,0,1,1.8-1.173,4.811,4.811,0,0,1,1.892-.18,8.069,8.069,0,0,1,2.811.872,17.445,17.445,0,0,1,3.875,2.757,23.72,23.72,0,0,1,2.534,2.725,18.658,18.658,0,0,1,2.634,4.3c.929,2.291.66,3.138.4,3.172" transform="translate(195.901 39.718)" fill="#181818"/>
      <path id="Trazado_266" data-name="Trazado 266" d="M231.04,117.343c-.6-.019-.989-.38-1.1-2.112a53.047,53.047,0,0,1,.356-7.5c.294-2,.741-2.341,1.408-2.286s1.066.453,1.141,2.442a52.217,52.217,0,0,1-.466,7.4c-.3,1.719-.731,2.071-1.338,2.052" transform="translate(256.119 62.265)" fill="#181818"/>
      <path id="Trazado_267" data-name="Trazado 267" d="M234.44,257.961c.11-.28,1.384-.1,5.505,1.131l1.684.507c.623.152,1.294.312,2.015.487l4.994,1.256c3.832.8,8.623,1.861,14.7,2.767,11.44,1.908,32.038,3.777,52.828,3.6,10.389-.037,20.818-.46,30.127-1.294,2.333-.151,4.581-.455,6.756-.665s4.257-.474,6.233-.764,3.864-.489,5.6-.83l4.141-.722c.016,0,.013-.026.021-.042l.076-.343c.1-.447.217-.867.322-1.293.209-.854.464-1.652.686-2.447.476-1.568.953-3.039,1.419-4.422.934-2.769,1.825-5.191,2.628-7.332,1.612-4.278,2.895-7.413,3.875-9.7,1.971-4.565,2.738-5.73,3.045-5.609s.074,1.439-1.468,6.073c-.8,2.366-1.874,5.508-3.309,9.73-.722,2.131-1.534,4.541-2.4,7.27-.432,1.364-.874,2.811-1.312,4.338q-.311,1.148-.637,2.356-.148.6-.3,1.223-.187.908-.382,1.837l-.112.542a3.212,3.212,0,0,1-.532.118l-1.1.2q-.616.116-1.259.235l-2.557.477c-1.762.358-3.655.613-5.651.9-3.982.625-8.4,1.071-13.075,1.536-9.364.893-19.844,1.32-30.287,1.375-20.9.184-41.638-1.764-53.2-3.853-3.086-.592-5.887-1-8.367-1.608L248.5,263.43l-5.1-1.54a34.878,34.878,0,0,1-3.757-1.3c-4.162-1.676-5.314-2.351-5.2-2.633" transform="translate(100.445 140.647)" fill="#fffeff"/>
      <path id="Trazado_268" data-name="Trazado 268" d="M282.6,211.372c.212-.578,1.408-.515,6.919,1.016L301.4,215.7l12.13,3.22c6.452,1.722,7.61,2.371,7.461,3.039-.139.634-1.434.829-7.969-.536-2.785-.591-7.542-1.73-12.228-3.028s-9.3-2.728-11.879-3.642c-5.5-1.96-6.523-2.824-6.317-3.382" transform="translate(82.753 127.537)" fill="#fffeff"/>
      <path id="Trazado_269" data-name="Trazado 269" d="M295.53,188.84c.261-.617,1.971-.074,11.182,1.532,4.343.765,12.094,1.986,19.941,2.837,7.843.89,15.774,1.329,20.389,1.364,2.7,0,4.871.049,6.576-.034,1.714-.029,2.985-.047,3.916-.091,1.871-.034,2.432.168,2.489.5s-.392.663-2.235,1.121a24.812,24.812,0,0,1-3.927.647c-1.731.238-3.918.316-6.668.413a165.16,165.16,0,0,1-20.636-1.154c-7.918-.872-15.72-2.206-20.091-3.168-9.348-2.034-11.172-3.471-10.934-3.966" transform="translate(22.799 113.663)" fill="#181818"/>
      <path id="Trazado_270" data-name="Trazado 270" d="M284.9,166.939c.154-.589,1.073-.743,5.123.074,3.819.829,13.534,2.859,17.563,3.608,4.714.95,5.571,1.45,5.477,2.128-.089.644-1.028.994-5.83.4a131.8,131.8,0,0,1-17.709-3.749c-4.037-1.24-4.777-1.882-4.625-2.463" transform="translate(86.948 99.975)" fill="#181818"/>
      <path id="Trazado_271" data-name="Trazado 271" d="M335.429,267.67c-.018.272-1.382.5-5.966-.029a202.666,202.666,0,0,1-25.014-5.126c-3.733-.956-8.351-2.206-13.525-3.751-5.191-1.57-10.84-3.4-16.884-5.094-6.031-1.72-12.371-3.434-18.7-5.094l-9.453-2.437-10.419-2.592q.585-4.053,1.146-7.916.66-3.24,1.285-6.309.769-3.032,1.492-5.884c.484-1.9,1.087-3.7,1.6-5.452,2.175-6.974,4.372-12.8,6.262-17.319,2.916-7.06,5.524-12.562,7.723-16.866s3.935-7.439,5.277-9.7c2.693-4.521,3.7-5.609,3.982-5.442.294.176-.21,1.481-2.476,6.1-1.13,2.312-2.683,5.463-4.7,9.761-2.034,4.291-4.484,9.754-7.285,16.722-1.845,4.521-3.989,10.364-6.142,17.313-.5,1.748-1.086,3.542-1.574,5.426q-.709,2.83-1.466,5.838-.612,3.032-1.256,6.233-.381,2.638-.78,5.406l7.953,1.985,9.4,2.43c6.29,1.657,12.583,3.377,18.573,5.11,5.989,1.7,11.685,3.568,16.727,5.151,5.073,1.566,9.609,2.853,13.277,3.864,12.688,3.471,20.479,5.144,25.044,6.113,4.568.947,5.935,1.227,5.909,1.557" transform="translate(144.557 101.33)" fill="#fffeff"/>
      <path id="Trazado_272" data-name="Trazado 272" d="M279.726,210.617c-.728-.256-.869-1.741,1.311-8.1,1.042-3,3.123-8.241,5.5-13.392,2.358-5.16,4.976-10.238,6.625-13.136,3.887-6.8,5.232-7.749,5.976-7.3.783.466.471,1.9-2.914,8.795-1.437,2.943-3.935,7.981-6.282,13.052-2.366,5.062-4.547,10.165-5.82,13.031-2.693,6.139-3.6,7.335-4.392,7.054" transform="translate(109.655 101.3)" fill="#181818"/>
      <path id="Trazado_273" data-name="Trazado 273" d="M207.454,214.046c-.6-.091-.775-1.526.019-8.334l1.816-14.651c.7-5.736,1.262-11.515,1.544-14.882.657-7.9.722-9.377,1.468-9.427.586-.053,1.375,1.456,1.087,9.479-.125,3.418-.626,9.253-1.341,15.012s-1.57,11.458-2.138,14.661c-1.219,6.848-1.859,8.232-2.455,8.143" transform="translate(312.698 100.162)" fill="#181818"/>
      <path id="Trazado_274" data-name="Trazado 274" d="M228.8,115.369c.362-.193.848.029,1.8,1.057a46.816,46.816,0,0,0,5.56,5.287,38.215,38.215,0,0,0,15.167,7.225,27.99,27.99,0,0,0,9.426.536,20.5,20.5,0,0,0,6.956-2.105,25,25,0,0,0,6.7-5.4c1.063-1.188,1.613-1.414,2.007-1.2s.492.762-.163,2.38a16.906,16.906,0,0,1-6.766,7.13,21.939,21.939,0,0,1-8.087,2.765,30.012,30.012,0,0,1-10.673-.474,37.561,37.561,0,0,1-16.5-8.244,20.227,20.227,0,0,1-5.28-6.751c-.6-1.466-.485-2.026-.138-2.209" transform="translate(214.512 68.361)" fill="#fffeff"/>
      <path id="Trazado_275" data-name="Trazado 275" d="M216.474,193.492c.123-.275,1.024-.18,3.829.744s7.63,2.451,15.795,4.528a325.226,325.226,0,0,0,35.748,6.7,266.928,266.928,0,0,0,36.847,2.473c4.908,0,8.791-.337,11.885-.526l4.034-.471a25.722,25.722,0,0,0,2.976-.4c3.3-.584,4.3-.542,4.395-.222s-.7.793-3.963,1.8l-1.346.4-1.613.311-4.058.728a117.254,117.254,0,0,1-11.986.924,239.839,239.839,0,0,1-37.159-2.23,281.777,281.777,0,0,1-35.988-7.034,101.783,101.783,0,0,1-16.007-5.526c-2.778-1.353-3.513-1.927-3.388-2.2" transform="translate(178.748 116.608)" fill="#181818"/>
      <path id="Trazado_276" data-name="Trazado 276" d="M209.884,171.953c.159-.8,3.5-.592,19.285,2.536a251.726,251.726,0,0,0,34.2,4.584,301.953,301.953,0,0,0,35.119-.168l11.369-.66c2.964-.2,5.168-.32,6.793-.348,3.248-.058,4.176.21,4.228.654s-.759.892-3.911,1.511c-1.576.309-3.738.66-6.67,1.073-2.942.332-6.651.772-11.327,1.152a256.225,256.225,0,0,1-35.467.481,212.261,212.261,0,0,1-34.62-5.018c-15.942-3.719-19.151-5.018-19-5.8" transform="translate(200.511 103.132)" fill="#fffeff"/>
      <path id="Trazado_277" data-name="Trazado 277" d="M175.151,178.667c-.045-.629,1.408-1.037,8.529-1.926a117.09,117.09,0,0,0,15.1-2.77,57.6,57.6,0,0,0,14.254-5.819c1.751-1.057,3.142-1.926,4.194-2.693,1.092-.718,1.877-1.29,2.469-1.7,1.2-.795,1.691-.864,1.922-.623s.136.691-.806,1.822a15.769,15.769,0,0,1-2.185,2.18,35.514,35.514,0,0,1-4.16,3.131A52.735,52.735,0,0,1,199.65,176.6a88.714,88.714,0,0,1-15.546,2.552c-7.346.5-8.911.094-8.953-.482" transform="translate(355.857 97.853)" fill="#181818"/>
      <path id="Trazado_278" data-name="Trazado 278" d="M166.064,201.89c-.044-.647,1.746-.989,10.392-1.973a113.792,113.792,0,0,0,18.3-3.553,75.723,75.723,0,0,0,17.287-7.414c1.066-.659,2.062-1.194,2.9-1.759s1.579-1.055,2.253-1.5c1.362-.838,2.27-1.6,3.023-2.055,1.473-.951,2.029-1.06,2.252-.811s.047.749-1.163,2.039a23.3,23.3,0,0,1-2.728,2.526,48.266,48.266,0,0,1-5.087,3.667,69.476,69.476,0,0,1-17.777,7.908,94.638,94.638,0,0,1-18.806,3.361c-8.924.6-10.806.125-10.843-.432" transform="translate(369.739 110.025)" fill="#181818"/>
      <path id="Trazado_279" data-name="Trazado 279" d="M211.984,251.553c.108-.286.565-.379,1.863-.167a23.994,23.994,0,0,0,7.055.261,17.541,17.541,0,0,0,2.882-.681,16.755,16.755,0,0,0,1.659-.647l.869-.418c.317-.149.534-.3,1.063-.508a14.292,14.292,0,0,1,5.007-.561c.82.018,1.642.066,2.468.136l1.434.147c.367.084.872-.029,1.042.413l.618.83c1.9,2.833,3.439,5.651,4.882,8.224,1.418,2.566,2.636,4.854,3.515,6.55,4.105,7.974,4.49,9.691,3.906,10s-1.7-.948-6.092-8.673c-1.9-3.248-4.986-9.086-8.374-14.387-.3-.409-.155-.215-.193-.265l-.812-.084c-.775-.074-1.547-.128-2.3-.157a14.289,14.289,0,0,0-4.042.273l-.306.116-.481.236q-.488.238-.979.451a18.752,18.752,0,0,1-1.926.712,16.9,16.9,0,0,1-3.374.688,16.313,16.313,0,0,1-5.036-.27,13.85,13.85,0,0,1-2.866-.916c-1.3-.633-1.589-1.026-1.482-1.3" transform="translate(267.556 150.899)" fill="#181818"/>
      <path id="Trazado_280" data-name="Trazado 280" d="M252.026,242.557c-.256.16-.715-.07-1.7-1.175a46.811,46.811,0,0,0-5.929-5.547,32.868,32.868,0,0,0-6.722-3.83,35.939,35.939,0,0,0-9.754-2.468c-7.005-.79-14.2.55-18.272,1.474-4.817,1.105-7.628,2.028-9.308,2.422-1.676.416-2.217.361-2.346.045s.188-.743,1.72-1.562a45.717,45.717,0,0,1,9.191-3.354,54.83,54.83,0,0,1,19.125-1.793,37.755,37.755,0,0,1,10.5,2.7,31.514,31.514,0,0,1,7.2,4.319,24.118,24.118,0,0,1,5.788,6.657c.725,1.437.765,1.951.508,2.113" transform="translate(288.497 137.12)" fill="#181818"/>
      <path id="Trazado_281" data-name="Trazado 281" d="M209.613,246.821c.583-.162,1.138.335,2.16,3.27.966,2.777,2.963,9.984,3.63,13,.782,3.537.552,4.309-.1,4.484s-1.23-.353-2.356-3.767c-.963-2.913-2.919-10.11-3.508-12.991-.629-3.081-.416-3.83.17-3.994" transform="translate(306.816 149.641)" fill="#181818"/>
      <path id="Trazado_282" data-name="Trazado 282" d="M203.8,240.437c.481-.358,1.083-.252,2.487,1.393a57.973,57.973,0,0,1,5.185,7.772c1.165,2.223,1.032,2.854.464,3.2s-1.162.172-2.613-1.817c-1.227-1.707-4-5.976-5.007-7.717-1.057-1.872-1.006-2.463-.516-2.829" transform="translate(319.403 145.608)" fill="#181818"/>
      <path id="Trazado_283" data-name="Trazado 283" d="M200.667,235.636c.354-.484.9-.6,2.482.353a46.525,46.525,0,0,1,6.228,4.932c1.513,1.508,1.534,2.1,1.1,2.6s-1,.574-2.718-.629c-1.46-1.034-4.822-3.765-6.063-4.948-1.319-1.272-1.388-1.819-1.029-2.311" transform="translate(325.878 142.519)" fill="#181818"/>
      <path id="Trazado_284" data-name="Trazado 284" d="M654.5,296.969c.01.2-1.131.395-4.286.591-3.162.214-8.312.361-16.306.5-15.989.273-43.355.406-88.877.4L149.1,297.437l-102.926-.39c-9.154-.105-14.97-.128-18.513-.215s-4.816-.275-4.825-.5,1.188-.451,4.651-.714,9.193-.581,18.2-.757c18.029-.474,49.236-.725,101.965-.833,89.979-.209,309.06.631,395.216,1.168,46.066.285,73.973.562,90.361.832,16.4.3,21.229.513,21.266.939" transform="translate(169.557 178.821)" fill="#181818"/>
      <path id="Trazado_285" data-name="Trazado 285" d="M30.411,306.3c0-.151,1.028-.29,3.842-.416s7.41-.24,14.547-.34c14.277-.2,38.714-.356,79.366-.461,76.866-.2,272.822-.217,353.571-.061,47.4.092,75.587.244,91.931.458,8.17.105,13.381.226,16.547.364s4.291.29,4.293.456-1.079.319-4.172.455-8.2.257-16.245.364c-16.094.212-43.961.364-91.047.456-80.348.157-276,.139-352.942-.053-41.138-.1-66.061-.257-80.7-.461-7.319-.1-12.068-.215-14.986-.343s-4.007-.265-4.007-.417" transform="translate(217.29 185.571)" fill="#181818"/>
      <path id="Trazado_286" data-name="Trazado 286" d="M212.779,278.5c-.521-.3-.573-1.008.672-3.618,1.186-2.461,4.541-8.549,5.91-11.016a19.475,19.475,0,0,1,1.676-2.665c.17-.236.3-.189.417-.29.1-.086.17-.071.327-.1.173-.008.39-.105.576.013a.527.527,0,0,1,.194.354,2.071,2.071,0,0,1,.058.492,9.091,9.091,0,0,1-.942,3.288,96.144,96.144,0,0,1-6.063,11.07c-1.63,2.448-2.3,2.778-2.825,2.474" transform="translate(294.65 158.276)" fill="#fffeff"/>
      <path id="Trazado_287" data-name="Trazado 287" d="M321.221,259.542c-.074-.6,2.089-1,13.034-1.184,10.346-.178,36.8-.151,47.69.026,12.793.207,15.211.639,15.207,1.308s-2.332,1.087-14.976,1.246c-10.79.136-37.056.061-47.412-.154-11.073-.23-13.468-.639-13.544-1.241" transform="translate(-55.928 156.714)" fill="#181818"/>
      <path id="Trazado_288" data-name="Trazado 288" d="M247.76,259.8c0-.6,1.129-1.007,6.7-1.2,5.267-.186,18.7-.178,24.229-.01,6.5.2,7.725.625,7.723,1.295s-1.186,1.089-7.641,1.259c-5.505.146-18.911.1-24.183-.105-5.638-.218-6.83-.629-6.829-1.236" transform="translate(173.68 156.852)" fill="#181818"/>
      <path id="Trazado_289" data-name="Trazado 289" d="M292.333,270.467c.282.76-.761,1.7-6.659,4.212l-12.745,5.256c-4.976,2.066-9.872,4.33-12.694,5.7-3.32,1.6-5.274,2.587-6.5,3.021s-1.725.332-1.969-.04-.159-.858.777-1.793a30.148,30.148,0,0,1,6.028-4.155,122.733,122.733,0,0,1,12.814-6.076c5.037-2.089,10.107-3.948,13-4.9,6.191-2.034,7.673-1.981,7.952-1.227" transform="translate(161.432 163.978)" fill="#181818"/>
      <path id="Trazado_290" data-name="Trazado 290" d="M327.6,287.355c-.205.22-.672.154-1.812-.552-1.168-.668-2.862-2.176-6.036-4.149a64.394,64.394,0,0,0-6.024-3.518l-4.007-1.764c-1.439-.471-2.9-1.01-4.4-1.442a45.479,45.479,0,0,0-16.033-1.361,57.935,57.935,0,0,0-8.23,1.453c-1.46.333-1.859.3-2.073.027-.2-.252.074-.788,1.455-1.547a25.517,25.517,0,0,1,8.423-2.458,43.576,43.576,0,0,1,17.026,1.186c1.6.43,3.139,1.037,4.663,1.539,1.458.662,2.874,1.306,4.21,1.911a50.029,50.029,0,0,1,6.219,3.858,31.956,31.956,0,0,1,5.769,5.089c.922,1.055,1.058,1.5.851,1.727" transform="translate(81.989 165.025)" fill="#181818"/>
      <path id="Trazado_291" data-name="Trazado 291" d="M252.59,281.928c-.44-.6,2.1-2.7,15.583-9.966l12.707-6.769c2.532-1.348,5.223-2.777,7.994-4.251q2.068-1.116,4.185-2.262l1.049-.579.526-.291c.238-.126.67-.437,1.052-.366l2.557-.128a91.3,91.3,0,0,1,33.457,5.655c16.921,6.452,18.709,11.444,17.746,11.636-.2.013-.307-.113-.715-.44a23.325,23.325,0,0,0-2.363-1.668,76.933,76.933,0,0,0-15.3-7.041c-7-2.506-19.646-5.806-32.4-5.388-.795.011-1.586.07-2.377.1l-.256.011c-.011.006.027-.015-.016.01l-.267.146-1.063.586-4.212,2.261c-2.783,1.455-5.486,2.869-8.033,4.2l-12.809,6.568c-13.876,7-16.758,8.351-17.038,7.976" transform="translate(102.698 156.116)" fill="#181818"/>
      <path id="Trazado_292" data-name="Trazado 292" d="M335.535,287.688c-.231.251-1.057-.39-3.833-2.353a23.229,23.229,0,0,0-6.244-3.055,56.479,56.479,0,0,0-11.641-1.909,33,33,0,0,0-7.95.413,31.478,31.478,0,0,0-4.615,1.144c-.78.269-1.579.552-2.346.9-.385.17-.77.353-1.12.545l-.272.149a2.86,2.86,0,0,1-.57.336,2.148,2.148,0,0,1-1.27.034,7.135,7.135,0,0,1-1.728-.859,14.6,14.6,0,0,1-1.27-.934c-.206-.173-.408-.348-.608-.542a7.526,7.526,0,0,1-.709-.762,2.286,2.286,0,0,1-.492-2.437,3.786,3.786,0,0,1,.861-1.007l.8-.581,1.278-.846q1.291-.8,2.6-1.612c3.515-2.115,7.189-4.157,10.926-6.11a140.839,140.839,0,0,1,22.536-9.754,54.814,54.814,0,0,1,19.4-2.11A78.439,78.439,0,0,1,363.35,258.5a67.165,67.165,0,0,1,8.079,2.553c3.74,1.528,4.609,2.3,4.49,2.578-.144.34-1.186.087-4.921-1-1.882-.5-4.432-1.228-7.939-1.961a87.74,87.74,0,0,0-13.61-1.762,54.276,54.276,0,0,0-18.418,2.029c-7.052,2.162-14.651,5.712-22.034,9.508-3.689,1.913-7.332,3.919-10.793,5.971q-1.3.767-2.549,1.553l-1.223.788c-.377.233-.921.639-.782.534a.02.02,0,0,0-.01.027c.011.015-.013-.01.021.028.128.137.27.282.422.419a10.273,10.273,0,0,0,2,1.43c.108.055.068.039.1.032l.205-.12.335-.176c.225-.121.442-.215.66-.32a25.508,25.508,0,0,1,2.587-1.018,34.861,34.861,0,0,1,13.546-1.7,54.13,54.13,0,0,1,12.306,2.345,20.554,20.554,0,0,1,6.678,3.8c2.751,2.435,3.21,3.463,3.034,3.649" transform="translate(14.715 155.475)" fill="#181818"/>
      <path id="Trazado_293" data-name="Trazado 293" d="M361.677,281.015c-.288-.178-.1-.646.045-1.921a4.3,4.3,0,0,0-.053-1.083.589.589,0,0,0-.126-.322,1.589,1.589,0,0,1-.165-.1l-.388-.285c-.542-.382-1.11-.858-1.807-1.324l-2.351-1.524a47.79,47.79,0,0,0-16.622-6.172,36.1,36.1,0,0,0-17.745,1.251,31.425,31.425,0,0,0-5.277,2.374l-1.759.956c-.474.325-.885.6-1.243.816-1.429.88-1.982.976-2.209.73s-.058-.731,1.155-1.987c.3-.312.673-.675,1.12-1.092.464-.392,1.053-.773,1.714-1.238a26.306,26.306,0,0,1,5.487-2.913,36.462,36.462,0,0,1,19.018-1.65,45.7,45.7,0,0,1,17.494,6.766,32.706,32.706,0,0,1,4.254,3.363c.307.283.6.552.875.807.236.142.236.418.286.649a4.831,4.831,0,0,1,.074.639,4.52,4.52,0,0,1-.24,1.608c-.67,1.67-1.343,1.793-1.539,1.647" transform="translate(-7.142 160.871)" fill="#181818"/>
      <path id="Trazado_294" data-name="Trazado 294" d="M333.293,289.147c-.188.235-.73.138-2.178-.722s-3.769-2.531-7.733-5.115c-3.738-2.408-10.487-6.714-17.963-9.1a34.868,34.868,0,0,0-11.091-1.507,34,34,0,0,0-8.707,1.539c-5.154,1.659-8.122,3.144-9.921,3.8-1.791.693-2.388.7-2.547.4s.165-.769,1.754-1.835a45.294,45.294,0,0,1,9.783-4.74c1.138-.421,2.544-.769,4.094-1.17a34.29,34.29,0,0,1,5.23-.7,35.462,35.462,0,0,1,12.007,1.521c7.974,2.5,14.821,7.052,18.547,9.649a63.091,63.091,0,0,1,7.424,6.021c1.244,1.214,1.49,1.723,1.3,1.961" transform="translate(85.712 163.954)" fill="#181818"/>
      <path id="Trazado_295" data-name="Trazado 295" d="M483.073,252.572c.019.6-4.325,1.131-25.659,1.183l-20.023.013c-7.974.026-16.986-.034-25.912.277-1.087.06-2.274.126-3.029.246-.395.057-1.039.83-1.481,1.67a14.9,14.9,0,0,0-1.552,5.812,5.178,5.178,0,0,0,.314,2.448c-.121.186.984.5,1.977.811,2,.6,4.02,1.129,5.969,1.649l19.941,5.1c24.111,6.11,28.556,7.918,28.365,8.55-.194.649-4.6-.272-28.65-5.99-5.125-1.235-12.086-2.913-19.944-4.926-1.964-.511-3.981-1.039-6.053-1.633l-1.576-.477a4.578,4.578,0,0,1-2.031-1.138,4.8,4.8,0,0,1-.929-2.12,10.01,10.01,0,0,1-.16-1.916,17.641,17.641,0,0,1,1.665-7.018,6.825,6.825,0,0,1,2.689-3.2,3.934,3.934,0,0,1,.607-.265l.511-.087,1.028-.15,1.728-.1c9.092-.345,18.026-.236,26.025-.215l20.026.212c21.591.367,26.135.647,26.153,1.259" transform="translate(-273.602 152.284)" fill="#181818"/>
      <path id="Trazado_296" data-name="Trazado 296" d="M424.3,267.93c-.131.589-2,.553-10.837-1.375-8.355-1.822-29.554-6.94-38.247-9.209-10.207-2.662-12.044-3.545-11.877-4.194s2.139-.6,12.355,1.683c8.715,1.952,29.837,7.091,38.106,9.293,8.84,2.356,10.633,3.21,10.5,3.8" transform="translate(-151.23 153.35)" fill="#181818"/>
      <path id="Trazado_297" data-name="Trazado 297" d="M424.263,254.978c.115-.584,1.188-.819,6.2-.044,2.369.372,6.547,1.178,10.722,2.157s8.35,2.112,10.754,2.89c5.646,1.837,6.549,2.685,6.342,3.291-.222.657-1.343.634-6.968-.816-4.782-1.3-16.559-4.052-21.209-5.109-4.956-1.188-5.96-1.767-5.842-2.371" transform="translate(-283.812 154.368)" fill="#181818"/>
      <path id="Trazado_298" data-name="Trazado 298" d="M354.33,266.831c.15-.581.885-.82,4.063-.188,1.5.3,4.134.953,6.778,1.757.662.2,1.327.419,1.979.647.33.123.652.24.987.384a4.639,4.639,0,0,1,1.18.67,3.953,3.953,0,0,1,1.206,2.244,7.533,7.533,0,0,1,.12,1.667,8.075,8.075,0,0,1-1,3.819c-.387.6-.715.68-1.028.576s-.515-.353-.56-.99c-.061-.628.1-1.707.039-3.348a3.291,3.291,0,0,0-.52-1.875.8.8,0,0,1-.1-.06c-.115-.047-.2-.1-.34-.149-.259-.105-.545-.21-.843-.316l-1.869-.612c-2.557-.8-5.147-1.552-6.587-2.041-3.087-1.039-3.659-1.6-3.5-2.186" transform="translate(-82.963 161.679)" fill="#181818"/>
      <path id="Trazado_299" data-name="Trazado 299" d="M449.477,259.532c.6.07.976.4,1.06,1.814.091,1.333-.252,4.691-.354,6.018-.218,1.586-.652,1.921-1.32,1.958s-1.084-.241-1.235-1.94a25.144,25.144,0,0,1,.481-6.241c.333-1.424.766-1.678,1.369-1.608" transform="translate(-313.782 157.509)" fill="#181818"/>
      <path id="Trazado_300" data-name="Trazado 300" d="M357.971,264.755c.219-.777,4.664-.073,26.009,5.6l20.013,5.392,6.154,1.655,3.185.845q1.546.391,3.117.791a4.915,4.915,0,0,0,1.469.107l1.712.01,3.45.021,6.969.047c18.641.133,37.41.325,48.367.516,25.719.447,30.6,1.055,30.6,1.945s-4.7,1.417-30.311,1.461c-10.926.019-29.692-.083-48.339-.243-4.672-.052-9.337-.1-13.871-.15-.377-.068-.765-.146-1.126-.23l-.829-.214-1.638-.429-3.2-.867-6.149-1.7c-7.965-2.223-14.926-4.219-19.944-5.683-21.457-6.278-25.86-8.1-25.641-8.874" transform="translate(-227.249 160.582)" fill="#181818"/>
      <path id="Trazado_301" data-name="Trazado 301" d="M414.327,278.068c-.464.337-1.185.157-1.644-1.26a11.622,11.622,0,0,1,.125-6.028c.589-1.6,1.244-1.7,1.8-1.4.617.317.824.657.689,1.947a37.658,37.658,0,0,0-.22,5.042c-.011,1.131-.217,1.343-.754,1.7" transform="translate(-221.571 163.52)" fill="#181818"/>
      <path id="Trazado_302" data-name="Trazado 302" d="M447.073,273.5c-.052.121-.218.173-.613.1a2.06,2.06,0,0,1-.749-.282,3.8,3.8,0,0,1-1.019-.765,5.977,5.977,0,0,1-1.532-3.858,10.74,10.74,0,0,1,.233-2.968c.07-.269.139-.544.212-.825l.138-.421a.939.939,0,0,0,.034-.128,1.563,1.563,0,0,1,.1-.288c.063-.078-.087.011-.133.008a1.609,1.609,0,0,1-.243.045l-.155.024-.411.036-1.241.092c-13.182.851-46.622.911-60.42.723-16.182-.22-19.28-.773-19.246-1.463.031-.646,2.952-.945,19.031-1.091,13.7-.123,47.124-.15,60.183-.589l1.3-.052.67-.032,1.081-.094c1.377-.1,2.913-.3,3.686-.285q-.536.837-1.05,1.636c-.35.545-.589,1.019-.872,1.507a5.433,5.433,0,0,0-.288.665l-.136.341c-.074.23-.147.453-.217.672a10,10,0,0,0-.392,2.4,5.34,5.34,0,0,0,.707,3.068,4.761,4.761,0,0,0,.6.775,4.292,4.292,0,0,0,.466.49c.246.257.325.437.273.558" transform="translate(-172.789 158.66)" fill="#181818"/>
      <path id="Trazado_303" data-name="Trazado 303" d="M359.649,260.545c.294.241-.257.863-1.007,3.463a19.812,19.812,0,0,0-.728,5.558,11.057,11.057,0,0,0,.176,1.871,3.785,3.785,0,0,0,.616,1.651.523.523,0,0,0,.337.246c.23.05.8.052,1.2.082.877.057,1.811.1,2.824.11,15.2.353,54.192-.058,70.233-.047,18.843-.011,22.421.348,22.431,1.021s-3.424,1.151-22.148,1.531c-15.983.3-54.862.668-70.227-.057-1.026-.044-2-.089-2.96-.186l-1.387-.123a3.349,3.349,0,0,1-.961-.254,2.856,2.856,0,0,1-.854-.607A5.438,5.438,0,0,1,356,272.086a13.964,13.964,0,0,1-.142-2.283,17.263,17.263,0,0,1,1.317-6.19,8.157,8.157,0,0,1,1.659-2.659c.466-.422.7-.507.817-.409" transform="translate(-170.548 158.119)" fill="#181818"/>
      <path id="Trazado_304" data-name="Trazado 304" d="M513.194,294.934c.01.8-5.029,1.353-29.938,1.673-11.775.152-32.674.261-53.721.309l-1.974,0a10.958,10.958,0,0,1-2.439-.338q-1.986-.478-3.882-1.015c-2.547-.7-5.053-1.424-7.526-2.154l-14.287-4.293c-9.073-2.783-17.086-5.311-22.981-7.217l-7.795-2.562-3.4-1.157q-.815-.289-1.591-.565a7.064,7.064,0,0,1-1.215-.6c-.173-.131-.447-.168-.534-.374-.108-.193-.2-.392-.285-.587a4.619,4.619,0,0,1-.243-1.317c-.01-.283-.019-.562-.029-.837q0-.757,0-1.476c.015-.948.045-1.838.087-2.68s.1-1.633.149-2.38a20.954,20.954,0,0,1,.3-2.511,2.478,2.478,0,0,1,1.562-1.445,7.651,7.651,0,0,1,1.438-.414,15.978,15.978,0,0,1,2.235-.261,18.144,18.144,0,0,1,3.018.1c1.463.184,1.935.453,1.931.709,0,.272-.485.476-1.885.7-.7.12-1.631.241-2.816.464a19.678,19.678,0,0,0-1.926.466,6.047,6.047,0,0,0-.914.35c-.12.081-.29.162-.278.34,0,.11.008.147-.01.561q-.01.5-.019,1.034,0,1.078-.008,2.285c.013.807.026,1.659.04,2.558q.029.663.058,1.362c.015.227.031.455.047.686a.93.93,0,0,0,.031.191c0,.108.12.113.2.138l1.453.461q1.6.5,3.346,1.039l7.693,2.353c5.893,1.79,13.892,4.222,22.933,6.969l14.228,4.235,7.452,2.134c1.251.343,2.511.7,3.74.992l.918.228a3.623,3.623,0,0,1,.565.121c.528.053,1.28.013,1.908.024,21.041-.024,41.952.01,53.759.117,25.25.233,30.595.765,30.6,1.576" transform="translate(-236.911 159.483)" fill="#181818"/>
      <path id="Trazado_305" data-name="Trazado 305" d="M359.1,275.175a1.039,1.039,0,0,1,1.089.011,3.23,3.23,0,0,1,1.189,1.848,10.177,10.177,0,0,1,.159,4.68,12.282,12.282,0,0,1-1.673,4.342,3.932,3.932,0,0,1-2,1.744,1.43,1.43,0,0,1-.418.05.633.633,0,0,1-.709-.6c-.052-.215-.073-.427-.136-.607s-.2-.269-.194-.471a3.894,3.894,0,0,1,.445-1.7,21.459,21.459,0,0,0,1.063-3.409,14.664,14.664,0,0,0,.272-3.4,5.343,5.343,0,0,1,.136-1.693,1.408,1.408,0,0,1,.777-.794" transform="translate(-77.434 167.093)" fill="#181818"/>
      <path id="Trazado_306" data-name="Trazado 306" d="M416.86,274.83a1.345,1.345,0,0,1,.126.848c-.039.295-.168.668-.343,1.481a16.623,16.623,0,0,0-.32,3.846,22.726,22.726,0,0,0,.474,4.007,16.957,16.957,0,0,1,.371,1.916,1.209,1.209,0,0,1-.307.887c-.218.248-.469.387-.981.125a4.007,4.007,0,0,1-1.519-2.16,14.714,14.714,0,0,1-.8-4.673,11.969,11.969,0,0,1,.759-4.7,3.153,3.153,0,0,1,1.662-1.871c.532-.147.736.029.875.293" transform="translate(-225.368 166.758)" fill="#181818"/>
      <path id="Trazado_307" data-name="Trazado 307" d="M5.013,123c.647-.477,3.361,2.267,14.845,17.254C30.716,154.424,57.88,190.927,68.9,206.1c12.934,17.813,14.973,21.507,14.262,22.046s-3.555-2.343-16.8-19.751c-11.3-14.853-38.391-51.343-48.846-65.84C6.338,127.051,4.363,123.483,5.013,123" transform="translate(769.789 73.086)" fill="#181818"/>
      <path id="Trazado_308" data-name="Trazado 308" d="M1.077,193.7c-.375-.027-.759-.356-.772-1.558a6.552,6.552,0,0,1,.545-2.445,8.182,8.182,0,0,1,2.686-3.372,7.28,7.28,0,0,1,2.887-1.272,6.7,6.7,0,0,1,4.055.447,7.282,7.282,0,0,1,3.351,3.083A9.074,9.074,0,0,1,15,193.036a9.9,9.9,0,0,1-3.688,7.819,7.7,7.7,0,0,1-3.731,1.589A6.646,6.646,0,0,1,4.2,202.02a6.815,6.815,0,0,1-3.7-3.756,6.419,6.419,0,0,1-.474-2.922c.162-1.387.644-1.675,1.057-1.644.468.029.739.39,1.112,1.371a11.372,11.372,0,0,0,.9,1.853,4.485,4.485,0,0,0,2.257,1.887A3.858,3.858,0,0,0,9,198.059a6.444,6.444,0,0,0,2.317-4.9,4.781,4.781,0,0,0-2.238-4.392,3.822,3.822,0,0,0-3.642.2,8.85,8.85,0,0,0-3.157,3.608c-.474.854-.778,1.165-1.2,1.129" transform="translate(846.007 111.392)" fill="#181818"/>
      <path id="Trazado_309" data-name="Trazado 309" d="M6.22,322.668c-.756-.235-.07-4.342,6.27-23.53,3-9.07,8.531-25.1,14.348-41.156,5.8-16.063,11.94-32.14,15.767-41.438a189.7,189.7,0,0,1,9.633-20.827c2.188-3.532,3.081-4.3,3.443-4.065.385.243.147,1.361-1.442,4.943-1.45,3.7-4.16,10.012-8.351,20.913-3.6,9.282-9.633,25.306-15.44,41.31-5.762,16.015-11.489,31.925-14.728,40.93C8.778,318.97,7,322.912,6.22,322.668" transform="translate(795.499 115.53)" fill="#181818"/>
      <path id="Trazado_310" data-name="Trazado 310" d="M127.956,140.582c.189-.065.489.259.987,1.267a29.369,29.369,0,0,1,1.919,5.463,47.188,47.188,0,0,1,1.544,11.817,42.311,42.311,0,0,1-.89,8.869,31.443,31.443,0,0,1-4.183,10.479,22.315,22.315,0,0,1-10.879,8.952c-5.062,2-11.034,2.411-17.114,1.947A50.752,50.752,0,0,1,80.633,184.3,54.721,54.721,0,0,1,64.4,171.737a61.7,61.7,0,0,1-10.945-17.4,43.752,43.752,0,0,1-2.879-9.685,58.824,58.824,0,0,1-.825-9.592,20.612,20.612,0,0,1,1.966-9.324,20.044,20.044,0,0,1,5.769-6.723,46.492,46.492,0,0,1,6.442-4.112,43.378,43.378,0,0,1,6.123-2.725,45.886,45.886,0,0,1,12.73-2.487,53.564,53.564,0,0,1,10.274.408,48.458,48.458,0,0,1,13.225,3.735,30.431,30.431,0,0,1,3.6,1.9,13.759,13.759,0,0,1,2.107,1.461c.984.811,1.248,1.207,1.126,1.393s-.6.134-1.71-.328c-.55-.24-1.269-.57-2.228-.945l-1.586-.668-1.979-.727a56.988,56.988,0,0,0-12.588-2.9,49.376,49.376,0,0,0-21.368,2.183L68.9,116.287l-2.85,1.406a52.147,52.147,0,0,0-5.969,3.767,17.019,17.019,0,0,0-4.914,5.418,16.215,16.215,0,0,0-1.791,7.633,56.43,56.43,0,0,0,.691,8.95,42.546,42.546,0,0,0,2.523,8.882,60.417,60.417,0,0,0,10.088,16.449,51.936,51.936,0,0,0,14.953,11.932,47.04,47.04,0,0,0,17.243,5.05c5.77.558,11.232.23,15.678-1.29a19.744,19.744,0,0,0,5.769-3.071,20.384,20.384,0,0,0,3.892-4.126,28.876,28.876,0,0,0,4.228-9.382,41.855,41.855,0,0,0,1.225-8.355,57.119,57.119,0,0,0-.736-11.592c-.982-5.55-1.421-7.23-.977-7.376" transform="translate(648.1 64.839)" fill="#181818"/>
      <path id="Trazado_311" data-name="Trazado 311" d="M57.155,268.048c.01-.2.385-.361,1.408-.464a31.108,31.108,0,0,1,5.28.034,57.206,57.206,0,0,1,10.7,1.856,46.972,46.972,0,0,1,16.385,7.963,32.223,32.223,0,0,1,7.615,8.262,15.924,15.924,0,0,1,2.5,6.63,5.039,5.039,0,0,1-.408,2.5l-.539.953a9.4,9.4,0,0,1-.706.877,8.883,8.883,0,0,1-3.6,2.265,31.96,31.96,0,0,1-7.573,1.471c-2.534.236-5.105.375-7.7.461-5.2.18-10.542.22-15.919.252-10.714.007-21.725.225-31.894-.976a83.551,83.551,0,0,1-14.429-2.706A32.664,32.664,0,0,1,11.9,294.9a13.923,13.923,0,0,1-2.85-1.969c-.222-.217-.443-.411-.655-.646l-.605-.827a5.371,5.371,0,0,1-.508-1.154,11.553,11.553,0,0,1-.083-1.356,9.709,9.709,0,0,1,1.379-2.885c.463-.7.922-1.311,1.369-1.875a35.2,35.2,0,0,1,2.534-2.817,43.94,43.94,0,0,1,4.152-3.641,49.172,49.172,0,0,1,10.214-6,54.131,54.131,0,0,1,8.892-3.026,57.525,57.525,0,0,1,12.413-1.659c5.953-.057,7.547.565,7.534.951-.01.5-1.584.623-7.236,1.222a74.8,74.8,0,0,0-11.678,2.23,55.651,55.651,0,0,0-8.27,3.039,47.824,47.824,0,0,0-9.419,5.657,42.793,42.793,0,0,0-3.947,3.473,33.817,33.817,0,0,0-2.354,2.634c-.411.511-.824,1.07-1.22,1.668-.193.3-.387.608-.553.922-.209.359-.227.552-.295.605,0,.062-.013-.058.091.163a3.436,3.436,0,0,1,.252.337c.112.121.267.246.4.372a10.432,10.432,0,0,0,2.133,1.432,29.254,29.254,0,0,0,5.66,2.2,81.346,81.346,0,0,0,13.716,2.526c9.817,1.146,20.586.963,31.264.968,5.325-.018,10.612-.039,15.7-.183,2.542-.083,5.049-.168,7.448-.382a33.308,33.308,0,0,0,6.733-1.091,7.028,7.028,0,0,0,2.426-1.23,1.914,1.914,0,0,0,.4-.413,1.711,1.711,0,0,0,.34-.461c.073-.146.244-.392.249-.448a1.616,1.616,0,0,0,.053-.278,7.17,7.17,0,0,0-.484-2.453,15.075,15.075,0,0,0-1.165-2.515,28.781,28.781,0,0,0-6.505-7.591,46.015,46.015,0,0,0-15.256-8.172,74.217,74.217,0,0,0-10.372-2.57c-2.547-.46-4.219-.735-5.244-.958s-1.406-.447-1.4-.649" transform="translate(748.316 162.155)" fill="#181818"/>
      <path id="Trazado_312" data-name="Trazado 312" d="M77.757,309.349c.006.15-.332.3-1.273.455a25.327,25.327,0,0,1-4.94.316,53.311,53.311,0,0,1-10.052-1.3,28.781,28.781,0,0,1-7.248-2.52,7.568,7.568,0,0,1-1.984-1.511,3.734,3.734,0,0,1-.806-1.4,6.848,6.848,0,0,1-.138-1.406q-.066-2.316-.139-4.877c-.146-6.45-.285-15.4-.241-25.619.019-5.112.078-10.542.272-16.148.1-2.8.233-5.649.456-8.533.042-.718.149-1.453.222-2.181a19.086,19.086,0,0,1,.322-2.233l.218-1.142a7.321,7.321,0,0,1,.644-1.379,8.38,8.38,0,0,1,.9-1.053c.327-.275.655-.57.994-.814a25.253,25.253,0,0,1,8.515-3.249,66.763,66.763,0,0,1,8.61-1.28,70.949,70.949,0,0,1,16.585.377,20.873,20.873,0,0,1,7.657,2.487A6.209,6.209,0,0,1,98.02,237.9a4.112,4.112,0,0,1,.752,2.4q0,1.748.01,3.414c.008,4.44.013,8.432.019,11.821,0,15.9-.1,25.363-.278,30.844s-.447,6.987-.782,6.984-.615-1.455-.858-6.85-.45-14.735-.634-30.512c-.034-3.367-.073-7.335-.118-11.754q-.015-1.658-.029-3.4c0-.705,0-.887-.139-1.168a2.494,2.494,0,0,0-.782-.853c-1.547-1.155-4.021-1.777-6.434-2.2a67.36,67.36,0,0,0-15.864-.45,65.854,65.854,0,0,0-8.245,1.154A25.352,25.352,0,0,0,57,239.99a5.586,5.586,0,0,0-1.361,1.083c-.136.2-.367.384-.395.574a2.1,2.1,0,0,1-.133.272,4.255,4.255,0,0,0-.1.463,39.838,39.838,0,0,0-.56,4.055c-.235,2.8-.385,5.607-.5,8.38-.22,5.549-.294,10.957-.351,16.047-.1,10.183-.044,19.117,0,25.559q.027,2.58.05,4.911c.008.383.015.764.023,1.139,0,.246.026.217.019.3a1.322,1.322,0,0,0,.1.228,3.725,3.725,0,0,0,1.175,1.1,25.212,25.212,0,0,0,6.617,2.631,67.383,67.383,0,0,0,9.855,1.861c2.395.285,3.966.275,4.955.384s1.35.223,1.356.375" transform="translate(679.797 141.22)" fill="#181818"/>
      <path id="Trazado_313" data-name="Trazado 313" d="M50.586,242.875c.176-.654,1.4-.5,7.469.016,2.875.206,8.01.485,13.19.353a117.215,117.215,0,0,0,13.343-.971c7.026-1,7.9-1.892,8.379-1.222.183.272.057.668-1.049,1.481a21.007,21.007,0,0,1-6.819,2.246A84.761,84.761,0,0,1,71.431,246a93.666,93.666,0,0,1-13.484-.667c-6.317-.948-7.515-1.948-7.361-2.458" transform="translate(686.136 145.947)" fill="#181818"/>
      <path id="Trazado_314" data-name="Trazado 314" d="M50.6,260.442c.1-.286.482-.437,1.573-.337l2.251.265c.966.154,2.2.257,3.731.439a102.039,102.039,0,0,0,13.36.377,96.5,96.5,0,0,0,13.5-1.358c7.052-1.353,8.021-2.275,8.484-1.575.176.282.034.67-1.05,1.482a21.366,21.366,0,0,1-6.821,2.573,74.654,74.654,0,0,1-13.885,1.631,75.706,75.706,0,0,1-13.751-.693,24,24,0,0,1-6.183-1.668c-1.065-.516-1.307-.85-1.212-1.138" transform="translate(685.603 156.576)" fill="#181818"/>
      <path id="Trazado_315" data-name="Trazado 315" d="M51.623,289.88c-.673-.045-.694-4.1,1.981-23.452.633-4.578,1.557-10.921,2.667-18.156.568-3.617,1.17-7.458,1.791-11.413l.269-1.675c.256-.864-.04-2.453,1.254-1.973l2.312.073q.779.029,1.562.087a46.331,46.331,0,0,1,6.3.82,16.782,16.782,0,0,1,6.28,2.406l.516.409.526.54.526.544a2.384,2.384,0,0,1-.165.7l-.681,1.95q-.507,1.442-1.01,2.866c-1.34,3.8-2.646,7.508-3.882,11.013-2.479,7.01-4.7,13.207-6.38,17.764-1.971,5.35-3.591,9.6-4.961,12.955-.7,1.686-1.288,3.117-1.952,4.419a6.242,6.242,0,0,1-2.7,2.964,3.013,3.013,0,0,1-3.024-.327,3.77,3.77,0,0,1-1.152-1.335c-.369-.791-.228-1.165-.081-1.184.178-.037.333.172.809.636a4.433,4.433,0,0,0,1.052.746,1.659,1.659,0,0,0,1.607.016c1.269-.61,2.112-3.214,3.324-6.537,1.2-3.382,2.689-7.612,4.565-12.924,1.594-4.558,3.754-10.746,6.2-17.738,1.22-3.5,2.513-7.2,3.838-11q.5-1.425,1-2.866l.469-1.327h0a3.271,3.271,0,0,0-.316-.223,5.822,5.822,0,0,0-.552-.324,11.965,11.965,0,0,0-1.244-.56,22.329,22.329,0,0,0-2.777-.8,44.088,44.088,0,0,0-5.9-.835l-1.494-.1-1.107-.053c-.068,0-.155-.006-.129,0l-.142.861c-.641,3.942-1.264,7.77-1.85,11.376-1.152,7.211-2.162,13.529-2.892,18.1-3.125,19.53-3.929,23.591-4.461,23.552" transform="translate(700.478 141.19)" fill="#181818"/>
      <path id="Trazado_316" data-name="Trazado 316" d="M49.3,250.205c-.578-.172-.621-1.481.882-7.432,1.422-5.626,5.51-19.834,7.353-25.648,2.163-6.822,2.953-8.018,3.6-7.846s.691,1.532-1.108,8.419c-1.536,5.876-5.66,20.081-7.461,25.614-1.927,5.918-2.683,7.066-3.265,6.893" transform="translate(720.288 126.441)" fill="#fffeff"/>
      <path id="Trazado_317" data-name="Trazado 317" d="M72.351,240.078c.07-.61.343-.939,1.515-1.186a18.873,18.873,0,0,0,2.387-.6,6.739,6.739,0,0,0,1.99-1.066,4.528,4.528,0,0,1,1.071-.672,1.184,1.184,0,0,1,.885.11.811.811,0,0,1,.549.684,2.377,2.377,0,0,1-.689,1.673,6.271,6.271,0,0,1-2.882,1.871,8.329,8.329,0,0,1-3.155.427c-1.469-.152-1.74-.659-1.67-1.246" transform="translate(663.193 143.287)" fill="#181818"/>
      <path id="Trazado_318" data-name="Trazado 318" d="M81.854,245.649c-.6.026-1.037-.633-1.377-3.961-.319-3.152-.646-11.177-.5-14.552.013-.21.024-.413.036-.608.026-.262.05-.513.074-.757a2.332,2.332,0,0,1,2.193-1.835,3.381,3.381,0,0,1,1.22.1c.547.16.7.408.722.7s-.117.557-.594.8c-.231.121-.565.236-.9.387-.21.089-.21.129-.243.186a.2.2,0,0,0,0,.17c.021-.044.029.489.049.8.16,3.235.448,11.275.377,14.429-.074,3.38-.448,4.11-1.057,4.136" transform="translate(647.422 135.502)" fill="#181818"/>
      <path id="Trazado_319" data-name="Trazado 319" d="M75.409,223.388a.719.719,0,0,1-.749-.55,3.639,3.639,0,0,1,.21-2.631,3.718,3.718,0,0,1,1.458-1.752,3.455,3.455,0,0,1,3.151-.15,4.465,4.465,0,0,1,.694.388,2.956,2.956,0,0,1,.311.236,2.653,2.653,0,0,1,.375.364,4.954,4.954,0,0,1,1.071,1.685,10.94,10.94,0,0,1,.471,1.641c.11.487.217.953.316,1.392-1.217-.142-2.256-.322-2.937-.317l-1.206.052c-2.335.233-2.812.283-3.165-.356a.768.768,0,0,1,.193-1,5.107,5.107,0,0,1,2.562-1.168c.845-.149.515-.126.592-.152a.1.1,0,0,0-.036-.028l0,0c.019.018-.013-.015-.11-.091a1.929,1.929,0,0,0-.231-.144.972.972,0,0,0-.733-.083,1.5,1.5,0,0,0-.587.557c-.464.683-.655,1.3-.884,1.62a.9.9,0,0,1-.767.485" transform="translate(657.727 131.839)" fill="#181818"/>
      <path id="Trazado_320" data-name="Trazado 320" d="M84.34,297.312c.131.073.186.244.094.618a3.818,3.818,0,0,1-.987,1.715,5.067,5.067,0,0,1-3.916,1.618,6.719,6.719,0,0,1-3.074-.824,5.811,5.811,0,0,1-1.571-1.214l-.366-.469a6.676,6.676,0,0,1-.319-.626,3.967,3.967,0,0,1-.163-.841L74,296.83c-.869-9.4-2.6-33.357-3.151-43.24-.644-11.6-.377-13.832.291-13.877s1.24,2.044,2.248,13.586c.861,9.846,2.553,33.855,3.032,43.292l.024.468.011.23v.021c.045,0-.4,0-.207,0l.045,0,.087,0c.073,0,.108-.008.089,0-.023-.015,0,.036.029.094a.44.44,0,0,0,.108.189,3.163,3.163,0,0,0,.854.809,5.173,5.173,0,0,0,2.062.807,4.075,4.075,0,0,0,2.879-.672,14.106,14.106,0,0,0,1.322-1.042c.291-.215.487-.261.62-.188" transform="translate(662.486 145.263)" fill="#181818"/>
      <path id="Trazado_321" data-name="Trazado 321" d="M73.415,248.419c-.309.011-.579-.786-1.045-3.61-.422-2.84-1.233-7.656-1.856-15.881-.057-.96-.105-2.016-.107-3.185a13.644,13.644,0,0,1,.133-1.926,4.173,4.173,0,0,1,.1-.571,6.289,6.289,0,0,1,.32-.785,3.35,3.35,0,0,1,1.013-1.031,10.331,10.331,0,0,1,4.434-1.471,9.71,9.71,0,0,1,2.56.016,4.825,4.825,0,0,1,1.5.485,2.58,2.58,0,0,1,1.351,1.725c.066.387.154.893.241,1.406l.019.113v.149l-.015-.2c.6,3.811,1.191,7.976,1.728,12.253.264,2.139.518,4.3.718,6.473.1,1.086.189,2.172.243,3.274.026.552.045,1.1.032,1.693a3.177,3.177,0,0,1-.838,2.411l-.494.335v0l0-.011.024.259c.066.74.134,1.473.2,2.2q.2,2.175.387,4.257c.248,2.772.484,5.408.7,7.871.424,4.926.79,9.165,1.073,12.458,1.563,18.984,1.468,22.606.8,22.649s-1.408-3.385-3.322-22.177c-.324-3.306-.743-7.578-1.228-12.538-.235-2.482-.487-5.136-.751-7.926q-.194-2.095-.4-4.285c-.068-.728-.136-1.466-.206-2.209l-.079-.856a3.966,3.966,0,0,1-.037-1.1l1.387-.943a17.523,17.523,0,0,0-.011-1.969c-.05-1.037-.136-2.1-.233-3.162-.194-2.131-.442-4.278-.7-6.4-.518-4.244-1.084-8.4-1.639-12.146l-.016-.108v-.128l.021.23c-.073-.447-.144-.888-.2-1.223a.043.043,0,0,0-.028-.039,2.2,2.2,0,0,0-.638-.206,7.009,7.009,0,0,0-1.777-.036,8.465,8.465,0,0,0-3.251.924,1.748,1.748,0,0,0-.4.311l-.024.028-.008.011,0,0c.1.073-.916-.639-.477-.332l.055.047.112.089c.437.312.3.22.322.252,0,.042-.032-.01-.044.15a10.117,10.117,0,0,0-.147,1.463c-.039,1.031-.018,2.023.01,2.932.384,8.156.913,13.175.939,16.122.073,2.955-.159,3.859-.455,3.871" transform="translate(659.981 133.006)" fill="#181818"/>
      <path id="Trazado_322" data-name="Trazado 322" d="M66.264,227.282c-.231,0-.44-.5-.626-2.073-.094-.79-.181-1.85-.264-3.253a6.467,6.467,0,0,1,.241-2.647,3.577,3.577,0,0,1,1.05-1.553,3.5,3.5,0,0,1,.9-.539,3.18,3.18,0,0,1,.5-.168,2.248,2.248,0,0,1,.238-.053l.058-.013a.565.565,0,0,1,.147-.016,1.464,1.464,0,0,0,.013-.157,2.481,2.481,0,0,1,.32-.756,3.418,3.418,0,0,1,.8-.934,3.9,3.9,0,0,1,2.322-.778,4.93,4.93,0,0,1,2.409.571,3.86,3.86,0,0,1,1.125.877l.244.3.047.081a.282.282,0,0,1,.042.089c.018,0,.052-.01.078-.011l.029,0,.155-.01.57,0a6.189,6.189,0,0,1,1.286.144,2.907,2.907,0,0,1,1.662,1,2.667,2.667,0,0,1,.4.99,6.58,6.58,0,0,1,.113.707c.207,1.678.3,3.419.4,5.361s.173,4.032.231,6.308q.029,1.714.058,3.558l0,.477,0,.248a2.953,2.953,0,0,1-.019.364,2.656,2.656,0,0,1-.188.764,3.63,3.63,0,0,1-.338.672,4.12,4.12,0,0,1-.916.964l-.028.024a2.593,2.593,0,0,0-.3-.273.809.809,0,0,0-.159-.116.1.1,0,0,0-.023-.013.359.359,0,0,0,.108.032l.1.021.015,0c.783.113.218.029.393.055v-.006l0-.011c0-.037.006-.008,0-.015.233,3.982.487,8.334.748,12.8.126,2.23.256,4.489.382,6.743l.1,1.689.047.843a1.747,1.747,0,0,1-.006.4l-.018.209-.037.417q-.143,1.672-.286,3.325c-.79,8.795-1.524,16.991-2.021,22.533-1.824,19.219-2.56,22.829-3.227,22.772s-.788-3.6.66-22.727c.45-5.563,1.118-13.822,1.835-22.683q.141-1.66.282-3.346a6.071,6.071,0,0,0,.021-1.494l-.1-1.691c-.126-2.254-.254-4.513-.379-6.743-.241-4.461-.477-8.808-.693-12.777a2.472,2.472,0,0,1,.134-1.1,2.308,2.308,0,0,1,.66-.9c.361-.3.369-.306.432-.4.16-.246.125-.282.133-1.015q-.017-1.784-.031-3.437c-.06-2.217-.113-4.261-.163-6.143-.073-1.871-.147-3.6-.285-5.086-.108-.985-.083-.782-.157-.853a4.511,4.511,0,0,0-1.413-.144c-.6.013-1.367.144-1.932.2-.084-.332-.16-.691-.251-.977l-.133-.45c-.032-.06-.057-.066-.082-.105a1.488,1.488,0,0,0-.448-.367,2.685,2.685,0,0,0-1.251-.345,1.744,1.744,0,0,0-.99.249,1.273,1.273,0,0,0-.285.311.453.453,0,0,0-.108.2,1.663,1.663,0,0,0-.142.529c-.23.218-.455.434-.657.628-.205.108-.476.275-.772.468a1.8,1.8,0,0,0-.345.013,1.157,1.157,0,0,0-.15.024,1.276,1.276,0,0,0-.235.061,1.487,1.487,0,0,0-.39.193,1.685,1.685,0,0,0-.528.675,5.272,5.272,0,0,0-.322,1.981c-.061,1.382-.133,2.434-.212,3.22-.162,1.574-.359,2.094-.592,2.1" transform="translate(674.462 129.58)" fill="#181818"/>
      <path id="Trazado_323" data-name="Trazado 323" d="M66.718,228.877c-.028-.6.269-1.023,1.814-1.3a29.529,29.529,0,0,1,6.929-.236,3.324,3.324,0,0,1,1.5.574,1.485,1.485,0,0,1,.6.919.78.78,0,0,1-.453.812,1.08,1.08,0,0,1-.879.146.5.5,0,0,0-.346.024c-.065.052-.223.052-.618.07-1.29.04-5.125.264-6.579.125-1.586-.133-1.937-.524-1.966-1.131" transform="translate(675.485 137.538)" fill="#181818"/>
      <path id="Trazado_325" data-name="Trazado 325" d="M165.185,163.95c.579-.23,1.2.4,3.251,4.071,1.921,3.482,6.751,12.468,8.573,16.28,2.139,4.474,2.121,5.571,1.519,5.837-.62.277-1.316-.343-3.751-4.592-2.074-3.623-6.874-12.631-8.479-16.35-1.738-3.963-1.66-5.032-1.113-5.246" transform="translate(415.394 98.404)" fill="#181818"/>
      <path id="Trazado_326" data-name="Trazado 326" d="M.082.419C.22-.138,1.2-.361,2.951,1.184a16.189,16.189,0,0,1,3.01,3.856A17.807,17.807,0,0,1,7.87,9.6c.589,2.586.11,3.162-.507,3.259-.7.118-1.07-.285-1.914-2.447A30.338,30.338,0,0,0,3.59,6.453,29.042,29.042,0,0,0,1.209,2.89C-.016,1.312-.122,1.049.082.419" transform="translate(314.12 7.491) rotate(-67)" fill="#fffeff"/>
      <path id="Trazado_327" data-name="Trazado 327" d="M277.72,37s5.057-7.594,22.9-5.847-2.2-13.693-2.2-13.693l-22.566,2.087Z" transform="translate(29.981 -1.02)" fill="#181818"/>
    </g>
  </g>
</svg>
