<svg xmlns="http://www.w3.org/2000/svg" xmlns:xlink="http://www.w3.org/1999/xlink" width="702.454" height="485.192" viewBox="0 0 702.454 485.192">
  <defs>
    <linearGradient id="linear-gradient" x1="0.406" y1="0.048" x2="0.883" y2="0.916" gradientUnits="objectBoundingBox">
      <stop offset="0" stop-color="#00e0ee"/>
      <stop offset="0.478" stop-color="#ad26fb"/>
      <stop offset="1" stop-color="#0740db"/>
    </linearGradient>
  </defs>
  <g id="Grupo_397" data-name="Grupo 397" transform="translate(-181.077 -1145.242)">
    <path id="Unión_29" data-name="Unión 29" d="M100.984,133.027H93.633l-2.826-1.3a8.639,8.639,0,0,1,0-4.818c.788-2.416-.208-13.775,0-17.131s.628-19.272.869-24.886,1.588-38.632,1.957-42.322.74-10.59.74-10.59H85.579a35.611,35.611,0,0,0-11.189,0c-5.852,1-14.8-.949-14.8-.949H56.8V60.395l-.232-.245c-.016,7.013-.195,20.846-.322,22.709-.16,2.372-.252,27.48-.476,31.358s.241,13.875-.54,15.539-3.592,1.649-5.906,2.032a107.413,107.413,0,0,1-12.532,1.027c-1.608-.166-6.342-1.345-6.342-1.345a27.728,27.728,0,0,0-.788-3.393c-.6-2.091-2.138-12.262-2.628-14.635s-1.781-15.473-2.1-19.061S22.767,76.051,22.4,71.523,20.4,48.72,20.227,46.644,19.211,29.87,19.211,29.87s-2.195-.29-3.754-.412a38.893,38.893,0,0,0-5.409.412s.394-.7-1.142-1.193A14.849,14.849,0,0,1,3.054,24.6C1.165,22.477.546,18.881.168,15.1A32.372,32.372,0,0,1,.506,5.99c.244-1.2.747-2.875,1.093-3.973l-.35-.37L1.989,0H137.723s-.241.651.837,4.688.048,8.276,0,9.679-1.656,8.623-2.283,11.979-4.244,25.624-4.9,28.6-7.931,41.513-7.931,41.513-6.334,27.982-7.251,31.05a11.98,11.98,0,0,1-1.929,4.211l-8.311,1.3Z" transform="translate(481.179 1458.534)"/>
    <path id="Trazado_735" data-name="Trazado 735" d="M4060.526,1219.05a11.4,11.4,0,0,1-4.7-3.4c-2.355-2.691-3.827-6.323-4.919-6.793s-4.469-1.9-4.469-1.9-4.693-1.263-6.229-3.078-7.837-8.753-9.164-15.127,1.486-14.969,3.319-19.4,6.1-10.994,10.557-14.575,14.525-8.045,24.484-8.7,22.7,3.518,29.634,12.062,9.651,16.8,9.547,24.225-2.7,15.762-10.444,21.362-18.769,7.155-24.572,7.683a52.113,52.113,0,0,1-12.154-.637l-.434.637Z" transform="translate(-3576.121 0.014)" fill="#00e0ee"/>
    <g id="Grupo_392" data-name="Grupo 392" transform="translate(181.077 1145.242)">
      <path id="Trazado_733" data-name="Trazado 733" d="M568.7,143.574s-1.287-.367-1.769-3.656a12.688,12.688,0,0,1,6.348-12.942c1.494.246,1.7.217,3.078-1.056s8.029-4.514,13.689-4.384a27.981,27.981,0,0,1,17.686,6.11c4.831,5.816,7.058,10.128,8.56,20.589,1.1,9.607.773,12.564,3.209,17.324,2.323,4.507,4.886,7.193,5.956,7.851a4.656,4.656,0,0,1-4.473.21c-1.475-.669-3.915-2.575-4.28-2.243s.08,2.695-.7,4.348-2.223,6.149-8.721,7.014-6.528-.43-7.046-.716-4.092.644-5.418,0-3.3-1.773-5.486-2.645a8.722,8.722,0,0,1-3.465-2.626,13.563,13.563,0,0,0,3.943-2.438c1.491-1.479,3.47-3.741,4.519-8.812a31.752,31.752,0,0,0-.352-12.92c-.607-2.333-1.623-6.05-2.41-6.462s-5.3-1.335-6.812-2.16a19.673,19.673,0,0,1-6.74-5.993c-1.905-3.006-3.026-5.932-3.46-6.182s-2.094-.293-2.48.387a35.273,35.273,0,0,0-2.335,5.375C569.453,138.827,568.7,143.574,568.7,143.574Z" transform="translate(10.217 2.208)" fill="#00e0ee"/>
      <path id="Trazado_732" data-name="Trazado 732" d="M345.7,184.351l-1.72-5.7-.378-1.906,1.531-3.982,1.941-2.651.787,1.295,2.166,1.689h1.061l1.993-.72.6.387,1.817,3.8.53,2.087-1.234,2.59-1.4,3.9-.314.861,1.114,1.819,1.016,5.557,1.109,5.31.161,2.431-3.216,1.812-9.432-.9v-2.673l1.206-11.17Z" transform="translate(6.163 3.09)" fill="#00e0ee"/>
      <path id="Trazado_570" data-name="Trazado 570" d="M185.482,182.9c-7.7-3.2-2.221-16.3,5.483-14.117,9.726,3.4,4.229,17.929-5.483,14.117" transform="translate(73.55 68.27)" fill="#fff"/>
      <path id="Trazado_571" data-name="Trazado 571" d="M338.094,180.978c-.117-.537-.235-1.1-.333-1.659-1.572-1.041-1.842-2.9-2.643-4.423-2.748-5.2,3.583-7.551,7.78-7.3a12.549,12.549,0,0,1,6.868,1.822c1.843.163,5.377,1.51,3.108,3.666.74,2.006-.153,4.248-1.488,5.824-2.543,2.979-7.067,2.831-10.562,1.957a1.39,1.39,0,0,1-2.734.1Z" transform="translate(135.395 67.879)" fill="#fff"/>
      <path id="Trazado_572" data-name="Trazado 572" d="M438.01,49.548c3.388,6.271,3.431,13.639,3.258,20.639C440.6,81,437.561,92.12,429.55,99.828a5.211,5.211,0,0,1-2.153,1.582c-4.146,3.907-9.341,6.653-14.483,9.036-3.794,1.879-7.644,4-11.79,4.942a53.585,53.585,0,0,1-14.926,3.7c-7.086,1.249-14.361-1.366-21.44-1.98.108.686.086,1.582.18,2.189.282,1.357,2.4,5.591-.476,5.071-3.872-2.023-6.632-5.823-9.269-9.268-7.506-.5-15.192.555-22.43-1.54a53.51,53.51,0,0,1-25.985-20.3c-2.362-2.608-3.792-6.184-5-9.391a29.439,29.439,0,0,1-1.387-8.156,42.308,42.308,0,0,1,.745-19.917,7.481,7.481,0,0,1,.028-1.221A41.818,41.818,0,0,1,303.46,49,38.93,38.93,0,0,1,314.8,34.255c1.626-1.366,3.194-3.173,5.231-3.895.223-.159.455-.3.693-.447.94-.586,1.908-1.12,2.89-1.612.318-1.879,6.321-4.068,7.492-5.02,5.858-3.15,12.641-4.024,19.115-4.877a97.476,97.476,0,0,1,19.122-1.495c5.707-.03,11.638-.745,17.288.289a14.12,14.12,0,0,1,1.626.2c18.11,3.316,36.35,11.176,46.877,26.969.253.433.794,1.169,1.343,2.008a.884.884,0,0,1,.844.8c.029.253.051.5.087.757a5.681,5.681,0,0,1,.607,1.612" transform="translate(121.251 6.741)" fill="#fff"/>
      <path id="Trazado_575" data-name="Trazado 575" d="M425.512,203.759c2.233,2.948-4.024,2.153-5.5,2.074a46.832,46.832,0,0,0-7.332-.1c-.311.729-1.359.823-2.117.7a5.258,5.258,0,0,1-1.127-.455c-7.672.752-15.293,2.457-23.038,2.1-4.349-.384-10.091-1.106-12-5.65-.809-1.387-1.315-3.286-.079-4.609a43.953,43.953,0,0,1,9.969-4.725c6.964-3.208,14.8-5.006,22.35-3.07a3.815,3.815,0,0,1,1.742.694.783.783,0,0,1,.757.794.821.821,0,0,1-1.531.333c-.4-.073-.808-.145-1.213-.2a1.73,1.73,0,0,1-.138.188,46.53,46.53,0,0,0-1,6.775,2.8,2.8,0,0,0,.953,2.9c1,.469,2,1.069,3.026,1.582,5.454-.577,10.888-.708,16.269.665" transform="translate(151.246 76.649)" fill="#fff"/>
      <path id="Trazado_576" data-name="Trazado 576" d="M111.372,103.405c2.3,1.907-1.394,3.808-2.833,4.732a17.158,17.158,0,0,0-1.87,1.3,1.052,1.052,0,0,1-.34.492c-.173,2.47.037,4.933-.426,7.389,1.228,2.941,1.069,7.832-1.64,9.948-.752.644-1.64,1.322-2.695.975a1.526,1.526,0,0,1-.434-.23,25.6,25.6,0,0,1-4.6.614c-4.031-.318-8.308.534-12.13-1.048-.26.925-.483,1.835-.694,2.681-.556,1.249-.78,7.975-3.063,5.252a6.184,6.184,0,0,1,.275-2.348.8.8,0,0,1-.188-.029h.159c-3.937-.087-7.759-1.539-11.558-2.456-2.405-.679-5.251-.961-7.309-2.449-.038.246-.081.485-.117.729-.232.91-.2,2.709-1.5,2.623-1.645-.651-.23-3.576-.143-4.9.752-3.345.953-6.8,1.654-10.15.2-1.069.75-2.175,1.971-2.276.535-.223,1.294.073,1.619-.52.094-.5.469-.946.448-1.458-.781-1.127-1.848-2.016-2.348-3.309-1.422-4.176-1.019-9.413,1.727-12.859a1.048,1.048,0,0,1,.743-1.329,3.707,3.707,0,0,1,.5.037A8.883,8.883,0,0,1,68.374,93.6a.76.76,0,1,1-.159,1.5c-.044.044-.094.087-.138.131a4.852,4.852,0,0,1,1.7,1.286c1.179,1.235,1.142,2.984,1.706,4.486,2.456-2.854,3.316-7.03,3.923-10.641.051-2.709.136-7.225,3.937-6.777a3.7,3.7,0,0,1,2.477,1.821,3.8,3.8,0,0,1,1.51.527c.881.7,1.488,1.755,2.571,2.182a11.927,11.927,0,0,0,4.537-1.041c.462-.361,1.184-.6,1.409-1.17a1.493,1.493,0,0,0,.115-.469,1.429,1.429,0,0,1,.816-1.921c1.711-.441,3.482.773,4.854,1.589,1.387.9,3.475,1,4.247,2.629a50.858,50.858,0,0,0,.26,8.5c.8,1.4,1.17,3.084,2.124,4.406a12.962,12.962,0,0,0,1.322,1.5c1.813.68,4.073.471,5.786,1.258" transform="translate(24.072 33.793)" fill="#fff"/>
      <path id="Trazado_581" data-name="Trazado 581" d="M378.779,221.972a.654.654,0,0,1,.594-.03c-.237.083-.475.17-.71.261-.1.038-.2.079-.3.119.132-.121.268-.239.41-.351" transform="translate(153.186 89.878)" fill="#c1e1de"/>
      <path id="Trazado_582" data-name="Trazado 582" d="M359.183,297.815l.131-.368-.152.433.021-.065" transform="translate(145.406 120.486)" fill="#c1e1de"/>
      <path id="Trazado_583" data-name="Trazado 583" d="M410.682,251.556a.7.7,0,0,1-.6-.7c1.225.133,2.438.3,3.655.468,3.293.637,6.583,1.346,9.845,2.157a118.76,118.76,0,0,1-12.9-1.925" transform="translate(166.032 101.614)" fill="#c1e1de"/>
      <path id="Trazado_584" data-name="Trazado 584" d="M408.376,250.37c-5-.076-10.18-.178-15.072-.594l.422-.077c.687-.065,1.359-.1,2.051-.108,1.163,0,2.327-.022,3.49-.037,2.658.044,5.331.26,7.975.563q.828.124,1.658.254c-.174,0-.348,0-.524,0" transform="translate(159.236 101.086)" fill="#c1e1de"/>
      <path id="Trazado_585" data-name="Trazado 585" d="M461.46,249a24.594,24.594,0,0,0,1.456-3.045,13.182,13.182,0,0,1-3.3,5.757A18.347,18.347,0,0,0,461.46,249" transform="translate(186.094 99.628)" fill="#c1e1de"/>
      <path id="Trazado_586" data-name="Trazado 586" d="M457.3,245.107c-.058.121-.114.243-.169.365.053-.122.108-.243.169-.365" transform="translate(185.092 99.285)" fill="#c1e1de"/>
      <path id="Trazado_587" data-name="Trazado 587" d="M406.246,244.854l.247.038c-.086-.011-.167-.022-.247-.038" transform="translate(164.478 99.182)" fill="#c1e1de"/>
      <path id="Trazado_588" data-name="Trazado 588" d="M461,221.689q-.628-2.173-1.274-4.34a9.427,9.427,0,0,1,1.484,3.336c.665,3,1.5,5.931,1.929,8.943,0,.11.007.218.007.326-.725-2.751-1.357-5.525-2.146-8.265" transform="translate(186.139 88.041)" fill="#c1e1de"/>
      <path id="Trazado_590" data-name="Trazado 590" d="M442.2,100.613l-.069-.2-.016-.046c-.006-.022-.013-.045-.021-.07.037.11.073.218.108.326l0-.01" transform="translate(179 40.627)" fill="#c1e1de"/>
      <path id="Trazado_591" data-name="Trazado 591" d="M416.5,93.056c-.062.055-.129.1-.2.156l-.01.007c.065-.056.135-.107.207-.163" transform="translate(168.546 37.694)" fill="#c1e1de"/>
      <path id="Trazado_593" data-name="Trazado 593" d="M238.5,8.764c.065.052.122.1.188.152-.066-.049-.131-.1-.188-.152" transform="translate(96.531 3.55)" fill="#c1e1de"/>
      <path id="Trazado_594" data-name="Trazado 594" d="M419.182,104.254c.665.26,2.095.989,1.619,1.835a.455.455,0,0,1-.607.037c-1.243-1.177-2.969-.961-4.429-.412-.441.136-1.012.693-1.373.129-.347-.968,1.243-1.076,1.842-1.4a4.23,4.23,0,0,1,2.948-.188" transform="translate(167.758 42.151)"/>
      <path id="Trazado_595" data-name="Trazado 595" d="M417.194,110.7c.188,1.191.932,4.588-1.235,3.923-.715-.478-.766-1.4-.91-2.175-.138-1.214-.556-2.55.209-3.633,1.272-1.43,1.8.9,1.936,1.886" transform="translate(167.947 43.893)"/>
      <path id="Trazado_596" data-name="Trazado 596" d="M435.457,110.664a.462.462,0,0,1-.469.8,2.822,2.822,0,0,0-.26-.181,8.124,8.124,0,0,0-1.423-.823c-2.058-.975-4.371-1.286-6.48-2.189-5.317-2.608-8.258-7.34-10.656-12.462-.18,0-.332.122-.513.131a.467.467,0,0,1-.129-.91c2.008-.823,2.341,2.788,3.222,3.958.816,1.4,1.964,2.651,2.817,4.031a16.785,16.785,0,0,0,6.545,4.718c1.467.433,2.969.794,4.385,1.336a13.292,13.292,0,0,1,1.46.649,9.787,9.787,0,0,1,1.5.947" transform="translate(168.106 38.442)"/>
      <path id="Trazado_597" data-name="Trazado 597" d="M431.686,108.19c3.59,7.816,3.714,17.8-.563,25a11.817,11.817,0,0,1-5.158,4.471,13.734,13.734,0,0,1-1.6.621c-.384.117-.781.225-1.177.311a.471.471,0,0,1-.434-.281.477.477,0,0,1,.253-.621c1.012-.485,2.051-.889,3.077-1.366a11.685,11.685,0,0,0,5.195-5.418c3.215-6.935,2.695-16.658-1.012-23.543a14.682,14.682,0,0,0-.809-1.387,4.5,4.5,0,0,0-.26-.412c-.513-.759-1.069-1.561-1.64-2.3a.461.461,0,1,1,.729-.563,24.1,24.1,0,0,1,2.63,3.922c.274.506.534,1.034.773,1.561" transform="translate(171.148 41.53)"/>
      <path id="Trazado_598" data-name="Trazado 598" d="M438.471,125.119c.7.846-.989,1.943-1.38,2.7a9.3,9.3,0,0,1-10.2,3.612,6.547,6.547,0,0,1-2.8-1.9.78.78,0,0,1-.194-.354.753.753,0,0,1,.072-.57.778.778,0,0,1,.954-.318c.187.08.382.166.577.267a18.05,18.05,0,0,0,2.03.968,11.618,11.618,0,0,0,5.121.239c2.2-.853,3.691-2.731,5.05-4.544a.557.557,0,0,1,.773-.1" transform="translate(171.616 50.637)"/>
      <path id="Trazado_599" data-name="Trazado 599" d="M468.09,140.406a.457.457,0,0,1-.549.585c-.129-.072-.253-.152-.382-.237a9.527,9.527,0,0,1-.961-.68c-3.944-3.062-6.105-8.387-7.246-13.111-1.38-8.518-1.272-17.454-5.064-25.392-5.252-12.332-21.29-15.612-32.711-10.41a21.508,21.508,0,0,0-4.579,3.3.457.457,0,0,1-.651,0c-.535-.982,1.51-1.776,2.081-2.376,6.4-4.725,15.437-5.3,22.922-3.164,8.408,2.658,14.122,9.824,16.1,18.27,3.222,10.648.483,24.822,10.192,32.494.174.138.354.274.542.412a.4.4,0,0,1,.3.311" transform="translate(168.371 35.538)"/>
      <path id="Trazado_600" data-name="Trazado 600" d="M455.937,125.18a.468.468,0,0,1-.246.607,1.245,1.245,0,0,1-.145.058q-.466.2-.932.347a6.79,6.79,0,0,1-2.514.389A11.367,11.367,0,0,1,447,124.5a.467.467,0,0,1-.08-.651c.268-.361.715-.058.961.138,1.683.982,3.591,2.008,5.57,1.553a.7.7,0,0,0,.2-.028,6.133,6.133,0,0,0,1.048-.391c.483-.2.939-.318,1.235.058" transform="translate(180.915 50.1)"/>
      <path id="Trazado_601" data-name="Trazado 601" d="M489.768,168.181c.058-.556.982-.542.925.087-1.856,31.606-2.521,63.182-5.634,94.679a271.053,271.053,0,0,1-2.067,27.285c-.209,1.568-.354,3.15-.541,4.71a.627.627,0,0,1-.68.563.634.634,0,0,1-.563-.679c.636-5.735,1.532-11.465,1.791-17.244.614-13.92,1.655-27.726,3.042-41.589,1.539-22.589,2.051-45.223,3.728-67.813" transform="translate(194.842 67.962)"/>
      <path id="Trazado_602" data-name="Trazado 602" d="M502.728,157.777a.46.46,0,0,1,.9.209c-1.069,8.662-1.734,17.447-1.945,26.158-.975,18.985-.7,38.028-1.263,57a216.411,216.411,0,0,1-2.9,38.78c-1.373,8.04-2.175,16.146-3.461,24.194a70.85,70.85,0,0,1-1.885,8.047.606.606,0,0,1-1.134-.4c.341-1.7.672-3.4.954-5.093,1.394-15.785,4.869-31.3,6.076-47.1,1.5-33.946.506-68.015,4.668-101.787" transform="translate(198.816 63.773)"/>
      <path id="Trazado_603" data-name="Trazado 603" d="M511.644,155.572c1.033-.216,7.961.989,5.289,2.146-4.169-.736-8.381-1.228-12.613-1.568-.131-.014-.261-.021-.391-.028-8.741-.687-17.576-.738-26.31-1.019-7.925-.087-15.777-1.265-23.651-.658-.933,1-2.074-.954-.694-1.242,8.69-1.055,17.475.5,26.165.736,10.75.391,21.528.644,32.205,1.633" transform="translate(183.268 61.91)"/>
      <path id="Trazado_604" data-name="Trazado 604" d="M490.367,155.214a.476.476,0,0,1,.181.628,12.908,12.908,0,0,0-1.763,5.2c.115,2.146-.391,4.335-.419,6.451-.188.816.209,2.812-.8,3.012a.479.479,0,0,1-.412-.462,35.749,35.749,0,0,1,.354-7.9,16.812,16.812,0,0,1,2.226-6.747.4.4,0,0,1,.237-.211.448.448,0,0,1,.384.022.007.007,0,0,1,.007.007" transform="translate(197.219 62.847)"/>
      <path id="Trazado_605" data-name="Trazado 605" d="M518.253,259.979a.466.466,0,0,1-.318.57,25.347,25.347,0,0,1-5.39.333C494.9,260.775,476.8,259,458.5,258.816c-13.6-.339-27.2-.2-40.8-.382-4.645,0-8.437-1-13.163-.384a8.172,8.172,0,0,0-6.154,3.33,10.867,10.867,0,0,0-2.255,6.437c.413,2.789.86,5.606,1.481,8.331a.465.465,0,0,1-.9.253c-.628-2.81-1.163-5.672-1.553-8.525.129-4.566,2.946-9.348,7.578-10.511,4.9-1.582,9.962-.239,14.939-.326,18.725-.007,37.458.131,56.161.788,11.3.065,22.423,1.69,33.664,2.189,3.4-.117,6.864.166,10.208-.354a.451.451,0,0,1,.549.318" transform="translate(159.985 103.936)"/>
      <path id="Trazado_606" data-name="Trazado 606" d="M528.611,268.058a.464.464,0,0,1,.361.853,24.679,24.679,0,0,1-7.939,1.755c-3.642.145-7.29.31-10.938.476-.325.015-.649.03-.982.044-29.366,1.387-58.782,3.41-88.192,4.291-5.071-.18-10.128-.136-15.192-.317-.8.029-2.493.1-4.2.029-.311-.015-.614-.037-.918-.059-2.276-.173-4.284-.672-3.794-1.95a.639.639,0,0,1,.94.022c3.316,1.364,6.986.433,10.461.743a462.094,462.094,0,0,0,53.783-1.286c14.752-.925,29.488-1.806,44.261-2.334,6.408-.513,12.831-1.35,19.268-1.473a12.773,12.773,0,0,0,3.077-.8" transform="translate(160.63 108.565)"/>
      <path id="Trazado_607" data-name="Trazado 607" d="M403.819,371.5c.223.8-.621,2.037-1.35,1.1-1.648-5.345-.846-11.052-1.055-16.557-.2-6.161-.694-12.317-.867-18.479-.911-21.412-1.3-42.853-1.04-64.258a.351.351,0,0,1,.021-.129.471.471,0,0,1,.918.058.14.14,0,0,1,.007.058c-.3,23.413.556,46.813,2.016,70.2,1.083,9.334.3,18.7,1.35,28.016" transform="translate(161.716 110.518)"/>
      <path id="Trazado_608" data-name="Trazado 608" d="M408.323,374.271a14.142,14.142,0,0,1-4.284-1.451c-1.347-2.036,3.753-.119,4.465-.087a17.076,17.076,0,0,0,4.758-.247c1.054-12.137-.719-24.455-.524-36.682.126-20.6.677-41.184,2.449-61.7,2.037-3.125.185,10.712.3,11.53-.941,19.039-1.453,38.1-.823,57.129-.214,9.913,1.769,20.022-.441,29.8-.244,1.151-1.6.9-2.48,1.118a6.485,6.485,0,0,1-3.414.594" transform="translate(163.493 110.844)"/>
      <path id="Trazado_609" data-name="Trazado 609" d="M484.412,375.708c-4.611.3-6.424-2.172-5.945-6.6-.641-10.367-.149-20.8-.4-31.208-1.078-20.684-1.973-41.381-1.453-62.1.242-1.2-.591-6.642,1-5.772a.536.536,0,0,1,.083.762c.188,11.2-.3,22.387-.126,33.589.284,12.665,1.307,25.308,1.6,37.969-.275,9.122.121,18.29.2,27.386a4.876,4.876,0,0,0,1.177,3.622c3.257,1.687,7.5.9,10.916.091.686,0,1.517-.913,1.994-.209a.473.473,0,0,1-.246.607,16.765,16.765,0,0,1-8.792,1.856" transform="translate(192.921 109.344)"/>
      <path id="Trazado_610" data-name="Trazado 610" d="M488.25,372.421c-.194-6.847.993-13.754,1.134-20.6q.816-22.433.145-44.855c-.029-12.123.112-24.253.361-36.366-.021-.459.117-1.229.731-1.026.365.16.287.542.194.846-.679,24.8.419,49.637-.166,74.436.1,7.556-.219,15.13-.722,22.655-.108,1.6-.171,3.211-.311,4.8a.7.7,0,0,1-1.366.108" transform="translate(197.686 109.181)"/>
      <path id="Trazado_611" data-name="Trazado 611" d="M386.994,227.231c.216-.506,1.106-.209.853.368-8.626,25.392-20.163,49.609-29.929,74.553-2.651,6.913-6.56,13.43-8.359,20.632,6.053,2.2,11.912,6.661,18.508,6.574.8,0,2.044-.528,2.37.52a.888.888,0,0,1-.52,1.055,9.583,9.583,0,0,1-2.651.548,7.452,7.452,0,0,1-1.062.008,9.482,9.482,0,0,1-2.16-.333,60.169,60.169,0,0,1-14.008-6.386c-.237-.159-.483-.318-.722-.476-.34-.232-.672-.462-1-.7-.4-.867.326-1.835.535-2.688,8-19.988,15.568-40.172,24.764-59.656,4.912-11.16,9.124-22.6,13.386-34.018" transform="translate(140.961 91.939)"/>
      <path id="Trazado_612" data-name="Trazado 612" d="M351.425,296.23c.556-.2.736.044.708.513-.058,1.184-1.495,3.836-1.6,4.436-2.1,5.165-3.909,10.5-6.285,15.553-.066.145-.138.289-.2.434-.016.03-.03.058-.044.087-.087.253-.26.534-.52.548a.464.464,0,0,1-.188-.035c-.448-.174-.275-.629-.1-.961.021-.051.044-.094.065-.138,3.056-6.639,5.476-13.653,8.149-20.4.007-.015.007-.022.014-.037" transform="translate(138.865 119.965)"/>
      <path id="Trazado_613" data-name="Trazado 613" d="M364.382,301.137c-.058.166-.115.332-.181.5-.773,2.21-1.654,4.443-2.542,6.623-1.683,4.09-3.005,8.352-4.891,12.346a.547.547,0,0,1-.556.275H356.2c-.029-.008-.058-.015-.094-.03a.536.536,0,0,1-.333-.621c1.034-3.417,2.566-6.682,3.851-10.013,1.134-2.861,2.318-5.737,3.518-8.575.108-.267.223-.527.332-.788a.5.5,0,0,1,.384-.2.515.515,0,0,1,.527.483" transform="translate(144.026 121.784)"/>
      <path id="Trazado_614" data-name="Trazado 614" d="M360.825,317a.458.458,0,0,1-.094.3v.007c-.5.8-2.932,1.308-3.553,1.17a18.551,18.551,0,0,1-12.636-5.086c-.1-.086-.2-.173-.3-.267a4.237,4.237,0,0,1-.837-1.177,1.316,1.316,0,0,1-.166-.947c.065-.209.253-.346.607-.375a.447.447,0,0,1,.325.253,1.912,1.912,0,0,1,.115.434,4.416,4.416,0,0,0,1.1,1.22c4.19,2.9,9.434,5.787,14.621,4.233a.487.487,0,0,1,.708-.072.561.561,0,0,1,.108.31" transform="translate(138.942 125.823)"/>
      <path id="Trazado_615" data-name="Trazado 615" d="M366.078,322.443c-.239,6.046.513,12.086.347,18.118-.289,4.349.159,8.589-.412,12.894-.066.5-.209,1.184-.853,1.135-1.113-.289-.556-2.088-.672-2.854-.145-10.612.4-21.319.426-31.888-.946,4.516-5.556,6.553-9.831,6a10.462,10.462,0,0,1-7.665-3.244c-1.3-.918-1-2.622-.94-4.009.275-2.016.108-4.1.52-6.083-3.59-1.64-7.715-1.186-11.558-1.142a.744.744,0,0,1-.375.029.559.559,0,0,1-.485-.455.532.532,0,0,1,.051-.333.57.57,0,0,1,.485-.339c1.727-.131,3.468-.124,5.186-.275,2.138-.2,4.139.637,6.177,1.149.044.021.087.037.138.058s.079.037.122.051a7.094,7.094,0,0,1,.731.311c.412.223.729.527.563,1,.007.361.007.722.007,1.083-.007,2.543-.166,5.093-.318,7.578a16.549,16.549,0,0,0,2.592,1.936,16.344,16.344,0,0,0,9.833.462,8.927,8.927,0,0,0,3.93-4.319,3.6,3.6,0,0,0,.152-1.741v-.008a.391.391,0,0,1,.094-.3.49.49,0,0,1,.455-.16h.014a.4.4,0,0,1,.354.354,7.3,7.3,0,0,0,.476,1.423c.83.853.375,2.507.455,3.562" transform="translate(135.445 125.56)"/>
      <path id="Trazado_616" data-name="Trazado 616" d="M372.809,354.377c.209.52-.412.759-.816.809-7.441,1.619-15.141,1.727-22.741,2.044-7.867.246-15.72,1.106-23.594.584-3.707-.563-7.8-.26-11.212-2a3.942,3.942,0,0,1-2.123-2.672,2.911,2.911,0,0,1,.058-1.2,4.988,4.988,0,0,1,2.824-3.07c1.249-.729,2.529-1.437,3.815-2.146.462-.253.924-.506,1.394-.759,7.745-4.233,15.741-8.5,21.232-15.451.145-4.212-.051-8.532-.015-12.729.1-2.2.015-4.588.977-6.6a1.266,1.266,0,0,1,.932-.757.3.3,0,0,1,.122,0,.572.572,0,0,1,.434.787.457.457,0,0,1-.607.289c-1.568,6.184-.124,12.634-.614,18.919-.52,2.21-2.608,3.6-4.1,5.172a79.353,79.353,0,0,1-12.029,8.655c-4.24,2.861-9.739,4.16-13.393,7.743-3.626,8.669,52.273,3.129,58.06,2.313.462-.037,1.1-.448,1.394.065" transform="translate(126.417 125.744)"/>
      <path id="Trazado_617" data-name="Trazado 617" d="M370.031,338.2a.462.462,0,0,1,.274.881c-2.1.94-4.406.823-6.653,1.062-4.595.434-9.124,1.04-13.74,1.083-8.4.752-16.76,1.46-25.19,1.619-3.44-.253-7.167.145-10.345-1.4-.672-.181-1.019-1.085-.094-1.113,2.969,1.727,6.848.851,10.107,1.242,10.4,0,20.712-1.77,31.1-1.886,4.573-.823,9.651-.2,13.756-1.221a7.979,7.979,0,0,1,.787-.267" transform="translate(126.999 136.985)"/>
      <path id="Trazado_618" data-name="Trazado 618" d="M402.894,335.085a.461.461,0,0,1-.441.483,72.806,72.806,0,0,0-11.326,1.352,188.231,188.231,0,0,1-22.186,3.59c-3.107.354-6.227.672-9.341.9a.463.463,0,0,1-.014-.925c1.517-.117,3.041-.246,4.558-.4a143.243,143.243,0,0,0,19.05-2.716c6.393-.918,12.679-2.58,19.116-2.724a.492.492,0,0,1,.585.441" transform="translate(145.398 135.552)"/>
      <path id="Trazado_619" data-name="Trazado 619" d="M557.517,222.211c.282,1.076-.975,1.451-1.8,1.184a27.922,27.922,0,0,1-6.676,0c-14.384.9-29.127.326-43.633.542q-93.733-.11-187.458-.044h-.961q-26.029,0-52.049-.03h-1.359q-60.889-.063-121.762-.318c-.686,0-1.38,0-2.074-.007q-22.874-.1-45.742-.246a.872.872,0,0,1-.991-.5.756.756,0,0,1-.065-.325.859.859,0,0,1,1.055-.83c.672-.007,1.336-.007,2.008-.014,94.642-.68,189.3-.464,283.943-.586,56.326.3,112.905-.809,169.1.506,2.363-.448,4.746-.021,7.094-.072a1.164,1.164,0,0,1,1.366.736" transform="translate(37.572 89.474)"/>
      <path id="Trazado_620" data-name="Trazado 620" d="M66.746,95.626c.642.607,2.151,6.328.518,6.018-.651-.181-.244-1.228-.9-1.437a6.165,6.165,0,0,0-.441,2.629.494.494,0,0,1-.3.932c-.91-.159-.9-1.444-.853-2.167.031-1.127.188-3.258,1.835-2.723-.3-1.287-.6-2.984-2.174-3.129-.253.094-.5.333-.825.073-.361-.267-.171-.8.162-1.026.967-.621,2.216.2,2.983.83" transform="translate(25.605 38.309)"/>
      <path id="Trazado_621" data-name="Trazado 621" d="M65.237,96.306a.463.463,0,0,1,.361.853A3.024,3.024,0,0,0,64.255,98a.477.477,0,0,1-.629.289c-.939-.8.933-1.741,1.612-1.98" transform="translate(25.589 38.995)"/>
      <path id="Trazado_622" data-name="Trazado 622" d="M87.285,89.191a.492.492,0,0,1-.326.925,3.223,3.223,0,0,0-2.536.614c-.441.239-.6,1.041-1.2.745-.96-1,2.112-2.55,2.977-2.515a2.16,2.16,0,0,1,1.085.232" transform="translate(33.558 36.033)"/>
      <path id="Trazado_623" data-name="Trazado 623" d="M87.665,91.96c.426.34,1.4,1.09.752,1.612-.361.223-.57-.131-.773-.34-.015-.014-.03-.03-.044-.044a2.049,2.049,0,0,0-1.879.138,2.9,2.9,0,0,0-1.1.968.536.536,0,0,1-1.027.3c.2-1.791,2.283-3.447,4.068-2.637" transform="translate(33.784 37.165)"/>
      <path id="Trazado_624" data-name="Trazado 624" d="M87.05,93.085c.975,1.879.918,6.559-.5,6.7-.946.044-1.727-4.493-1.423-6.609.131-.9.448-1.366,1.034-.867.353.014.656.311.888.773" transform="translate(34.377 37.311)"/>
      <path id="Trazado_625" data-name="Trazado 625" d="M138.536,224.652c.925,2.247,3.3,4.472,2.377,7.044-.528.731-2.37,1.127-3.251,1.575-2.529,1.756-5.5,2.767-7.881,4.753-.044.745-.6,1.474-1.388,1.308-3.618,6-5.324,13.5-3.634,20.437.3,1.1,1.142,2.341.715,3.461-1.64,1.127-3.872,1.373-5.816,1.517-.065,0-.136-.008-.2-.008a5.87,5.87,0,0,1-1.886-.129,9.427,9.427,0,0,1-5.735-2.37,45.037,45.037,0,0,1-8.95-7.649c-2.9-3.093-5.758-6.234-8.46-9.486-.267.708-.4,1.467-.6,2.167-2.8,12.332-4.233,24.946-6.567,37.371-.3.975-.007,2.89-.687,3.749a.752.752,0,0,1,.015.188c0-.014,0-.044-.022-.037.9,2.037-4.291,1.272-5.439,1.416,0,0,.021,0,.021.007-8.1-.412-16.16-1.69-24.258-2.261-8.98-1-18.19-.722-27.025-2.427a.464.464,0,0,1-.166-.514.6.6,0,0,1-.528-.57c.933-15.394,4.61-30.479,6.885-45.691,3.389-18.957,6.6-37.883,10.541-56.717a73.825,73.825,0,0,1,6.421-16.428c3.974-6.451,8.784-12.345,12.838-18.746,1.87-3.215,3.67-6.515,5.512-9.76a1.562,1.562,0,0,1,.708-.773c.656-3.265,1.286-6.531,1.633-9.854.021-.122.028-.26.042-.4a1.169,1.169,0,0,1-.18-.058,8.456,8.456,0,0,1-1.936-.86c-.823-.267-1.821-.332-2.622-.541a11.028,11.028,0,0,1-9.03-7.658c-1.4-4.017,1.943-7.131,2.174-10.714-.86-2.9-2.831-5.512-2.983-8.64-.975-6.206,2.774-12.729,9-14.268a5.3,5.3,0,0,1,2.89.022c-1.98-5.563,2.412-11.769,6.92-14.773a24.88,24.88,0,0,1,12.36-2.789c3.735.065,7.232,1.734,10.879,2.153,3.555-1.914,4.87-7.715,9.559-7.679,13.479-.391,22.127,19.462,11.427,28.325,2.92,3.1-.007,7.6-2.694,9.789-1.236,1.09-2.775,2.738-4.537,2.217a.553.553,0,0,1-.521.131.089.089,0,0,1-.042-.007c.968,3.93,1.373,8.914,5.294,10.714,1.322.6,2.724.888,4,1.509,2.854,2.219-1.076,4.833-3.049,5.873a3.9,3.9,0,0,0-1.343,1.474c-.513,3.454-.174,6.964-.347,10.454,1.012,12.02-14.145,8.1-21.637,8.272a28.006,28.006,0,0,1-.5,3.728.573.573,0,0,1-.166.3c.117,1.061.108,2.153.267,3.178C98.1,151.1,102.43,155,106.62,157.881c1.922.816,2.109,3.07,2.672,4.825.867,3.844,2.175,7.492,3.374,11.226a106.525,106.525,0,0,1,2.753,10.757c.614,1.307,1.243,2.608,1.872,3.9,2.991,6,6.74,11.668,9.861,17.576,3.7,6.243,7.694,12.282,11.385,18.486M123.777,114.58a.854.854,0,0,0-.311-.766c-1.1-.722-2.536-.787-3.749-1.3-4.364-1.12-5.072-5.96-5.953-9.717q-.618-2.729-1.214-5.469a5.043,5.043,0,0,1-1.784-.044,1.913,1.913,0,0,1-.2-.058c2.529,4.045,3.916,13.328,2.2,17.771-.251.94-1.589,4.263-2.767,3.086a.474.474,0,0,1,.246-.607c1.886-1.488,1.95-4.321,2.3-6.51.694-5.685-3.648-23.477-8-9.268-1.4,5.013-.882,11.774,3.279,15.272a.462.462,0,0,1,.086.651c-.563.548-1.221-.427-1.683-.715a17.173,17.173,0,0,1-3.344-8.381c-3.4,1.179-7.138,1.019-10.576,2.095-2.334.658-4.884.926-7.1,1.872a.462.462,0,0,1-.637-.166c-.3-.658.651-.867,1.1-1.048,4.1-1.09,8.221-2.139,12.4-2.882,1.553-.361,3.229-.267,4.731-.823a15.348,15.348,0,0,1,.434-4.71c1.357-4.739,2.795-6.958,4.153-7.478-.246-.216-.483-.448-.708-.679a.744.744,0,0,0-.658-.225,1.063,1.063,0,0,0-.642.427,8.728,8.728,0,0,1-6.733,3.684c-2.58-.166-4.415-2.4-6.444-3.757a4.864,4.864,0,0,0-1.784.455c-3.851,2.269-2.414,6.935-3.295,10.591-.722,1.791-1.661,5.6-4.038,5.453.1.724.506,1.945-.382,2.016-.708-.173-.3-1.524-.542-2.051-.585-1.807-1.546-8.235-4.319-5.62-2.233,3.836-3.642,12.05,1.047,14.541a.409.409,0,0,1,.216.42,2.708,2.708,0,0,1,.181.3c.267.232.57.448.585.839a4.889,4.889,0,0,1-5.209,4.248c-.419,3.539-1.019,7.058-1.633,10.576a.669.669,0,0,1,.715.614c6.437,2.767,13.444,4.031,20.307,5.093.455-.058.823-.3,1.228-.375a.715.715,0,0,1,.52-.94,16.729,16.729,0,0,0,.26-1.856c.131-.687-.375-1.582.4-2.03,6.09-.368,12.6,1.872,18.617.03a5.075,5.075,0,0,0,2.9-4.082c.3-4.385-.18-8.915.455-13.25.9-2.514,4.588-2.709,5.346-5.223" transform="translate(11.737 24.312)"/>
      <path id="Trazado_626" data-name="Trazado 626" d="M75.7,271.744c-9.4-.665-19.2-.346-28.217-3.374-13.642-5.1-21.968-17.25-19.866-31.939-.135-3.907,1.44-7.559,1.7-11.413.348-2.213.874-4.4,1.359-6.574a.846.846,0,0,1,1.371-.621.462.462,0,0,1-.454.785c-.837,4.7-1.1,9.574-2.384,14.183-.278,5.861-1.262,12.095,1.04,17.655a30.686,30.686,0,0,0,20.874,18.017c10.917,2.143,22.128,2.345,33.192,2.247,8.849-.629,17.766-1.412,26.556-2.4,10.847-2.373,21.884-2.568,32.926-2.695a.475.475,0,0,1,.2.917c-2.414.88-5.1.336-7.624.469-5.217.114-10.424.247-15.623.693-9.539,1.65-19.11,2.563-28.752,3.331-5.415.822-10.858.426-16.29.715" transform="translate(10.976 88.15)"/>
      <path id="Trazado_627" data-name="Trazado 627" d="M84.134,224.408c-3.857-.624-7.78.177-11.595-.694-1.38-.43-3.036-.253-4.284-.881a.485.485,0,0,1-.074-.362.492.492,0,0,1,.859-.284,61.272,61.272,0,0,0,11.562.393,27.728,27.728,0,0,0,7.755-.173c3.954-.318,7.954-.6,11.923-.521.749.226,2.112-.156,2.435.694a.5.5,0,0,1-.4.52c-1.628.3-3.292.384-4.942.528-4.443.308-8.818.6-13.241.78" transform="translate(27.536 89.873)"/>
      <path id="Trazado_628" data-name="Trazado 628" d="M117.07,342.54c-4.555-18.953-4.592-38.6-5.44-57.973-.025-10.538-1.367-21-.636-31.513-.313-.438.2-1.277.753-1,.556.358.275,1.213.346,1.784-.156,16.535,1.335,33.005,1.807,49.529a318.529,318.529,0,0,0,3.909,33.592c.073,1.152,1.186,7.492-.738,5.584" transform="translate(44.793 102.076)"/>
      <path id="Trazado_629" data-name="Trazado 629" d="M122.871,356.757c-1.755-.1-3.5-.193-5.245-.3a.58.58,0,0,1-.541-.527.573.573,0,0,1,.52-.621c1.473-.02,2.96-.126,4.429-.131,4.225.167,8.568.141,12.015-2.54.995-1.215.736-2.966.958-4.423,2.938-20.3,4.793-40.657,6.344-61.1.8-16.22,3.466-33.1-.537-49.027a28.739,28.739,0,0,0-10.361-14.873c-.681.145-.875-.993-.191-1.1,1.378.27,2.417,1.657,3.662,2.32,9.969,8.85,11.048,22.981,10.281,35.485-.552,12.075-1.279,24.147-2.247,36.2-1.156,15.966-2.22,31.967-4.76,47.786-.485,2.807-.5,5.813-1.706,8.421-2.574,4.227-8.127,4.711-12.62,4.432" transform="translate(47.348 89.971)"/>
      <path id="Trazado_630" data-name="Trazado 630" d="M123.186,324.322a8.193,8.193,0,0,1-7.174-4.436c-.289-.663-.635-2,.319-2.247.781-.178.95.868,1.148,1.329,2.646,6.3,10.767,3.683,15.518,1.842h.014c.053-.014.105-.027.159-.037a.9.9,0,0,0,.073-.2,23.043,23.043,0,0,0,.3-4.4.787.787,0,0,1,1.539,0,46.7,46.7,0,0,0-1.041,4.928.813.813,0,0,1-.731.59,25.071,25.071,0,0,1-10.119,2.632" transform="translate(46.79 127.82)"/>
      <path id="Trazado_631" data-name="Trazado 631" d="M125.392,345.452c-1.364-.337-12.679.732-10.309-1.575,10.046.327,20.137-.552,30.2-.115,9.719.135,19.934,1.863,29.308-1.149,5.061-1.91-6.685-5.225-8.1-6.017-8.187-3.725-16.15-7.972-24.389-11.6-2.713-1.426-5.816-2.377-7.859-4.774-.1-.1-.148-.232-.268-.3a.542.542,0,0,1,.542-.932c.984,1.374,2.685,1.883,4.153,2.622,8.05,3.938,16.195,7.679,24.194,11.717,4.224,2.323,9.113,3.493,12.946,6.482,6.715,7.332-27.2,5.32-30.628,5.462-6.625-.07-13.21.08-19.8.173" transform="translate(46.406 129.19)"/>
      <path id="Trazado_632" data-name="Trazado 632" d="M113.943,344.944a6.254,6.254,0,0,1-1.249-2.753c-.555-5.175.153-10.316.946-15.43.528-2.427.871-5,1.5-7.384.188-.83.7-1.893,1.685-1.877.878.038.646,1.406-.185,1.138-2.24,8.241-2.237,17.143-2.185,25.53a.463.463,0,0,1-.507.776" transform="translate(45.49 128.609)"/>
      <path id="Trazado_633" data-name="Trazado 633" d="M152.623,337.032c-10.593-.281-21.172.011-31.686-1.394-2.154-.219-4.28-.531-6.416-.911a.523.523,0,1,1,.2-1.026c7.052,1.076,14.136,1.325,21.245,1.7,12.544-.194,25.222.815,37.681-.71.36.018.549.1.851.08a.662.662,0,0,1,.167,1.308,188.4,188.4,0,0,1-22.047.953" transform="translate(46.141 135.169)"/>
      <path id="Trazado_634" data-name="Trazado 634" d="M8.274,268.283a.832.832,0,0,1,.837-.78c1.527-.037,2.99-.088,4.458-.124,18.162-1.132,36.373.122,54.519-.635H67.96c5.972-.171,11.971-.274,17.836-.455h-.129c12.883-.711,25.737.406,38.6.282l-.051.007a203.982,203.982,0,0,1,24.591-.306l.027-.022-.011.011-.007.011c.649-.894,1.866.039.818.722.015-.017.018-.025.034-.041a1.012,1.012,0,0,1-.836.392c-5.089.406-10.271.229-15.338.384-14.971,1.65-30.026-.112-45.044.443-20.7.815-41.357.778-62.077.549-5.741.148-11.659.259-17.4.4a.821.821,0,0,1-.7-.836" transform="translate(3.273 107.709)"/>
      <path id="Trazado_635" data-name="Trazado 635" d="M33.826,253.7a163.449,163.449,0,0,0-17.537-.573.748.748,0,0,1-.9-.627.718.718,0,0,1,.722-.766c4.627-.107,9.1-.261,13.7-.129,3.329.131,6.663.16,9.969.534a.739.739,0,0,1,.607.752.748.748,0,0,1-.656.7,39.808,39.808,0,0,1-5.9.108" transform="translate(6.154 101.897)"/>
      <path id="Trazado_636" data-name="Trazado 636" d="M8.742,313.125a4.016,4.016,0,0,1-2.854-2.941c-1.686-6.327-1.953-12.757-2.594-19.223-.628-10.917-1.631-21.954-1.856-32.87-.368-14.9-.4-29.844-1.242-44.716-.469-17.843.4-35.684.237-53.523C.427,158.2.4,156.536.369,154.874a.471.471,0,0,1,.476-.448.476.476,0,0,1,.448.478c.329,20.338-.651,40.743.065,61.073,1.29,19.54.576,39.13,2.566,58.608.832,11.028.932,22.215,3.084,33.086.27,1.623.714,3.472,2.355,4.132a.74.74,0,0,1-.621,1.322" transform="translate(-0.056 62.553)"/>
      <path id="Trazado_637" data-name="Trazado 637" d="M17.295,290.714c-.961-3.967-.673-8.322-1.474-12.317-2.344-12.554-2.9-25.457-3.208-38.18-2.008-17.445-.658-35.1-1.314-52.592-.332-10.836.015-21.645.541-32.464.03-.693,1.165-.722,1.127.035-1.12,17.27-.143,34.538-.072,51.812.16,6.844-.149,13.785.152,20.581,1.052,7.97,1.516,16.009,1.879,24.013.462,5.811.663,11.648,1.415,17.431.888,6.215,2.238,12.39,2.146,18.689,0,.96.045,1.912-.014,2.876a.6.6,0,0,1-.593.573.616.616,0,0,1-.585-.458" transform="translate(4.446 62.638)"/>
      <path id="Trazado_638" data-name="Trazado 638" d="M5.753,155.562c-1.385-.052-2.744-.115-4.118-.188a.465.465,0,0,1,.159-.916c3.147.02,6.319-.351,9.479-.478,13.482-1.31,27.029-1.526,40.5-2.261a8.408,8.408,0,0,0,1.467.079.464.464,0,0,1,.028.925c-.357.041-.639.079-.927.131-7.266,1.846-14.96,1.426-22.421,1.546-8.064.191-16.085,1.29-24.164,1.163" transform="translate(0.434 61.457)"/>
      <path id="Trazado_639" data-name="Trazado 639" d="M16.369,369.863c-2.238-.458-5.4-.384-6.784-2.449-1.561-5.346-.84-11.135-1.582-16.644-2.112-22.66-1.36-45.486-1.184-68.21q.107-7.2.108-14.4a.46.46,0,0,1,.918.065q.021,2.824-.014,5.657c-.315,27.282-1.021,54.583,1.509,81.776.555,3.82-.417,8.218,1.335,11.7a13.777,13.777,0,0,0,10.109.343c.839-.008,2.147-.943,2.73-.115a.521.521,0,0,1-.325.651c-2.183.8-4.451,1.734-6.82,1.633" transform="translate(2.573 108.447)"/>
      <path id="Trazado_640" data-name="Trazado 640" d="M19.106,367.283c-.44-3.676.635-7.453.586-11.176.465-9.236.169-18.359-.188-27.538,0-18.052.769-35.946,1.163-53.935,0-2.078-.02-4.093.072-6.163a.53.53,0,0,1,.563-.483.521.521,0,0,1,.476.556c.146,8.274-.427,16.587-.614,24.826.353,13.559.167,27.182.506,40.717.666,10.774-.212,21.5-1.206,32.2.011.665-.762,1.874-1.359,1" transform="translate(7.617 108.553)"/>
      <path id="Trazado_641" data-name="Trazado 641" d="M94.308,371.871c-2.214-.424-6.334-.02-6.834-2.861-.263-12.1-.337-24.218-.138-36.28.732-21.326-1.057-42.561-.318-63.856a.725.725,0,0,1-.332-.871c.885-1.3,1.707.115,1.654,1.64-.046,4.71-.329,9.41-.346,14.127-.051,13.714,1.485,27.52,1.061,41.218.067,14.788-.7,29.6-.209,44.3,0-.006,0-.013.006-.007s.011.024.017.016c4.1,1.658,8.883,1.53,13.212,1.141,1.3-.141,2.505-.413,3.794-.614a.521.521,0,0,1,.585.339.528.528,0,0,1-.325.658c-3.716,1.585-7.885,1.473-11.826,1.048" transform="translate(35.019 108.352)"/>
      <path id="Trazado_642" data-name="Trazado 642" d="M100.686,370.711c-1.027-.208-.379-1.824-.527-2.486-.07-7.632,0-15.5.152-23.081-.929-26.1,2.287-52.069,3.063-78.129a.664.664,0,0,1,1.322.1c-.365,18.932-1.98,37.816-2.168,56.753-.33,11.194-.138,22.23-.527,33.4a126.683,126.683,0,0,1-.672,12.88.61.61,0,0,1-.644.556" transform="translate(40.465 107.922)"/>
      <path id="Trazado_643" data-name="Trazado 643" d="M245.209,351.253a50.534,50.534,0,0,1-6.437-1.546,1.824,1.824,0,0,1-.556-.91,198.607,198.607,0,0,1-4.176-24.223c-.887-13.087-3.019-25.964-4.009-39.009-1.326-16.4-1.98-32.907-3.792-49.255-.188-1.137-.347-2.293-.622-3.417a.618.618,0,0,1,1.214-.23c.267,1.109.413,2.23.6,3.351,2.373,20.649,2.712,41.56,5.325,62.171,2.112,16.879,3.441,33.831,6.886,50.507,7.067,2.051,14.395.452,21.524-.3.908-.036,2.181-1.339,2.819-.492a.562.562,0,0,1-.2.708c-2.243,1.718-5.147,1.693-7.832,1.936-3.577.186-7.159,1.193-10.742.708" transform="translate(91.306 94.041)" fill="#fff"/>
      <path id="Trazado_644" data-name="Trazado 644" d="M252.653,351.2c-.826-8.286.205-16.889.108-25.155.249-15.508.615-30.889.665-46.328-.185-18.739,1.121-37.639-.94-56.249-.072-.28-.209-.677.11-.878a.474.474,0,0,1,.644.143,12.193,12.193,0,0,1,.368,1.561c1.884,14.617,1.682,29.543,1.322,44.244.059,12.218.215,24.43.223,36.648-.038,12.5.125,25.01-.635,37.462-.277,1.673.673,11.93-1.865,8.551" transform="translate(102.132 90.137)" fill="#fff"/>
      <path id="Trazado_645" data-name="Trazado 645" d="M278.255,353.586c-2.033-8.834.076-18.366-.433-27.358.448-18.411,1.568-36.773,2.731-55.149.885-15.364,2.238-30.691,3.257-46.045.081-.638-.112-1.492.556-1.821a.6.6,0,0,1,.77.457c-2.942,32.177-4.1,64.571-5.27,96.888-.11,10.78-.079,21.572-.722,32.256a3.6,3.6,0,0,0,.021.476.5.5,0,0,1-.91.3" transform="translate(112.268 90.404)" fill="#fff"/>
      <path id="Trazado_646" data-name="Trazado 646" d="M283.2,355.461c-1.109.063-4.443-.688-3.988-2.1a.726.726,0,0,1,.874-.34c2.549,1.132,5.315.006,7.991.044,4.113-.169,8.279.261,12.348-.552a1.2,1.2,0,0,0,.951-.756c1.3-3.454,1.756-7.155,2.7-10.714,3.471-13.118,6-26.431,8.343-39.79,4.769-21.5,8.357-43.224,12.2-64.893a40.834,40.834,0,0,0,.159-12.852c.119-.888,1.863-.392,1.142.454,2.151,9.346-1.291,18.9-2.573,28.16-3.267,21.6-8.045,42.928-11.839,64.432-2.923,12.241-4.495,25.065-8.814,36.865-1.3,1.627-3.691,1.274-5.549,1.589-4.637.549-9.32.268-13.95.455" transform="translate(113.003 90.345)" fill="#fff"/>
      <path id="Trazado_647" data-name="Trazado 647" d="M271.629,262.834c-5.662-.188-11.169-.042-16.754-.594-.643.115-1.287-.43-.96-1.082a.764.764,0,0,1,1.324.008c9.571-.069,19.19,1.02,28.729.173a38.591,38.591,0,0,0,5.793-1.092.647.647,0,0,1,.736.434c.215.891-.967.94-1.56,1.155a102.439,102.439,0,0,1-17.4,1h.087" transform="translate(102.738 105.411)"/>
      <path id="Trazado_648" data-name="Trazado 648" d="M308.308,269.336a.771.771,0,0,1-1.026-.534c-.114-.881.8-.851,1.4-.867,4.475-.667,9-.4,13.482-.289a1.494,1.494,0,0,0,1.1-.618c2.66-5.917,1.012-12.88-.253-18.967a1.1,1.1,0,0,0-.773-.975,2.365,2.365,0,0,0-.26-.055c-2.9-.249-5.7.07-8.589-.1a.9.9,0,0,1-.809-.722c-.136-1.444,1.732-1.113,2.651-1,1.865.18,3.75.025,5.62.209,1.347.03,2.946.361,3.344,1.849,1.412,5.779,2.384,11.836,1.373,17.757-.5,1.567-1.208,3.664-3.07,3.93-4.713.818-9.493.506-14.233.377Z" transform="translate(124.387 99.281)"/>
      <path id="Trazado_649" data-name="Trazado 649" d="M284.891,245.968c-9.917-.372-19.988-.042-29.821-.954a.531.531,0,1,1,.131-1.054c4.628.42,9.223-.316,13.855-.3,7.45-.572,14.856.631,22.265.658a.464.464,0,0,1-.073.925c-.214-.034-.429-.062-.644-.083a15.86,15.86,0,0,1-5.713.814" transform="translate(103.049 98.635)"/>
      <path id="Trazado_650" data-name="Trazado 650" d="M231.993,267.893c-7.91-.011-15.7-1.283-23.522-2.146-.7-.089-1.621-.253-1.806-1.055a69.747,69.747,0,0,1-.455-13.357c.214-2.434.336-5.255,2.051-7.152,3.437-1.093,7.389-.934,11.031-1.041,5.438.576,11.262-1.519,16.456-.3.711.215.244,1.3-.384.837-2.969-.308-7.184.809-10.416.906-5.232.327-10.515.3-15.734.527-.249.08-.475.461-.628.644a13.115,13.115,0,0,0-.933,4.443c-.15,4.784-.008,9.484-.1,14.24-.007.149.139.156.259.149,9.014.441,17.993,1.543,27.031,1.872.548.058,1.682.368,1.062,1.069-1.1.711-2.651.223-3.916.361" transform="translate(83.383 98.211)"/>
      <path id="Trazado_651" data-name="Trazado 651" d="M220.712,250.479c-9.071-4.668-9.011-19.619-5.469-27.878a.631.631,0,0,1,1.184.433,29.157,29.157,0,0,0-1.7,5.953,15.345,15.345,0,0,0-.037,7.209c.43,4.718,2.185,9.859,6.264,12.549a12.919,12.919,0,0,0,3.612,1.192c1.8,1.873-3.129,1.058-3.861.538l.01,0" transform="translate(86.21 90.005)"/>
      <path id="Trazado_652" data-name="Trazado 652" d="M234.822,348.13c-3.527-.122-12.12-1.9-11.739-6.494,3.938-7.031,10.046-12.783,13.847-19.928,1.113-1.829,2.176-3.618,3.138-5.523.022-.541.517-1.158.961-.513-.563,3.482-3.173,6.608-4.855,9.651-3.851,5.848-8.22,11.4-12.113,17.211a2.923,2.923,0,0,0,.946,1.6c4.579,2.987,10.046,3.416,15.328,2.806,5.5-.3,10.993-.992,16.514-.968a.463.463,0,0,1,.051.925c-1.033.021-2.072.058-3.105.108-6.327.215-12.633,1.288-18.971,1.127" transform="translate(90.28 127.756)"/>
      <path id="Trazado_653" data-name="Trazado 653" d="M247.353,346.692c2.518-9.813,2.275-20.455,3.714-30.58.1-1.217,1.742-.749,1.036.23l0,0c-.363,5.91-1.079,11.784-1.516,17.688-.219,1.82-.148,14.616-3.229,12.657" transform="translate(100.116 127.752)"/>
      <path id="Trazado_654" data-name="Trazado 654" d="M290.221,350.862a67.849,67.849,0,0,1-7.954-.5c-2.443-.412-5.606-.311-6.9-2.847-.968-2.075-.185-4.477.188-6.616,1.25-6.56,2.516-13.105,3.843-19.65.333-1.748.665-3.489,1.055-5.23a.481.481,0,0,1,.939.209c-.651,3.091-1.228,6.2-1.9,9.29-1.356,6.431-2.318,13.038-3.171,19.5-.361,3.687,2.356,3.8,5.209,4.148,5.573.981,11.151.263,16.7-.239a27.115,27.115,0,0,0,4.118-.483.616.616,0,0,1,.686.4c.034,1.741-4.935,1.394-6.248,1.553-2.255.117-4.328.618-6.567.462" transform="translate(111.275 127.859)"/>
      <path id="Trazado_655" data-name="Trazado 655" d="M296.417,348.7c-.216-.79.826-.981,1.21-1.46a1.8,1.8,0,0,0,.069-1.177,184.49,184.49,0,0,1-4.595-25.732,29.525,29.525,0,0,1-.2-3.611.543.543,0,0,1,.506-.563.534.534,0,0,1,.563.506c.348,8.471,2.82,16.761,4.631,24.995.486,2.275,1.71,5.515-.629,7.115-.43.385-1.307.635-1.553-.072" transform="translate(118.565 128.063)"/>
      <path id="Trazado_656" data-name="Trazado 656" d="M313.975,363.186c-2.476-.516-11.366-.774-10.5-4.432a434.382,434.382,0,0,1-1.581-48.146c.059-7.365-.094-14.854.042-22.2.19-.828-.455-2.448.6-2.622a.529.529,0,0,1,.483.563q.082,25.013.694,50c.3,7.618,1.179,15.331.642,22.918a2.012,2.012,0,0,0,.97.5,82.607,82.607,0,0,0,11.16,2.123.64.64,0,0,1,.586.6c-.156,1.2-2.231.592-3.1.694" transform="translate(122.178 115.763)"/>
      <path id="Trazado_657" data-name="Trazado 657" d="M317.417,366.654c-1.366-16.809-.084-33.844-.426-50.655-.392-13.137-1.187-26.393-.354-39.509.042-4.611-.1-9.217.059-13.823a.95.95,0,0,1,.995-1.044.93.93,0,0,1,.839.752c-.125,4.675-.007,9.39-.044,14.037a319.456,319.456,0,0,0,.3,35.529c.188,6.451-.124,12.962-.368,19.382.062,6.744.35,13.614-.016,20.328a106.347,106.347,0,0,0,.225,10.93c.024,1.214.825,5.863-1.214,4.075" transform="translate(128.032 105.973)"/>
      <path id="Trazado_658" data-name="Trazado 658" d="M219.033,368.506a37.1,37.1,0,0,1-6.607-.794,1.636,1.636,0,0,1-1.3-.361c-1.568-2.571-.794-5.934-.665-8.8.294-3.909.382-7.974.492-11.869-1.284-28.833-1.163-57.759-.143-86.583v0a.469.469,0,0,1-.3-.724c.443-.544,1.215-.043,1.214.586-.045,11.835-.9,23.7-.448,35.543.146,16.512.644,33.011,1.359,49.506.072,7.162-1.3,14.323-.635,21.451,2.407-.1,4.777.785,7.207.575,1.939-.024,3.878-.187,5.817-.021a.5.5,0,0,1,.462.469.512.512,0,0,1-.412.527,35.089,35.089,0,0,1-6.039.5" transform="translate(84.991 104.969)"/>
      <path id="Trazado_659" data-name="Trazado 659" d="M224.392,358.926c-1.418-18.488-.767-36.994.072-55.473.549-14.145-.037-28.231,1.38-42.269.221-.96,1.761-.412,1.227.485-1.655,21.079-.592,42.342-1.357,63.405.045,10.1-.058,20.248-.065,30.341a22.15,22.15,0,0,1-.187,3.525.547.547,0,0,1-1.069-.014" transform="translate(90.478 105.593)"/>
      <path id="Trazado_660" data-name="Trazado 660" d="M92.636,229.711c-1.43-.357-3.007-.648-3.279-2.341A43.027,43.027,0,0,1,87.573,214.6c.18-3.39-.507-6.9.476-10.2.239-1.5,2.342-.429,1.086.417-.833,3-.143,6.184-.364,9.224-.111,4.626,1.272,9.112,1.828,13.645,1.963,1.619,5.668.41,8.242,1.038a.46.46,0,0,1-.014.918,52.03,52.03,0,0,1-6.191.072" transform="translate(35.367 82.491)"/>
      <path id="Trazado_661" data-name="Trazado 661" d="M417.686,200.689a4.886,4.886,0,0,0-.731.187,6.433,6.433,0,0,0-1.307.586,4.618,4.618,0,0,0-1.186.932,5.13,5.13,0,0,0-.909,1.4,4.608,4.608,0,0,0-.377,1.446,2.576,2.576,0,0,0,.066.665c.042.26.093.513.159.766a6.263,6.263,0,0,0,.541,1.474,2.4,2.4,0,0,0,.8.932,1.889,1.889,0,0,0,.412.216c.037.007.08.021.122.03a4.992,4.992,0,0,0,2.154,1.1,5.77,5.77,0,0,0,1.061.1,5.341,5.341,0,0,0,1.777-.3,5.115,5.115,0,0,0,1.221-.577,5.516,5.516,0,0,0,1.069-.954,5.894,5.894,0,0,0,.975-1.676,4.679,4.679,0,0,0,.318-1.249,4.611,4.611,0,0,0-.455-2.615,3.517,3.517,0,0,0-.715-1.041,3.952,3.952,0,0,0-.851-.6,7.993,7.993,0,0,0-1.561-.593,6.717,6.717,0,0,0-1.661-.3h-.1a6.042,6.042,0,0,0-.823.073M201.814,201.7a8.722,8.722,0,0,0-1.6.246,8.376,8.376,0,0,0-1.6.52,4.144,4.144,0,0,0-2.254,2,5.33,5.33,0,0,0-.354,2.962,11.487,11.487,0,0,0,.354,1.38,3.712,3.712,0,0,0,.194.6,2.451,2.451,0,0,0,.514.94c.058.051.115.1.18.152a8.975,8.975,0,0,0,1.242,1.083,7.388,7.388,0,0,0,2.247,1.329,2.159,2.159,0,0,0,.563.072,6.168,6.168,0,0,0,.651-.044,7.384,7.384,0,0,0,1.481-.311,5.19,5.19,0,0,0,1.532-.715,6.272,6.272,0,0,0,1.019-.939,7.6,7.6,0,0,0,1.336-2.753,3.785,3.785,0,0,0,.124-1.676,5.407,5.407,0,0,0-.441-1.465,8.582,8.582,0,0,0-.911-1.423,4.949,4.949,0,0,0-.939-1,4.719,4.719,0,0,0-.846-.534,5.806,5.806,0,0,0-.773-.289,4.04,4.04,0,0,0-1.172-.149c-.184,0-.368.007-.548.018m105.993,3.988a4.288,4.288,0,0,0-.736.225,1.84,1.84,0,0,0-.434.288,2.637,2.637,0,0,0-.628.781c-.058.1-.124.2-.181.311a4.618,4.618,0,0,0-.946.975c-.131.18-.253.375-.377.57a6.78,6.78,0,0,0-.665,1.647,4.46,4.46,0,0,0-.129,1.315,9.13,9.13,0,0,0,.173,1.655,3.822,3.822,0,0,0,.492,1.235c.115.173.246.332.375.49a11.658,11.658,0,0,0,.975,1,4.38,4.38,0,0,0,2.261,1.033,8.271,8.271,0,0,0,1.517.138c.239,0,.485-.007.722-.03a14.549,14.549,0,0,0,1.46-.187,9.178,9.178,0,0,0,1.076-.239,2.433,2.433,0,0,0,.91-.665,6.409,6.409,0,0,0,1.524-2.37,4.186,4.186,0,0,0,.159-1.336v-.729a5.543,5.543,0,0,0-.138-1.38,8.194,8.194,0,0,0-.26-.823,6.493,6.493,0,0,0-1.359-2.442,4.463,4.463,0,0,0-1.076-.83,6.837,6.837,0,0,0-3.005-.788h-.108a9.186,9.186,0,0,0-1.6.159M485.83,244.156c-.181.094-.361.173-.542.246,4.956-.188,9.9-.384,14.86-.362a11.551,11.551,0,0,0,1.329.131q-.811-.282-1.647-.5a41.26,41.26,0,0,1-3.988-1.3.575.575,0,0,1-.542-.636c0-.021.008-.035.008-.051-.008.015-.022.015-.037.022a.649.649,0,0,1-.78-.448,11.311,11.311,0,0,1-.152-1.221c-2.247,2.369-5.808,2.493-8.51,4.118M231.088,226.312c-1.676,2.911-6.892,18.024-11,22.2q17.837-.044,35.673-.08c-.506-.642-.326-1.806-.513-2.491a224.546,224.546,0,0,1-1.308-30.609c.375-14.382.513-28.694,1.2-43.019-7.867,18.017-16.71,35.715-24.049,54M475.45,406.186a2.95,2.95,0,0,1,1.076,2.015c2.535.644,5.158-.131,7.642-.282-.152-5.064.2-10.185.145-15.263.022-.145.03-.3.044-.448a33.353,33.353,0,0,1-10.194,1.633c-1.567-.131-3.213-.239-4.818-.485.239,3.056-.079,6.119.051,9.154-.122.649.181,1.711.138,2.528a12.94,12.94,0,0,1,1.387-.08,8.264,8.264,0,0,1,4.53,1.229m-33.636,36.539a.464.464,0,0,1,.209-.9,24.072,24.072,0,0,0,3.569.427c14.628-2.016,28.809-1.43,42.788-2.911a.669.669,0,0,1,.665-.066c-.138-4.377-.318-8.711-.846-13.069-.483-4.1.867-8.893-1.235-12.584a.51.51,0,0,1-.014.094c-.853,3.4-5.181,5.425-8.46,5-.8-.3-2.493-.253-2.723-1.092a44.039,44.039,0,0,0-.34-8.221c-.209-.83.2-2.022-.651-2.477-4.579-1.43-9.13.476-13.538,1.626a3.838,3.838,0,0,1-.035.729c-.311,2.622,1.162,6.531-.933,8.51-1.661,2.1-15.719,15.394-17.546,12.627-.152-.476.209-.823.621-.968,5.816-3.96,11.826-7.745,16.665-12.859.427-2.55-.2-5.151.239-7.715a.45.45,0,0,1-.044-.642c-.051-.347.138-.731.708-.629h.007a47.968,47.968,0,0,1,7.4-2.376c-.549-3.981-.216-8.085-.173-12.079a14.743,14.743,0,0,1-3.229-.982c-1.742-3.735-.954-8.207-1.683-12.2a87.1,87.1,0,0,1-.391-16.355q-2.557,4.063-5.187,8.083c-2.2,3.8-4.045,7.788-6.386,11.493a.633.633,0,0,1-1.127-.57c3.44-8.207,8.034-15.582,12.939-22.929,9.217-15.3,18.717-30.58,26.043-46.891.223-.4.245-.94.578-1.286a.644.644,0,0,1,1.062.4c-.087.377-.181.752-.289,1.12,5.05-.563,10.194.412,15.235.832,17.136,1.35,33.824,6.508,50.989,7.26,15.012,1.033,30.008-1.72,32.241-19.209,1.539-10.967-.361-22.518-4.169-32.863-8.835,5.721-18.977,9.723-29.5,10.15-.806-.03-1.61-.072-2.73-.154a48.6,48.6,0,0,1-11.227-2.093c-1.193-.593-3.265-.9-3.41-2.493.267-5.179.014-10.461,1.192-15.525a13.379,13.379,0,0,1-2.456.384c-6.069.072-11.4-2.84-16.406-5.99a50.75,50.75,0,0,0-5.866-2.882c-1.893.014-3.778.173-5.678.1a9.362,9.362,0,0,1-2-.225.982.982,0,0,1-.745.34c-17.286.267-34.588.239-51.876.26q-74.032.044-148.05-.037-78.236-.152-156.451-.18h-.131a.891.891,0,0,1-.672.34c.138-.506.281-1,.419-1.51.188-.658.391-1.315.6-1.966.281-.852.556-1.711.844-2.564-.007.023-.014.044-.021.073.145-.434.289-.867.433-1.294l-.021.066c.209-.614.419-1.228.628-1.85.058-.166.117-.332.167-.5,2.362-5.845,4.825-11.617,7.736-17.244,7.4-18.234,15.12-36.3,22.741-54.441a.461.461,0,0,1,.846.2,4.693,4.693,0,0,1,.644-.037,451.741,451.741,0,0,1,54.158-1.026c5.526.708,10.981-.115,16.493-.131a.834.834,0,0,1,.846.579c.007-.253.021-.513.035-.766a.771.771,0,0,1,.044-.174c.325.029.65.044.968.044.246.007.492.014.736.014.3,0,.593-.007.889-.014,1.1-.021,2.2-.094,3.3-.138,2.346-.086,4.7-.166,7.058-.2,1.054-.014,2.1-.028,3.157-.051.909-.014,1.834-.035,2.744-.1,2.023-.136,4.038-.318,6.047-.563.513-.007,1.026-.007,1.539-.021.86-.007,1.72-.021,2.585-.065.968-.037,1.945-.08,2.92-.145h.051a.063.063,0,0,0,.035-.007c.051,0,.1-.007.159-.007h-.035a.21.21,0,0,0,.079-.008h.007c.738-.035,1.481-.086,2.212-.129h.035a.092.092,0,0,0,.044-.007h-.014c.318-.022.635-.037.947-.058V167a.042.042,0,0,1,.028-.007h.058c.007-.007.022-.007.037-.007.752-.037,1.495-.073,2.24-.1q1.484,0,2.969-.03c1.286-.021,2.571-.051,3.857-.072.889-.015,1.777-.066,2.667-.094,2.116-.08,4.225-.131,6.342-.174,1.82-.044,3.641-.058,5.454-.1l6.8-.173c1.444-.037,2.889-.044,4.328-.08,1.444,0,2.889-.035,4.326-.051,3.433-.035,6.857-.065,10.281.1,1.95.094,3.886.232,5.83.34,1.994.115,3.981.145,5.974.145.455,0,.91,0,1.357-.007,6,.513,12,.946,18.017,1.177,1.741.332,1.163,2.629,1.069,3.908-1.647,11.978-3.293,23.92-5.483,35.774-1.748,10.489-2.709,20.993-4.645,31.41-.6,3.091-1.076,6.335-2.377,9.21a.461.461,0,0,1-.166.152q22.083,0,44.182.023c-3.6-5.9-4.883-12.845-6.927-19.376-1.423-4.869-3.815-9.608-5.194-14.462-3.6-10.707-6.747-21.571-9.637-32.48-1.6-4.956-3.107-9.918-4.464-14.947a.506.506,0,0,1,.375-.607.523.523,0,0,1,.26.008.412.412,0,0,1,.5-.094c6.733-.91,13.524-1.076,20.285-1.662a163.327,163.327,0,0,1,28.174-1.033,25.37,25.37,0,0,1,9.109.982,2.5,2.5,0,0,1,2.341,1.77c8.444,19.469,15.669,39.544,22.908,59.519a178.775,178.775,0,0,1,6.09,19.072c.115-.354.571-.318.888-.282,3.5.058,7-.007,10.5-.115a16.227,16.227,0,0,1,2.051-.542,23.334,23.334,0,0,0,6.538-2.542,30.514,30.514,0,0,0,5.013-1.929,5.5,5.5,0,0,0,1.554-.766c.152-3.136,1.574-6.177,3.077-8.973-6.076-.476-12.224-.426-18,1.727a98.62,98.62,0,0,0-12.338,5.751.528.528,0,0,1-.781.014.462.462,0,0,1,.08-.651,23.458,23.458,0,0,1,4.825-3.049,40.193,40.193,0,0,1,26.643-4.767l.094.023c.152-.275.3-.549.448-.816a.39.39,0,0,1,.129-.2.679.679,0,0,1,1.041-.427,29.691,29.691,0,0,1,6.581.773.669.669,0,0,1,.412.42,17.556,17.556,0,0,0,2.036.223c7.535,1.221,15.092,2.116,22.678,2.983-.2-.455-.4-.9-.63-1.343a2.3,2.3,0,0,1-.253-.115c-4.436-8.532-11.869-15.922-12.7-25.921-1.329-6.892,1.357-13.515,4.746-19.36a150.573,150.573,0,0,0,6.985-17.532c1.3-5.282-.152-10.764.874-16.037.253-.412.362-1.127.651-1.554-.4-1.907-.433-3.981-1.242-5.757a19.248,19.248,0,0,1-5.8.614c-10.778-1.359-4.291-12.5-10.6-17.67-3.2-2.348-3.36-3.237.447-4.783a8.4,8.4,0,0,0,2.941-4.573,85.574,85.574,0,0,0,1.451-9.2.234.234,0,0,1-.1.044.456.456,0,0,1-.563-.318,12.97,12.97,0,0,1,5.592-16.644c.57-.087.715.816.188.91a12.085,12.085,0,0,0-5.765,12.273c.209.947.476,1.929.766,2.868.564-3.879,1.43-7.658,3.778-10.965a.468.468,0,0,1,.628-.167.463.463,0,0,1,.166.636,21.884,21.884,0,0,0-3.417,9.3c-.556,5.165.282,11.609-3.662,15.568-.954,1.235-2.529,1.5-3.829,2.2-.268.216.108.534.224.715a19.564,19.564,0,0,1,3.251,2.767c2.615,3.8,1.668,8.907,3.374,13.046,1.863,2.854,6.032,2.608,8.987,2.06a6.572,6.572,0,0,0,1.523-.239c1.1-.239,2.29-.483,2.644.3a.731.731,0,0,1-.506.9c-.26.059-.527.11-.794.174a26.084,26.084,0,0,1,1.575,5.816.513.513,0,0,1,.086.548v.008c.058.325.108.656.159.989h.008a30.6,30.6,0,0,0,8.741-.846c1.575-.665,3.135-1.364,4.7-2.051.23-.18.469-.368.693-.549a6.8,6.8,0,0,1-3.452-.96.909.909,0,0,1,.809-1.619c.483.2.953.419,1.35.585a6.718,6.718,0,0,0,4.652-.5,12.515,12.515,0,0,0,5.123-7.471.464.464,0,0,1,.9.246,14.941,14.941,0,0,1-5.346,8.322,12.548,12.548,0,0,0,2.131.665c10.612,1.083,14.991-5.519,12.289-15.35-.3-.738.809-1.076.881-.3,2.84,10.192-1.748,17.613-12.8,16.948a5.719,5.719,0,0,1-1.762-.377c.773,2.775,1.474,5.873,4.024,7.535,1.907,1.914,4.37,2.594,6.761,3.626,4.176,2.557,9.311,4.616,11.963,8.929,3.431,8.293.579,17.185-1.994,25.436,0,.007,0,.014-.007.014-.087,1.532-.31,3.07-.534,4.581-.614,9.182.773,18.328,1.546,27.43,1.509,11.963,8.879,22.46,16.6,31.339,3.265,3.995,5.367,4.862.037,8.5-1.193.91-2.421,1.784-3.677,2.637,9.629,23.174,9.658,57.67-24.049,54.678-15.453.066-30.392-4.1-45.621-6.032-7.592-.736-15.134-1.971-22.755-2.325-1.156-.058-2.32-.073-3.468-.2a.435.435,0,0,1-.094-.014c-.267.78-.57,1.546-.888,2.3,1.415,19.418.476,38.944-.788,58.3a101.171,101.171,0,0,1-.635,11.552,26.973,26.973,0,0,1-.427,3.532.666.666,0,0,1-.621.419.7.7,0,0,1-.658-.506c1.214-23.543,3.18-47.252,2.1-70.919-.008.022-.022.044-.03.066-7.2,14.49-15.265,28.564-23.861,42.274a.609.609,0,0,1-.087.506,259.79,259.79,0,0,0,1.676,29.352h.007c4.364.586,8.828,1.568,13.2.542,2.009-.448,3.966-1,5.946-1.539a.777.777,0,0,1,.9.447.86.86,0,0,1-.31.816.569.569,0,0,1-.044.471c.145,5.409.483,10.82.823,16.224-.08,1.069.4,3.042-1.062,3.251a1.028,1.028,0,0,1-1.012-.708c-.051-.651-.087-1.3-.108-1.957h-.028a16.753,16.753,0,0,1-5.838,1c-.375-.086-1.083-.115-1.676-.253.211,2.543.094,5.165.117,7.614.007.051.014.094.021.138a8.512,8.512,0,0,0,6.711-.939c1.092-.665,2.219-1.251,2.479-2.566a.769.769,0,0,1,.318-.548.534.534,0,0,1,.108-1.026c1.488-.008,1.886,2,2.3,3.128.874,7.527.492,15.163,1.474,22.7-.051.644.2,1.945-.672,2a.486.486,0,0,1-.145-.037.646.646,0,0,1-.693.534c-14.427,1.069-28.991.8-43.352,2.688-1.17-.129-2.348-.223-3.511-.462" transform="translate(60.186 37.157)"/>
      <path id="Trazado_662" data-name="Trazado 662" d="M111.077,206.757a1,1,0,0,1-.651.007,12.976,12.976,0,0,1-1.3.051c-1.713-.129-3.794-.83-4.573-2.449a2.061,2.061,0,0,1,.3-1.387c.181-.614.375-1.423,1.019-1.69.759-.577,1.756-.441,2.615-.665a19.3,19.3,0,0,1,5.426-.527c7.658-.448,15.322-.16,22.994.129,7.246.275,14.5.556,21.745.209,3.139-.121,6.244-.472,9.355-.792-.443,1.238-.887,2.481-1.315,3.726-.419,1.206-.821,2.42-1.2,3.642q-3.045.011-6.091.011c-16.115,0-32.231-.208-48.331-.266" transform="translate(42.26 80.869)" fill="#0740db"/>
      <path id="Trazado_663" data-name="Trazado 663" d="M293.181,82.982c.325,7.513-5.2,16.824-13.7,15.272a8.011,8.011,0,0,1-6.358-4.732c-3.229.825-6.8.586-9.362-1.769-.094-.145-.188-.289-.282-.441a28.066,28.066,0,0,1-2.918.138c-8.828.281-11.68-2.1-12.9-8.228a2.755,2.755,0,0,0-.434,1.272c-.037,5.584-6.986,12.237-12.223,8.069a10.769,10.769,0,0,1-2.311-3.693c-.34-1.213.469-2.325,1.061-3.316-6.262-4.869-2.651-18.739,6.314-15.076,1.366.014,1.77-1.38,1.8-2.507,1.821-13.147,14.117-16.486,25.624-14.209,7.014,1.546,15.488,5.476,15.633,13.733a2.857,2.857,0,0,0,.837,1.886c1.886,1.509,4.242,2.4,5.751,4.363a19.417,19.417,0,0,1,3.468,9.24" transform="translate(93.335 21.509)"/>
      <path id="Trazado_664" data-name="Trazado 664" d="M249.846,116.217c-2.244-.076-3.759-1.959-5.381-3.272a13.35,13.35,0,0,1-4.748-8.554,208.827,208.827,0,0,1-2.181-23.3.465.465,0,0,1,.462-.462c.743.083.381,1.057.462,1.568.021,5.405,1.311,10.645,1.683,16,.173,4.85.861,10.124,4.679,13.484,1.744,1.141,3.105,3.132,5.211,3.636a.464.464,0,0,1-.188.9" transform="translate(96.139 32.658)"/>
      <path id="Trazado_665" data-name="Trazado 665" d="M257.082,116.763c-.285-.391.114-.7.427-.9,1.967-1.638,4.127-3.237,5.317-5.557,3.788-8.464,3.367-18.145,5.165-27.142a.459.459,0,0,1,.52-.4.467.467,0,0,1,.389.52c-.122.984-.26,1.966-.4,2.948-2.484,9.585.542,22.429-8.251,29.157a17.4,17.4,0,0,1-2.2,1.26c-.292.187-.688.481-.971.112" transform="translate(104.017 33.524)"/>
      <path id="Trazado_666" data-name="Trazado 666" d="M240.224,98.253A11.8,11.8,0,0,1,234,90.177c-.223-4.222,3.385-8.51,5.88-3.056a2.589,2.589,0,0,1,.093,1.062.522.522,0,0,1-1.009-.271c-.379-.638-.458-1.576-1.006-2.049-.372-.183-.992-.552-1.333-.278a5.54,5.54,0,0,0-1.62,4.852,14.609,14.609,0,0,0,2.726,4.62,6.376,6.376,0,0,0,3.385,2.113c.805.6-.153,1.4-.9,1.083" transform="translate(94.705 34.249)"/>
      <path id="Trazado_667" data-name="Trazado 667" d="M238.074,94.068c-.468-.847-1-2.755.3-3.15-.785-1.159-1.3-2.664-2.477-3.475a.464.464,0,0,1-.236-.86c.958-.271,1.6.943,2.226,1.481.436.57,3.2,5.19,1.293,4.746-.284-.173-.3-.57-.5-.814a3.4,3.4,0,0,0,.014,1.187c.634.381-.038,1.343-.615.884" transform="translate(95.289 35.057)"/>
      <path id="Trazado_668" data-name="Trazado 668" d="M233.407,81.816c-.052-.608.835-1.586,1.343-.932.246.42-.2.614-.4.842a.473.473,0,1,1-.94.09" transform="translate(94.466 32.676)"/>
      <path id="Trazado_669" data-name="Trazado 669" d="M234.9,80.966c-.107.285-.211.575-.313.863.221-.187.169-.423.336-.631a1.733,1.733,0,0,0-.006-.275l-.017.044m-.108,9.463c-4.085-1.432-2.768-8.058-.583-10.673.829-.767,1.332-.222,1.544.7.053.49.454.851.457,1.34a.723.723,0,0,1,.541-.287.586.586,0,0,1,.507.281,1,1,0,0,1,.157-.086,1.011,1.011,0,0,1,.925.08c-.164-1.586,1.651-2.47,1.987-.621-.035,2.317.514,4.734.2,6.993a.772.772,0,0,1-.563.375c-1.113,0-1.863-2.158-3.2-1.127a2.955,2.955,0,0,1-.079.391.884.884,0,0,1-.337.5c-.044.365-.1.814-.475.981a1.022,1.022,0,0,1-1.081,1.145" transform="translate(93.953 32.159)"/>
      <path id="Trazado_670" data-name="Trazado 670" d="M263.286,100.578c-.544-1.273,1.432-1.28,1.907-2.139A13.3,13.3,0,0,0,267.851,88.2a2.622,2.622,0,0,0-.6-1.2l-.006,0a2.782,2.782,0,0,0-1.806,1.952c.254.693-.866.962-.9.215a1.929,1.929,0,0,1,.2-1.072c.358-1.585,2.91-3.189,3.721-1.08a11.061,11.061,0,0,1-.093,8.121,9.163,9.163,0,0,1-3.157,5.064c-.5.531-1.353,1.194-1.922.382" transform="translate(106.532 34.836)"/>
      <path id="Trazado_671" data-name="Trazado 671" d="M263.466,95.734a10.675,10.675,0,0,0,1.1-2.991c.242-1.541-.237-3.448,1.422-4.291.909-.575,1.755.756.5.875a.857.857,0,0,0-.208.086,1.66,1.66,0,0,0-.607.708c-.142,1.161-.037,2.359-.288,3.518-.1.659-1.276,3.754-1.922,2.095" transform="translate(106.643 35.771)"/>
      <path id="Trazado_672" data-name="Trazado 672" d="M267.955,90.826c-1.028-.479-.271-1.978-.641-2.878l-.056.011a1.741,1.741,0,0,1-1.529-.07c-.91.548-1.811-.613-1.235-1.435a4.483,4.483,0,0,0,.5-1.134c.631-1.572,2.546-1.1,3.506-.125a1.017,1.017,0,0,1,.6.226,4.294,4.294,0,0,0,0-.554c-.492-.545.5-1.176.788-.5a1.928,1.928,0,0,1,.275.607c.57,1.859-.433,3.722-1.228,5.36a.875.875,0,0,1-.982.492" transform="translate(106.986 34.056)"/>
      <path id="Trazado_673" data-name="Trazado 673" d="M267.5,89.945c-.462-.454-.421-1.142-.617-1.707-.174-.7-.774-1.158-1.022-1.806-.91-.236-.2-1.439.531-.851,1.669.267,2.783,2.738,2.089,4.233a.631.631,0,0,1-.982.131" transform="translate(107.438 34.602)"/>
      <path id="Trazado_674" data-name="Trazado 674" d="M267.526,94.3c-.347-.527.142-1.072.08-1.634-.171-1.3-.3-3.395-1.846-3.719-1.326.918-1.146-1.4-.074-1,1.541-.624,2.479,1.318,2.847,2.518.579-1.983,1.474-4.226.857-6.275a.522.522,0,0,1-.049-.649.544.544,0,0,1,.874.124c1.189,1.279.842,3.279.78,4.89a30.912,30.912,0,0,1-2.679,5.6.506.506,0,0,1-.788.152" transform="translate(107.192 33.769)"/>
      <path id="Trazado_675" data-name="Trazado 675" d="M241.107,84.675a.474.474,0,0,1,.087-.651c1.908-1.242,4.527-2.394,6.781-1.553.448.339,1.374.43,1.2,1.113a.459.459,0,0,1-.608.244,7.092,7.092,0,0,0-6.168.521c-.427.192-.873.8-1.293.325" transform="translate(97.549 33.29)"/>
      <path id="Trazado_676" data-name="Trazado 676" d="M264.424,85.708a6.508,6.508,0,0,0-5.675-2.028c-.724-.124-1.9.71-2.323-.074a.459.459,0,0,1,.333-.556,13.278,13.278,0,0,1,5.2-.223,10.271,10.271,0,0,1,3.121,2.231.466.466,0,0,1-.007.651.457.457,0,0,1-.651,0" transform="translate(103.786 33.477)"/>
      <path id="Trazado_677" data-name="Trazado 677" d="M243.947,92.475c-.745-1.881-1.155-5.123,1.019-6.1,1.72.378,1.557,9.507-1.019,6.1" transform="translate(98.494 34.986)"/>
      <path id="Trazado_678" data-name="Trazado 678" d="M257.84,93.25c-1.014-.94-.756-7.33,1.43-5.988,1.182,1.218.66,3.121.311,4.588-.076.932-.694,2.272-1.741,1.4" transform="translate(104.133 35.272)"/>
      <path id="Trazado_679" data-name="Trazado 679" d="M252.834,100.743a24.581,24.581,0,0,1-2.854-.556c-.815-.622.271-1.832.986-1.1.937.3,2.97-.066,3.284,1.047-.022.708-.9.644-1.416.614" transform="translate(101.063 40.044)"/>
      <path id="Trazado_680" data-name="Trazado 680" d="M241.752,117.353a78.323,78.323,0,0,0,.159-13.423c-.011-.455-.326-1.162.223-1.4a.478.478,0,0,1,.593.288,54.043,54.043,0,0,1,.368,9.942c0,1.537.022,3.069.015,4.6a.681.681,0,1,1-1.359-.007" transform="translate(97.847 41.522)"/>
      <path id="Trazado_681" data-name="Trazado 681" d="M84.21,106.993a.47.47,0,0,1,.382-.534c2.918-.33,5.832-.568,8.692-1.128a.467.467,0,0,1,.49.8,6.4,6.4,0,0,1-1.331.327c-2.549.516-5.189.572-7.763.919a.458.458,0,0,1-.471-.379" transform="translate(34.03 42.64)"/>
      <path id="Trazado_682" data-name="Trazado 682" d="M90.836,110.554a13.756,13.756,0,0,1-7.138-2.723c-.808-.486-1.109-1.548-.058-1.345a12.14,12.14,0,0,0,7.108,3.143c1.516.208,2.314-.936,2.738-2.2.43-.483.308-1.659,1.09-1.619a.468.468,0,0,1,.347.556c-.594,1.94-1.628,4.453-4.089,4.183" transform="translate(33.528 42.862)"/>
      <path id="Trazado_683" data-name="Trazado 683" d="M89.208,109.231a9.114,9.114,0,0,1-4.045-1.784l.007.007c.011.013.024.024.037.037-.989-.506-.052-1.457.645-.666a7.115,7.115,0,0,0,5.084,1.482c.9-.368,1.3-1.412,1.762-2.175.173-.3.334-.828.788-.8.617.091.372.728.216,1.113-.646,1.81-2.47,3.376-4.493,2.788" transform="translate(34.262 42.666)"/>
      <path id="Trazado_684" data-name="Trazado 684" d="M90.71,108.275c-.8-.5.375-1.478.388-2.133a.471.471,0,0,1-.7-.59,1.028,1.028,0,0,1,1.191-.282c.9.555.2,1.711-.129,2.384-.115.332-.322.787-.752.621" transform="translate(36.515 42.609)"/>
      <path id="Trazado_685" data-name="Trazado 685" d="M83.94,107.082c-.431.055-1.134-.008-.947-.621.451-.648,1.706-.128,2.421-.275a.46.46,0,0,1,.476.441c-.122.856-1.364.384-1.964.451Z" transform="translate(33.527 42.989)"/>
      <path id="Trazado_686" data-name="Trazado 686" d="M87.919,109.14a9.9,9.9,0,0,1-3.674-1.751.549.549,0,0,1,.119-1.089c1,.357,2.032.707,3.028,1.1.776.431,1.714.332,2.331.988,1.117,1.1-1.2.985-1.8.753" transform="translate(33.861 43.058)"/>
      <path id="Trazado_687" data-name="Trazado 687" d="M89.972,109.54c-.7-.024-7.409-1.964-4.666-2.665a26.948,26.948,0,0,0,4.19,1.279c1.021.112,1.071-.041,2.192-.537a5.1,5.1,0,0,1,.791-.576.532.532,0,0,1,.714.75c-.017,1.562-2.044,1.741-3.22,1.749" transform="translate(34.211 43.292)"/>
      <path id="Trazado_688" data-name="Trazado 688" d="M250.924,99.079c-.787-.114-1.557-.377-2.348-.472-1.314.247-.674-1.828.275-.892l.007.006a56.123,56.123,0,0,0,10.1-.325c.358-.06,1.047-.081,1.076.455-.111.8-1.211.478-1.762.607a35.218,35.218,0,0,1-7.347.621" transform="translate(100.31 39.44)"/>
      <path id="Trazado_689" data-name="Trazado 689" d="M253.075,103.41a5.923,5.923,0,0,1-5.043-4.132c-.181-.525-.478-1.294.073-1.7a.462.462,0,0,1,.615.653A3.466,3.466,0,0,0,249,99.278c.815,2.2,3.486,3.086,5.636,3.048,2.162-.3,3.128-2.391,4.345-3.892.618-1.485,1.449-.674,1.045.729-.232.951-1.1,1.5-1.675,2.224a6.874,6.874,0,0,1-5.28,2.023" transform="translate(100.292 39.495)"/>
      <path id="Trazado_690" data-name="Trazado 690" d="M253.421,101.267c-1.464-.367-3.215-.4-4.146-1.77a1.557,1.557,0,0,1-.427-1.206.468.468,0,0,1,.586-.289c.309.089.291.445.5.641a.523.523,0,0,1,.61.128c1.561,1.248,3.771,1.014,5.578.6a9.087,9.087,0,0,0,1.189-.94c.228-.8,1.376-1.165,1.276-.032.43,1.526-3.955,3-5.162,2.872" transform="translate(100.716 39.566)"/>
      <path id="Trazado_691" data-name="Trazado 691" d="M254.82,102.252a1.081,1.081,0,0,1-.333-.111c-1.747.233-3.972.222-5.041-1.428a3.38,3.38,0,0,1-.953-1.777c-.77-.776.85-1.467.882-.381a4.3,4.3,0,0,0,4.382,2.195,5.382,5.382,0,0,0,3.6-1.453c.611-.3,1.142.443.844.982a3.306,3.306,0,0,1-3.381,1.973" transform="translate(100.493 39.694)"/>
      <path id="Trazado_692" data-name="Trazado 692" d="M414.452,121.083a5.346,5.346,0,0,1-1.659-.426.46.46,0,0,1,.337-.853,5.687,5.687,0,0,0,1.755.4,51.226,51.226,0,0,0,9.168-.572.462.462,0,0,1,.5.426.477.477,0,0,1-.419.5,40.673,40.673,0,0,1-9.681.527" transform="translate(167.024 48.458)"/>
      <path id="Trazado_693" data-name="Trazado 693" d="M416.385,124.5a5.029,5.029,0,0,1-3.639-3.7.533.533,0,0,1,.466-.957c.559.378.669,1.3.984,1.874.2.6.766.826,1.249,1.148a2.807,2.807,0,0,0,1.836.766,6.874,6.874,0,0,0,4.457-2.219c.662-.327,1.263-1.9,2.029-1.451a.458.458,0,0,1,.044.651c-1.866,2.143-4.34,4.536-7.426,3.886" transform="translate(166.999 48.525)"/>
      <path id="Trazado_694" data-name="Trazado 694" d="M416.423,123.5a3.561,3.561,0,0,1-2.91-2.334c-.652-.743.561-1.213.88-.353.32.611.618,1.312,1.3,1.52a7.293,7.293,0,0,0,3.475-1.1c.854-.54,1.859-.777,2.686-1.286a.505.505,0,0,1,.586.642c-.5.909-1.565,1.231-2.441,1.687-1.074.776-2.269,1.526-3.657,1.21l.08.014" transform="translate(167.345 48.58)"/>
      <path id="Trazado_695" data-name="Trazado 695" d="M416.237,124.1a2.52,2.52,0,0,1-1.947-1.158c-.336-.528.538-1.03.833-.476,1.3.388,2.344-.145,3.492-.569,1.065-.3,1.824-1.263,2.824-1.619a.681.681,0,0,1,.651,1.106c-.33.332-.731.562-1.055.9a6.272,6.272,0,0,1-4.8,1.813" transform="translate(167.706 48.714)"/>
      <path id="Trazado_696" data-name="Trazado 696" d="M260.492,121.2a.464.464,0,0,1-.448-.469c.014-3,.021-6.057.022-9.051a20.007,20.007,0,0,1,.78-7.607.489.489,0,0,1,.665-.354.468.468,0,0,1,.23.607c-1.339,4.388-.6,9.035-.766,13.552a27.25,27.25,0,0,1-.007,2.875.466.466,0,0,1-.476.448" transform="translate(105.226 41.995)"/>
      <path id="Trazado_697" data-name="Trazado 697" d="M242.12,113.364a.463.463,0,0,1,.925.03.463.463,0,0,1-.925-.03" transform="translate(97.996 45.744)"/>
      <path id="Trazado_698" data-name="Trazado 698" d="M257.721,127.871c-6.906-2.213-12.259-8.661-15.7-14.637.67-.878,1.357.694,1.776,1.149,3.441,5.242,8.034,10.206,13.971,12.449a3.813,3.813,0,0,0,3.038-.871c2.127-2.8,3.8-5.98,5.921-8.768a8.3,8.3,0,0,1,.809-1.062.5.5,0,0,1,.809.506,36.8,36.8,0,0,1-5.126,7.948c-1.155,2.144-2.939,3.612-5.494,3.285" transform="translate(97.954 45.762)"/>
      <path id="Trazado_699" data-name="Trazado 699" d="M250.416,143.675c-2.706-3.074-4.335-7.062-6.6-10.468-1.509-2.533-3.274-4.9-4.659-7.506a4.775,4.775,0,0,1-.752-4.378c.393-1.536,1.495-2.875,2.044-4.319.7-1.627.669-3.4,1.083-5.093a2.341,2.341,0,0,1,1.092-1.488c.506-.3,1.9-.829,1.7.246-.157.358-.863.28-1.206.541-.533.253-.688.9-.818,1.387a20.073,20.073,0,0,1-1.769,6.668c-.348,1.357-1.437,2.583-1.252,3.976,1.433,3.792,4.264,6.972,6.194,10.507,1.345,2.3,2.553,4.617,4,6.841a4.571,4.571,0,0,0,1.443,2.1c.8-5.026,1.723-10.674,5.543-14.377a4.721,4.721,0,0,1,1.026-.83.569.569,0,0,1,.6.96c-3.108,2.272-4,6.386-4.935,9.906-.53,1.22-.608,6.8-2.746,5.331" transform="translate(96.393 44.567)"/>
      <path id="Trazado_700" data-name="Trazado 700" d="M260.256,135.8c-.91-1.208-1.031-2.743-1.46-4.149a23.282,23.282,0,0,0-4.485-8.2.461.461,0,0,1,.75-.534c1.187,1.773,2.678,3.374,3.555,5.338.381.792,4.019,8.884,1.64,7.549" transform="translate(102.898 49.708)"/>
      <path id="Trazado_701" data-name="Trazado 701" d="M258.94,140.876c-.531-.4.063-.919.344-1.266,2.851-5.925,5.277-12.256,6.14-18.786-.732-2.38-1.675-4.781-2.23-7.233a1.428,1.428,0,0,0-.548-.7c-.521-.256-1.113-.336-1.633-.6a.46.46,0,0,1,.382-.837,9.753,9.753,0,0,1,1.966.809c.875.729.967,2.021,1.2,3.012.807,1.917,2.064,3.851,2.095,5.974-1.311,6.486-2.584,13.389-6.466,18.862-.458.25-.656,1.065-1.249.766" transform="translate(104.723 45.126)"/>
      <path id="Trazado_702" data-name="Trazado 702" d="M254.636,126.665c-.766.115-4.888-3.36-2.716-3.258a12.905,12.905,0,0,0,2.557,2.247c1.054.156,2.081-.558,3.121-.541a.46.46,0,0,1,.209.9,11.8,11.8,0,0,1-3.171.658" transform="translate(101.712 49.987)"/>
      <path id="Trazado_703" data-name="Trazado 703" d="M256.311,137.817c-2.523-.413-5.955-.541-6.423-3.714-.339-1.978-.87-3.837-1.242-5.8a.46.46,0,1,1,.9-.216c.7,2.358.686,5.036,1.874,7.169,1.381,1.161,3.431.805,5.065,1.428a2.489,2.489,0,0,0,.856.037.464.464,0,0,1,.419.787,1.512,1.512,0,0,1-1.444.311" transform="translate(100.635 51.74)"/>
      <path id="Trazado_704" data-name="Trazado 704" d="M254.577,137.406a.549.549,0,0,1-.2-1.054,3.687,3.687,0,0,1,1.668-.138,47.967,47.967,0,0,0,3.063-7.448c.559-.676,1.561.313.885.873a42.49,42.49,0,0,1-2.647,6.5c-.268.556-.641,1.491-1.418,1.121a3.2,3.2,0,0,1-1.356.142" transform="translate(102.826 52.067)"/>
      <path id="Trazado_705" data-name="Trazado 705" d="M248.93,150.1c-.842-4.521.674-9.282,1.134-13.82.4-1.043.492-2.144.816-3.164a.46.46,0,0,1,.816.3,63.83,63.83,0,0,0-.771,6.647,94.179,94.179,0,0,0-.839,9.609.641.641,0,0,1-1.156.424" transform="translate(100.654 53.853)"/>
      <path id="Trazado_706" data-name="Trazado 706" d="M258.69,149.756c-1.145-4.749-1.176-9.817-2.775-14.482-.246-.3-.547-.756-.136-1.057,1.758-.705,3.071,10.057,3.548,11.68.077,1.166,1.423,3.624-.007,4.2a.638.638,0,0,1-.629-.34" transform="translate(103.447 54.354)"/>
      <path id="Trazado_707" data-name="Trazado 707" d="M203.747,162.085c-.832-11.89,2.56-20.437,13.855-25.394,10.094-5.719,20.83-10.4,31.086-15.682,1.27-.867,2.674-1.717,3.827-2.66a.672.672,0,1,1,.915.969c-1.737,1.373-3.589,2.654-5.379,3.965-8,3.181-15.554,7.409-23.385,11.017-6.13,3.707-14.141,5.941-17.517,12.721-1.745,3.167-2.193,6.778-2.37,10.323a41.867,41.867,0,0,0,.1,4.624.57.57,0,1,1-1.134.115" transform="translate(82.404 47.841)"/>
      <path id="Trazado_708" data-name="Trazado 708" d="M317.347,161.376c-2.2-7.864-3.516-16.184-8.451-22.915-3.766-6.012-11.381-7.513-17.743-9.348-5.743-1.1-11.252-3.31-16.691-5.408A35.576,35.576,0,0,1,264.1,118.77a.5.5,0,0,1-.243-.776.49.49,0,0,1,.469-.187,18.889,18.889,0,0,0,2.594,1.242,125.911,125.911,0,0,0,22.994,8.423,53.589,53.589,0,0,1,15.943,5.96c2.758,1.786,4.516,4.751,6.105,7.534a44.115,44.115,0,0,1,4.855,12.209c.1,1.05,2.691,10.138.527,8.2" transform="translate(106.761 47.718)"/>
      <path id="Trazado_709" data-name="Trazado 709" d="M212.687,209.055c-3.851-3.822-4.54-9.85-5.237-15-.187-2.382-.348-4.77-.672-7.145a.461.461,0,1,1,.916-.108c.807,6.569,1.731,13.39,4.738,19.332a24.23,24.23,0,0,0,3.126,3.212c.36.235.884.437.784.962-.808,1.62-2.91-.44-3.656-1.249" transform="translate(83.679 75.501)"/>
      <path id="Trazado_710" data-name="Trazado 710" d="M299.572,219.144a.662.662,0,0,1,.188-.846c.95-.683,1.872-1.1,2.7-1.827,3.5-4.155,4.694-9.74,4.7-15.019-.464-11.728-.568-23.414-1.287-35.117a.462.462,0,0,1,.918-.094c.117,1.662.232,3.323.312,4.985.4,11.648,1.555,23.375,1.286,34.986a19.667,19.667,0,0,1-2.76,8.322c-.736,1.526-1.586,3.133-3.194,3.886-.854.28-2.1,1.623-2.868.722" transform="translate(121.236 67.178)"/>
      <path id="Trazado_711" data-name="Trazado 711" d="M224.372,74.054c-3.336-.743-5.325-3.961-7.455-6.372-.847-1.1-1.4-2.244-2.2-3.293a.672.672,0,0,1-.036-.875c1.286-.972,2.108,1.8,2.753,2.515,2,2.542,3.78,6.025,6.978,7.105a42.857,42.857,0,0,0,.348-7.749c.115-.828,1.12-.6,1.6-.361,7.041,1.48,14.222.19,21.181-1.1,5.159-1.366,10.437-3.07,14.8-6.238,6.992-5.908,11.083-15.284,9.3-24.385-1.208-8.464-5.223-16.8-11.654-22.425-9.48-9.351-24-11.156-36.445-7.679-5.88,1.773-12.077,3.868-16.285,8.525-8.193,9.9-15.936,24.74-9.383,37.241,2.622,3.941,5.112,8.845,9.557,10.85a37.537,37.537,0,0,0,4.753,1.936.563.563,0,0,1,.384.694c-.5,1.045-2.346-.395-3.121-.471-1.724-.885-3.9-1.243-5.275-2.622a46.592,46.592,0,0,1-7.18-10.056c-1.293-2.838-2.969-5.606-2.695-8.821.2-13.1,7.274-27.371,18.6-34.257,10.265-4.53,22.069-8.293,33.21-4.926,17.774,4.335,30.4,24.139,26.959,42.073-2.335,12.321-13.83,19.741-25.436,22.04-7.263,1.362-14.528,2.323-21.832.611a70.382,70.382,0,0,1-.454,7.184.8.8,0,0,1-.968.853" transform="translate(78.61 0)"/>
      <path id="Trazado_712" data-name="Trazado 712" d="M169.449,121.718a1.146,1.146,0,0,1-.4-1.357c.641-2.682,2.025-5.214,2.415-7.939-5.158-1.544-10.676-1.4-15.974-2.3a46.511,46.511,0,0,1-33.788-25.841c-14.075-29.53,8.666-58.541,35.651-69.85,22.357-8.412,47.636-6.726,69.566,2.176a11.354,11.354,0,0,1,2.408,1.038c1.165,1.051-.842,2.516-1.473,1.075-21.836-9.642-47.866-10.922-70.2-2.247-14.9,6.881-29.075,18-35.552,33.449-4.418,11.413-4.686,25.177,1.9,35.773a43.832,43.832,0,0,0,27.135,22.064c6.747,2.316,14.119,1.651,20.848,3.893a1.308,1.308,0,0,1,.361,1.4c-.507,2.264-1.079,4.474-1.683,6.712,2.112-2.054,3.687-4.767,5.866-6.646,5.037.875,10.379.7,15.539.57h-.014c4.156-.329,8.31-.407,12.483-.469l-.044.007c18.333-1.1,36.914-8.7,49.342-22.481,4.988-6.047,6.924-13.788,8.863-21.211a22.642,22.642,0,0,0,.932-5.786c-.011-.577.953-.6.925.014a4.791,4.791,0,0,0,.146.918c.3,4.651-1.454,9.425-2.8,13.8a36.9,36.9,0,0,1-7.028,12.788c-3.139,4.3-7.495,7.408-11.935,10.178A76.487,76.487,0,0,1,223.03,111.5a76.779,76.779,0,0,1-24.951,3.389c-7.059.143-14.417,1.062-21.283-.843-1.782,2.738-3.648,5.643-6.292,7.6a1.12,1.12,0,0,1-1.055.07" transform="translate(47.479 3.625)"/>
      <path id="Trazado_713" data-name="Trazado 713" d="M365.122,125.384c-2.951-1.581-6.445-3.5-7.867-6.668-.059-.479-.468-.993-.021-1.408a.72.72,0,0,1,.925-.037c1.367,1.793,2.438,3.641,4.37,4.956,1.051.791,1.753,2.186,3.105,2.275.259-2.286-.622-4.462-1.1-6.66-.517-2.137,4.894-.235,5.979-.035,1.647.325,3.538.649,5.232.83,9.4.34,18.633-1.423,27.617-3.966,10.813-3.111,20.958-8.533,28.1-17.417,9.866-11.746,11.717-28.668,7.832-43.15-5.787-16.143-20.931-27.1-36.75-32.394-31.556-9.729-79.889-4.831-97.344,26.824-7.84,14.642-6.639,34.549,4.329,47.295,4.271,4.312,8.5,9,13.847,11.957,3.507,2.182,7.759,3,10.822,5.809,6.312.438,12.629,1.021,18.97,1.286.825.254,2.894-.407,3.121.586-.358,1.066-2.238.193-3.135.412-6.545-.363-13.2-.5-19.664-1.214-3.244-2.611-7.483-3.427-11.031-5.57-5.488-3.022-9.647-7.9-13.958-12.346-12.217-14.215-12.984-36.942-2.686-52.426,20.278-31.5,76.78-35.748,107.891-19.65A75.555,75.555,0,0,1,428.667,35,64.658,64.658,0,0,1,439.5,50.086c5.453,14.413,4.218,31.683-4.559,44.536-8.38,13.313-23.524,20.156-38.468,23.139a60.714,60.714,0,0,1-21.773,1.872c-3.149-.393-6.059-1.745-9.207-1.806.2,1.56,2.75,8.168-.372,7.556" transform="translate(120.9 6.283)"/>
      <path id="Trazado_714" data-name="Trazado 714" d="M95.981,205.6a.47.47,0,0,1,.3-.585c1.963-.6,3.826-1.457,5.772-2.095.8-.389,12.258-4.611,10.077-1.843-5.308,1.214-10.36,3.267-15.575,4.819a.462.462,0,0,1-.577-.3" transform="translate(38.792 81.072)"/>
      <path id="Trazado_715" data-name="Trazado 715" d="M172.124,199.538c-4.308-1.709-8.47-1.392-12.91-.91-2.571-.08-4.846-1.259-7.354-1.6-15.2-4.069-30.844-5.855-46.305-8.655-2.365-.318-4.739-.552-7.118-.753a.534.534,0,1,1,.436-.961c5.877.089,11.654,1.4,17.4,2.422,14.54.721,28.565,4.9,42.593,8.2,3.923-.514,8.175-.792,11.964.636.524.173,1.037.212,1.553.375a.643.643,0,0,1-.26,1.243" transform="translate(39.636 75.577)"/>
      <path id="Trazado_716" data-name="Trazado 716" d="M157.478,198.014c-13.1-4.791-26.54-8.783-39.971-12.606-1.669-.645-11.217-2.4-10.395-4.262a.464.464,0,0,1,.871.181c16.243,3.712,32.709,7.648,47.876,14.663.815.266,2.552.566,2.414,1.648a.632.632,0,0,1-.8.375" transform="translate(43.289 73.277)"/>
    </g>
    <path id="Trazado_730" data-name="Trazado 730" d="M138.536,223.307c.925,2.247,3.3,4.472,2.377,7.044-.528.731-2.37,1.127-3.251,1.575-2.529,1.756-5.5,2.767-7.881,4.753-.044.745-.6,1.474-1.388,1.308-3.618,6-5.324,13.5-3.634,20.437.3,1.1,1.142,2.341.715,3.461-1.64,1.127-3.872,1.373-5.816,1.517-.065,0-.136-.008-.2-.008a5.87,5.87,0,0,1-1.886-.129,9.427,9.427,0,0,1-5.735-2.37,45.038,45.038,0,0,1-8.95-7.649c-2.9-3.093-5.758-6.234-8.46-9.486-.267.708-.4,1.467-.6,2.167-2.8,12.332-4.233,24.946-6.567,37.371-.3.975-.007,2.89-.687,3.749a.752.752,0,0,1,.015.188c0-.014,0-.044-.022-.037.9,2.037-4.291,1.272-5.439,1.416,0,0,.021,0,.021.007-8.1-.412-16.16-1.69-24.258-2.261-8.98-1-18.19-.722-27.025-2.427a.464.464,0,0,1-.166-.514.6.6,0,0,1-.528-.57c.933-15.394,4.61-30.479,6.885-45.691,3.389-18.957,6.6-37.883,10.541-56.717a73.825,73.825,0,0,1,6.421-16.428c3.974-6.451,8.784-12.345,12.838-18.746,1.87-3.215,3.67-6.515,5.512-9.76a1.562,1.562,0,0,1,.708-.773c.656-3.265,24.677,6.639,24.6,6.719.117,1.061.108,2.153.267,3.178,1.163,5.128,5.491,9.022,9.681,11.905,1.922.816,2.109,3.07,2.672,4.825.867,3.844,2.175,7.492,3.374,11.226a106.525,106.525,0,0,1,2.753,10.757c.614,1.307,1.243,2.608,1.872,3.9,2.991,6,6.74,11.668,9.861,17.576,3.7,6.243,7.694,12.282,11.385,18.486M94.05,140.961c.455-.058.823-.3,1.228-.375" transform="translate(192.312 1169.895)" fill="#0740db" stroke="#000" stroke-width="1"/>
    <path id="Trazado_731" data-name="Trazado 731" d="M494.031,243.061a11.552,11.552,0,0,0,1.329.131q-.811-.282-1.647-.5a41.26,41.26,0,0,1-3.987-1.3.575.575,0,0,1-.542-.636c0-.021.008-.035.008-.051-.008.015-.022.015-.036.022a.649.649,0,0,1-.78-.448,11.311,11.311,0,0,1-.152-1.221m90.437,29c-8.835,5.721-18.977,9.723-29.5,10.15-.806-.03-1.61-.072-2.73-.154a48.6,48.6,0,0,1-11.227-2.093c-1.193-.593-3.265-.9-3.41-2.493.267-5.179.014-10.461,1.192-15.525a13.379,13.379,0,0,1-2.456.384c-6.069.072-11.4-2.84-16.406-5.99a50.75,50.75,0,0,0-5.866-2.882c-1.893.014-3.778.173-5.678.1a9.362,9.362,0,0,1-2-.225.982.982,0,0,1-.745.34c-17.286.267-14.766-10.178-13.17-11.038a5.5,5.5,0,0,0,1.554-.766c.152-3.136,1.574-6.177,3.077-8.973.254.029.095-.065.426-.975a3.608,3.608,0,0,0,.542-.794.39.39,0,0,1,.129-.2.679.679,0,0,1,1.041-.427,29.692,29.692,0,0,1,6.581.773.669.669,0,0,1,.412.42,17.555,17.555,0,0,0,2.036.223c7.535,1.221,15.092,2.116,22.678,2.983-.2-.455-.4-.9-.63-1.343a2.3,2.3,0,0,1-.253-.115c-4.436-8.532-11.869-15.922-12.7-25.921-1.329-6.892,1.357-13.515,4.746-19.36a150.573,150.573,0,0,0,6.985-17.532c1.3-5.282-.152-10.764.874-16.037.253-.412,2.095-.478,2.146-.145h.008a30.6,30.6,0,0,0,8.741-.846c1.575-.665,3.135-1.364,4.7-2.051.23-.18.858-.361,1.081-.542,1.465-.525,2.316-.856,3.643-1.4.268.67.176,1.1.738,1.589.773,2.775,1.474,5.873,4.024,7.535,1.907,1.914,4.37,2.594,6.761,3.626,4.176,2.557,9.311,4.616,11.963,8.929,3.431,8.293.579,17.185-1.994,25.436,0,.007,0,.014-.007.014-.087,1.532-.31,3.07-.534,4.581-.614,9.182.773,18.328,1.546,27.43,1.509,11.963,8.879,22.46,16.6,31.339,3.265,3.995,5.367,4.862.037,8.5-1.193.91-2.421,1.784-3.677,2.637" transform="translate(246.763 1183.375)" stroke="#000" stroke-width="1" fill="url(#linear-gradient)"/>
    <path id="Trazado_734" data-name="Trazado 734" d="M417.686,199.409a4.886,4.886,0,0,0-.731.187,6.433,6.433,0,0,0-1.307.586,4.618,4.618,0,0,0-1.186.932,5.13,5.13,0,0,0-.909,1.4,4.608,4.608,0,0,0-.377,1.446,2.576,2.576,0,0,0,.066.665c.042.26.093.513.159.766a6.263,6.263,0,0,0,.541,1.474,2.4,2.4,0,0,0,.8.932,1.889,1.889,0,0,0,.412.216c.037.007.08.021.122.03a4.992,4.992,0,0,0,2.154,1.1,5.77,5.77,0,0,0,1.061.1,5.341,5.341,0,0,0,1.777-.3,5.115,5.115,0,0,0,1.221-.577,5.516,5.516,0,0,0,1.069-.954,5.894,5.894,0,0,0,.975-1.676,4.679,4.679,0,0,0,.318-1.249,4.611,4.611,0,0,0-.455-2.615,3.517,3.517,0,0,0-.715-1.041,3.952,3.952,0,0,0-.851-.6,7.993,7.993,0,0,0-1.561-.593,6.717,6.717,0,0,0-1.661-.3h-.1a6.042,6.042,0,0,0-.823.073m-215.872,1.01a8.722,8.722,0,0,0-1.6.246,8.376,8.376,0,0,0-1.6.52,4.144,4.144,0,0,0-2.254,2,5.33,5.33,0,0,0-.354,2.962,11.487,11.487,0,0,0,.354,1.38,3.712,3.712,0,0,0,.194.6,2.451,2.451,0,0,0,.514.94c.058.051.115.1.18.152a8.975,8.975,0,0,0,1.242,1.083,7.388,7.388,0,0,0,2.247,1.329,2.159,2.159,0,0,0,.563.072,6.168,6.168,0,0,0,.651-.044,7.384,7.384,0,0,0,1.481-.311,5.19,5.19,0,0,0,1.532-.715,6.272,6.272,0,0,0,1.019-.939,7.6,7.6,0,0,0,1.336-2.753,3.785,3.785,0,0,0,.124-1.676A5.407,5.407,0,0,0,207,203.8a8.582,8.582,0,0,0-.911-1.423,4.949,4.949,0,0,0-.939-1,4.719,4.719,0,0,0-.846-.534,5.806,5.806,0,0,0-.773-.289,4.04,4.04,0,0,0-1.172-.149c-.184,0-.368.007-.548.018m105.993,3.988a4.288,4.288,0,0,0-.736.225,1.84,1.84,0,0,0-.434.288,2.637,2.637,0,0,0-.628.781c-.058.1-.124.2-.181.311a4.618,4.618,0,0,0-.946.975c-.131.18-.253.375-.377.57a6.78,6.78,0,0,0-.665,1.647,4.46,4.46,0,0,0-.129,1.315,9.13,9.13,0,0,0,.173,1.655,3.822,3.822,0,0,0,.492,1.235c.115.173.246.332.375.49a11.658,11.658,0,0,0,.975,1,4.38,4.38,0,0,0,2.261,1.033,8.271,8.271,0,0,0,1.517.138c.239,0,.485-.007.722-.03a14.549,14.549,0,0,0,1.46-.187,9.178,9.178,0,0,0,1.076-.239,2.433,2.433,0,0,0,.91-.665,6.409,6.409,0,0,0,1.524-2.37,4.186,4.186,0,0,0,.159-1.336v-.729a5.543,5.543,0,0,0-.138-1.38,8.194,8.194,0,0,0-.26-.823,6.493,6.493,0,0,0-1.359-2.442,4.463,4.463,0,0,0-1.076-.83,6.837,6.837,0,0,0-3.005-.788h-.108a9.186,9.186,0,0,0-1.6.159m-76.719,20.625c-1.676,2.911-6.892,18.024-11,22.2q17.837-.044,35.673-.08c-.506-.642-.326-1.806-.513-2.491a224.546,224.546,0,0,1-1.308-30.609c.375-14.382.513-28.694,1.2-43.019-7.867,18.017-16.71,35.715-24.049,54m235.208,25.1c-49.354.03-110.919-.431-160.266-.532q-78.236-.152-156.451-.18h-.131a.891.891,0,0,1-.672.34c.138-.506.281-1,.419-1.51.188-.658.391-1.315.6-1.966.281-.852.556-1.711.844-2.564-.007.023-.014.044-.021.073.145-.434.289-.867.433-1.294l-.021.066c.209-.614.419-1.228.628-1.85.058-.166.117-.332.167-.5,2.362-5.845,4.825-11.617,7.736-17.244,7.4-18.234,15.12-36.3,22.741-54.441a.461.461,0,0,1,.846.2,4.693,4.693,0,0,1,.644-.037,451.741,451.741,0,0,1,54.158-1.026c5.526.708,10.981-.115,16.493-.131a.834.834,0,0,1,.846.579c.007-.253.021-.513.035-.766a.771.771,0,0,1,.044-.174c.325.029.65.044.968.044.246.007.492.014.736.014.3,0,.593-.007.889-.014,1.1-.021,2.2-.094,3.3-.138,2.346-.086,4.7-.166,7.058-.2,1.054-.014,2.1-.028,3.157-.051.909-.014,1.834-.035,2.744-.1,2.023-.136,4.038-.318,6.047-.563.513-.007,1.026-.007,1.539-.021.86-.007,1.72-.021,2.585-.065.968-.037,1.945-.08,2.92-.145h.051a.063.063,0,0,0,.035-.007c.051,0,.1-.007.159-.007h-.035a.21.21,0,0,0,.079-.008h.007c.738-.035,1.481-.086,2.212-.129h.035a.092.092,0,0,0,.044-.007h-.014c.318-.022.635-.037.947-.058v.007a.042.042,0,0,1,.028-.007h.058c.007-.007.022-.007.037-.007.752-.037,1.495-.073,2.24-.1q1.484,0,2.969-.03c1.286-.021,2.571-.051,3.857-.072.889-.015,1.777-.066,2.667-.094,2.116-.08,4.225-.131,6.342-.174,1.82-.044,3.641-.058,5.454-.1l6.8-.173c1.444-.037,2.889-.044,4.328-.08,1.444,0,2.889-.035,4.326-.051,3.433-.035,6.857-.065,10.281.1,1.95.094,3.886.232,5.83.34,1.994.115,3.981.145,5.974.145.455,0,.91,0,1.357-.007,6,.513,12,.946,18.017,1.177,1.741.332,1.163,2.629,1.069,3.908-1.647,11.978-3.293,23.92-5.483,35.774-1.748,10.489-2.709,20.993-4.645,31.41-.6,3.091-1.076,6.335-2.377,9.21a.461.461,0,0,1-.166.152q22.083,0,44.182.023c-3.6-5.9-4.883-12.845-6.927-19.376-1.423-4.869-3.815-9.608-5.194-14.462-3.6-10.707-6.747-21.571-9.637-32.48-1.6-4.956-3.107-9.918-4.464-14.947a.506.506,0,0,1,.375-.607.523.523,0,0,1,.26.008.412.412,0,0,1,.5-.094c6.733-.91,13.524-1.076,20.285-1.662a163.327,163.327,0,0,1,28.174-1.033,25.37,25.37,0,0,1,9.109.982,2.5,2.5,0,0,1,2.341,1.77c8.444,19.469,15.669,39.544,22.908,59.519,2.542,6.2,4.126,9.619,4.354,10.47.21.9,1.793,7.085,1.514,8.441s22.984,0,22.984,0,3.515,5.651,5.89,5.663" transform="translate(241.263 1183.693)" fill="#0740db"/>
    <path id="Trazado_736" data-name="Trazado 736" d="M183.625,175.719c-3.85-1.6-1.111-8.15,2.741-7.058,4.863,1.7,2.115,8.964-2.741,7.058" transform="translate(288.753 1008.224)" fill="#fff"/>
    <path id="Trazado_737" data-name="Trazado 737" d="M1.857,7.18C-1.993,5.583.746-.97,4.6.122c4.863,1.7,2.115,8.964-2.741,7.058" transform="matrix(0.719, -0.695, 0.695, 0.719, 482.157, 1180.298)" fill="#fff"/>
    <path id="Trazado_738" data-name="Trazado 738" d="M1.857,7.18C-1.993,5.583.746-.97,4.6.122c4.863,1.7,2.115,8.964-2.741,7.058" transform="matrix(0.875, 0.485, -0.485, 0.875, 498.241, 1175.5)" fill="#fff"/>
    <path id="Trazado_739" data-name="Trazado 739" d="M1.857,7.18C-1.993,5.583.746-.97,4.6.122c4.863,1.7,2.115,8.964-2.741,7.058" transform="translate(507.013 1178.457) rotate(-23)" fill="#fff"/>
  </g>
</svg>
