<svg xmlns="http://www.w3.org/2000/svg" xmlns:xlink="http://www.w3.org/1999/xlink" width="532.569" height="678.387" viewBox="0 0 532.569 678.387">
  <defs>
    <linearGradient id="linear-gradient" x1="0.189" y1="0.083" x2="0.65" y2="0.931" gradientUnits="objectBoundingBox">
      <stop offset="0" stop-color="#00e0ee"/>
      <stop offset="0.478" stop-color="#ad26fb"/>
      <stop offset="1" stop-color="#0740db"/>
    </linearGradient>
    <linearGradient id="linear-gradient-2" x1="0.195" y1="0.042" x2="0.652" y2="0.958" xlink:href="#linear-gradient"/>
  </defs>
  <g id="Grupo_398" data-name="Grupo 398" transform="translate(-142.641 -2793.787)">
    <path id="Sustracción_1" data-name="Sustracción 1" d="M-3450.633,155.867a3.924,3.924,0,0,1-3.089-1.5l-14.235-17.538h-96.469a16.467,16.467,0,0,1-11.72-4.854A16.468,16.468,0,0,1-3581,120.256v-40.8a16.466,16.466,0,0,1,4.855-11.721,16.467,16.467,0,0,1,11.72-4.854h101.276a16.47,16.47,0,0,1,11.722,4.854,16.465,16.465,0,0,1,4.855,11.721v72.38a3.947,3.947,0,0,1-1.258,2.937A4.174,4.174,0,0,1-3450.633,155.867Zm-33.306-63.627a7.624,7.624,0,0,0-7.614,7.617,7.623,7.623,0,0,0,7.614,7.614,7.624,7.624,0,0,0,7.617-7.614A7.625,7.625,0,0,0-3483.939,92.239Zm-29.849,0a7.624,7.624,0,0,0-7.615,7.617,7.623,7.623,0,0,0,7.615,7.614,7.624,7.624,0,0,0,7.617-7.614A7.625,7.625,0,0,0-3513.787,92.239Zm-29.848,0a7.624,7.624,0,0,0-7.615,7.617,7.623,7.623,0,0,0,7.615,7.614,7.624,7.624,0,0,0,7.617-7.614A7.625,7.625,0,0,0-3543.636,92.239Z" transform="translate(3724.141 2840.861)" fill="#00e0ee" stroke="rgba(0,0,0,0)" stroke-miterlimit="10" stroke-width="1"/>
    <g id="Grupo_396" data-name="Grupo 396" transform="translate(0 274.787)">
      <path id="Trazado_724" data-name="Trazado 724" d="M1,78.592V224.379a34.3,34.3,0,0,0,34.3,34.3h226.8a34.3,34.3,0,0,0,34.3-34.3V35.3A34.3,34.3,0,0,0,262.106,1H35.3A34.3,34.3,0,0,0,1,35.3V52.244" transform="translate(377.802 2519.001)" fill="#fff"/>
      <path id="Trazado_725" data-name="Trazado 725" d="M1,78.592V224.379a34.3,34.3,0,0,0,34.3,34.3h226.8a34.3,34.3,0,0,0,34.3-34.3V35.3A34.3,34.3,0,0,0,262.106,1H35.3A34.3,34.3,0,0,0,1,35.3V52.244" transform="translate(377.802 2519.001)" fill="none" stroke="#ac36f7" stroke-miterlimit="10" stroke-width="2"/>
      <rect id="Rectángulo_548" data-name="Rectángulo 548" width="260.162" height="215.496" rx="15.561" transform="translate(396.426 2541.093)" fill="none" stroke="#ac36f7" stroke-miterlimit="10" stroke-width="1" stroke-dasharray="5 5"/>
      <path id="Unión_28" data-name="Unión 28" d="M39.966,92.8a89.831,89.831,0,0,1-17.705-9.4A55.407,55.407,0,0,1,9.785,71.578,46.582,46.582,0,0,1,2.413,57.13,58.816,58.816,0,0,1,0,39.88L.025,16.924A4.254,4.254,0,0,1,4.2,12.614a4.2,4.2,0,0,1,.522.033,8.913,8.913,0,0,0,1.1.068,9.758,9.758,0,0,0,6.484-2.571,11.033,11.033,0,0,0,3.516-6.5A4.21,4.21,0,0,1,20.015,0H63.33a4.218,4.218,0,0,1,4.195,3.659,10.453,10.453,0,0,0,9.992,9.058,9.112,9.112,0,0,0,1.126-.07,4.365,4.365,0,0,1,.491-.029,4.265,4.265,0,0,1,4.21,4.309V39.88a57.845,57.845,0,0,1-2.477,17.259,47.363,47.363,0,0,1-7.486,14.542A55.753,55.753,0,0,1,60.84,83.544a86.375,86.375,0,0,1-17.618,9.266,4.34,4.34,0,0,1-1.612.306A4.385,4.385,0,0,1,39.966,92.8ZM3.619,16.929,3.595,39.88A54.671,54.671,0,0,0,5.866,56.022,43.361,43.361,0,0,0,12.777,69.49,52.259,52.259,0,0,0,24.521,80.563a85.827,85.827,0,0,0,16.8,8.9.816.816,0,0,0,.3.056.74.74,0,0,0,.274-.051A82.4,82.4,0,0,0,58.6,80.7,52.517,52.517,0,0,0,70.4,69.587a44.121,44.121,0,0,0,7.019-13.56A53.813,53.813,0,0,0,79.749,39.88V16.928a.7.7,0,0,0-.6-.716.33.33,0,0,0-.054,0,12.562,12.562,0,0,1-1.592.1,13.309,13.309,0,0,1-8.812-3.452,14.64,14.64,0,0,1-4.721-8.672V4.188a.657.657,0,0,0-.64-.594H20.015a.646.646,0,0,0-.639.579V4.18a14.65,14.65,0,0,1-4.721,8.676A13.356,13.356,0,0,1,5.812,16.31h0a12.582,12.582,0,0,1-1.532-.093l-.061,0A.661.661,0,0,0,3.619,16.929Zm36.253,67.71C28.588,79.66,20.55,73.716,15.3,66.468,10.035,59.2,7.477,50.506,7.477,39.877L7.495,23.6a4.255,4.255,0,0,1,3-4.08,18.059,18.059,0,0,0,11.1-9.531,4.336,4.336,0,0,1,3.9-2.512H57.871a4.324,4.324,0,0,1,3.9,2.51,18.1,18.1,0,0,0,11.1,9.546,4.238,4.238,0,0,1,3,4.083V39.877a50.878,50.878,0,0,1-1.962,14.465,40.125,40.125,0,0,1-5.994,12.185A46.672,46.672,0,0,1,57.767,76.568,73.711,73.711,0,0,1,43.382,84.65l-.105.046h-.008A4.475,4.475,0,0,1,41.636,85,4.407,4.407,0,0,1,39.873,84.639ZM24.823,11.553A21.664,21.664,0,0,1,11.5,22.971a.643.643,0,0,0-.409.637L11.071,39.88c0,9.819,2.373,17.85,7.253,24.55,4.894,6.718,12.417,12.252,23,16.921a.772.772,0,0,0,.312.062.808.808,0,0,0,.314-.061,69.643,69.643,0,0,0,13.507-7.571,43.44,43.44,0,0,0,9.438-9.3,36.884,36.884,0,0,0,5.552-11.222,46.745,46.745,0,0,0,1.826-13.384V23.616a.638.638,0,0,0-.4-.632A21.706,21.706,0,0,1,58.534,11.55a.773.773,0,0,0-.663-.479H25.488A.775.775,0,0,0,24.823,11.553Zm8.65,49.562L21.436,49.077a4.284,4.284,0,0,1,0-6.057l3.54-3.516a4.237,4.237,0,0,1,6.066.014l5.469,5.451,15.8-15.8a4.271,4.271,0,0,1,6.055,0L61.908,32.7a4.29,4.29,0,0,1,0,6.054L39.552,61.113a4.3,4.3,0,0,1-6.079,0ZM36.514,61.821Zm-8.984-19.79-.007.007-3.552,3.529a.692.692,0,0,0,.007.971L36.013,58.572a.725.725,0,0,0,1,0L59.368,36.219a.692.692,0,0,0,0-.974l-3.539-3.539a.684.684,0,0,0-.973,0L37.782,48.777a1.777,1.777,0,0,1-1.267.526,1.8,1.8,0,0,1-1.268-.519l-6.763-6.741A.659.659,0,0,0,28,41.825.653.653,0,0,0,27.531,42.031Z" transform="translate(484.834 2602.283)" fill="url(#linear-gradient)"/>
    </g>
    <g id="Grupo_393" data-name="Grupo 393" transform="translate(0 -62.88)">
      <path id="Trazado_531" data-name="Trazado 531" d="M188.2,126.379c11.8-.252,31.6-11.037,19.381-34.42,7.584-12.175,5.077-31.633-19.381-30.712-2.115-13.677-30.544-22.753-40.026-.032-12.637-11.345-35.39-2.287-29.651,17.725-13.208-.039-27.435,19.381-10.161,40.982L157.23,159.2Z" transform="translate(213.898 2884.454)"/>
      <path id="Trazado_532" data-name="Trazado 532" d="M89.806,136.346C75.974,168.42,77.06,255.084,77.06,255.084a53.216,53.216,0,0,0,4.9,6.128c-.245-2.591-.385-4.2-.385-4.2,33.545,12.29,53.469-.63,53.469-.63s5.743,23.18,7.844,26.857S237.747,341.677,246.4,345.6s23.846,0,44.82,0v18.628c28.468-3.677,63.413-8.229,63.413-8.229L369.2,282.431c-21.5-81.971-36.8-149.341-69.576-167.935-32.775-18.558-90.165-28.888-90.165-28.888L161.728,99.159s-32.656,2.9-54.834,17.858" transform="translate(137.849 2980.098)" fill="#fff" stroke="#707070" stroke-width="3"/>
      <path id="Trazado_533" data-name="Trazado 533" d="M106.893,117.017c22.179-14.962,54.834-17.858,54.834-17.858l47.726-13.551s57.391,10.33,90.165,28.888c32.775,18.593,48.076,85.963,69.576,167.935L354.629,356s-34.946,4.552-63.413,8.229V345.6c-20.974,0-36.171,3.922-44.82,0S144.99,286.913,142.889,283.236s-7.844-26.857-7.844-26.857-19.924,12.921-53.469.63c0,0,.14,1.611.385,4.2a53.216,53.216,0,0,1-4.9-6.128S75.974,168.42,89.806,136.346A50.982,50.982,0,0,1,106.893,117.017Z" transform="translate(137.849 2980.098)" stroke="#020202" stroke-miterlimit="10" stroke-width="3" fill="url(#linear-gradient-2)"/>
      <path id="Trazado_540" data-name="Trazado 540" d="M215.162,89.344c-7.987,31.623-17.308,60.248-31.013,67.6-.728,5.757,2.724,5.4,4.2,15.834s-31.969,37.6-31.969,37.6l-51.62-45.639c27.7-15.148,28.849-51.431,28.849-51.431-8.652,1.334-23.226-20.722-8.519-30.282,11.958-7.77,20.172,10.645,20.172,10.645,3.659-6.324,0-12.648,0-12.648,18.306,2,13.978-14.9,13.978-14.9,23.3,9.405,32.621-6.741,32.621-6.741,4.328,15.641,17.641,9.65,17.641,9.65-3.663,17.308,5.659,20.306,5.659,20.306" transform="translate(194.816 2914.507)" fill="#fff" stroke="#707070" stroke-width="3"/>
      <path id="Trazado_541" data-name="Trazado 541" d="M215.162,89.344c-7.987,31.623-17.308,60.248-31.013,67.6-.728,5.757,2.724,5.4,4.2,15.834s-31.969,37.6-31.969,37.6l-51.62-45.639c27.7-15.148,28.849-51.431,28.849-51.431-8.652,1.334-23.226-20.722-8.519-30.282,11.958-7.77,20.172,10.645,20.172,10.645,3.659-6.324,0-12.648,0-12.648,18.306,2,13.978-14.9,13.978-14.9,23.3,9.405,32.621-6.741,32.621-6.741,4.328,15.641,17.641,9.65,17.641,9.65C205.84,86.347,215.162,89.344,215.162,89.344Z" transform="translate(194.816 2914.507)" fill="none" stroke="#000" stroke-miterlimit="10" stroke-width="3"/>
      <path id="Trazado_542" data-name="Trazado 542" d="M159.2,111.538s-33.867,15.757-45.587-34" transform="translate(219.759 2959.911)" fill="none" stroke="#000" stroke-miterlimit="10" stroke-width="3"/>
      <path id="Trazado_543" data-name="Trazado 543" d="M134.762,82.366c1.1-8.155-4.692-14.5-7.851-14.5" transform="translate(197.515 2935.715)" fill="none" stroke="#000" stroke-miterlimit="10" stroke-width="3"/>
      <path id="Trazado_544" data-name="Trazado 544" d="M119.7,72.973c-2.7-5.389-8.663-6.159-13.285-3.081" transform="translate(284.472 2936.281)" fill="none" stroke="#000" stroke-miterlimit="10" stroke-width="3"/>
      <path id="Trazado_545" data-name="Trazado 545" d="M131.716,71.2c-3.274-6.159-11.744-6.544-17.326-1.733" transform="translate(244.545 2931.507)" fill="none" stroke="#000" stroke-miterlimit="10" stroke-width="3"/>
      <path id="Trazado_546" data-name="Trazado 546" d="M108.336,75.29c.35-2.241,2.1-3.824,3.911-3.54s2.99,2.329,2.64,4.57-2.1,3.824-3.911,3.54-2.99-2.329-2.64-4.57" transform="translate(282.726 2945.348)" stroke="#000" stroke-width="1"/>
      <path id="Trazado_547" data-name="Trazado 547" d="M117.095,73.748c.35-2.237,2.1-3.824,3.911-3.54s2.99,2.329,2.64,4.57-2.1,3.824-3.911,3.54-2.99-2.329-2.64-4.57" transform="translate(243.297 2941.49)" stroke="#000" stroke-width="1"/>
      <path id="Trazado_548" data-name="Trazado 548" d="M142.575,196.411l4.734-86.324c0,1.092-4.734,86.324-4.734,86.324" transform="translate(130.26 3041.334)" fill="#fff" stroke="#707070" stroke-width="3"/>
      <path id="Trazado_549" data-name="Trazado 549" d="M142.575,196.411l4.734-86.324C147.309,111.179,142.575,196.411,142.575,196.411Z" transform="translate(130.26 3041.334)" fill="none" stroke="#fff" stroke-miterlimit="10" stroke-width="3"/>
      <path id="Trazado_550" data-name="Trazado 550" d="M95.927,175.492V114.663c.364,1.092,0,60.829,0,60.829" transform="translate(344.822 3052.781)" fill="#fff" stroke="#707070" stroke-width="3"/>
      <path id="Trazado_551" data-name="Trazado 551" d="M95.927,175.492V114.663C96.291,115.755,95.927,175.492,95.927,175.492Z" transform="translate(344.822 3052.781)" fill="none" stroke="#fff" stroke-miterlimit="10" stroke-width="3"/>
      <path id="Trazado_552" data-name="Trazado 552" d="M99.7,139.21c-.245-2.591-.385-4.2-.385-4.2,33.545,12.29,53.469-.63,53.469-.63s5.743,23.18,7.844,26.857S255.48,219.676,264.128,223.6s23.846,0,44.82,0v43.77s-56.06-7.073-64.464-10.75C236.116,252.941,113.7,186.9,108.2,180.178c-4.377-5.357-7.423-30.814-8.509-40.968" transform="translate(120.116 3102.099)" fill="#fff" stroke="#707070" stroke-width="3"/>
      <path id="Trazado_553" data-name="Trazado 553" d="M99.7,139.21c-.245-2.591-.385-4.2-.385-4.2,33.545,12.29,53.469-.63,53.469-.63s5.743,23.18,7.844,26.857S255.48,219.676,264.128,223.6s23.846,0,44.82,0v43.77s-56.06-7.073-64.464-10.75C236.116,252.941,113.7,186.9,108.2,180.178,103.827,174.821,100.781,149.365,99.7,139.21Z" transform="translate(120.116 3102.099)" fill="none" stroke="#000" stroke-miterlimit="10" stroke-width="3"/>
      <path id="Trazado_554" data-name="Trazado 554" d="M72.367,132.035H245.418l-24.8,128.934H47.566Z" transform="translate(364.831 3096.238)" fill="#fff" stroke="#000" stroke-width="3"/>
      <path id="Trazado_555" data-name="Trazado 555" d="M72.367,132.035H245.418l-24.8,128.934H47.566Z" transform="translate(364.831 3096.238)" fill="none" stroke="#000" stroke-miterlimit="10" stroke-width="3"/>
      <path id="Trazado_557" data-name="Trazado 557" d="M88.243,147.038a17.963,17.963,0,1,0,13.8,29.483L88.243,165l15.617-8.894A18,18,0,0,0,88.243,147.038Z" transform="translate(424.253 3127.739)" fill="none" stroke="#000" stroke-miterlimit="10" stroke-width="3"/>
      <path id="Trazado_558" data-name="Trazado 558" d="M115.744,168.857H289.589l-61.1,24.108H54.648Z" transform="translate(295.86 3188.349)" fill="#fff" stroke="#000" stroke-width="3"/>
      <path id="Trazado_559" data-name="Trazado 559" d="M115.744,168.857H289.589l-61.1,24.108H54.648Z" transform="translate(295.86 3188.349)" fill="none" stroke="#000" stroke-miterlimit="10" stroke-width="3"/>
      <path id="Trazado_560" data-name="Trazado 560" d="M123.229,217.865c4.083-6.128,32.263-5.308,47.376-3.677s53.5-6.124,69.289-9.829l9.944,39.235s-65.994,14.045-90.26,14.3c-31.041.322-40.433-33.9-36.35-40.026" transform="translate(98.627 3277.161)"/>
      <path id="Trazado_561" data-name="Trazado 561" d="M63.414,349.971s-24.5-19.605-25.05-46.833c0,0,211.554-131.291,269.417-138.343a51.722,51.722,0,0,1,41.581,14.066l12.063,22.221c1.677,10.186-.98,21.57-9.941,32.9-28.86,36.483-288.07,115.989-288.07,115.989" transform="translate(280.573 3177.3)" fill="#fff" stroke="#707070" stroke-width="3"/>
      <path id="Trazado_562" data-name="Trazado 562" d="M63.414,349.971s-24.5-19.605-25.05-46.833c0,0,211.554-131.291,269.417-138.343a51.722,51.722,0,0,1,41.581,14.066l12.063,22.221c1.677,10.186-.98,21.57-9.941,32.9C322.624,270.464,63.414,349.971,63.414,349.971Z" transform="translate(280.573 3177.3)" fill="none" stroke="#000" stroke-miterlimit="10" stroke-width="3"/>
      <path id="Trazado_563" data-name="Trazado 563" d="M150.8,271c-17.966.385-39.41-1.933-45.786-18.163s-38.255-34.2-38.255-34.2l40.755-30.425c24.739,21.153,49.393,33.948,71.106,40.86s56.221,12.171,59.117,23.184S228.6,273.7,202.161,278.916,168.767,270.611,150.8,271" transform="translate(304.883 3236.768)"/>
      <path id="Trazado_564" data-name="Trazado 564" d="M129.521,72.007c-3.116,9.976-2.493,23.9-2.493,23.9s-11.751-1.789-15.225-4.531" transform="translate(255.798 2946.074)" fill="none" stroke="#000" stroke-miterlimit="10" stroke-width="3"/>
      <path id="Trazado_565" data-name="Trazado 565" d="M128.091,87.949c-5.4,1.331-11.622-1.992-12.252-7.812" transform="translate(243.096 2966.412)" fill="none" stroke="#000" stroke-miterlimit="10" stroke-width="3"/>
      <path id="Trazado_566" data-name="Trazado 566" d="M216.792,349.864l-12.571-3.572s-68.385-61.347-89.5-93.036c-7.616-11.429-12.812-26.584-14.041-41.809l2.539-27.158c4.874-16.2,16.373-29.483,36.924-34.119,47.271-10.645,160.021,93.527,200.534,130.783,1.541,1.471,2.976,2.766,4.307,3.992-3.992,16.6-34.665,49.267-39.708,50.282-4.237.805-25.281-11.03-32-14.917-1.3-.735-2.066-1.191-2.066-1.191l-1.891,3.572c-18.243,10.96-29.658,18.033-29.658,18.033a50.073,50.073,0,0,0,.385,5.182c-7.388,1.436-15.512,2.871-23.25,3.957" transform="translate(79.283 3139.706)" fill="#fff" stroke="#707070" stroke-width="3"/>
      <path id="Trazado_567" data-name="Trazado 567" d="M216.792,349.864l-12.571-3.572s-68.385-61.347-89.5-93.036c-7.616-11.429-12.812-26.584-14.041-41.809l2.539-27.158c4.874-16.2,16.373-29.483,36.924-34.119,47.271-10.645,160.021,93.527,200.534,130.783,1.541,1.471,2.976,2.766,4.307,3.992-3.992,16.6-34.665,49.267-39.708,50.282-4.237.805-25.281-11.03-32-14.917-1.3-.735-2.066-1.191-2.066-1.191l-1.891,3.572c-18.243,10.96-29.658,18.033-29.658,18.033a50.073,50.073,0,0,0,.385,5.182C232.654,347.343,224.53,348.779,216.792,349.864Z" transform="translate(79.283 3139.706)" fill="none" stroke="#000" stroke-miterlimit="10" stroke-width="3"/>
      <path id="Trazado_568" data-name="Trazado 568" d="M121.745,174.9l131.081,80.448S165.276,204.57,121.745,174.9" transform="translate(97.681 3203.48)" fill="#fff" stroke="#707070" stroke-width="3"/>
      <path id="Trazado_569" data-name="Trazado 569" d="M121.745,174.9l131.081,80.448S165.276,204.57,121.745,174.9Z" transform="translate(97.681 3203.48)" fill="none" stroke="#000" stroke-miterlimit="10" stroke-width="3"/>
    </g>
  </g>
</svg>
