<svg xmlns="http://www.w3.org/2000/svg" xmlns:xlink="http://www.w3.org/1999/xlink" width="103.402" height="103.292" viewBox="0 0 103.402 103.292">
  <defs>
    <linearGradient id="linear-gradient" x1="0.278" y1="0.24" x2="0.875" y2="0.921" gradientUnits="objectBoundingBox">
      <stop offset="0" stop-color="#00e0ee"/>
      <stop offset="0.478" stop-color="#ad26fb"/>
      <stop offset="1" stop-color="#0740db"/>
    </linearGradient>
  </defs>
  <path id="Unión_16" data-name="Unión 16" d="M-3363.48,103.292a3.523,3.523,0,0,1-3.52-3.519V62.092a3.523,3.523,0,0,1,3.52-3.519h12.522a3.524,3.524,0,0,1,3.521,3.519v4.736a9.364,9.364,0,0,0,6.409-4.1l0,0,.508-.746a16.97,16.97,0,0,1,14.164-7.593h21.462a7.751,7.751,0,0,1,5.657,2.474,7.6,7.6,0,0,1,2.027,5.8v.013a7.946,7.946,0,0,1-8.038,7.129h-5.926a4.861,4.861,0,0,0-4.856,4.854,4.861,4.861,0,0,0,4.856,4.854l20.551-.023,16.476-10.96a6.7,6.7,0,0,1,3.726-1.138,6.933,6.933,0,0,1,3.994,1.287,6.645,6.645,0,0,1,2.513,3.464,6.759,6.759,0,0,1-2.239,7.34l-16.221,12.933A11.563,11.563,0,0,1-3289.5,94.9l-57.936.021v4.856a3.524,3.524,0,0,1-3.521,3.519Zm-.668-14.009v10.49a.668.668,0,0,0,.668.668h12.522a.669.669,0,0,0,.668-.668V89.283a6.935,6.935,0,0,0-6.929-6.925A6.935,6.935,0,0,0-3364.148,89.283Zm26-25.713,0,0-.507.743a12.322,12.322,0,0,1-3.952,3.765,12.313,12.313,0,0,1-4.826,1.632V92.066l57.936-.023a8.7,8.7,0,0,0,5.356-1.87l16.242-12.949a3.909,3.909,0,0,0,1.268-4.238,3.83,3.83,0,0,0-1.462-2.008,4.041,4.041,0,0,0-2.313-.737,3.875,3.875,0,0,0-2.157.656L-3289.4,82.1a1.428,1.428,0,0,1-.787.237l-20.983.023a7.715,7.715,0,0,1-7.708-7.706,7.715,7.715,0,0,1,7.708-7.706h5.926A5.517,5.517,0,0,0-3301.9,65.8a4.9,4.9,0,0,0,1.854-3.4,4.753,4.753,0,0,0-1.28-3.61,4.884,4.884,0,0,0-3.563-1.557h-21.462A14.131,14.131,0,0,0-3338.15,63.57Zm-26-1.478V82.446a9.677,9.677,0,0,1,6.929-2.94,9.683,9.683,0,0,1,6.929,2.938V62.092a.669.669,0,0,0-.668-.668h-12.522A.669.669,0,0,0-3364.148,62.092Zm1.334,27.217A5.62,5.62,0,0,1-3357.2,83.7a5.62,5.62,0,0,1,5.614,5.613,5.619,5.619,0,0,1-5.614,5.612A5.619,5.619,0,0,1-3362.814,89.308Zm2.852,0a2.765,2.765,0,0,0,2.763,2.761,2.764,2.764,0,0,0,2.761-2.761,2.764,2.764,0,0,0-2.761-2.761A2.765,2.765,0,0,0-3359.962,89.308Zm59.177-11.85,0,0c-2.755-1.167-5.306-2.378-7.584-3.6l-.334-.179,1.349-2.515.334.179c2.192,1.177,4.66,2.348,7.334,3.482a2.886,2.886,0,0,0,1.077.206,2.958,2.958,0,0,0,1.075-.2,67.583,67.583,0,0,0,13.687-7.358,43.683,43.683,0,0,0,9.684-9.3,37.156,37.156,0,0,0,5.763-11.317,45.462,45.462,0,0,0,1.912-13.445V16.268a2.772,2.772,0,0,0-2.635-2.743,11.788,11.788,0,0,1-10.623-10.1v0a.632.632,0,0,0-.623-.569h-36.393a.63.63,0,0,0-.617.557v0A11.789,11.789,0,0,1-3328,13.5a2.822,2.822,0,0,0-2.623,2.743l-.018,17.169a42.864,42.864,0,0,0,3.515,17.769l.156.345-2.6,1.175-.156-.345a45.643,45.643,0,0,1-3.771-18.946l.019-17.166a5.648,5.648,0,0,1,5.287-5.588,8.909,8.909,0,0,0,7.985-7.669,3.457,3.457,0,0,1,3.44-2.99h36.393a3.463,3.463,0,0,1,3.445,3,8.907,8.907,0,0,0,7.977,7.677,5.621,5.621,0,0,1,5.313,5.588V33.413a48.681,48.681,0,0,1-2.026,14.32,39.707,39.707,0,0,1-6.125,12.087,46.264,46.264,0,0,1-10.264,9.892,70.889,70.889,0,0,1-14.428,7.768l-.005,0a5.825,5.825,0,0,1-2.127.4A5.7,5.7,0,0,1-3300.785,77.458Zm2.244-9.027.347-.151a58.331,58.331,0,0,0,11.315-6.358,36.493,36.493,0,0,0,7.915-7.818,31.1,31.1,0,0,0,4.659-9.439,39.416,39.416,0,0,0,1.531-11.252V19.743a.625.625,0,0,0-.4-.6,18.213,18.213,0,0,1-11.158-9.555l0,0a.7.7,0,0,0-.623-.454h-27.2a.717.717,0,0,0-.635.44l0,0a18.151,18.151,0,0,1-11.148,9.548.638.638,0,0,0-.4.62l-.019,13.672c0,6.833,1.352,12.577,4.131,17.558l.185.331-2.49,1.389-.185-.331c-3.024-5.415-4.493-11.614-4.493-18.95l.019-13.672a3.483,3.483,0,0,1,2.448-3.354,15.266,15.266,0,0,0,9.379-8.044,3.535,3.535,0,0,1,3.21-2.062h27.2a3.526,3.526,0,0,1,3.194,2.072,15.349,15.349,0,0,0,9.393,8.057,3.468,3.468,0,0,1,2.45,3.334v13.67a42.686,42.686,0,0,1-1.638,12.111,33.6,33.6,0,0,1-5,10.2,39.024,39.024,0,0,1-8.472,8.405,61.569,61.569,0,0,1-12.024,6.77l-.347.151Zm-.966-19.862-10.052-10.05a7.529,7.529,0,0,1-2.221-5.36,7.53,7.53,0,0,1,2.221-5.36,7.534,7.534,0,0,1,5.362-2.22,7.534,7.534,0,0,1,5.362,2.22l.268.267.267-.267a7.532,7.532,0,0,1,5.362-2.221,7.531,7.531,0,0,1,5.361,2.221,7.528,7.528,0,0,1,2.221,5.36,7.529,7.529,0,0,1-2.222,5.361l-10.051,10.049a1.324,1.324,0,0,1-.938.388A1.324,1.324,0,0,1-3299.507,48.569Zm-8.176-18.894a4.894,4.894,0,0,0-1.444,3.484,4.894,4.894,0,0,0,1.444,3.484l9.115,9.112,9.114-9.112a4.893,4.893,0,0,0,1.444-3.484,4.893,4.893,0,0,0-1.444-3.484,4.894,4.894,0,0,0-3.485-1.444,4.9,4.9,0,0,0-3.486,1.443l-1.2,1.205a1.327,1.327,0,0,1-1.877,0l-1.2-1.2a4.9,4.9,0,0,0-3.486-1.443A4.9,4.9,0,0,0-3307.683,29.675Z" transform="translate(3367)" fill="url(#linear-gradient)"/>
</svg>
