<svg xmlns="http://www.w3.org/2000/svg" xmlns:xlink="http://www.w3.org/1999/xlink" width="260" height="260" viewBox="0 0 260 260">
  <defs>
    <linearGradient id="linear-gradient" x1="0.052" x2="1" y2="0.953" gradientUnits="objectBoundingBox">
      <stop offset="0" stop-color="#00e0ee"/>
      <stop offset="0.478" stop-color="#ad26fb"/>
      <stop offset="1" stop-color="#0740db"/>
    </linearGradient>
  </defs>
  <g id="Grupo_398" data-name="Grupo 398" transform="translate(-416 -4978.719)">
    <g id="Elipse_58" data-name="Elipse 58" transform="translate(416 4978.719)" fill="none" stroke="#1147d7" stroke-width="3">
      <circle cx="130" cy="130" r="130" stroke="none"/>
      <circle cx="130" cy="130" r="128.5" fill="none"/>
    </g>
    <g id="Grupo_370" data-name="Grupo 370" transform="translate(463.906 4767.361)">
      <path id="Unión_21" data-name="Unión 21" d="M-8345.765-2582.857l-60.2-34.6a2.569,2.569,0,0,1-1.251-2.8,2.563,2.563,0,0,1,2.334-2v0a2.554,2.554,0,0,1,1.471.348l60.2,34.6a2.568,2.568,0,0,1,.945,3.5,2.563,2.563,0,0,1-2.226,1.287A2.549,2.549,0,0,1-8345.765-2582.857Zm0-11.553-46.1-26.633a2.566,2.566,0,0,1-1.229-2.942,2.563,2.563,0,0,1,2.583-1.87v0a2.553,2.553,0,0,1,1.21.359l46.1,26.646a2.569,2.569,0,0,1,1.373,2.237,2.57,2.57,0,0,1-1.312,2.273,2.578,2.578,0,0,1-1.254.326A2.556,2.556,0,0,1-8345.767-2594.41Zm-88.367-27.613a20.567,20.567,0,0,1-7.508-28.035,20.551,20.551,0,0,1,28.024-7.512,20.565,20.565,0,0,1,7.508,28.035,20.541,20.541,0,0,1-17.813,10.251A20.367,20.367,0,0,1-8434.134-2622.023Zm-3.067-25.469a15.358,15.358,0,0,0,5.631,21.027,15.349,15.349,0,0,0,21.021-5.636,15.358,15.358,0,0,0-5.632-21.025,15.367,15.367,0,0,0-7.705-2.077A15.348,15.348,0,0,0-8437.2-2647.493Zm91.435,26.146-6.6-3.808a2.562,2.562,0,0,1-1.229-2.935,2.566,2.566,0,0,1,2.572-1.874v0a2.567,2.567,0,0,1,1.221.359l6.6,3.819a2.567,2.567,0,0,1,1.373,2.237,2.573,2.573,0,0,1-1.314,2.273,2.563,2.563,0,0,1-1.251.326A2.567,2.567,0,0,1-8345.767-2621.346ZM-8429-2630.91a10.3,10.3,0,0,1-3.755-14.017,10.3,10.3,0,0,1,14.012-3.757,10.3,10.3,0,0,1,3.756,14.017,10.289,10.289,0,0,1-8.92,5.121A10.156,10.156,0,0,1-8429-2630.91Zm.688-11.453a5.091,5.091,0,0,0,1.876,7.008,5.089,5.089,0,0,0,7.007-1.876,5.092,5.092,0,0,0-1.879-7.008,5.153,5.153,0,0,0-2.586-.7A5.088,5.088,0,0,0-8428.316-2642.363Zm82.4,8.2-32.456-18.559a2.562,2.562,0,0,1-1.274-2.559,2.563,2.563,0,0,1,1.887-2.152l25.965-6.9v-.006a7.729,7.729,0,0,1,5.819.762c.049.032.094.064.141.1l2.765,1.812a2.569,2.569,0,0,1,.732,3.556,2.569,2.569,0,0,1-3.557.734l-2.626-1.733a2.615,2.615,0,0,0-1.964-.262l-19.915,5.3,27.028,15.451a2.569,2.569,0,0,1,.956,3.5,2.563,2.563,0,0,1-2.231,1.3A2.558,2.558,0,0,1-8345.916-2634.161Zm-134.022-5.008a12.363,12.363,0,0,1-7.265-12.776,12.212,12.212,0,0,1,8.046-10.08l.051-3.7a7.744,7.744,0,0,1-5.24-7.289,7.745,7.745,0,0,1,5.232-7.287l.019-9.943h-26.921v-5.132h32.058a1.244,1.244,0,0,0,1.28-1.283v-2.564a1.244,1.244,0,0,0-1.28-1.283h-32.058v-5.13l32.058,0a6.452,6.452,0,0,1,6.41,6.413v2.566a6.453,6.453,0,0,1-6.41,6.415h-.008l-.02,10.017a7.745,7.745,0,0,1,5.024,7.212,7.743,7.743,0,0,1-5.021,7.211l-.106,5.766a2.565,2.565,0,0,1-2.113,2.476,7.2,7.2,0,0,0-5.911,6.242,7.2,7.2,0,0,0,4.248,7.465,7.186,7.186,0,0,0,8.375-1.883c2.223-2.694,6.219.747,3.888,3.347a12.356,12.356,0,0,1-9.358,4.277A12.292,12.292,0,0,1-8479.938-2639.169Zm.72-33.85a2.528,2.528,0,0,0,2.565,2.566,2.527,2.527,0,0,0,2.563-2.566,2.527,2.527,0,0,0-2.563-2.564A2.527,2.527,0,0,0-8479.219-2673.02Zm27.979,29.246-11.079-6.394a7.721,7.721,0,0,1-3.407-4.167,7.751,7.751,0,0,1,.583-6.323h.009a7.667,7.667,0,0,1,4.679-3.567v-.021a7.766,7.766,0,0,1,3.393-.143l6.643-11.491a18.751,18.751,0,0,1,17.861-9.28l0,0a18.573,18.573,0,0,1,6.9,2l27.137,13.989a19.39,19.39,0,0,0,13.144,1.684l28.62-6.455a23.009,23.009,0,0,1,8.554-.3,22.919,22.919,0,0,1,4.147,1.031,2.566,2.566,0,0,1,1.757,1.943,2.565,2.565,0,0,1-.864,2.474,2.561,2.561,0,0,1-2.585.423,16.868,16.868,0,0,0-3.226-.8h-.011a17.856,17.856,0,0,0-6.642.23l-28.631,6.464a24.487,24.487,0,0,1-16.618-2.135l-27.137-13.989a13.535,13.535,0,0,0-17.973,5.281l-6.412,11.107,6.623,3.823a2.568,2.568,0,0,1,.941,3.507,2.565,2.565,0,0,1-3.5.941l-8.854-5.121a2.52,2.52,0,0,0-3.486.943,2.293,2.293,0,0,0-.211,2.064,3.075,3.075,0,0,0,1.142,1.443l11.068,6.393a2.565,2.565,0,0,1,1.373,2.237,2.564,2.564,0,0,1-1.313,2.273,2.563,2.563,0,0,1-1.252.326A2.548,2.548,0,0,1-8451.239-2643.774Z" transform="translate(8506.016 2995.234)" fill="url(#linear-gradient)"/>
    </g>
  </g>
</svg>
