<svg xmlns="http://www.w3.org/2000/svg" xmlns:xlink="http://www.w3.org/1999/xlink" width="30.5" height="30.5" viewBox="0 0 30.5 30.5">
  <defs>
    <linearGradient id="linear-gradient" x1="0.19" y1="0.166" x2="0.895" y2="0.928" gradientUnits="objectBoundingBox">
      <stop offset="0" stop-color="#00e0ee"/>
      <stop offset="0.478" stop-color="#ad26fb"/>
      <stop offset="1" stop-color="#0740db"/>
    </linearGradient>
  </defs>
  <path id="Unión_19" data-name="Unión 19" d="M-3364.8,30.5a.7.7,0,0,1-.7-.7V27.292q0-.153.016-.3h-.822a.7.7,0,0,1-.7-.7V8.226a.7.7,0,0,1,.7-.7h7.328V.7a.7.7,0,0,1,.7-.7h13.045a.7.7,0,0,1,.7.7V7.526h7.328a.7.7,0,0,1,.7.7V26.289a.7.7,0,0,1-.7.7h-.822a2.985,2.985,0,0,1,.016.3V29.8a.7.7,0,0,1-.7.7Zm23.261-4.985c-.03.006-.055.012-.082.019l-.02,0a1.833,1.833,0,0,0-.218.068l-.041.015a.459.459,0,0,0-.049.019,1.8,1.8,0,0,0-.267.145l-.027.021-.035.027a1.872,1.872,0,0,0-.177.147c-.029.027-.057.057-.084.085-.042.046-.085.1-.125.152l0,0c-.026.034-.048.061-.067.091a1.785,1.785,0,0,0-.293.98V29.1h3.618V27.292a1.782,1.782,0,0,0-.293-.977l0,0c-.012-.019-.029-.041-.045-.063l-.023-.031a1.95,1.95,0,0,0-.126-.154c-.028-.029-.055-.058-.082-.082a1.812,1.812,0,0,0-.178-.147l-.036-.029-.027-.021a1.788,1.788,0,0,0-.265-.144.447.447,0,0,0-.053-.021l-.04-.015a1.914,1.914,0,0,0-.218-.068l-.1-.022a1.627,1.627,0,0,0-.324-.033A1.6,1.6,0,0,0-3341.534,25.515Zm-6.505.272V29.1h3.618V25.787a1.848,1.848,0,0,0-.033-.323c-.006-.03-.014-.062-.022-.1a2,2,0,0,0-.068-.222c0-.009-.009-.023-.014-.036s-.013-.036-.02-.049l0,0a1.836,1.836,0,0,0-.143-.265l-.021-.027-.028-.035a1.771,1.771,0,0,0-.147-.178c-.026-.027-.053-.054-.083-.083-.049-.044-.1-.086-.153-.125l0,0a1.056,1.056,0,0,0-.09-.066,1.789,1.789,0,0,0-.98-.294A1.811,1.811,0,0,0-3348.039,25.787Zm-6.021,0V29.1h4.622V25.787a2.313,2.313,0,0,0-2.311-2.311A2.313,2.313,0,0,0-3354.061,25.787Zm-4.185-1.517,0,0c-.018.011-.037.026-.058.042l-.037.027c-.051.039-.1.081-.153.126-.029.028-.057.055-.082.081a1.827,1.827,0,0,0-.147.178l-.03.039a.227.227,0,0,0-.019.025,1.855,1.855,0,0,0-.144.265.452.452,0,0,0-.021.053l-.015.04a1.834,1.834,0,0,0-.068.218c-.009.037-.017.068-.022.1a1.826,1.826,0,0,0-.032.326V29.1h3.617V25.787a1.811,1.811,0,0,0-1.808-1.809A1.783,1.783,0,0,0-3358.246,24.27Zm-4.362,1.245c-.03.006-.056.012-.081.019l-.021,0a1.791,1.791,0,0,0-.218.068l-.04.015-.051.019a1.8,1.8,0,0,0-.265.145l-.025.019-.039.03a1.751,1.751,0,0,0-.176.145c-.029.028-.059.058-.082.084a1.642,1.642,0,0,0-.125.152l-.005.006a1.077,1.077,0,0,0-.067.091,1.785,1.785,0,0,0-.292.978V29.1h3.618V27.292a1.776,1.776,0,0,0-.293-.977l0,0a.731.731,0,0,0-.045-.063l-.023-.031c-.041-.055-.083-.106-.126-.154l-.008-.008c-.026-.027-.05-.052-.073-.074a1.689,1.689,0,0,0-.178-.147l-.037-.029a.3.3,0,0,0-.027-.021,1.738,1.738,0,0,0-.264-.143l-.054-.022-.038-.014a1.958,1.958,0,0,0-.219-.068l-.1-.022a1.622,1.622,0,0,0-.324-.033A1.6,1.6,0,0,0-3362.607,25.515Zm-2.993.074h.6c.046-.073.1-.145.148-.215l.045-.061a3.254,3.254,0,0,1,.541-.54l.012-.009c.021-.014.041-.029.061-.044.05-.037.1-.073.154-.107a2.217,2.217,0,0,1,.2-2.91,2.19,2.19,0,0,1,1.547-.635,2.191,2.191,0,0,1,1.547.635,2.216,2.216,0,0,1,.207,2.908l.009.006,0,0,.108.079.029.022.073.053c.009-.026.017-.049.025-.071l.014-.036c.022-.057.044-.116.071-.175.014-.035.03-.066.043-.093l.009-.017c.033-.067.061-.123.094-.18.021-.037.043-.072.065-.107s.066-.1.1-.158c.027-.039.055-.076.08-.107.039-.051.078-.1.118-.145.026-.029.055-.061.088-.1a1.711,1.711,0,0,1,.139-.135c.03-.029.059-.056.088-.081.051-.044.105-.088.166-.134l.029-.021c.018-.014.036-.028.054-.041s.065-.046.1-.07c-.042-.055-.083-.113-.121-.173l0-.006c-.013-.024-.026-.047-.038-.071l-.019-.036a2.1,2.1,0,0,1-.119-.244,1.109,1.109,0,0,1-.043-.129c0-.014-.008-.028-.012-.041v0c0-.017-.01-.034-.016-.051a1.656,1.656,0,0,1-.043-.163,2.04,2.04,0,0,1,0-.829,1.624,1.624,0,0,1,.043-.161l.015-.05,0-.006c.007-.019.011-.036.016-.054.011-.035.022-.072.037-.111v0a2.234,2.234,0,0,1,.118-.242l.011-.022c.014-.029.029-.058.048-.088a2.364,2.364,0,0,1,.168-.232V8.926h-6.628Zm25.933-3.887a2.215,2.215,0,0,1,.205,2.91c.049.033.1.067.148.1.029.019.055.039.079.057a3.278,3.278,0,0,1,.542.54l.045.061c.052.07.1.142.148.216h.6V8.926h-6.629V20.385a2.217,2.217,0,0,1,.167.23l0,0c.016.026.029.051.04.073s.011.023.018.034a2.192,2.192,0,0,1,.118.245,1,1,0,0,1,.043.125c0,.015.009.03.013.044v0c0,.017.01.034.015.05.015.048.032.1.044.163a2.07,2.07,0,0,1,0,.83,1.59,1.59,0,0,1-.043.162c-.005.016-.01.033-.015.05l0,.006c-.006.018-.011.036-.016.053-.011.036-.022.073-.038.113a2.182,2.182,0,0,1-.119.245l-.011.022c-.014.028-.03.058-.049.09-.038.059-.078.118-.122.173.038.025.073.048.106.073s.051.037.076.056l0,0c.054.039.106.081.168.136l0,0,.036.033.049.045c.052.048.1.093.139.139s.06.063.088.1.078.093.118.145l0,.006.031.041c.015.019.029.037.043.056.038.054.073.107.106.159l.019.031c.016.026.031.051.046.078.038.064.07.13.095.18l0,0,.018.038c.011.022.021.043.03.066.03.066.055.132.078.194l0,0,.014.039.017.047.051-.038.016-.011c.039-.031.092-.071.148-.108l.007,0a2.217,2.217,0,0,1,.206-2.909,2.194,2.194,0,0,1,1.547-.634A2.19,2.19,0,0,1-3339.667,21.7Zm-2.352,1.576a.807.807,0,0,0,.806.806.807.807,0,0,0,.806-.806.806.806,0,0,0-.806-.8A.806.806,0,0,0-3342.019,23.278Zm-21.073,0a.807.807,0,0,0,.806.806.807.807,0,0,0,.805-.806.806.806,0,0,0-.805-.8A.806.806,0,0,0-3363.092,23.278Zm13.884-3.452a2.717,2.717,0,0,1-.6,2.809l.008,0c.091.056.183.119.274.188l.033.024.055.041a3.636,3.636,0,0,1,.321.288c.013.013.026.027.039.042l.011.013a3.377,3.377,0,0,1,.237.276c.025.032.05.066.075.1s.049.069.073.1l.015-.017c.024-.029.048-.054.073-.081l.013-.014c.047-.051.1-.1.153-.154.032-.03.063-.059.1-.087.049-.043.1-.088.173-.14l.024-.018c.023-.018.047-.036.071-.053s.052-.036.08-.053a2.2,2.2,0,0,1-.143-.215,1.9,1.9,0,0,1-.093-.17,2.3,2.3,0,0,1-.1-.252l0-.011c-.018-.051-.036-.1-.052-.163a2.351,2.351,0,0,1-.044-.283c0-.016,0-.032-.006-.048a1,1,0,0,1-.011-.127v0a.308.308,0,0,1-.005-.056v-.009a2.25,2.25,0,0,1,.023-.229.362.362,0,0,0,0-.036.748.748,0,0,1,.009-.108.294.294,0,0,1,.011-.045v0c0-.016.007-.031.011-.046a.2.2,0,0,0,.005-.02,2.143,2.143,0,0,1,.1-.324l0-.009c.009-.024.019-.046.03-.069a2.23,2.23,0,0,1,.169-.312l0-.007a.226.226,0,0,1,.015-.024,2.312,2.312,0,0,1,.26-.316l.007-.007.012-.01h0a2.322,2.322,0,0,1,.284-.235l.067-.044a2.2,2.2,0,0,1,.3-.16l.015-.007.046-.021a2.072,2.072,0,0,1,.369-.118l.021,0h.013a2.258,2.258,0,0,1,.434-.044.245.245,0,0,1,.04,0,.592.592,0,0,1,.073.007l.032,0c.053,0,.106.008.159.014V1.4h-11.645V19.6c.055-.006.11-.012.165-.015l.024,0a.539.539,0,0,1,.076-.008.265.265,0,0,1,.038,0,2.243,2.243,0,0,1,.437.047h.01l.023,0a2.115,2.115,0,0,1,.371.118l.043.02.017.009a2.233,2.233,0,0,1,.293.159l.066.044a2.043,2.043,0,0,1,.281.232l.015.013.007.007a2.3,2.3,0,0,1,.259.313c.006.008.012.019.019.031l0,0a2.2,2.2,0,0,1,.169.312c.011.024.021.051.032.076a2.057,2.057,0,0,1,.1.324c0,.006,0,.013.005.019s.008.029.01.043a.249.249,0,0,1,.014.059.819.819,0,0,1,.007.1.29.29,0,0,0,0,.036c.011.075.019.15.023.226v.01a.372.372,0,0,1-.005.056v0c0,.046-.007.088-.011.125,0,.016,0,.034-.006.051a2.332,2.332,0,0,1-.044.278l0,.007c-.015.06-.035.118-.054.172a2.233,2.233,0,0,1-.1.249c-.031.067-.064.123-.095.175a2.331,2.331,0,0,1-.142.212l.082.055.058.043.032.024,0,0c.049.037.112.086.173.14.033.028.064.057.094.086.046.044.1.1.153.154l.013.014c.023.026.048.052.071.079l.016.019c.024-.035.047-.068.071-.1s.046-.063.069-.093l.009-.011c.076-.1.156-.19.237-.276l.019-.02.029-.032a3.746,3.746,0,0,1,.323-.289l.057-.043.031-.023c.093-.069.182-.13.274-.188l.008,0a2.717,2.717,0,0,1-.6-2.809,2.716,2.716,0,0,1,2.542-1.779A2.715,2.715,0,0,1-3349.208,19.825Zm2.812,1.158-.027.009h0a.768.768,0,0,0-.169.064l-.017.009-.035.019a.823.823,0,0,0-.158.122h0c-.007.009-.014.019-.022.027a.817.817,0,0,0-.1.139l0,.006c-.009.016-.018.033-.027.051v0a.744.744,0,0,0-.062.183c0,.006,0,.023,0,.039s0,.025,0,.038V21.7c0,.03-.006.061-.006.091,0,.013,0,.028,0,.045s0,.021,0,.032a.811.811,0,0,0,.014.088c.006.023.014.047.023.073l0,.006c.008.024.018.05.03.078a.715.715,0,0,0,.038.068q.022.036.048.073l0,0a.6.6,0,0,0,.046.056.745.745,0,0,0,.065.062l0,0a.442.442,0,0,0,.055.046.755.755,0,0,0,.076.046c.014.006.03.016.045.024l.022.013a.916.916,0,0,0,.1.034h.006l.03.01.021.007a.905.905,0,0,0,.17.019.8.8,0,0,0,.495-.174l.039-.037a.8.8,0,0,0,.248-.418l0-.007s0-.009,0-.012a.777.777,0,0,0,0-.309.223.223,0,0,1-.008-.031.8.8,0,0,0-.248-.412.889.889,0,0,0-.253-.157l-.018-.006-.029-.009a.805.805,0,0,0-.128-.029l-.017,0-.042,0h-.011l-.051,0A.777.777,0,0,0-3346.4,20.983Zm-10.908-.011-.063.007h-.006a.781.781,0,0,0-.134.029l-.02.006-.021.006a.866.866,0,0,0-.257.158.806.806,0,0,0-.248.418.092.092,0,0,1,0,.01h0a.769.769,0,0,0,0,.316.223.223,0,0,1,.008.031.8.8,0,0,0,.247.411l.059.053a.8.8,0,0,0,.475.159.857.857,0,0,0,.17-.018l.019-.006.034-.011a.825.825,0,0,0,.105-.036.307.307,0,0,0,.033-.018l.028-.016a.934.934,0,0,0,.082-.048c.015-.011.031-.026.051-.042l.006-.006a.84.84,0,0,0,.067-.063c.017-.019.032-.038.045-.054a.787.787,0,0,0,.052-.077c.016-.029.028-.049.038-.068s.022-.054.03-.078l0-.006c.009-.026.017-.05.023-.073s.01-.059.013-.084v-.008c0-.01,0-.02,0-.029a.332.332,0,0,0,0-.042.9.9,0,0,0-.006-.094v-.006c0-.013,0-.025,0-.038s0-.032,0-.041a.716.716,0,0,0-.062-.18l0-.006a.4.4,0,0,0-.026-.049l0,0a.881.881,0,0,0-.1-.14l-.021-.026h0a.851.851,0,0,0-.156-.121l-.05-.026,0,0a.735.735,0,0,0-.167-.063h0l-.023-.007h0a.775.775,0,0,0-.153-.015Zm4.247-.2a1.308,1.308,0,0,0,1.307,1.307,1.308,1.308,0,0,0,1.307-1.307,1.309,1.309,0,0,0-1.307-1.308A1.309,1.309,0,0,0-3353.057,20.769Zm12.649-1.308V11.038h1.4v8.424Zm-3.011,0V11.038h1.4v8.424Zm-18.062,0V11.038h1.4v8.424Zm-3.01,0V11.038h1.4v8.424Zm15.052-3.512V3.512h1.4V15.95Zm-3.011,0V3.512h1.4V15.95Zm-3.01,0V3.512h1.4V15.95Z" transform="translate(3367)" fill="url(#linear-gradient)"/>
</svg>
