<svg xmlns="http://www.w3.org/2000/svg" xmlns:xlink="http://www.w3.org/1999/xlink" width="33" height="27.802" viewBox="0 0 33 27.802">
  <defs>
    <linearGradient id="linear-gradient" x1="0.5" x2="0.5" y2="1" gradientUnits="objectBoundingBox">
      <stop offset="0" stop-color="#00e0ee"/>
      <stop offset="0.478" stop-color="#ad26fb"/>
      <stop offset="1" stop-color="#0740db"/>
    </linearGradient>
  </defs>
  <g id="Grupo_348" data-name="Grupo 348" transform="translate(-7.687 -14.2)">
    <path id="Trazado_40" data-name="Trazado 40" d="M51.192,26.133a2.559,2.559,0,0,0-2.01-1h0a6.989,6.989,0,0,0-3.392.921V21.527a3.181,3.181,0,0,0-3.182-3.182H36.621V16.712A2.52,2.52,0,0,0,34.109,14.2H30.34a2.52,2.52,0,0,0-2.512,2.512v1.633H21.882A3.181,3.181,0,0,0,18.7,21.527V33.461a3.181,3.181,0,0,0,3.182,3.182H33.187l1.884,1.591a.751.751,0,0,1,.209.293l1.047,2.261A2.134,2.134,0,0,0,38.212,42a2.256,2.256,0,0,0,1.256-.419l.209-.167a2.95,2.95,0,0,0,1.047-3.057l-.126-.419,1.382-.963L43.571,39.7a2.166,2.166,0,0,0,1.8,1.047A2.226,2.226,0,0,0,47,39.993a3.859,3.859,0,0,0,.754-3.224L47,33.5l2.01-1.424a6.918,6.918,0,0,0,2.6-3.727A2.622,2.622,0,0,0,51.192,26.133ZM42.608,20.1a1.456,1.456,0,0,1,1.465,1.465v5.862l-1.047.837L40.1,26.719V20.1ZM29.586,16.712a.8.8,0,0,1,.8-.8H34.15a.8.8,0,0,1,.8.8v1.633h-5.36ZM24.394,34.926H21.84a1.456,1.456,0,0,1-1.465-1.465V21.527a1.456,1.456,0,0,1,1.465-1.465h2.554ZM26.153,20.1H38.338v6.155H38.3a3.612,3.612,0,0,0-1.507.335A2.107,2.107,0,0,0,35.574,28.1a2.217,2.217,0,0,0,.544,1.884L38.3,32.2,37,33.293l-.377-.209a3.055,3.055,0,0,0-1.465-.377,2.958,2.958,0,0,0-1.759.586l-.167.084a2.157,2.157,0,0,0-.8,1.507H26.153Zm23.783,7.788a4.8,4.8,0,0,1-1.926,2.763l-2.973,2.052,1,4.438a1.937,1.937,0,0,1-.419,1.717.362.362,0,0,1-.251.126.28.28,0,0,1-.293-.167l-2.554-4.313-3.936,2.763.419,1.591a1.138,1.138,0,0,1-.419,1.214l-.209.167a.32.32,0,0,1-.209.084.315.315,0,0,1-.293-.209L36.83,37.773a2.346,2.346,0,0,0-.67-.879L34.234,35.3a.314.314,0,0,1,0-.5l.209-.167a1.114,1.114,0,0,1,.67-.251,1.047,1.047,0,0,1,.586.167l1.424.837,3.685-3.057-3.517-3.6a.379.379,0,0,1,.084-.586,1.875,1.875,0,0,1,.837-.167,1.945,1.945,0,0,1,.963.251l4.02,2.135,2.763-2.3a5.061,5.061,0,0,1,3.14-1.131h0A.774.774,0,0,1,49.936,27.892Z" transform="translate(-11.013)" fill="url(#linear-gradient)"/>
  </g>
</svg>
