<svg xmlns="http://www.w3.org/2000/svg" xmlns:xlink="http://www.w3.org/1999/xlink" width="179" height="178" viewBox="0 0 179 178">
  <defs>
    <linearGradient id="linear-gradient" x1="0.199" y1="0.1" x2="0.855" y2="0.902" gradientUnits="objectBoundingBox">
      <stop offset="0" stop-color="#00e0ee"/>
      <stop offset="0.478" stop-color="#ad26fb"/>
      <stop offset="1" stop-color="#0740db"/>
    </linearGradient>
  </defs>
  <g id="Grupo_377" data-name="Grupo 377" transform="translate(0.027 -0.315)">
    <g id="Elipse_58" data-name="Elipse 58" transform="translate(-0.027 0.315)" fill="none" stroke="#1147d7" stroke-width="3">
      <ellipse cx="89.5" cy="89" rx="89.5" ry="89" stroke="none"/>
      <ellipse cx="89.5" cy="89" rx="88" ry="87.5" fill="none"/>
    </g>
    <path id="Trazado_379" data-name="Trazado 379" d="M63.087,50.918A12.17,12.17,0,1,0,75.256,63.087,12.183,12.183,0,0,0,63.087,50.918Zm0,20.774a8.6,8.6,0,1,1,8.6-8.6A8.615,8.615,0,0,1,63.087,71.692Zm18.725,3.934a3.158,3.158,0,0,0-.93-2.248,2.925,2.925,0,0,1,2.066-4.988,3.182,3.182,0,0,0,3.178-3.178V60.961a3.182,3.182,0,0,0-3.178-3.178,2.925,2.925,0,0,1-2.066-4.988,3.179,3.179,0,0,0,0-4.5l-3.007-3.007a3.181,3.181,0,0,0-4.5,0,2.925,2.925,0,0,1-4.988-2.067,3.182,3.182,0,0,0-3.178-3.178H60.962a3.182,3.182,0,0,0-3.178,3.178A2.925,2.925,0,0,1,52.8,45.292a3.181,3.181,0,0,0-4.5,0L45.293,48.3a3.179,3.179,0,0,0,0,4.5,2.925,2.925,0,0,1-2.067,4.988,3.182,3.182,0,0,0-3.178,3.178V65.21a3.182,3.182,0,0,0,3.178,3.178,2.925,2.925,0,0,1,2.067,4.988,3.181,3.181,0,0,0,0,4.5L48.3,80.88a3.184,3.184,0,0,0,4.5,0,2.922,2.922,0,0,1,4.988,2.065,3.182,3.182,0,0,0,3.178,3.178h4.251a3.182,3.182,0,0,0,3.178-3.178,2.925,2.925,0,0,1,4.988-2.066,3.184,3.184,0,0,0,4.5,0l3.005-3.005A3.148,3.148,0,0,0,81.812,75.627Zm-4.855-6.794a6.372,6.372,0,0,0,1.137,6.787l-2.475,2.475a6.491,6.491,0,0,0-10.782,4.466h-3.5a6.488,6.488,0,0,0-10.782-4.466L48.08,75.62a6.491,6.491,0,0,0-4.465-10.782v-3.5A6.491,6.491,0,0,0,48.08,50.555l2.475-2.475a6.491,6.491,0,0,0,10.782-4.466h3.5A6.491,6.491,0,0,0,75.619,48.08l2.475,2.475a6.491,6.491,0,0,0,4.466,10.782v3.5A6.376,6.376,0,0,0,76.957,68.833Zm2.76-52.881a1.783,1.783,0,0,1,2.312-1.006A52.069,52.069,0,0,1,109.075,39.4l1.7-4.922a1.782,1.782,0,1,1,3.37,1.162L111,44.751a1.779,1.779,0,0,1-2.19,1.128l-9.242-2.723a1.783,1.783,0,1,1,1.008-3.42l5.49,1.618A48.482,48.482,0,0,0,80.721,18.262,1.782,1.782,0,0,1,79.717,15.952ZM14.946,44.146A52.063,52.063,0,0,1,39.4,17.1l-4.922-1.7a1.783,1.783,0,0,1,1.163-3.371l9.108,3.14a1.782,1.782,0,0,1,1.129,2.188L43.158,26.6a1.783,1.783,0,1,1-3.42-1.008l1.618-5.49A48.476,48.476,0,0,0,18.265,45.45a1.783,1.783,0,0,1-1.659,1.13,1.785,1.785,0,0,1-1.659-2.435Zm31.511,66.077a1.783,1.783,0,0,1-1.659,1.13,1.764,1.764,0,0,1-.652-.125A52.1,52.1,0,0,1,17.1,86.77l-1.7,4.922a1.782,1.782,0,1,1-3.37-1.162l3.14-9.108a1.782,1.782,0,0,1,2.188-1.129L26.6,83.016a1.783,1.783,0,0,1-1.008,3.42L20.1,84.817a48.512,48.512,0,0,0,25.347,23.092A1.785,1.785,0,0,1,46.457,110.222Zm64.771-28.193a52.042,52.042,0,0,1-24.456,27.046l4.922,1.7a1.783,1.783,0,1,1-1.163,3.371L81.422,111a1.782,1.782,0,0,1-1.129-2.188l2.723-9.242a1.783,1.783,0,0,1,3.42,1.008l-1.618,5.49a48.461,48.461,0,0,0,23.092-25.347,1.783,1.783,0,0,1,3.319,1.3Z" transform="translate(26.54 26.54)" fill="url(#linear-gradient)"/>
  </g>
</svg>
