<svg xmlns="http://www.w3.org/2000/svg" xmlns:xlink="http://www.w3.org/1999/xlink" width="31.293" height="27.802" viewBox="0 0 31.293 27.802">
  <defs>
    <linearGradient id="linear-gradient" x1="0.176" y1="0.128" x2="0.773" y2="0.943" gradientUnits="objectBoundingBox">
      <stop offset="0" stop-color="#00e0ee"/>
      <stop offset="0.478" stop-color="#ad26fb"/>
      <stop offset="1" stop-color="#0740db"/>
    </linearGradient>
  </defs>
  <path id="Trazado_149" data-name="Trazado 149" d="M34.161,18.808a2.581,2.581,0,0,0-1.145-1.625L18.58,8.072,4.144,17.184a2.6,2.6,0,0,0,2.773,4.393l2.04-1.288V33.348a2.529,2.529,0,0,0,2.526,2.526H25.677A2.529,2.529,0,0,0,28.2,33.348V20.29l2.04,1.288a2.572,2.572,0,0,0,1.378.4,2.643,2.643,0,0,0,.581-.065,2.591,2.591,0,0,0,1.959-3.1ZM20.213,34.3H16.947V27.587a.619.619,0,0,1,.618-.618H19.6a.619.619,0,0,1,.618.618Zm6.413-.95a.951.951,0,0,1-.95.95H21.79V27.587A2.2,2.2,0,0,0,19.6,25.393H17.564a2.2,2.2,0,0,0-2.194,2.194V34.3H11.483a.951.951,0,0,1-.95-.95V19.295l8.046-5.079,8.046,5.079V33.348Zm5.867-13.423a1.027,1.027,0,0,1-1.409.319l-12.5-7.892-12.5,7.892a1.022,1.022,0,0,1-1.091-1.728L18.58,9.936l13.595,8.581a1.027,1.027,0,0,1,.319,1.409Z" transform="translate(-2.933 -8.072)" fill="url(#linear-gradient)"/>
</svg>
