<svg xmlns="http://www.w3.org/2000/svg" xmlns:xlink="http://www.w3.org/1999/xlink" width="179" height="178" viewBox="0 0 179 178">
  <defs>
    <linearGradient id="linear-gradient" x1="0.179" y1="0.103" x2="0.726" y2="0.929" gradientUnits="objectBoundingBox">
      <stop offset="0" stop-color="#00e0ee"/>
      <stop offset="0.478" stop-color="#ad26fb"/>
      <stop offset="1" stop-color="#0740db"/>
    </linearGradient>
  </defs>
  <g id="Grupo_378" data-name="Grupo 378" transform="translate(0.369 -0.315)">
    <g id="Elipse_58" data-name="Elipse 58" transform="translate(-0.369 0.315)" fill="none" stroke="#1147d7" stroke-width="3">
      <ellipse cx="89.5" cy="89" rx="89.5" ry="89" stroke="none"/>
      <ellipse cx="89.5" cy="89" rx="88" ry="87.5" fill="none"/>
    </g>
    <path id="Unión_26" data-name="Unión 26" d="M25.826,91.84a2.492,2.492,0,0,1,2.491-2.494H41.9a2.494,2.494,0,0,1,0,4.989H31.157A9.151,9.151,0,0,0,49.113,91.84v-6.5h-20.8a2.494,2.494,0,0,1,0-4.987H51.6a2.493,2.493,0,0,1,2.479,2.494V91.84a14.134,14.134,0,0,1-28.256,0Zm2.392-15.774a2.492,2.492,0,0,1-2.49-2.494A28.477,28.477,0,0,0,19.713,55.7,25.992,25.992,0,0,1,38.6,13.48,26,26,0,0,1,60.669,55.153a30.516,30.516,0,0,0-6.488,18.419,2.492,2.492,0,0,1-2.49,2.494Zm20.5-33.714a2.5,2.5,0,0,1,.828,3.375L42.451,57.1V71.077H49.3a35.886,35.886,0,0,1,7.409-19v.012a20.782,20.782,0,0,0,4.234-12.594A20.988,20.988,0,1,0,23.585,52.61a33.144,33.144,0,0,1,7.036,18.467H37.47V57.1l-7.1-11.373a2.491,2.491,0,0,1,4.222-2.643l5.367,8.6,5.366-8.6a2.489,2.489,0,0,1,3.394-.732ZM11.556,68.372a2.5,2.5,0,0,1,0-3.528l1.693-1.708v.012a2.494,2.494,0,1,1,3.525,3.528l-1.693,1.7a2.489,2.489,0,0,1-3.525,0Zm53.272-.025L63,66.514a2.494,2.494,0,0,1,3.525-3.53l1.842,1.858a2.492,2.492,0,0,1-3.537,3.5ZM73.794,42.4a2.494,2.494,0,0,1,0-4.989h3.413a2.494,2.494,0,0,1,0,4.989Zm-71.3,0a2.494,2.494,0,0,1,0-4.989h3.4a2.494,2.494,0,0,1,0,4.989ZM63.01,16.822a2.5,2.5,0,0,1,0-3.53l1.831-1.833v-.025a2.493,2.493,0,0,1,3.524,3.528l-1.83,1.858a2.491,2.491,0,0,1-3.525,0Zm-49.761-.137-1.693-1.722a2.492,2.492,0,1,1,3.525-3.5l1.693,1.7a2.494,2.494,0,1,1-3.525,3.53ZM37.358,5.9v-3.4a2.491,2.491,0,1,1,4.982,0V5.9a2.491,2.491,0,1,1-4.982,0Z" transform="translate(49.467 36.529)" fill="url(#linear-gradient)"/>
  </g>
</svg>
