<svg xmlns="http://www.w3.org/2000/svg" width="17.433" height="19.148" viewBox="0 0 17.433 19.148">
  <g id="Icon_feather-home" data-name="Icon feather-home" transform="translate(-3.5 -2)">
    <path id="Trazado_47" data-name="Trazado 47" d="M12.217,2a1,1,0,0,1,.614.211l7.717,6A1,1,0,0,1,20.933,9v9.431a2.718,2.718,0,0,1-2.715,2.715h-12A2.718,2.718,0,0,1,3.5,18.433V9a1,1,0,0,1,.386-.789l7.717-6A1,1,0,0,1,12.217,2Zm6.717,7.491L12.217,4.267,5.5,9.491v8.942a.716.716,0,0,0,.715.715h12a.716.716,0,0,0,.715-.715Z" fill="#fff"/>
    <path id="Trazado_48" data-name="Trazado 48" d="M19.056,28.26a1,1,0,0,1-1-1V19H14.5v8.26a1,1,0,0,1-2,0V18a1,1,0,0,1,1-1h5.556a1,1,0,0,1,1,1v9.26A1,1,0,0,1,19.056,28.26Z" transform="translate(-4.061 -7.112)" fill="#fff"/>
  </g>
</svg>
