<svg xmlns="http://www.w3.org/2000/svg" xmlns:xlink="http://www.w3.org/1999/xlink" width="179" height="178" viewBox="0 0 179 178">
  <defs>
    <linearGradient id="linear-gradient" x1="0.186" y1="0.168" x2="0.867" y2="0.851" gradientUnits="objectBoundingBox">
      <stop offset="0" stop-color="#00e0ee"/>
      <stop offset="0.478" stop-color="#ad26fb"/>
      <stop offset="1" stop-color="#0740db"/>
    </linearGradient>
  </defs>
  <g id="Grupo_375" data-name="Grupo 375" transform="translate(0.342 -0.315)">
    <g id="Elipse_58" data-name="Elipse 58" transform="translate(-0.342 0.315)" fill="none" stroke="#1147d7" stroke-width="3">
      <ellipse cx="89.5" cy="89" rx="89.5" ry="89" stroke="none"/>
      <ellipse cx="89.5" cy="89" rx="88" ry="87.5" fill="none"/>
    </g>
    <path id="Unión_25" data-name="Unión 25" d="M99.58,60.118A4.435,4.435,0,0,1,98.6,56.5l1.691-9.843L93.146,39.69a4.462,4.462,0,0,1,2.47-7.61L105.5,30.64l4.417-8.957a4.463,4.463,0,0,1,8,0l4.419,8.96,9.884,1.441a4.462,4.462,0,0,1,2.468,7.61l-7.149,6.966,1.691,9.842a4.431,4.431,0,0,1-.974,3.615,4.45,4.45,0,0,1-5.5,1.085l-8.841-4.647L105.074,61.2a4.44,4.44,0,0,1-5.494-1.081Zm25.095-2.567-1.386-11.264-.183-1.068,8.7-8.48-11.141-2.176-1.072-.156-5.375-10.9-.309-.186a.306.306,0,0,0-.3.187l-5.375,10.9L96.209,36.16l7.74,8.3.777.757L102.667,57.2l10.29-4.8.959-.5ZM7.785,60.118A4.435,4.435,0,0,1,6.809,56.5L8.5,46.657,1.351,39.69a4.462,4.462,0,0,1,2.47-7.61L13.7,30.64l4.417-8.957a4.463,4.463,0,0,1,8,0l4.419,8.96,9.883,1.441a4.462,4.462,0,0,1,2.468,7.61L35.74,46.657,37.432,56.5a4.456,4.456,0,0,1-6.47,4.7L22.12,56.552,13.279,61.2a4.44,4.44,0,0,1-5.494-1.081Zm25.1-2.567L31.494,46.287l-.184-1.068,8.7-8.48L28.871,34.563,27.8,34.406l-5.376-10.9-.309-.186a.306.306,0,0,0-.3.187l-5.375,10.9L4.414,36.16l7.74,8.3.777.757L10.872,57.2l10.289-4.8.959-.5Zm20.8-16.631a4.436,4.436,0,0,1-.976-3.617L54.4,27.459l-7.149-6.967a4.462,4.462,0,0,1,2.47-7.61l9.882-1.44,4.417-8.957a4.462,4.462,0,0,1,8,0l4.419,8.96,9.883,1.441a4.462,4.462,0,0,1,2.468,7.61l-7.149,6.966L83.329,37.3a4.432,4.432,0,0,1-.974,3.615A4.449,4.449,0,0,1,76.859,42l-8.842-4.647L59.176,42a4.438,4.438,0,0,1-5.493-1.082Zm25.095-2.567L77.392,27.089l-.184-1.068,8.7-8.48L74.769,15.364,73.7,15.208l-5.376-10.9-.309-.186a.3.3,0,0,0-.3.187l-5.375,10.9L50.312,16.962l7.74,8.3.777.757L56.769,38l10.289-4.8.959-.5Z" transform="translate(21.298 52.96)" fill="url(#linear-gradient)"/>
  </g>
</svg>
