<svg xmlns="http://www.w3.org/2000/svg" xmlns:xlink="http://www.w3.org/1999/xlink" width="260" height="260" viewBox="0 0 260 260">
  <defs>
    <linearGradient id="linear-gradient" x1="0.143" y1="0.087" x2="0.901" y2="1" gradientUnits="objectBoundingBox">
      <stop offset="0" stop-color="#00e0ee"/>
      <stop offset="0.478" stop-color="#ad26fb"/>
      <stop offset="1" stop-color="#0740db"/>
    </linearGradient>
  </defs>
  <g id="Grupo_398" data-name="Grupo 398" transform="translate(-830 -4978.719)">
    <g id="Elipse_59" data-name="Elipse 59" transform="translate(830 4978.719)" fill="none" stroke="#1147d7" stroke-width="3">
      <circle cx="130" cy="130" r="130" stroke="none"/>
      <circle cx="130" cy="130" r="128.5" fill="none"/>
    </g>
    <path id="Trazado_178" data-name="Trazado 178" d="M134.733,57.586h0a3.646,3.646,0,0,0-3.68-3.045l-9.509.242a3.614,3.614,0,0,0-3.51,3.171l-.166,1.294L112.992,40.44a9.455,9.455,0,0,0-9.15-7.079H36.7a9.451,9.451,0,0,0-9.149,7.08L22.677,59.249l-.166-1.294A3.616,3.616,0,0,0,19,54.782L9.491,54.54a3.62,3.62,0,0,0-3.68,3.046L4.732,64.164a3.635,3.635,0,0,0,3.252,4.207l8.861.823L10.838,82.588a18.774,18.774,0,0,0-1.623,7.627v9.063a5.034,5.034,0,0,0-.739,2.6v9.014a5.034,5.034,0,0,0,.739,2.6v11.141a6.55,6.55,0,0,0,6.543,6.543h8.313a6.55,6.55,0,0,0,6.543-6.543v-8.653h79.315v8.653a6.55,6.55,0,0,0,6.543,6.543h8.312a6.55,6.55,0,0,0,6.543-6.543V113.5a5.034,5.034,0,0,0,.74-2.6v-9.014a5.034,5.034,0,0,0-.74-2.6V90.214a18.757,18.757,0,0,0-1.623-7.627L123.7,69.194l8.862-.822a3.634,3.634,0,0,0,3.25-4.207ZM31.775,41.535A5.088,5.088,0,0,1,36.7,37.723h67.141a5.091,5.091,0,0,1,4.927,3.813l5.919,22.835H25.856ZM9.163,64.1l.85-5.184,8.251.21.756,5.888Zm4.414,26.113a14.364,14.364,0,0,1,1.181-5.683l15.879,4.821a.732.732,0,0,1,.515.694V96.79H13.577Zm12.675,34.421a2.183,2.183,0,0,1-2.181,2.181H15.758a2.183,2.183,0,0,1-2.181-2.181v-8.653H26.252Zm100.714,0a2.183,2.183,0,0,1-2.181,2.181h-8.312a2.183,2.183,0,0,1-2.181-2.181v-8.653h12.674Zm.74-22.756v9.014a.728.728,0,0,1-.727.727H13.565a.728.728,0,0,1-.727-.727v-9.014a.728.728,0,0,1,.727-.727H126.979A.728.728,0,0,1,127.706,101.879Zm-.74-11.665V96.79H109.391V90.047a.731.731,0,0,1,.515-.694l15.88-4.822A14.381,14.381,0,0,1,126.966,90.214Zm-2.97-9.7L108.64,85.178a5.061,5.061,0,0,0-3.611,4.869V96.79H35.514V90.047a5.061,5.061,0,0,0-3.61-4.869L16.549,80.515l5.092-11.354a.729.729,0,0,1,.663-.429h95.935a.73.73,0,0,1,.665.43Zm-2.472-15.5.757-5.888,8.25-.21.851,5.184Zm-24.352,19.2A2.182,2.182,0,0,1,94.99,86.4H45.554a2.181,2.181,0,1,1,0-4.362H94.99A2.182,2.182,0,0,1,97.171,84.219ZM94.455,91.6a2.182,2.182,0,0,1-2.181,2.181h-44a2.181,2.181,0,0,1,0-4.362h44A2.182,2.182,0,0,1,94.455,91.6ZM121.7,40.729a2.181,2.181,0,0,1,2.181-2.181H126.9V35.53a2.181,2.181,0,0,1,4.362,0v3.017h3.017a2.181,2.181,0,1,1,0,4.362h-3.017v3.017a2.181,2.181,0,0,1-4.362,0V42.91h-3.017A2.181,2.181,0,0,1,121.7,40.729ZM23.045,22.151a2.181,2.181,0,0,1,2.181-2.181h3.017V16.953a2.181,2.181,0,1,1,4.362,0V19.97h3.017a2.181,2.181,0,0,1,0,4.362H32.606v3.017a2.181,2.181,0,1,1-4.362,0V24.332H25.226A2.181,2.181,0,0,1,23.045,22.151ZM66.31,14.834a2.181,2.181,0,0,1,2.181-2.181h3.017V9.636a2.181,2.181,0,1,1,4.362,0v3.017h3.017a2.181,2.181,0,1,1,0,4.362H75.871v3.017a2.181,2.181,0,1,1-4.362,0V17.015H68.491A2.181,2.181,0,0,1,66.31,14.834ZM6.827,45.731a2.721,2.721,0,1,1,2.721,2.721A2.721,2.721,0,0,1,6.827,45.731Zm98.56-26.722a2.721,2.721,0,1,1,2.721,2.721A2.721,2.721,0,0,1,105.387,19.009ZM34.18,51.559a2.18,2.18,0,0,1,0-3.084l5.664-5.664A2.181,2.181,0,1,1,42.929,45.9l-5.664,5.664a2.18,2.18,0,0,1-3.084,0Zm18.211-.152a2.18,2.18,0,0,1,0,3.084l-5.664,5.664a2.181,2.181,0,1,1-3.084-3.084l5.664-5.664A2.18,2.18,0,0,1,52.392,51.407Zm-.554-5.392-14.02,14.02a2.181,2.181,0,0,1-3.084-3.084l14.02-14.02a2.181,2.181,0,0,1,3.084,3.084Z" transform="translate(889.426 5030.182)" fill="url(#linear-gradient)"/>
  </g>
</svg>
