<svg xmlns="http://www.w3.org/2000/svg" xmlns:xlink="http://www.w3.org/1999/xlink" width="21.023" height="21.023" viewBox="0 0 21.023 21.023">
  <defs>
    <linearGradient id="linear-gradient" x1="0.16" x2="0.829" y2="1" gradientUnits="objectBoundingBox">
      <stop offset="0" stop-color="#00e0ee"/>
      <stop offset="0.478" stop-color="#ad26fb"/>
      <stop offset="1" stop-color="#0740db"/>
    </linearGradient>
  </defs>
  <g id="Icon_feather-clock" data-name="Icon feather-clock" transform="translate(-2 -2)">
    <path id="Trazado_37" data-name="Trazado 37" d="M12.512,2A10.512,10.512,0,1,1,2,12.512,10.524,10.524,0,0,1,12.512,2Zm0,19.023A8.512,8.512,0,1,0,4,12.512,8.521,8.521,0,0,0,12.512,21.023Z" fill="url(#linear-gradient)"/>
    <path id="Trazado_38" data-name="Trazado 38" d="M21.8,17.61a1,1,0,0,1-.446-.106l-3.8-1.9A1,1,0,0,1,17,14.707V9a1,1,0,0,1,2,0v5.089l3.252,1.626A1,1,0,0,1,21.8,17.61Z" transform="translate(-5.488 -2.195)" fill="url(#linear-gradient)"/>
  </g>
</svg>
