<svg xmlns="http://www.w3.org/2000/svg" xmlns:xlink="http://www.w3.org/1999/xlink" width="76.862" height="83.151" viewBox="0 0 76.862 83.151">
  <defs>
    <linearGradient id="linear-gradient" x1="0.106" y1="0.119" x2="0.918" y2="0.926" gradientUnits="objectBoundingBox">
      <stop offset="0" stop-color="#00e0ee"/>
      <stop offset="0.478" stop-color="#ad26fb"/>
      <stop offset="1" stop-color="#0740db"/>
    </linearGradient>
  </defs>
  <path id="Unión_20" data-name="Unión 20" d="M-3299.932,81.471l-18.859-18.859a3.605,3.605,0,0,1-1.067-2.571,3.6,3.6,0,0,1,1.068-2.572l.392-.394-1.479-1.48a24.5,24.5,0,0,1-16.239,6.17,24.625,24.625,0,0,1-24.6-24.6,24.625,24.625,0,0,1,24.6-24.6,24.625,24.625,0,0,1,24.6,24.6,24.5,24.5,0,0,1-6.17,16.238l1.48,1.48.4-.393a3.594,3.594,0,0,1,2.561-1.057,3.6,3.6,0,0,1,2.524,1.021l0,0,1.973,1.971,16.934,16.916a5.754,5.754,0,0,1,0,8.122,5.7,5.7,0,0,1-4.06,1.68A5.7,5.7,0,0,1-3299.932,81.471Zm-13.695-24.789-2.976,2.975a.539.539,0,0,0,0,.767l18.858,18.858a2.653,2.653,0,0,0,1.872.744,2.647,2.647,0,0,0,1.869-.743,2.63,2.63,0,0,0,.773-1.871,2.627,2.627,0,0,0-.773-1.871s-.536-.534-18.9-18.876a.5.5,0,0,0-.351-.137A.525.525,0,0,0-3313.626,56.682Zm-43.992-19.514a21.527,21.527,0,0,0,21.5,21.5,21.526,21.526,0,0,0,21.5-21.5,21.526,21.526,0,0,0-21.5-21.5A21.526,21.526,0,0,0-3357.618,37.168Zm19.865,40.37a65.009,65.009,0,0,1-12.959-8.021,44.366,44.366,0,0,1-9.131-9.961,41.537,41.537,0,0,1-5.392-12.075A55.2,55.2,0,0,1-3367,33.147l.021-17.458a3.591,3.591,0,0,1,2.653-3.509,13.183,13.183,0,0,0,9.531-9.5A3.574,3.574,0,0,1-3351.309,0h30.384a3.58,3.58,0,0,1,3.49,2.7,13.471,13.471,0,0,0,9.526,9.5,3.6,3.6,0,0,1,2.676,3.513V33.147a50.077,50.077,0,0,1-3.381,19.126l-.188.464-2.869-1.166.189-.463a47.01,47.01,0,0,0,3.155-17.96V15.713a.507.507,0,0,0-.345-.513,16.4,16.4,0,0,1-11.756-11.726l0-.008a.494.494,0,0,0-.493-.371h-30.384a.494.494,0,0,0-.49.357v.006a16.476,16.476,0,0,1-11.753,11.72.49.49,0,0,0-.332.513l-.021,17.458a51.687,51.687,0,0,0,1.658,13.45,38.736,38.736,0,0,0,5.041,11.267,41.6,41.6,0,0,0,8.558,9.315,61.516,61.516,0,0,0,12.236,7.564.637.637,0,0,0,.284.066.583.583,0,0,0,.244-.05,55.242,55.242,0,0,0,15.328-10.205l.358-.347,2.158,2.219-.36.348a58.362,58.362,0,0,1-16.18,10.791,3.7,3.7,0,0,1-1.551.337A3.763,3.763,0,0,1-3337.754,77.538Zm.089-27.1v-2.6a5.847,5.847,0,0,1-4.769-5.737V40.586h3.1V42.1a2.776,2.776,0,0,0,2.773,2.773h.9A2.776,2.776,0,0,0-3332.9,42.1a2.8,2.8,0,0,0-1.653-2.562l-4.39-1.94a5.871,5.871,0,0,1-3.5-5.365,5.848,5.848,0,0,1,4.769-5.739V23.9h3.1v2.6a5.848,5.848,0,0,1,4.769,5.739v1.516h-3.1V32.237a2.777,2.777,0,0,0-2.773-2.775h-.9a2.777,2.777,0,0,0-2.773,2.775,2.773,2.773,0,0,0,1.652,2.535l4.39,1.94a5.872,5.872,0,0,1,3.5,5.367,5.863,5.863,0,0,1-4.769,5.763v2.6Z" transform="translate(3367)" fill="url(#linear-gradient)"/>
</svg>
