<svg xmlns="http://www.w3.org/2000/svg" xmlns:xlink="http://www.w3.org/1999/xlink" width="22" height="22" viewBox="0 0 22 22">
  <defs>
    <linearGradient id="linear-gradient" x1="0.177" x2="0.841" y2="1" gradientUnits="objectBoundingBox">
      <stop offset="0" stop-color="#00e0ee"/>
      <stop offset="0.478" stop-color="#ad26fb"/>
      <stop offset="1" stop-color="#0740db"/>
    </linearGradient>
  </defs>
  <path id="Unión_10" data-name="Unión 10" d="M48,11A11,11,0,1,1,59,22,11,11,0,0,1,48,11Zm11,9a8.948,8.948,0,0,0,5-1.518,1.008,1.008,0,0,1-.011-.146v-1.5a2,2,0,0,0-1.993-1.994H56.005a2,2,0,0,0-1.994,1.994v1.5a1.007,1.007,0,0,1-.01.145A8.949,8.949,0,0,0,59,20Zm2.993-7.155a4,4,0,0,1,3.991,3.826,9,9,0,1,0-13.969,0,4,4,0,0,1,3.99-3.824ZM55.005,7.857A3.994,3.994,0,1,1,59,11.851,4,4,0,0,1,55.005,7.857Zm2,0A1.994,1.994,0,1,0,59,5.863,2,2,0,0,0,57.005,7.857Z" transform="translate(-48)" fill="url(#linear-gradient)"/>
</svg>
