<svg xmlns="http://www.w3.org/2000/svg" xmlns:xlink="http://www.w3.org/1999/xlink" width="179" height="178" viewBox="0 0 179 178">
  <defs>
    <linearGradient id="linear-gradient" x1="0.136" y1="0.087" x2="0.832" y2="0.92" gradientUnits="objectBoundingBox">
      <stop offset="0" stop-color="#00e0ee"/>
      <stop offset="0.478" stop-color="#ad26fb"/>
      <stop offset="1" stop-color="#0740db"/>
    </linearGradient>
  </defs>
  <g id="Grupo_374" data-name="Grupo 374" transform="translate(0 -0.315)">
    <g id="Elipse_58" data-name="Elipse 58" transform="translate(0 0.315)" fill="none" stroke="#1147d7" stroke-width="3">
      <ellipse cx="89.5" cy="89" rx="89.5" ry="89" stroke="none"/>
      <ellipse cx="89.5" cy="89" rx="88" ry="87.5" fill="none"/>
    </g>
    <path id="Unión_24" data-name="Unión 24" d="M55.49,84.23C44.769,83.672,35.707,76.542,26.565,74.2c-7.823-2.007-24.681-4.125-24.681-4.125A2.086,2.086,0,1,1,2.4,65.932s16.7,2.036,25.212,4.221C37.971,72.811,46.83,79.6,55.7,80.065a54.445,54.445,0,0,0,23.447-4.638s21.659-9.729,32.416-14.686a3.338,3.338,0,0,0,1.269-1.417,2.477,2.477,0,0,0,.008-2.243,3.221,3.221,0,0,0-3.335-1.222c-5.543,2.1-27.667,9.936-27.667,9.936a2.089,2.089,0,1,1-1.4-3.938S93.975,57.062,102.46,54a2.735,2.735,0,0,0-.283-1.138h-.008a2.559,2.559,0,0,0-3.311-1.269L76.514,60.453A11.226,11.226,0,0,1,77,63.774a1.646,1.646,0,0,1-.008.23,6.513,6.513,0,0,1-2.616,4.726A8.748,8.748,0,0,1,68.5,70.068a1.965,1.965,0,0,1-.212-.048L45.422,65.842a2.088,2.088,0,1,1,.753-4.1l22.693,4.142a4.765,4.765,0,0,0,3.068-.563,2.1,2.1,0,0,0,.842-1.648,5.767,5.767,0,0,0-.491-2.5A3.785,3.785,0,0,0,70,59.482l-16.633-6.26a1.916,1.916,0,0,1-.3-.14l-10-5.739a13.36,13.36,0,0,0-8.4-1.7l-19.685,3.5a1.975,1.975,0,0,1-.377.047H2.136a2.086,2.086,0,1,1,0-4.173H14.43L33.99,41.539h.091v-.013a17.55,17.55,0,0,1,11.073,2.216L55.006,49.4l.149.056,18.891-8.4a6.657,6.657,0,0,1,5-.111v0a7.351,7.351,0,0,1,3.7,3.367,6.8,6.8,0,0,1,.329.826L86.86,43.5a6.539,6.539,0,0,1,5-.095v0a7.2,7.2,0,0,1,3.688,3.353,6.883,6.883,0,0,1,.523,1.437l1.233-.49a6.7,6.7,0,0,1,4.957-.048v.005a6.7,6.7,0,0,1,3.673,3.319,6.835,6.835,0,0,1,.549,1.546c.607-.223,1.128-.418,1.545-.576h0a6.832,6.832,0,0,1,5.3,12.575c-10.805,4.977-32.459,14.7-32.459,14.7A58.825,58.825,0,0,1,57.82,84.29C57.045,84.29,56.266,84.271,55.49,84.23Zm16-28.63A9.942,9.942,0,0,1,74,56.964l18.062-7.175a1.981,1.981,0,0,0-.274-1.171,2.547,2.547,0,0,0-3.253-1.3L70.411,55.2ZM64.8,53.085l14.408-6.26a3.119,3.119,0,0,0-.191-.611c-.008,0-.018-.048-.026-.048a2.522,2.522,0,0,0-3.229-1.3l-15.008,6.7Zm30.743-6.323s0,0,0,0ZM107,37.91,99.51,33.877H90.57a5.877,5.877,0,0,1-5.934-5.035L74.173,32.378l.085-.04a6.082,6.082,0,0,1-7.494-2.721l-.008-.016a5.514,5.514,0,0,1,2.876-7.617L88.1,14.119c5.5-2.343,11.45-2.412,17.086-1.584L125.375,15.5a2.051,2.051,0,0,1,1.8,2.317,2.149,2.149,0,0,1-2.468,1.69l-20.184-2.972c-5.145-.754-10.179-.627-14.64,1.275L71.411,25.668a1.538,1.538,0,0,0-.78,2.15.157.157,0,0,0,.011.032s0,0,.005,0a1.559,1.559,0,0,0,1.985.748l.08-.032L85.6,24.211a5.987,5.987,0,0,1,4.859-2.447h14.494a2.2,2.2,0,0,1,1.942.989,1.928,1.928,0,0,1,0,2.074,2.2,2.2,0,0,1-1.942.986H90.464a1.489,1.489,0,0,0-1.56,1.494l.016.976a1.58,1.58,0,0,0,1.651,1.545h9.513a2.272,2.272,0,0,1,1.072.267l7.987,4.3a10.92,10.92,0,0,0,6.436,1.217l9.13-1.079a2.136,2.136,0,0,1,2.407,1.761,2.06,2.06,0,0,1-1.874,2.261l-9.126,1.076a15.655,15.655,0,0,1-1.821.107A15.394,15.394,0,0,1,107,37.91Zm-60.951-3.7a2.094,2.094,0,1,1,2.094,2.087A2.09,2.09,0,0,1,46.048,34.208ZM14,34.194l0-2.028a2.085,2.085,0,0,1,2.059-2.118v0a2.09,2.09,0,0,1,2.126,2.121v2.028a2.094,2.094,0,0,1-4.187,0Zm8.345-4.144H20.308a2.087,2.087,0,1,1,0-4.173h2.035a2.087,2.087,0,1,1,.03,4.174Zm-10.468,0H9.84a2.087,2.087,0,1,1,0-4.173h2.035A2.092,2.092,0,0,1,14,27.929h0a2.075,2.075,0,0,1-.61,1.508,2.109,2.109,0,0,1-1.486.614ZM14,23.761l0-2.028a2.093,2.093,0,1,1,4.185,0v2.031a2.094,2.094,0,0,1-4.187,0Zm14.839-.812a2.094,2.094,0,1,1,2.094,2.086A2.091,2.091,0,0,1,28.836,22.95ZM45.4,19.591V17.56a2.094,2.094,0,1,1,4.188,0v2.031a2.094,2.094,0,0,1-4.187,0Zm8.346-4.147H51.711a2.087,2.087,0,1,1,0-4.173h2.035a2.087,2.087,0,1,1,.039,4.174Zm-10.469,0H41.242a2.087,2.087,0,1,1,0-4.173h2.035a2.087,2.087,0,1,1,.039,4.174ZM18.156,9.185a2.094,2.094,0,1,1,2.094,2.086A2.093,2.093,0,0,1,18.156,9.185ZM45.4,9.158V7.127a2.094,2.094,0,1,1,4.188,0V9.158a2.094,2.094,0,0,1-4.187,0ZM58.2,2.084A2.094,2.094,0,1,1,60.3,4.173,2.089,2.089,0,0,1,58.2,2.084Z" transform="translate(25.715 47.17)" fill="url(#linear-gradient)"/>
  </g>
</svg>
