<svg id="Componente_39_1" data-name="Componente 39 – 1" xmlns="http://www.w3.org/2000/svg" xmlns:xlink="http://www.w3.org/1999/xlink" width="30.616" height="25.673" viewBox="0 0 30.616 25.673">
  <defs>
    <linearGradient id="linear-gradient" x1="0.179" x2="0.88" y2="1" gradientUnits="objectBoundingBox">
      <stop offset="0" stop-color="#00e0ee"/>
      <stop offset="0.478" stop-color="#ad26fb"/>
      <stop offset="1" stop-color="#0740db"/>
    </linearGradient>
  </defs>
  <g id="Grupo_349" data-name="Grupo 349" transform="translate(-370.45 -961.75)">
    <path id="Unión_17" data-name="Unión 17" d="M-3342.4,25.673a2.089,2.089,0,0,1-2.07-2.1V21.1h-14.448v2.475a2.089,2.089,0,0,1-2.071,2.1h-1.546a2.09,2.09,0,0,1-2.071-2.1V21.1h-.732A1.673,1.673,0,0,1-3367,19.428v-.847a1.666,1.666,0,0,1,.976-1.523V12.829a4.382,4.382,0,0,1,2.652-4.04V8.719h-1.525a1.852,1.852,0,0,1-1.844-1.856,1.852,1.852,0,0,1,1.843-1.856h1.195a1.848,1.848,0,0,1,1.336.579l1.615-3.555c.392-.86.926-2.032,2.282-2.032h13.1c1.359,0,1.893,1.174,2.282,2.032l1.64,3.612a1.839,1.839,0,0,1,1.389-.635h1.193a1.851,1.851,0,0,1,1.843,1.856,1.851,1.851,0,0,1-1.843,1.856h-1.313a4.41,4.41,0,0,1,2.827,4.11v4.229a1.664,1.664,0,0,1,.973,1.523v.847a1.671,1.671,0,0,1-1.662,1.674h-.732v2.475a2.089,2.089,0,0,1-2.072,2.1Zm-.559-2.1a.57.57,0,0,0,.561.577h1.545a.57.57,0,0,0,.561-.575V21.1h-2.667Zm-20.138,0a.572.572,0,0,0,.563.577h1.545a.57.57,0,0,0,.56-.575V21.1h-2.667Zm-2.4-4.993v.844a.155.155,0,0,0,.154.154h27.287a.156.156,0,0,0,.153-.155v-.846a.156.156,0,0,0-.155-.154h-27.285A.156.156,0,0,0-3365.489,18.584Zm.974-5.755v4.079h25.646V12.829a2.87,2.87,0,0,0-2.854-2.873h-19.937A2.871,2.871,0,0,0-3364.515,12.829Zm5.134-10.164-2.482,5.459v.317c.071,0,.138-.006.2-.006h19.675V8.124l-2.48-5.459c-.39-.86-.577-1.145-.909-1.145h-13.1C-3358.806,1.52-3358.991,1.805-3359.381,2.665Zm18.983,4.2V7.2h1.526a.334.334,0,0,0,.333-.335.334.334,0,0,0-.333-.336h-1.192A.338.338,0,0,0-3340.4,6.864Zm-24.833,0a.334.334,0,0,0,.333.335h1.525V6.864a.336.336,0,0,0-.333-.336h-1.192A.336.336,0,0,0-3365.23,6.864Zm19.527,7.766a1.852,1.852,0,0,1,1.843-1.856h2.28a.758.758,0,0,1,.755.759v1.1a1.853,1.853,0,0,1-1.842,1.855h-1.192A1.851,1.851,0,0,1-3345.7,14.629Zm1.51,0a.334.334,0,0,0,.333.335h1.192a.334.334,0,0,0,.333-.335v-.336h-1.525A.334.334,0,0,0-3344.193,14.628Zm-15.278,1.724v.13h-1.193a1.854,1.854,0,0,1-1.842-1.855v-1.1a.759.759,0,0,1,.755-.76h2.28a1.852,1.852,0,0,1,1.843,1.856,1.85,1.85,0,0,1-1.842,1.855ZM-3361,14.627a.334.334,0,0,0,.333.335h1.192a.336.336,0,0,0,.334-.335.336.336,0,0,0-.334-.336H-3361Zm11.96,1.65h-5.313a.759.759,0,0,1-.755-.758.758.758,0,0,1,.755-.762h5.331a.758.758,0,0,1,.651.375.77.77,0,0,1,0,.77.758.758,0,0,1-.651.375Zm-5.313-1.755a.759.759,0,0,1-.755-.759.759.759,0,0,1,.755-.761h5.315a.758.758,0,0,1,.755.76.758.758,0,0,1-.755.76Z" transform="translate(3737.45 961.75)" fill="url(#linear-gradient)"/>
  </g>
</svg>
