<svg xmlns="http://www.w3.org/2000/svg" xmlns:xlink="http://www.w3.org/1999/xlink" width="49" height="62" viewBox="0 0 49 62">
  <defs>
    <linearGradient id="linear-gradient" x1="0.151" x2="0.771" y2="0.946" gradientUnits="objectBoundingBox">
      <stop offset="0" stop-color="#00e0ee"/>
      <stop offset="0.478" stop-color="#ad26fb"/>
      <stop offset="1" stop-color="#0740db"/>
    </linearGradient>
    <clipPath id="clip-path">
      <rect id="Rectángulo_143" data-name="Rectángulo 143" width="49" height="62" transform="translate(0 0.247)" fill="url(#linear-gradient)"/>
    </clipPath>
  </defs>
  <g id="Grupo_4" data-name="Grupo 4" transform="translate(-0.697 0.229)">
    <g id="Grupo_3" data-name="Grupo 3" transform="translate(0.697 -0.476)" clip-path="url(#clip-path)">
      <path id="Trazado_3" data-name="Trazado 3" d="M23.385,61.487C7.649,55.007,0,44.722,0,30.041L.015,11.42a3.838,3.838,0,0,1,3.59-3.75A6.633,6.633,0,0,0,9.371,2.789,3.727,3.727,0,0,1,12.988,0H36.73a3.734,3.734,0,0,1,3.62,2.783A6.608,6.608,0,0,0,46.122,7.67h.008a3.844,3.844,0,0,1,3.587,3.765V30.041c0,14.722-7.673,25.009-23.457,31.446a3.783,3.783,0,0,1-2.875,0m-10.4-59.98A2.24,2.24,0,0,0,10.822,3.2a8.152,8.152,0,0,1-7.1,5.976,2.323,2.323,0,0,0-2.2,2.246L1.507,30.042c0,14,7.343,23.831,22.449,30.051a2.288,2.288,0,0,0,1.734,0c15.154-6.18,22.52-16.01,22.52-30.051V11.435a2.33,2.33,0,0,0-2.192-2.261A8.123,8.123,0,0,1,38.9,3.191,2.243,2.243,0,0,0,36.73,1.507Zm7.15,35.5L12.861,29.73a2.27,2.27,0,0,1,0-3.2L15,24.4a2.261,2.261,0,0,1,3.188,0l3.551,3.551,9.787-9.787a2.306,2.306,0,0,1,3.189,0l2.138,2.123a2.272,2.272,0,0,1,0,3.207L23.343,37.007a2.267,2.267,0,0,1-3.2,0m-4.072-11.54-2.141,2.126a.764.764,0,0,0,0,1.071L21.2,35.942a.77.77,0,0,0,1.074,0L35.791,22.428a.768.768,0,0,0,0-1.074l-2.138-2.123a.764.764,0,0,0-1.061,0L22.273,29.548a.751.751,0,0,1-1.065,0l-4.083-4.081a.751.751,0,0,0-1.059,0" transform="translate(-0.455 0.323)" fill="url(#linear-gradient)"/>
      <path id="Trazado_4" data-name="Trazado 4" d="M22.4,55.279C9.162,49.488,3,40.986,3,28.521l.015-16.105a2.224,2.224,0,0,1,1.567-2.139A11.159,11.159,0,0,0,11.5,4.333,2.278,2.278,0,0,1,13.561,3H33.117a2.279,2.279,0,0,1,2.067,1.336,11.154,11.154,0,0,0,6.926,5.94h0a2.233,2.233,0,0,1,1.565,2.154v16.09c0,12.513-6.18,21.015-19.451,26.755a2.279,2.279,0,0,1-1.827,0M13.561,4.507a.788.788,0,0,0-.705.473,12.673,12.673,0,0,1-7.851,6.743.71.71,0,0,0-.484.693L4.507,28.523c0,11.79,5.874,19.853,18.487,25.372a.784.784,0,0,0,.609.011C36.278,48.421,42.17,40.359,42.17,28.521V12.431a.731.731,0,0,0-.481-.708,12.668,12.668,0,0,1-7.867-6.742.787.787,0,0,0-.705-.475Zm5.057,30.981-7.277-7.277a2.27,2.27,0,0,1,0-3.2l2.141-2.127a2.261,2.261,0,0,1,3.188,0l3.551,3.551,9.787-9.787a2.306,2.306,0,0,1,3.189,0l2.138,2.123a2.272,2.272,0,0,1,0,3.207L21.823,35.487a2.267,2.267,0,0,1-3.2,0m-4.072-11.54-2.141,2.126a.764.764,0,0,0,0,1.071l7.277,7.278a.787.787,0,0,0,1.074,0L34.272,20.908a.768.768,0,0,0,0-1.074l-2.138-2.123a.764.764,0,0,0-1.061,0L20.753,28.028a.751.751,0,0,1-1.065,0l-4.083-4.081a.751.751,0,0,0-1.059,0" transform="translate(1.065 1.843)" fill="url(#linear-gradient)"/>
      <path id="Trazado_5" data-name="Trazado 5" d="M16.036,31.115,8.76,23.838a2.27,2.27,0,0,1,0-3.2L10.9,18.507a2.261,2.261,0,0,1,3.188,0l3.551,3.551,9.787-9.787a2.306,2.306,0,0,1,3.189,0l2.138,2.123a2.272,2.272,0,0,1,0,3.207L19.241,31.115a2.267,2.267,0,0,1-3.2,0m-4.072-11.54L9.823,21.7a.764.764,0,0,0,0,1.071L17.1,30.05a.77.77,0,0,0,1.074,0L31.689,16.536a.768.768,0,0,0,0-1.074l-2.138-2.123a.764.764,0,0,0-1.061,0L18.171,23.656a.751.751,0,0,1-1.065,0l-4.083-4.081a.751.751,0,0,0-1.059,0" transform="translate(3.647 6.215)" fill="url(#linear-gradient)"/>
    </g>
  </g>
</svg>
