<svg xmlns="http://www.w3.org/2000/svg" xmlns:xlink="http://www.w3.org/1999/xlink" width="178" height="178" viewBox="0 0 178 178">
  <defs>
    <linearGradient id="linear-gradient" x1="0.159" y1="0.061" x2="0.752" y2="0.881" gradientUnits="objectBoundingBox">
      <stop offset="0" stop-color="#00e0ee"/>
      <stop offset="0.478" stop-color="#ad26fb"/>
      <stop offset="1" stop-color="#0740db"/>
    </linearGradient>
  </defs>
  <g id="Grupo_376" data-name="Grupo 376" transform="translate(-0.315 -0.315)">
    <g id="Elipse_58" data-name="Elipse 58" transform="translate(0.315 0.315)" fill="none" stroke="#1147d7" stroke-width="3">
      <circle cx="89" cy="89" r="89" stroke="none"/>
      <circle cx="89" cy="89" r="87.5" fill="none"/>
    </g>
    <path id="Trazado_368" data-name="Trazado 368" d="M99.945,63.278,87.932,38.432c1.335-6.776.616-24.641.821-31.828a1.567,1.567,0,0,0-1.745-1.54L79,6.3A51.06,51.06,0,0,1,54.255,3.626c-.924-.308-2.772-1.232-3.491-.924A51.483,51.483,0,0,1,23.556,6.3L15.548,5.166A1.567,1.567,0,0,0,13.8,6.706c.1,6.776-.513,24.641.719,31.11L2.611,62.457A3.939,3.939,0,0,0,4.459,67.8l6.674,3.183a3.939,3.939,0,0,0,5.339-1.848l.719-1.437,2.669,1.232A2.725,2.725,0,0,1,21.5,71.184l.205,2.361-2.053,3.594c-2.361,3.8.821,9.241,5.339,8.83-1.335,5.134,4.723,9.343,9.035,6.263a5.869,5.869,0,0,0,7.5,3.08c1.129,5.031,8.316,6.058,10.883,1.54l1.437-2.567,4.21,2.464c3.491,2.156,8.316-.719,8.214-4.826a5.623,5.623,0,0,0,6.468-6.16,5.493,5.493,0,0,0,5.236-6.674,5.425,5.425,0,0,0,4-7.7l3.8-1.643A4.138,4.138,0,0,0,91.217,71.8l6.674-3.183A3.94,3.94,0,0,0,99.945,63.278ZM16.883,8.451l6.263.924A54.865,54.865,0,0,0,51.278,5.884,55,55,0,0,0,79.41,9.375l6.366-.924c-.1,4.415.205,21.561-.308,25.668a4.324,4.324,0,0,0-4-.821c.308-3.388.205-14.888.205-18.481a1.567,1.567,0,0,0-1.745-1.54A58.257,58.257,0,0,1,51.791,10.3a1.75,1.75,0,0,0-1.027,0,58.388,58.388,0,0,1-28.132,2.977,1.567,1.567,0,0,0-1.745,1.54c0,3.08-.1,14.682.1,17.557a4.16,4.16,0,0,0-4,.924C16.677,29.91,16.883,12.147,16.883,8.451ZM73.968,45.105c-1.232.616-2.567,1.437-4,.924l-7.906-2.053c-3.7-1.027-7.29.308-10.267,2.567-1.643-.719-4.723-2.567-6.571-2.772-2.053-.616-8.624,1.027-10.883,1.335a3.046,3.046,0,0,1-1.643-.205L29.2,43.155l.821-1.643a4.142,4.142,0,0,0-1.745-5.75l-4.107-1.951c-.513-3.8-.205-13.45-.308-17.352a61.666,61.666,0,0,0,27.311-3.183A60.385,60.385,0,0,0,78.486,16.46c-.1,4.518.205,13.861-.411,18.276l-3.9,1.951a3.876,3.876,0,0,0-2.053,2.361C71.4,40.9,73.25,43.463,73.968,45.105Zm-57.8,17.968L13.905,67.8a1.019,1.019,0,0,1-1.335.513L5.9,65.126a1.019,1.019,0,0,1-.513-1.335c.821-1.848,13.039-27,13.45-28.03a1.019,1.019,0,0,1,1.335-.513l6.674,3.183a1.019,1.019,0,0,1,.513,1.335C26.534,41.614,17.293,60.814,16.164,63.073Zm7.29,19.61a2.84,2.84,0,0,1-1.027-3.9l2.361-4.21,1.848-3.183a2.48,2.48,0,0,1,1.848-1.335,2.844,2.844,0,0,1,3.08,4.21c-.411.616-1.129,1.951-1.437,2.567l-2.772,4.826A2.96,2.96,0,0,1,23.454,82.683ZM34.337,87c-.205.411-.821,1.54-1.027,1.951-1.951,3.286-6.776.411-5.031-2.875,1.643-2.669,4-7.187,5.75-9.754a2.894,2.894,0,0,1,4.826,2.669,25.535,25.535,0,0,1-1.54,2.875C37.314,81.759,34.337,87,34.337,87Zm7.6,4.312A2.857,2.857,0,0,1,36.8,88.844L39.984,83.3c.411-.616,1.232-2.567,1.848-2.978a2.9,2.9,0,0,1,4.723,2.259,4.421,4.421,0,0,1-.924,2.259C44.912,86.277,42.859,89.871,41.935,91.308ZM54.05,88.125l-4.21,7.29A2.862,2.862,0,0,1,44.5,93.977a2.357,2.357,0,0,1,.411-1.437c.1-.1,4.723-8.316,4.62-7.906C51.791,82.273,55.693,85.148,54.05,88.125Zm8.933,5.236a2.5,2.5,0,0,1-3.286.924l-4.312-2.567c.719-1.232,1.951-2.978,1.951-4.415.1.1,2.772,1.54,2.772,1.643l1.848,1.129A2.393,2.393,0,0,1,62.982,93.361ZM79.2,75.086h0a2.475,2.475,0,0,1-3.286.924c-2.464-1.335-10.575-6.16-13.142-7.8a1.5,1.5,0,1,0-1.54,2.567l9.754,5.852,2.978,1.745a2.439,2.439,0,0,1-2.464,4.21c-.411-.205-12.526-7.7-13.245-8.214a1.524,1.524,0,0,0-1.643,2.567l11.91,7.392c2.875,1.643.308,5.955-2.464,4.415L61.75,86.174l-5.339-3.08a5.8,5.8,0,0,0-6.879-2.053,5.9,5.9,0,0,0-7.6-4.107,6,6,0,0,0-6.879-4.518,5.966,5.966,0,0,0-10.781-3.08,5.7,5.7,0,0,0-3.08-3.286l-2.567-1.129c2.156-4.518,6.982-14.579,9.241-19.2,1.951.924,4.723,2.875,6.982,2.259l7.906-1.335a6.53,6.53,0,0,1,3.7.513l2.464,1.232-11.294,7.6a4.182,4.182,0,0,0-1.848,3.286,3.954,3.954,0,0,0,1.54,3.388l1.437,1.129a7.634,7.634,0,0,0,6.776,1.437L58.67,61.636a3.494,3.494,0,0,1,2.875.411l16.736,9.446a1.8,1.8,0,0,0,.411.513A2.365,2.365,0,0,1,79.2,75.086Zm1.027-5.955L63.085,59.48a7.536,7.536,0,0,0-3.286-.924c-.924-.308-13.861,3.594-14.99,3.8a4.527,4.527,0,0,1-4.107-.821L39.265,60.4a1.115,1.115,0,0,1,.1-1.745c1.643-1.129,14.58-9.754,15.812-10.575a7.35,7.35,0,0,1,6.16-1.027l7.906,2.053c2.053.616,4.21-.1,6.058-1.129l9.343,19.3Zm17.044-3.8a1.052,1.052,0,0,1-.513.616h0l-6.674,3.183c-1.232.513-1.643-1.129-2.053-1.951-.308-.411-12.115-24.949-12.834-26.49a1.019,1.019,0,0,1,.513-1.335l6.674-3.183a.937.937,0,0,1,1.129.205,21.538,21.538,0,0,1,1.54,3.08L97.275,64.716Z" transform="translate(38.062 38.132)" fill="url(#linear-gradient)"/>
  </g>
</svg>
