<svg xmlns="http://www.w3.org/2000/svg" xmlns:xlink="http://www.w3.org/1999/xlink" width="260" height="260" viewBox="0 0 260 260">
  <defs>
    <linearGradient id="linear-gradient" x1="0.152" y1="0.054" x2="0.913" y2="0.929" gradientUnits="objectBoundingBox">
      <stop offset="0" stop-color="#00e0ee"/>
      <stop offset="0.478" stop-color="#ad26fb"/>
      <stop offset="1" stop-color="#0740db"/>
    </linearGradient>
  </defs>
  <g id="Grupo_399" data-name="Grupo 399" transform="translate(-1244 -4978.719)">
    <g id="Elipse_60" data-name="Elipse 60" transform="translate(1244 4978.719)" fill="none" stroke="#1147d7" stroke-width="3">
      <circle cx="130" cy="130" r="130" stroke="none"/>
      <circle cx="130" cy="130" r="128.5" fill="none"/>
    </g>
    <path id="Unión_22" data-name="Unión 22" d="M-9470.109-2600.512l-5.27-5.276a2.15,2.15,0,0,1-.352-2.557l8.24-14.75a2.159,2.159,0,0,1,.845-.833l12.065-6.571,30.627-30.639-14.738-14.743a27.489,27.489,0,0,1-27.806-6.286,24.533,24.533,0,0,1-7.4-17.489,30.922,30.922,0,0,1,2-10.53,2.15,2.15,0,0,1,1.545-1.358,2.224,2.224,0,0,1,1.972.571l14.664,14.571a2.686,2.686,0,0,0,3.7.272l6.469-6.479a2.093,2.093,0,0,0,.605-1.524,2.9,2.9,0,0,0-.86-2.059l-14.756-14.248a2.16,2.16,0,0,1-.615-1.92,2.135,2.135,0,0,1,1.249-1.583,25.325,25.325,0,0,1,28.07,5.336c6.921,6.877,9.6,18.346,6.38,27.282l11.461,11.569c4.15-3.819,7.725-10.533,10.39-19.628a2.083,2.083,0,0,1,.585-.957c1.5-1.408,22-22,22.207-22.211.049-.066,3.676-4.184,8.775-4.184a10.319,10.319,0,0,1,6.449,2.375,125.2,125.2,0,0,1,12.083,12.087c5.053,6.435.956,12.831-1.913,15.318-7.079,7.056-20.979,20.906-22.1,22.1a2.256,2.256,0,0,1-.963.588c-10.775,3.158-16.553,7.026-19.644,10.383l11.408,11.41a27.488,27.488,0,0,1,27.8,6.289,25.6,25.6,0,0,1,5.333,28.145,2.126,2.126,0,0,1-1.56,1.252,2.12,2.12,0,0,1-1.918-.584l-14.669-14.67a2.5,2.5,0,0,0-3.582,0l-6.26,6.269a2.557,2.557,0,0,0-.777,1.84,2.444,2.444,0,0,0,.718,1.773l14.75,14.239a2.146,2.146,0,0,1,.62,1.919,2.141,2.141,0,0,1-1.252,1.583,25.447,25.447,0,0,1-10.138,2.119,25.361,25.361,0,0,1-17.927-7.461,26.938,26.938,0,0,1-6.388-27.275l-11.2-11.648-3.416-3.417-30.79,30.788-6.575,12.061a2.183,2.183,0,0,1-.837.847l-14.746,8.245a2.173,2.173,0,0,1-1.042.272A2.152,2.152,0,0,1-9470.109-2600.512Zm18.342-26.744a2.73,2.73,0,0,1-.491.365l-11.794,6.425-7.149,12.8,2.985,2.985,12.794-7.156,6.432-11.791a2.3,2.3,0,0,1,.365-.492l31-31.007-3.145-3.141Zm45.131-22.938,9.8,9.8a4.621,4.621,0,0,1,.887,4.788c-2.663,7.5-.405,17.091,5.376,22.812a21.054,21.054,0,0,0,20.208,5.529l-12.266-11.844a6.713,6.713,0,0,1-2.009-4.821,6.815,6.815,0,0,1,2.032-4.878l6.26-6.266a6.762,6.762,0,0,1,9.629-.006l12.256,12.256a21.307,21.307,0,0,0-5.492-20.329,22.775,22.775,0,0,0-23.171-5.236,4.471,4.471,0,0,1-4.634-1.046l-10.862-10.861a9.667,9.667,0,0,0-1.036,5.808,2.1,2.1,0,0,1,.326,1.132,2.14,2.14,0,0,1-2.138,2.142c-.076,0-.141-.006-.217-.013a2.124,2.124,0,0,1-1.4-.614l-.946-.946Zm-16.037-16.035,3.417,3.417a.011.011,0,0,0,.01.007l3.085,3.088,6.5,6.5,2.594-2.593-13.013-13.013Zm46.968-53.411c-.891.9-18.69,18.774-21.978,22-3.258,10.881-7.694,18.452-13.187,22.516a16.393,16.393,0,0,1-6.464,2.982l13.587,13.591a15.255,15.255,0,0,1,1.4-3.928c3.427-6.674,11.531-11.96,24.1-15.726,3.231-3.294,21.1-21.089,21.9-21.886.63-.561,5.176-4.8,1.458-9.543a124.263,124.263,0,0,0-11.356-11.356,6.1,6.1,0,0,0-3.812-1.464C-9373.18-2722.456-9375.683-2719.667-9375.706-2719.641Zm-59.974,40.73,9.825,9.809,2.753-2.753-.944-.939a2.15,2.15,0,0,1-.3-2.653,2.149,2.149,0,0,1,2.514-.883s.155.043.438.086a9.954,9.954,0,0,0,5.8-1.026l-.169-.173c-.033-.027-.067-.057-.1-.083l-10.6-10.593a4.5,4.5,0,0,1-1.043-4.675c2.688-7.438.426-17.024-5.379-22.782a21.059,21.059,0,0,0-20.2-5.529l12.266,11.848a7.223,7.223,0,0,1,2.154,5.113,6.365,6.365,0,0,1-1.876,4.583L-9447-2693.1a6.925,6.925,0,0,1-9.739-.276l-12.144-12.067a24.116,24.116,0,0,0-.74,5.781,20.307,20.307,0,0,0,6.136,14.461,22.728,22.728,0,0,0,23.174,5.236,4.167,4.167,0,0,1,1.464-.262A4.5,4.5,0,0,1-9435.68-2678.911Zm55.09-5.376a2.14,2.14,0,0,1,0-3.025l18.143-18.144a2.14,2.14,0,0,1,3.023,0,2.144,2.144,0,0,1,0,3.028l-18.142,18.14a2.128,2.128,0,0,1-1.511.628A2.125,2.125,0,0,1-9380.59-2684.287Zm-5.506-5.505a2.144,2.144,0,0,1,0-3.032l18.146-18.137a2.136,2.136,0,0,1,3.024,0,2.144,2.144,0,0,1,0,3.025l-18.146,18.144a2.143,2.143,0,0,1-1.514.624A2.137,2.137,0,0,1-9386.1-2689.792Zm-5.509-5.5a2.141,2.141,0,0,1,0-3.029l18.146-18.146a2.142,2.142,0,0,1,3.024,0,2.147,2.147,0,0,1,0,3.028l-18.146,18.147a2.132,2.132,0,0,1-1.514.624A2.132,2.132,0,0,1-9391.6-2695.294Z" transform="translate(10786.568 7772.029)" fill="url(#linear-gradient)"/>
  </g>
</svg>
