<svg id="Icon_awesome-instagram" data-name="Icon awesome-instagram" xmlns="http://www.w3.org/2000/svg" xmlns:xlink="http://www.w3.org/1999/xlink" width="24.443" height="24.438" viewBox="0 0 24.443 24.438">
  <defs>
    <linearGradient id="linear-gradient" y1="0.128" x2="0.819" y2="1" gradientUnits="objectBoundingBox">
      <stop offset="0" stop-color="#00e0ee"/>
      <stop offset="0.478" stop-color="#ad26fb"/>
      <stop offset="1" stop-color="#0740db"/>
    </linearGradient>
  </defs>
  <path id="Icon_awesome-instagram-2" data-name="Icon awesome-instagram" d="M12.219,8.191a6.265,6.265,0,1,0,6.265,6.265A6.256,6.256,0,0,0,12.219,8.191Zm0,10.339a4.073,4.073,0,1,1,4.073-4.073A4.081,4.081,0,0,1,12.219,18.53ZM20.2,7.935a1.461,1.461,0,1,1-1.461-1.461A1.458,1.458,0,0,1,20.2,7.935Zm4.15,1.483A7.232,7.232,0,0,0,22.378,4.3a7.28,7.28,0,0,0-5.12-1.974c-2.018-.115-8.065-.115-10.083,0a7.269,7.269,0,0,0-5.12,1.969A7.256,7.256,0,0,0,.081,9.412c-.115,2.018-.115,8.065,0,10.083a7.232,7.232,0,0,0,1.974,5.12,7.289,7.289,0,0,0,5.12,1.974c2.018.115,8.065.115,10.083,0a7.232,7.232,0,0,0,5.12-1.974,7.28,7.28,0,0,0,1.974-5.12c.115-2.018.115-8.06,0-10.077ZM21.745,21.66a4.124,4.124,0,0,1-2.323,2.323c-1.609.638-5.426.491-7.2.491s-5.6.142-7.2-.491A4.124,4.124,0,0,1,2.693,21.66c-.638-1.609-.491-5.426-.491-7.2s-.142-5.6.491-7.2A4.124,4.124,0,0,1,5.016,4.93c1.609-.638,5.426-.491,7.2-.491s5.6-.142,7.2.491a4.124,4.124,0,0,1,2.323,2.323c.638,1.609.491,5.426.491,7.2S22.383,20.057,21.745,21.66Z" transform="translate(0.005 -2.238)" fill="url(#linear-gradient)"/>
</svg>
