<svg id="Grupo_401" data-name="Grupo 401" xmlns="http://www.w3.org/2000/svg" xmlns:xlink="http://www.w3.org/1999/xlink" width="277.272" height="242.537" viewBox="0 0 277.272 242.537">
  <defs>
    <clipPath id="clip-path">
      <rect id="Rectángulo_552" data-name="Rectángulo 552" width="277.273" height="242.537" fill="none"/>
    </clipPath>
    <linearGradient id="linear-gradient" x1="0.191" y1="0.09" x2="1.1" y2="0.959" gradientUnits="objectBoundingBox">
      <stop offset="0" stop-color="#00e0ee"/>
      <stop offset="0.478" stop-color="#ad26fb"/>
      <stop offset="1" stop-color="#0740db"/>
    </linearGradient>
  </defs>
  <g id="Grupo_400" data-name="Grupo 400">
    <g id="Grupo_399" data-name="Grupo 399" clip-path="url(#clip-path)">
      <path id="Trazado_745" data-name="Trazado 745" d="M.638,243.179a.638.638,0,0,1-.589-.882l18.33-44.311V4.93a.639.639,0,0,1,.638-.638H276.636a.639.639,0,0,1,.638.638v206a.638.638,0,0,1-.638.638H38.882L1.046,243.032a.64.64,0,0,1-.408.148M19.654,5.567V198.113a.651.651,0,0,1-.048.244L2.213,240.4l35.959-29.9a.629.629,0,0,1,.466-.207H276V5.567Z" transform="translate(0 -0.642)" fill="#010101"/>
      <path id="Trazado_746" data-name="Trazado 746" d="M273.538,142.034c5.968-21.317,13.26-37.719,15.93-42.689,3.836-7.142-2.233-8.449-4.021-5.554-1.4,2.268-7.518,12.261-7.518,12.29s3.511-16.629,4.332-22.062-4.519-5.921-6.178-1.32c-1.1,3.046-4.44,12.358-4.44,12.358s.266-12.092.474-16.556c.193-4.156-5.235-4.736-6.334,1.142-1.019,5.442-4.659,24.319-4.659,24.319s.139-7.835-6.746-8.024-8.483,1.158-10.289,5.122c-1.5,3.292-.781,5.3,1.683,5.934s5.054-3.727,5.054-3.727a2.247,2.247,0,0,0,1.9.821s.3,1.551-1.082,4.493a53.037,53.037,0,0,1-3.065,5.619s-.211-7.188-4.066-7.079c-2.048.058-3.41,2.786-4.422,8.087-.7,3.652-.785,7.541.505,10.74,4.48,11.109,4.553,15.359,4.553,15.359s.407,7.016,12.948,8.017,15.448-7.29,15.448-7.29" transform="translate(-35.861 -11.272)" fill="#fff"/>
      <path id="Trazado_747" data-name="Trazado 747" d="M260,149.932q-.992,0-2.076-.085c-12.944-1.032-13.516-8.306-13.534-8.615,0-.066-.149-4.352-4.507-15.157-1.182-2.929-1.367-6.767-.541-11.1.993-5.193,2.317-7.87,4.234-8.473a3.139,3.139,0,0,1-.676-.933c-.588-1.232-.423-2.876.492-4.887,1.956-4.294,3.809-5.689,10.886-5.5a6.943,6.943,0,0,1,6.76,5.138c1.1-5.7,3.259-16.945,4-20.913.677-3.624,2.94-5.05,4.766-4.836,1.762.2,2.926,1.784,2.831,3.841-.13,2.8-.285,8.666-.38,12.606,1.06-2.951,2.468-6.873,3.11-8.654,1.025-2.843,3.29-3.893,5-3.46,1.414.358,2.894,1.906,2.414,5.091-.429,2.83-1.583,8.685-2.478,13.1-.4,1.963-.779,3.814-1.091,5.32,1.124-1.848,2.869-4.689,5.581-9.077a3.663,3.663,0,0,1,4.827-1.3c1.594.92,2.511,3.371.3,7.491-3.2,5.956-10.339,22.777-15.877,42.559,0,.014-.008.026-.012.039-.029.082-2.873,7.8-14.025,7.8m-15.527-42.287h-.063c-1.6.046-2.849,2.521-3.814,7.57-.782,4.09-.619,7.681.471,10.382,4.472,11.091,4.594,15.409,4.6,15.587.018.234.592,6.453,12.362,7.392,11.663.928,14.642-6.462,14.79-6.849,6.267-22.375,13.656-38.478,15.976-42.8,1.781-3.316,1.265-5.161.187-5.783a2.392,2.392,0,0,0-3.1.866c-1.323,2.143-7.306,11.914-7.5,12.258l-.037-.02c-.152.384-.293.372-.571.353a.638.638,0,0,1-.59-.636.307.307,0,0,1,.037-.143l-.019,0c.127-.555,3.525-16.729,4.321-22.01.3-1.957-.265-3.36-1.464-3.664-1.15-.292-2.716.528-3.482,2.656-1.1,3.045-4.44,12.356-4.44,12.356a.638.638,0,0,1-1.238-.23c0-.121.269-12.15.474-16.57.074-1.593-.8-2.411-1.7-2.515-1.25-.142-2.839.982-3.366,3.8-1.008,5.383-4.624,24.135-4.661,24.323a.638.638,0,0,1-1.264-.131c.006-.294.039-7.207-6.126-7.377-6.788-.182-8.051,1.155-9.69,4.75-.742,1.628-.915,2.945-.5,3.808a2.5,2.5,0,0,0,1.763,1.245c1.637.423,3.739-2.411,4.349-3.436a.638.638,0,0,1,1.043-.076,1.6,1.6,0,0,0,1.288.6.641.641,0,0,1,.738.508c.035.179.3,1.843-1.132,4.884a40.053,40.053,0,0,1-2.265,4.266c-.239.4-.5.849-.825,1.4a.638.638,0,0,1-1.19-.3c0-.065-.282-6.462-3.348-6.462m28.951,34.277h0ZM246.98,107.467a9.2,9.2,0,0,1,1.913,4.635,38.1,38.1,0,0,0,2.056-3.9,9.882,9.882,0,0,0,1.042-3.587,2.763,2.763,0,0,1-1.145-.486c-.7,1.02-2.167,2.862-3.866,3.343" transform="translate(-35.75 -11.16)" fill="#010101"/>
      <rect id="Rectángulo_551" data-name="Rectángulo 551" width="257.611" height="19.316" transform="translate(19.022 4.287)" fill="#00e0ee"/>
      <path id="Trazado_748" data-name="Trazado 748" d="M279.868,24.883H22.258a.638.638,0,0,1-.638-.638V4.93a.638.638,0,0,1,.638-.638H279.868a.638.638,0,0,1,.638.638V24.246a.638.638,0,0,1-.638.638M22.9,23.608H279.231V5.567H22.9Z" transform="translate(-3.236 -0.642)" fill="#010101"/>
      <path id="Trazado_749" data-name="Trazado 749" d="M215.754,181.935l-2.36,45.045H59.036c5.351-34.644,8.351-60.186,13.242-76.619,5.31-17.871,12.891-32.313,37.044-36.293,27.633-4.551,68.027-3.2,85.019,5.17,13.081,6.431,17.922,25.493,19.932,42.295.92,7.781,1.241,15.072,1.48,20.4" transform="translate(-8.837 -16.689)" fill="url(#linear-gradient)"/>
      <path id="Trazado_750" data-name="Trazado 750" d="M213.281,227.5H58.924a.638.638,0,0,1-.63-.735c1.27-8.228,2.389-15.809,3.471-23.142,3.379-22.9,6.047-40.989,9.79-53.561,5.894-19.835,14.231-32.9,37.552-36.742,27.072-4.457,67.85-3.421,85.405,5.229,10.841,5.329,17.476,19.326,20.283,42.791.909,7.685,1.235,14.92,1.473,20.2l.011.247a.376.376,0,0,1,0,.062l-2.36,45.045a.638.638,0,0,1-.637.6M59.668,226.228H212.676L215,181.819l-.009-.216c-.237-5.263-.562-12.471-1.465-20.109-2.714-22.681-9.3-36.744-19.581-41.8-17.337-8.54-57.759-9.539-84.634-5.113-22.664,3.735-30.783,16.484-36.536,35.846-3.717,12.485-6.379,30.534-9.751,53.384-1.049,7.115-2.134,14.466-3.359,22.415" transform="translate(-8.724 -16.576)" fill="#010101"/>
      <path id="Trazado_751" data-name="Trazado 751" d="M224.929,219.479c3.264-11.336,6.715-22.893,9.631-34.4,1.49-5.891,2.821-12.031,3.97-17.342,1.75-8.16,3.07-14.371,3.84-14.812,3.181,5.121,24.053,5.57,28.4.73,0,0,1.73-.3,1.29,8.211s-3.72,48.716-4.031,57.367a48.46,48.46,0,0,1-3.121,13.951H221.088" transform="translate(-33.093 -22.89)" fill="url(#linear-gradient)"/>
      <path id="Trazado_752" data-name="Trazado 752" d="M264.8,233.706H220.976a.638.638,0,0,1,0-1.275h43.376a46.239,46.239,0,0,0,2.933-13.337c.173-4.863,1.305-19.915,2.3-33.2.792-10.518,1.538-20.453,1.727-24.179.266-5.155-.292-6.836-.584-7.352-3.09,2.735-11.037,3.6-17.6,3.021-2.552-.226-8.371-1-10.817-3.492-.693,1.839-1.955,7.727-3.181,13.444l-.088.415c-1.168,5.393-2.486,11.473-3.976,17.365-2.363,9.331-5.105,18.787-7.757,27.93q-.944,3.258-1.878,6.493a.638.638,0,0,1-1.226-.353q.932-3.236,1.879-6.5c2.65-9.133,5.388-18.579,7.746-27.888,1.485-5.871,2.8-11.94,3.959-17.295l.1-.44c2.435-11.36,3.152-14.3,4.058-14.817a.639.639,0,0,1,.859.218c1.1,1.775,5.1,3.172,10.44,3.644,7.523.665,14.809-.626,16.947-3a.633.633,0,0,1,.366-.2,1.057,1.057,0,0,1,.877.3c1.016.9,1.406,3.785,1.159,8.57-.19,3.741-.937,13.684-1.729,24.21-1,13.269-2.128,28.308-2.3,33.147a48.163,48.163,0,0,1-3.158,14.145.639.639,0,0,1-.6.421" transform="translate(-32.981 -22.777)" fill="#010101"/>
      <path id="Trazado_753" data-name="Trazado 753" d="M147.985,13.028c-15.887-3.546-20.609,20.82-8.212,37.462l14.965,5.634,34.284-26.143s10.382-4.613,3.9-18.267c-7-14.752-34.552-14.9-44.941,1.315" transform="translate(-19.867 -0.113)" fill="#010101"/>
      <path id="Trazado_754" data-name="Trazado 754" d="M154.63,56.649a.646.646,0,0,1-.225-.041l-14.965-5.634a.642.642,0,0,1-.287-.216c-8.583-11.522-8.8-25.993-4.042-33.327a11.438,11.438,0,0,1,12.47-5.229C152.967,4.133,163.344-.625,174.155.066c8.972.57,16.165,4.78,19.239,11.262,2.309,4.866,2.8,9.177,1.451,12.812a11.689,11.689,0,0,1-5.6,6.277l-34.23,26.1a.633.633,0,0,1-.387.131m-14.564-6.8,14.459,5.444,34-25.929a.6.6,0,0,1,.127-.076,10.546,10.546,0,0,0,5-5.61c1.214-3.3.738-7.267-1.414-11.8-2.874-6.057-9.666-9.995-18.168-10.535C163.557.675,153.48,5.35,148.413,13.26a.637.637,0,0,1-.676.278c-6.2-1.381-9.7,1.731-11.556,4.587-4.5,6.937-4.258,20.671,3.884,31.722" transform="translate(-19.758 0)" fill="#010101"/>
      <path id="Trazado_755" data-name="Trazado 755" d="M191.624,67.22c-4,18.4-20.172,18.072-20.172,18.072s-.451,11.2-.451,13.4-5.04,9.251-17.152,8.421c-9.261-.63-12.951-6.951-12.951-8.731,0-1.57.29-25.072.1-31.993a17.179,17.179,0,0,0-.1-1.8c-.37-2.01-1.31-2.48-2.81-3.22a10.671,10.671,0,0,1-1.55-.93,7.97,7.97,0,0,1-1.361-12.392c3.731-3.47,11.4-1.72,12.642,5.27,0,0,5.341-16.161,4.32-19.412-.57-1.8-2.52-3.05-1.7-4.461s6.081-5.72,10.37-7.45c9.842,6.691,22.933,7.471,26.823-.71a27.23,27.23,0,0,1,3.951,10.071c1.91,10.931,1.91,27.253.04,35.864" transform="translate(-19.881 -3.186)" fill="#fff"/>
      <path id="Trazado_756" data-name="Trazado 756" d="M155.681,107.709q-.958,0-1.987-.07c-9.381-.638-13.546-7.041-13.546-9.367,0-.308.011-1.457.027-3.157.067-6.962.225-23.264.073-28.819a16.728,16.728,0,0,0-.092-1.713c-.311-1.692-1.031-2.047-2.463-2.753a11.167,11.167,0,0,1-1.642-.986,8.962,8.962,0,0,1-3.961-6.749,8.339,8.339,0,0,1,2.54-6.627,7.9,7.9,0,0,1,7.816-1.451,8.559,8.559,0,0,1,5.295,5c2.014-6.382,4.311-15.013,3.677-17.035a6.693,6.693,0,0,0-.935-1.679c-.666-.969-1.42-2.069-.708-3.293.966-1.673,6.5-6.034,10.684-7.722a.64.64,0,0,1,.6.065c6.313,4.292,13.975,6.094,19.518,4.588a9.492,9.492,0,0,0,6.371-5.046.639.639,0,0,1,.521-.361.632.632,0,0,1,.576.268,27.66,27.66,0,0,1,4.057,10.33c1.9,10.894,1.92,27.43.036,36.109-3.612,16.616-17.1,18.371-20.182,18.554-.092,2.34-.426,10.912-.426,12.785,0,1.245-1.068,3.048-2.723,4.593-1.881,1.756-5.986,4.533-13.123,4.534m-15.96-60.862A6.178,6.178,0,0,0,135.5,48.4a7.044,7.044,0,0,0-2.136,5.607,7.717,7.717,0,0,0,3.429,5.8,9.878,9.878,0,0,0,1.464.878c1.524.753,2.727,1.346,3.156,3.678a17.05,17.05,0,0,1,.111,1.9c.154,5.576-.005,21.894-.072,28.863-.016,1.694-.027,2.838-.027,3.144,0,1.281,3.218,7.473,12.357,8.1,7.894.536,12.255-2.352,14.153-4.125,1.7-1.588,2.318-3.059,2.318-3.66,0-2.188.433-12.97.451-13.427a.626.626,0,0,1,.65-.612c.648.008,15.7.082,19.537-17.569,1.856-8.547,1.835-24.858-.045-35.619a27.512,27.512,0,0,0-3.283-8.919,10.893,10.893,0,0,1-6.651,4.74c-5.8,1.575-13.729-.219-20.283-4.571-4.3,1.832-9.082,5.9-9.747,7.049-.28.481-.028.934.656,1.932a7.786,7.786,0,0,1,1.1,2.017c1.052,3.352-3.769,18.131-4.323,19.806a.638.638,0,0,1-1.233-.089,7.544,7.544,0,0,0-5.037-6.09,7.3,7.3,0,0,0-2.321-.381m51.791,20.261h0Z" transform="translate(-19.769 -3.074)" fill="#010101"/>
      <path id="Trazado_757" data-name="Trazado 757" d="M262.589,165.6a43.31,43.31,0,0,1-8.011-.735.638.638,0,1,1,.24-1.253c6.831,1.307,15.135.747,18.509-1.25a.638.638,0,0,1,.65,1.1c-2.346,1.388-6.68,2.139-11.387,2.139" transform="translate(-38.028 -24.289)" fill="#010101"/>
      <path id="Trazado_758" data-name="Trazado 758" d="M267.543,170.358q-.378,0-.763-.018a.638.638,0,1,1,.058-1.274,13.666,13.666,0,0,0,6.053-1,.638.638,0,1,1,.6,1.127,14.076,14.076,0,0,1-5.945,1.165" transform="translate(-39.841 -25.145)" fill="#010101"/>
      <path id="Trazado_759" data-name="Trazado 759" d="M249.494,128.089a.627.627,0,0,1-.142-.016.637.637,0,0,1-.48-.763,24.945,24.945,0,0,0,.454-6.333.638.638,0,0,1,1.272-.088,25.668,25.668,0,0,1-.483,6.7.638.638,0,0,1-.621.5" transform="translate(-37.249 -18.006)" fill="#010101"/>
      <path id="Trazado_760" data-name="Trazado 760" d="M277.807,122.277a.64.64,0,0,1-.273-.061c-.068-.032-6.877-3.253-12.08-5.343a.638.638,0,0,1,.475-1.184c5.239,2.1,12.082,5.342,12.151,5.374a.638.638,0,0,1-.274,1.214" transform="translate(-39.674 -17.31)" fill="#010101"/>
      <path id="Trazado_761" data-name="Trazado 761" d="M263,115.9a.639.639,0,0,1-.223-.04,26.566,26.566,0,0,0-2.805-.917.638.638,0,0,1,.3-1.24,27.619,27.619,0,0,1,2.951.961A.638.638,0,0,1,263,115.9" transform="translate(-38.84 -17.017)" fill="#010101"/>
      <path id="Trazado_762" data-name="Trazado 762" d="M278.391,119.118a.638.638,0,0,1-.547-.966l10.789-17.966a.638.638,0,0,1,1.094.657l-10.788,17.966a.639.639,0,0,1-.548.31" transform="translate(-41.575 -14.95)" fill="#010101"/>
      <path id="Trazado_763" data-name="Trazado 763" d="M271.46,111.068a.638.638,0,0,1-.6-.853l8.055-22.474a.638.638,0,1,1,1.2.43l-8.055,22.474a.637.637,0,0,1-.6.423" transform="translate(-40.537 -13.07)" fill="#010101"/>
      <path id="Trazado_764" data-name="Trazado 764" d="M264.152,111.5a.6.6,0,0,1-.122-.012.637.637,0,0,1-.5-.747l1.484-7.638a.638.638,0,1,1,1.252.243l-1.484,7.638a.638.638,0,0,1-.625.516" transform="translate(-39.443 -15.355)" fill="#010101"/>
      <path id="Trazado_765" data-name="Trazado 765" d="M257.355,109.459a5.4,5.4,0,0,1-.673-.043.638.638,0,1,1,.16-1.265,4.833,4.833,0,0,0,3.62-1.181.638.638,0,0,1,.879.923,6.227,6.227,0,0,1-3.985,1.565" transform="translate(-38.337 -15.985)" fill="#010101"/>
      <path id="Trazado_766" data-name="Trazado 766" d="M260.176,140.091h-.04a.638.638,0,0,1-.6-.677c.191-3.057-.236-7.159-5.272-11.784a.638.638,0,1,1,.863-.94c5.495,5.046,5.875,9.723,5.682,12.8a.638.638,0,0,1-.636.6" transform="translate(-38.028 -18.938)" fill="#010101"/>
      <path id="Trazado_767" data-name="Trazado 767" d="M223.88,217.144a.638.638,0,0,1-.549-.962l4.891-8.281a.638.638,0,0,1,1.1.649l-4.891,8.28a.638.638,0,0,1-.549.314" transform="translate(-33.415 -31.072)" fill="#010101"/>
      <path id="Trazado_768" data-name="Trazado 768" d="M216.317,230.235h0a.638.638,0,0,1-.633-.642c.173-25.433.531-56.055,1.255-57.5a11.264,11.264,0,0,1,.8-1.253c.707-1.012,1.775-2.543,1.551-3.44a1.1,1.1,0,0,0-.644-.687c-1.765-.9-2.666-1.8-2.833-2.845a3.636,3.636,0,0,1,1.358-2.945c2.005-2.02,2.525-4.1,2.381-4.939a.638.638,0,1,1,1.257-.215c.232,1.355-.524,3.827-2.733,6.052-.753.759-1.082,1.362-1,1.844.094.591.819,1.233,2.151,1.91a2.328,2.328,0,0,1,1.3,1.514c.366,1.461-.8,3.135-1.742,4.48a11.091,11.091,0,0,0-.71,1.094c-.456,1.383-.89,23.214-1.12,56.939a.638.638,0,0,1-.638.633" transform="translate(-32.283 -23.236)" fill="#010101"/>
      <path id="Trazado_769" data-name="Trazado 769" d="M112.722,169.377a.638.638,0,0,1-.636-.6,187.949,187.949,0,0,0-2.381-19.643.638.638,0,1,1,1.253-.243,189.893,189.893,0,0,1,2.4,19.8.639.639,0,0,1-.6.678h-.042" transform="translate(-16.419 -22.209)" fill="#010101"/>
      <path id="Trazado_770" data-name="Trazado 770" d="M104.991,233.768a.647.647,0,0,1-.127-.013.637.637,0,0,1-.5-.751c.083-.414,8.348-41.491,8-49.095a.638.638,0,1,1,1.274-.06c.358,7.76-7.678,47.71-8.021,49.407a.637.637,0,0,1-.624.511" transform="translate(-15.62 -27.428)" fill="#010101"/>
      <path id="Trazado_771" data-name="Trazado 771" d="M179.062,122.1a.638.638,0,0,1-.532-.989,6.6,6.6,0,0,0,1.1-3.341.638.638,0,0,1,1.274.065,7.862,7.862,0,0,1-1.312,3.979.637.637,0,0,1-.532.287" transform="translate(-26.707 -17.538)" fill="#010101"/>
      <path id="Trazado_772" data-name="Trazado 772" d="M159.346,129.011a31.857,31.857,0,0,1-10.064-1.6.638.638,0,1,1,.408-1.208c7.871,2.656,17.5,1.822,22.409-1.939a.638.638,0,0,1,.776,1.012c-3.187,2.445-8.218,3.737-13.529,3.737" transform="translate(-22.28 -18.58)" fill="#010101"/>
      <path id="Trazado_773" data-name="Trazado 773" d="M142.164,123.771a.624.624,0,0,1-.352-.107,16.6,16.6,0,0,1-5.324-5.541.638.638,0,0,1,1.107-.633,15.346,15.346,0,0,0,4.923,5.113.638.638,0,0,1-.354,1.168" transform="translate(-20.417 -17.538)" fill="#010101"/>
      <path id="Trazado_774" data-name="Trazado 774" d="M146.063,68.272l-4.411,5.011a16.728,16.728,0,0,0-.1-1.8c-.37-2.01-1.309-2.48-2.81-3.22a10.6,10.6,0,0,1-1.55-.93c3.811,2.61,8.871.94,8.871.94" transform="translate(-20.535 -10.078)" fill="#010101"/>
      <path id="Trazado_775" data-name="Trazado 775" d="M141.54,73.808a.651.651,0,0,1-.219-.038.638.638,0,0,1-.418-.586,16.672,16.672,0,0,0-.092-1.708c-.311-1.692-1.031-2.047-2.463-2.754a11.041,11.041,0,0,1-1.641-.986.637.637,0,0,1,.734-1.042c3.5,2.4,8.265.877,8.311.861a.638.638,0,0,1,.679,1.027l-4.411,5.011a.637.637,0,0,1-.479.216m-.24-4.518a4.773,4.773,0,0,1,.767,1.964c.013.079.025.183.037.31l2.088-2.371a13.294,13.294,0,0,1-2.891.1" transform="translate(-20.423 -9.966)" fill="#010101"/>
      <path id="Trazado_776" data-name="Trazado 776" d="M174.771,95.386c-8.7,0-15.874-3.633-19.693-9.969a.638.638,0,0,1,1.093-.657c2.105,3.492,7.32,9.351,18.6,9.351a.638.638,0,1,1,0,1.275" transform="translate(-23.199 -12.641)" fill="#010101"/>
      <path id="Trazado_777" data-name="Trazado 777" d="M183.592,63.4a16.507,16.507,0,0,1-3.682-.455A.638.638,0,1,1,180.2,61.7c2.764.651,5.314.543,6.345-.273a1.11,1.11,0,0,0,.462-.927c0-.435-.026-1.124-.057-1.982-.085-2.328-.213-5.846-.022-8.958a18.55,18.55,0,0,1,.838-5.011,6.39,6.39,0,0,1,3.63-3.815,7.587,7.587,0,0,1,6.2.482,11.817,11.817,0,0,1,2.349,1.565.638.638,0,1,1-.826.972,10.493,10.493,0,0,0-2.093-1.4,6.33,6.33,0,0,0-5.164-.438,5.127,5.127,0,0,0-2.9,3.069,17.661,17.661,0,0,0-.762,4.65c-.187,3.049-.06,6.53.024,8.832.032.878.058,1.583.058,2.029a2.391,2.391,0,0,1-.946,1.928,6.153,6.153,0,0,1-3.748.969" transform="translate(-26.856 -6.029)" fill="#010101"/>
      <path id="Trazado_778" data-name="Trazado 778" d="M198.753,41.9c-3.84-.31-8.962,4.15-9.751,7.811a18.493,18.493,0,0,1,.8-4.831c1.291-3.491,5.051-4.921,8.951-2.98" transform="translate(-28.29 -6.142)" fill="#010101"/>
      <path id="Trazado_779" data-name="Trazado 779" d="M188.892,50.239a.61.61,0,0,1-.088-.006.638.638,0,0,1-.549-.672,18.616,18.616,0,0,1,.838-5.01,6.39,6.39,0,0,1,3.63-3.815,7.584,7.584,0,0,1,6.2.483.637.637,0,0,1-.335,1.206c-3.566-.287-8.372,4.045-9.077,7.31a.637.637,0,0,1-.622.5m6.272-8.683a5.337,5.337,0,0,0-1.972.366,5.131,5.131,0,0,0-2.9,3.07,8.526,8.526,0,0,0-.3,1.025,13.515,13.515,0,0,1,5.828-4.424,6.137,6.137,0,0,0-.657-.036" transform="translate(-28.178 -6.029)" fill="#010101"/>
      <path id="Trazado_780" data-name="Trazado 780" d="M192.706,51.141a1.7,1.7,0,1,0,1.663-2.024,1.87,1.87,0,0,0-1.663,2.024" transform="translate(-28.845 -7.352)" fill="#010101"/>
      <path id="Trazado_781" data-name="Trazado 781" d="M174.086,51.141a1.7,1.7,0,1,0,1.663-2.024,1.87,1.87,0,0,0-1.663,2.024" transform="translate(-26.058 -7.352)" fill="#010101"/>
      <path id="Trazado_782" data-name="Trazado 782" d="M180,76.469a12.2,12.2,0,0,1-10.555-5.383.638.638,0,1,1,1.069-.7,11.084,11.084,0,0,0,10.2,4.785.646.646,0,0,1,.668.606.637.637,0,0,1-.606.667q-.389.019-.772.02" transform="translate(-25.348 -10.493)" fill="#010101"/>
      <path id="Trazado_783" data-name="Trazado 783" d="M166.2,44.392a.638.638,0,0,1-.418-1.12c4.438-3.841,10.143-4.3,14.2-1.136a.638.638,0,0,1-.785,1.006c-3.559-2.775-8.613-2.336-12.577,1.094a.632.632,0,0,1-.417.156" transform="translate(-24.782 -5.994)" fill="#010101"/>
      <path id="Trazado_784" data-name="Trazado 784" d="M138.566,61.253a.637.637,0,0,1-.636-.6,3.879,3.879,0,0,1,2.1-3.795,4.7,4.7,0,0,1,5.082.643.638.638,0,0,1-.8.995,3.434,3.434,0,0,0-3.7-.505,2.6,2.6,0,0,0-1.413,2.584.637.637,0,0,1-.6.675l-.039,0" transform="translate(-20.644 -8.44)" fill="#010101"/>
      <path id="Unión_31" data-name="Unión 31" d="M5.959,12.755V8.777a.85.85,0,1,1,1.7,0v3.979a.85.85,0,1,1-1.7,0Zm2.82-5.1a.85.85,0,1,1,0-1.7h3.982a.85.85,0,0,1,0,1.7Zm-7.928,0a.85.85,0,0,1,0-1.7H4.83a.85.85,0,0,1,0,1.7ZM5.959,4.829V.85a.85.85,0,1,1,1.7,0V4.829a.85.85,0,1,1-1.7,0Z" transform="translate(188.551 70.475)" fill="#0740db" stroke="rgba(0,0,0,0)" stroke-miterlimit="10" stroke-width="1"/>
    </g>
  </g>
</svg>
