<svg xmlns="http://www.w3.org/2000/svg" xmlns:xlink="http://www.w3.org/1999/xlink" width="157" height="78" viewBox="0 0 157 78">
  <defs>
    <linearGradient id="linear-gradient" x1="0.332" y1="0.334" x2="0.653" y2="0.735" gradientUnits="objectBoundingBox">
      <stop offset="0" stop-color="#00e0ee"/>
      <stop offset="0.478" stop-color="#ad26fb"/>
      <stop offset="1" stop-color="#0740db"/>
    </linearGradient>
    <linearGradient id="linear-gradient-2" x1="0.307" y1="0.313" x2="0.704" y2="0.712" xlink:href="#linear-gradient"/>
    <clipPath id="clip-path">
      <rect id="Rectángulo_552" data-name="Rectángulo 552" width="102.329" height="72.229" fill="none"/>
    </clipPath>
    <clipPath id="clip-path-3">
      <path id="Trazado_809" data-name="Trazado 809" d="M4.167,271.653a6.366,6.366,0,0,0-1.911,1.025,5.148,5.148,0,0,0-1.416,1.75,4.734,4.734,0,0,0-.518,2.141,4.115,4.115,0,0,0,.437,1.865,3.82,3.82,0,0,0,1.313,1.543,7.831,7.831,0,0,0,1.8.887,16.973,16.973,0,0,0,1.992.553,15.972,15.972,0,0,1,1.946.541,1.577,1.577,0,0,1,.747.508,1.13,1.13,0,0,1,.242.691,1.29,1.29,0,0,1-.173.633,1.718,1.718,0,0,1-.506.553,2.985,2.985,0,0,1-.829.4,3.674,3.674,0,0,1-1.14.161,3.535,3.535,0,0,1-1.359-.23,2.987,2.987,0,0,1-.9-.553,2.2,2.2,0,0,1-.506-.668,1.43,1.43,0,0,1-.161-.576L0,284.375a5.024,5.024,0,0,0,1.8,2.395,6.061,6.061,0,0,0,2,1.036,8.049,8.049,0,0,0,2.372.345,8.213,8.213,0,0,0,2.36-.38,6.532,6.532,0,0,0,1.992-1.025,5.454,5.454,0,0,0,1.5-1.693,4.382,4.382,0,0,0,.023-4.133,3.992,3.992,0,0,0-1.474-1.474,4.872,4.872,0,0,0-1.082-.46q-.668-.207-1.416-.4l-1.508-.392a10.267,10.267,0,0,1-1.37-.449,3.745,3.745,0,0,1-.99-.575.95.95,0,0,1-.38-.737A1.78,1.78,0,0,1,4.5,274.98a2.974,2.974,0,0,1,1.923-.553,3.287,3.287,0,0,1,1.624.4A3.683,3.683,0,0,1,9.257,275.9l2.625-1.8a4.891,4.891,0,0,0-1.313-1.451,6.153,6.153,0,0,0-1.923-1.013A7.269,7.269,0,0,0,6.4,271.3H6.368a6.945,6.945,0,0,0-2.2.358" transform="translate(0 -271.296)" fill="url(#linear-gradient)"/>
    </clipPath>
    <clipPath id="clip-path-4">
      <path id="Trazado_811" data-name="Trazado 811" d="M327.1,70.66a11.439,11.439,0,0,0-3.332,2.016,9.231,9.231,0,0,0-2.25,2.951,8.1,8.1,0,0,0-.818,3.565q0,.7.088,1.87a5.7,5.7,0,0,0,.847,2.454,9.149,9.149,0,0,0,2.425,2.542,13.18,13.18,0,0,0,4.821,2.016c.662.195,2.311.478,3.682.818.545.195,2.1.825,2.1,1.87a2.613,2.613,0,0,1-.935,1.753,3.988,3.988,0,0,1-2.922.935,5.479,5.479,0,0,1-3.039-.73,5.162,5.162,0,0,1-1.636-1.607q-1.228.643-2.864,1.431t-2.98,1.432a7.491,7.491,0,0,0,1.607,2.542,10.643,10.643,0,0,0,2.542,1.958,13.972,13.972,0,0,0,3.185,1.285,13.434,13.434,0,0,0,3.535.468,13.616,13.616,0,0,0,4.5-.73,11.994,11.994,0,0,0,3.682-2.016,9.768,9.768,0,0,0,2.484-2.98,7.57,7.57,0,0,0,.906-3.623,7.478,7.478,0,0,0-3.214-6.486,11.332,11.332,0,0,0-2.6-1.4,25.078,25.078,0,0,0-3.535-1.052q-.584-.117-1.2-.2t-1.256-.2a4.579,4.579,0,0,1-1.607-.789,1.833,1.833,0,0,1-.731-1.549,2.43,2.43,0,0,1,.76-1.636,2.585,2.585,0,0,1,1.987-.818,4.441,4.441,0,0,1,2.308.643,3.094,3.094,0,0,1,1.432,1.695l6.253-2.1a8.981,8.981,0,0,0-1.432-2.863,10.005,10.005,0,0,0-2.308-2.221A11.226,11.226,0,0,0,331.16,69.9h-.074a10.832,10.832,0,0,0-3.986.76" transform="translate(-320.291 -69.9)" fill="url(#linear-gradient-2)"/>
    </clipPath>
    <clipPath id="clip-Logo_157x78">
      <rect width="157" height="78"/>
    </clipPath>
  </defs>
  <g id="Logo_157x78" clip-path="url(#clip-Logo_157x78)">
    <g id="Grupo_410" data-name="Grupo 410" transform="translate(27.335 2.885)">
      <g id="Grupo_400" data-name="Grupo 400">
        <g id="Grupo_399" data-name="Grupo 399" clip-path="url(#clip-path)">
          <path id="Trazado_790" data-name="Trazado 790" d="M3.068,414.641a1.544,1.544,0,0,0,.772-.2,1.908,1.908,0,0,0,.6-.532l.525.5a2.763,2.763,0,0,1-.837.668,2.246,2.246,0,0,1-1.06.259,2.34,2.34,0,0,1-.977-.209,2.541,2.541,0,0,1-.8-.564,2.7,2.7,0,0,1-.539-.833,2.663,2.663,0,0,1,0-2.023,2.709,2.709,0,0,1,.539-.83,2.543,2.543,0,0,1,.8-.564,2.341,2.341,0,0,1,.977-.208,2.21,2.21,0,0,1,.909.19,2.84,2.84,0,0,1,.765.5l-.446.568a2.015,2.015,0,0,0-.553-.413,1.463,1.463,0,0,0-.675-.162,1.555,1.555,0,0,0-.686.155,1.773,1.773,0,0,0-.557.421,2.075,2.075,0,0,0-.377.614,2.044,2.044,0,0,0,0,1.487,2.029,2.029,0,0,0,.377.611,1.749,1.749,0,0,0,.557.413,1.588,1.588,0,0,0,.686.151" transform="translate(-0.463 -343.131)"/>
          <path id="Trazado_791" data-name="Trazado 791" d="M50.551,410.063a2.342,2.342,0,0,1,.977.208,2.569,2.569,0,0,1,.8.564,2.71,2.71,0,0,1,.543.834,2.642,2.642,0,0,1,0,2.023,2.688,2.688,0,0,1-.546.83,2.612,2.612,0,0,1-.8.564,2.4,2.4,0,0,1-1.955,0,2.568,2.568,0,0,1-.8-.564,2.666,2.666,0,0,1-.539-.83,2.636,2.636,0,0,1,1.347-3.42,2.341,2.341,0,0,1,.977-.208m0,4.52a1.626,1.626,0,0,0,.688-.147,1.733,1.733,0,0,0,.558-.406,1.927,1.927,0,0,0,.374-.607,2.019,2.019,0,0,0,.137-.744,1.992,1.992,0,0,0-.137-.74,1.938,1.938,0,0,0-.374-.6,1.734,1.734,0,0,0-.558-.406,1.678,1.678,0,0,0-1.375,0,1.734,1.734,0,0,0-.558.406,1.994,1.994,0,0,0-.378.6,1.942,1.942,0,0,0-.14.74,2,2,0,0,0,.518,1.351,1.733,1.733,0,0,0,.558.406,1.627,1.627,0,0,0,.688.147" transform="translate(-40.185 -343.094)"/>
          <path id="Trazado_792" data-name="Trazado 792" d="M104.735,410.5V415.6h-.762l-2.846-3.909V415.6h-.783V410.5h.79l2.846,3.931V410.5Z" transform="translate(-83.957 -343.461)"/>
          <path id="Trazado_793" data-name="Trazado 793" d="M181.478,412.607a1.247,1.247,0,0,1,.46.46,1.368,1.368,0,0,1-.007,1.29,1.7,1.7,0,0,1-.467.528,2.031,2.031,0,0,1-.622.32,2.565,2.565,0,0,1-.737.119,2.521,2.521,0,0,1-.74-.108,1.893,1.893,0,0,1-.625-.324,1.567,1.567,0,0,1-.56-.747l1.006-.467a.443.443,0,0,0,.05.179.684.684,0,0,0,.158.209.929.929,0,0,0,.28.172,1.1,1.1,0,0,0,.424.072,1.146,1.146,0,0,0,.356-.05.928.928,0,0,0,.259-.126.537.537,0,0,0,.158-.172.4.4,0,0,0,.054-.2.352.352,0,0,0-.075-.216.492.492,0,0,0-.234-.158,5,5,0,0,0-.607-.169,5.319,5.319,0,0,1-.622-.172,2.446,2.446,0,0,1-.56-.277,1.192,1.192,0,0,1-.41-.482,1.282,1.282,0,0,1-.137-.582,1.478,1.478,0,0,1,.162-.668,1.609,1.609,0,0,1,.442-.546,1.994,1.994,0,0,1,.6-.32,2.172,2.172,0,0,1,.7-.111,2.267,2.267,0,0,1,.7.108,1.911,1.911,0,0,1,.6.316,1.524,1.524,0,0,1,.41.453l-.819.56a1.148,1.148,0,0,0-.377-.334,1.026,1.026,0,0,0-.507-.126.928.928,0,0,0-.6.173.555.555,0,0,0-.212.453.3.3,0,0,0,.119.23,1.158,1.158,0,0,0,.309.179,3.174,3.174,0,0,0,.428.14l.471.122q.234.061.442.126a1.525,1.525,0,0,1,.338.144" transform="translate(-149.081 -343.094)"/>
          <path id="Trazado_794" data-name="Trazado 794" d="M252.89,415.6V410.5H254.7a2.246,2.246,0,0,1,.975.2,2.026,2.026,0,0,1,.707.546,2.4,2.4,0,0,1,.43.812,3.285,3.285,0,0,1,.147.992,3.137,3.137,0,0,1-.154,1,2.633,2.633,0,0,1-.427.808,2.03,2.03,0,0,1-.646.543,1.692,1.692,0,0,1-.8.2Zm1.782-.7a1.483,1.483,0,0,0,.7-.151,1.38,1.38,0,0,0,.474-.4,1.667,1.667,0,0,0,.273-.589,2.84,2.84,0,0,0,.086-.7,2.882,2.882,0,0,0-.086-.708,1.782,1.782,0,0,0-.269-.6,1.345,1.345,0,0,0-.474-.413,1.477,1.477,0,0,0-.7-.154h-1.028V414.9Z" transform="translate(-211.589 -343.461)"/>
          <path id="Trazado_795" data-name="Trazado 795" d="M303.265,410.5v.676H300.9v1.387h2.105v.7H300.9V414.9h2.364v.7h-3.119V410.5Z" transform="translate(-251.128 -343.461)"/>
          <path id="Trazado_796" data-name="Trazado 796" d="M373.391,413.8a1.369,1.369,0,0,1-.51,1.085,1.909,1.909,0,0,1-1.272.417,2.4,2.4,0,0,1-1.092-.245,1.622,1.622,0,0,1-.719-.66l.64-.331a.941.941,0,0,0,.456.4,1.731,1.731,0,0,0,.715.14q1.042,0,1.042-.8a.577.577,0,0,0-.054-.259.666.666,0,0,0-.162-.2,2.491,2.491,0,0,0-.927-.389,4.4,4.4,0,0,1-.683-.223,1.752,1.752,0,0,1-.467-.288,1.188,1.188,0,0,1-.453-.972,1.358,1.358,0,0,1,.453-1.022,1.481,1.481,0,0,1,.521-.291,2.108,2.108,0,0,1,.657-.1,2.305,2.305,0,0,1,.967.2,1.5,1.5,0,0,1,.672.568l-.582.359a1.157,1.157,0,0,0-.481-.356,1.6,1.6,0,0,0-.575-.1,1.055,1.055,0,0,0-.4.072,1.135,1.135,0,0,0-.3.172.507.507,0,0,0-.147.212.763.763,0,0,0-.047.269.671.671,0,0,0,.029.19.485.485,0,0,0,.137.2,1.166,1.166,0,0,0,.316.2,3.439,3.439,0,0,0,.568.19,4.918,4.918,0,0,1,.726.234,1.913,1.913,0,0,1,.5.3,1.262,1.262,0,0,1,.474,1.028" transform="translate(-309.405 -343.094)"/>
          <path id="Trazado_797" data-name="Trazado 797" d="M417.224,410.5v.676h-2.364v1.387h2.105v.7h-2.105V414.9h2.364v.7H414.1V410.5Z" transform="translate(-346.476 -343.461)"/>
          <path id="Trazado_798" data-name="Trazado 798" d="M457.824,412.543h1.387v1.868a2.772,2.772,0,0,1-.834.668,2.237,2.237,0,0,1-1.063.259,2.342,2.342,0,0,1-.977-.208,2.528,2.528,0,0,1-.8-.564,2.7,2.7,0,0,1-.535-.83,2.688,2.688,0,0,1,0-2.023,2.691,2.691,0,0,1,.535-.834,2.53,2.53,0,0,1,.8-.564,2.343,2.343,0,0,1,.977-.208,2.2,2.2,0,0,1,.9.187,2.874,2.874,0,0,1,.762.489l-.445.567a1.918,1.918,0,0,0-.55-.406,1.479,1.479,0,0,0-.665-.155,1.556,1.556,0,0,0-.686.155,1.774,1.774,0,0,0-.557.42,2.073,2.073,0,0,0-.374,2.1,1.973,1.973,0,0,0,.374.611,1.75,1.75,0,0,0,.557.413,1.588,1.588,0,0,0,.686.151,1.519,1.519,0,0,0,.632-.133,1.825,1.825,0,0,0,.525-.356v-.912h-.647Z" transform="translate(-380.53 -343.131)"/>
          <path id="Trazado_799" data-name="Trazado 799" d="M508.555,413.794a1.822,1.822,0,0,1-.147.729,1.931,1.931,0,0,1-.4.6,1.867,1.867,0,0,1-.589.4,1.861,1.861,0,0,1-1.452,0,1.865,1.865,0,0,1-.589-.4,1.927,1.927,0,0,1-.4-.6,1.822,1.822,0,0,1-.147-.729V410.5h.754v3.291a1.14,1.14,0,0,0,.086.438,1.227,1.227,0,0,0,.236.37,1.108,1.108,0,0,0,.355.255,1.027,1.027,0,0,0,.433.093,1,1,0,0,0,.43-.093,1.12,1.12,0,0,0,.351-.255,1.221,1.221,0,0,0,.236-.37,1.14,1.14,0,0,0,.086-.438V410.5h.755Z" transform="translate(-422.387 -343.462)"/>
          <path id="Trazado_800" data-name="Trazado 800" d="M554.473,415.6h-.941l-1.6-2.2h-.891v2.2h-.755V410.5h2.07a1.439,1.439,0,0,1,.571.115,1.5,1.5,0,0,1,.467.309,1.443,1.443,0,0,1,.313.456,1.39,1.39,0,0,1,.115.564,1.415,1.415,0,0,1-.3.876,1.479,1.479,0,0,1-.334.313,1.426,1.426,0,0,1-.424.2Zm-2.12-2.9a.7.7,0,0,0,.287-.061.738.738,0,0,0,.234-.161.758.758,0,0,0,.154-.241.78.78,0,0,0,.057-.3.754.754,0,0,0-.057-.295.814.814,0,0,0-.154-.241.718.718,0,0,0-.234-.165.7.7,0,0,0-.287-.061h-1.315v1.53Z" transform="translate(-460.415 -343.461)"/>
          <path id="Trazado_801" data-name="Trazado 801" d="M598.214,410.063a2.342,2.342,0,0,1,.977.208,2.57,2.57,0,0,1,.8.564,2.711,2.711,0,0,1,.542.834,2.64,2.64,0,0,1,0,2.023,2.689,2.689,0,0,1-.546.83,2.614,2.614,0,0,1-.8.564,2.4,2.4,0,0,1-1.954,0,2.561,2.561,0,0,1-.8-.564,2.663,2.663,0,0,1-.539-.83,2.635,2.635,0,0,1,1.347-3.42,2.342,2.342,0,0,1,.977-.208m0,4.52a1.626,1.626,0,0,0,.687-.147,1.732,1.732,0,0,0,.558-.406,1.93,1.93,0,0,0,.375-.607,2.02,2.02,0,0,0,.137-.744,1.993,1.993,0,0,0-.137-.74,1.941,1.941,0,0,0-.375-.6,1.733,1.733,0,0,0-.558-.406,1.678,1.678,0,0,0-1.375,0,1.734,1.734,0,0,0-.558.406,1.994,1.994,0,0,0-.378.6,1.94,1.94,0,0,0-.14.74,2,2,0,0,0,.518,1.351,1.733,1.733,0,0,0,.558.406,1.627,1.627,0,0,0,.688.147" transform="translate(-498.407 -343.094)"/>
        </g>
      </g>
      <path id="Trazado_802" data-name="Trazado 802" d="M88.268,272.706h10.2v3.178h-6.7v2.947h5.895v3.178H91.768v3.846h6.7v3.178h-10.2Z" transform="translate(-73.853 -228.17)"/>
      <g id="Grupo_402" data-name="Grupo 402">
        <g id="Grupo_401" data-name="Grupo 401" clip-path="url(#clip-path)">
          <path id="Trazado_803" data-name="Trazado 803" d="M171.024,278.619H177.2v5.987a9.842,9.842,0,0,1-3.063,2.648,7.451,7.451,0,0,1-6.655.219,8.146,8.146,0,0,1-2.556-1.831,8.757,8.757,0,0,1-1.716-2.683,8.671,8.671,0,0,1,0-6.505,8.8,8.8,0,0,1,1.716-2.671,8.005,8.005,0,0,1,2.556-1.819,7.5,7.5,0,0,1,3.132-.668,7.68,7.68,0,0,1,2.959.576,8.289,8.289,0,0,1,2.706,1.911l-2.026,2.464a5.616,5.616,0,0,0-1.819-1.209,5.2,5.2,0,0,0-1.8-.311,4.232,4.232,0,0,0-1.808.391,4.68,4.68,0,0,0-1.462,1.059,4.93,4.93,0,0,0-.979,1.577,5.275,5.275,0,0,0-.357,1.946,5.185,5.185,0,0,0,.357,1.934,5.1,5.1,0,0,0,.979,1.577,4.584,4.584,0,0,0,1.462,1.071,4.226,4.226,0,0,0,1.808.391,4.852,4.852,0,0,0,1.692-.311,5.81,5.81,0,0,0,1.693-1.025v-1.773h-2.994Z" transform="translate(-136.023 -226.989)"/>
          <path id="Trazado_804" data-name="Trazado 804" d="M272.878,272.706h3.5v10.431a5.662,5.662,0,0,1-.508,2.349,6.388,6.388,0,0,1-1.384,1.98,6.773,6.773,0,0,1-2.041,1.359,6.408,6.408,0,0,1-4.995,0,6.588,6.588,0,0,1-2.042-1.359,6.49,6.49,0,0,1-1.373-1.98,5.668,5.668,0,0,1-.507-2.349V272.706h3.5v9.741a3.664,3.664,0,0,0,.229,1.3,3.765,3.765,0,0,0,.619,1.082,2.918,2.918,0,0,0,.929.748,2.493,2.493,0,0,0,2.282,0,3.094,3.094,0,0,0,.929-.748,3.605,3.605,0,0,0,.631-1.082,3.66,3.66,0,0,0,.23-1.3Z" transform="translate(-220.491 -228.169)"/>
          <path id="Trazado_805" data-name="Trazado 805" d="M367.627,277.565a4.967,4.967,0,0,1-.829,2.775,4.662,4.662,0,0,1-.944,1.036,5.042,5.042,0,0,1-1.2.725l5.411,6.931h-4.076l-5.043-6.586h-1.566v6.586h-3.5V272.706h7.046a4.5,4.5,0,0,1,1.831.38,4.675,4.675,0,0,1,1.5,1.036,4.943,4.943,0,0,1,1.37,3.443m-5.135,1.7a1.554,1.554,0,0,0,1.151-.5,1.665,1.665,0,0,0,.484-1.209,1.637,1.637,0,0,0-.484-1.186,1.555,1.555,0,0,0-1.151-.5h-3.109v3.385Z" transform="translate(-297.762 -228.169)"/>
          <path id="Trazado_806" data-name="Trazado 806" d="M451.763,271.3a7.5,7.5,0,0,1,3.132.668,8.145,8.145,0,0,1,2.567,1.819,8.7,8.7,0,0,1,1.727,2.671,8.356,8.356,0,0,1,.633,3.247,8.465,8.465,0,0,1-.633,3.247,8.624,8.624,0,0,1-1.727,2.694,8.289,8.289,0,0,1-2.567,1.831,7.559,7.559,0,0,1-6.263,0,8.146,8.146,0,0,1-2.556-1.831,8.718,8.718,0,0,1-1.716-2.694,8.46,8.46,0,0,1-.633-3.247,8.351,8.351,0,0,1,.633-3.247,8.8,8.8,0,0,1,1.716-2.671,8.005,8.005,0,0,1,2.556-1.819,7.5,7.5,0,0,1,3.132-.668m.012,13.379a4.079,4.079,0,0,0,1.768-.391,4.615,4.615,0,0,0,1.447-1.071,5.1,5.1,0,0,0,.976-1.577,5.2,5.2,0,0,0,.356-1.934,5.288,5.288,0,0,0-.356-1.946,5.075,5.075,0,0,0-.976-1.589,4.626,4.626,0,0,0-1.447-1.071,4.191,4.191,0,0,0-3.537,0,4.624,4.624,0,0,0-1.447,1.071,5.072,5.072,0,0,0-.976,1.589,5.289,5.289,0,0,0-.356,1.946,5.2,5.2,0,0,0,.356,1.934,5.1,5.1,0,0,0,.976,1.577,4.613,4.613,0,0,0,1.447,1.071,4.079,4.079,0,0,0,1.769.391" transform="translate(-371.259 -226.989)"/>
          <path id="Trazado_807" data-name="Trazado 807" d="M555.956,279.448a4,4,0,0,1,1.474,1.474,4.382,4.382,0,0,1-.023,4.133,5.457,5.457,0,0,1-1.5,1.693,6.531,6.531,0,0,1-1.992,1.025,8.223,8.223,0,0,1-2.36.38,8.057,8.057,0,0,1-2.372-.345,6.071,6.071,0,0,1-2-1.036,5.028,5.028,0,0,1-1.8-2.4l3.224-1.5a1.43,1.43,0,0,0,.161.576,2.194,2.194,0,0,0,.507.668,2.979,2.979,0,0,0,.9.553,3.537,3.537,0,0,0,1.359.23,3.68,3.68,0,0,0,1.14-.161,2.972,2.972,0,0,0,.829-.4,1.715,1.715,0,0,0,.507-.553,1.287,1.287,0,0,0,.173-.633,1.131,1.131,0,0,0-.242-.691,1.58,1.58,0,0,0-.748-.507,16.068,16.068,0,0,0-1.946-.541,16.9,16.9,0,0,1-1.992-.553,7.809,7.809,0,0,1-1.8-.887,3.816,3.816,0,0,1-1.312-1.543,4.111,4.111,0,0,1-.437-1.865,4.729,4.729,0,0,1,.518-2.141,5.146,5.146,0,0,1,1.416-1.75,6.364,6.364,0,0,1,1.911-1.025,6.946,6.946,0,0,1,2.233-.357,7.269,7.269,0,0,1,2.245.345,6.162,6.162,0,0,1,1.923,1.013,4.886,4.886,0,0,1,1.313,1.451l-2.625,1.8a3.685,3.685,0,0,0-1.209-1.071,3.29,3.29,0,0,0-1.623-.4,2.971,2.971,0,0,0-1.922.553,1.778,1.778,0,0,0-.68,1.451.949.949,0,0,0,.38.737,3.728,3.728,0,0,0,.99.576,10.1,10.1,0,0,0,1.37.449l1.508.392q.748.2,1.416.4a4.854,4.854,0,0,1,1.082.461" transform="translate(-456.317 -226.989)"/>
        </g>
      </g>
      <g id="Grupo_404" data-name="Grupo 404" transform="translate(0 44.306)">
        <g id="Grupo_403" data-name="Grupo 403" clip-path="url(#clip-path-3)">
          <path id="Trazado_808" data-name="Trazado 808" d="M-37.959,235.692l11.491,18.093L-13,238.35l-11.491-18.093Z" transform="translate(31.76 -228.593)" fill="url(#linear-gradient)"/>
        </g>
      </g>
      <g id="Grupo_406" data-name="Grupo 406" transform="translate(52.308 11.416)">
        <g id="Grupo_405" data-name="Grupo 405" clip-path="url(#clip-path-4)">
          <path id="Trazado_810" data-name="Trazado 810" d="M259.559,9.273l15.884,35.681,26.4-21.467L285.957-12.194Z" transform="translate(-269.478 -1.213)" fill="url(#linear-gradient-2)"/>
        </g>
      </g>
      <g id="Grupo_408" data-name="Grupo 408">
        <g id="Grupo_407" data-name="Grupo 407" clip-path="url(#clip-path)">
          <path id="Trazado_812" data-name="Trazado 812" d="M4.523,64.178V29.572h23.4v7.414H12.686v7.876H26.77v6.783H12.686V64.178ZM41.372,36.527q5.749,0,8.737,2.414T53.1,46.07V64.178H45.453V59.234q-1.9,5.519-8.508,5.519a8.484,8.484,0,0,1-6.18-2.156,8.235,8.235,0,0,1-2.213-6.18,7.344,7.344,0,0,1,2.558-5.979q2.558-2.127,7.33-2.127H43.5a2.059,2.059,0,0,0,1.236-.287,1.159,1.159,0,0,0,.374-.977v-.632a2.473,2.473,0,0,0-1.351-2.27,8.051,8.051,0,0,0-3.938-.776,21.138,21.138,0,0,0-5.2.632,15.669,15.669,0,0,0-4.225,1.667V38.6a29.594,29.594,0,0,1,5-1.523,29.171,29.171,0,0,1,5.979-.546M39.36,59.349a6.575,6.575,0,0,0,2.874-.632,4.842,4.842,0,0,0,2.1-1.926,6.223,6.223,0,0,0,.776-3.248v-.4H39.7a4.425,4.425,0,0,0-2.932.833A2.894,2.894,0,0,0,35.8,56.3a2.8,2.8,0,0,0,.949,2.213,3.827,3.827,0,0,0,2.616.834" transform="translate(-3.784 -24.742)"/>
          <path id="Trazado_813" data-name="Trazado 813" d="M481.158,39.436h-7.991V12.417h7.991Zm-3.967-30.18q-5,0-5-4.714,0-4.542,5-4.541a5.291,5.291,0,0,1,3.679,1.15,4.353,4.353,0,0,1,1.265,3.392,4.6,4.6,0,0,1-1.265,3.535,5.209,5.209,0,0,1-3.68,1.178m17.994,30.18h-7.991V1.84h7.991Z" transform="translate(-395.075)"/>
        </g>
      </g>
    </g>
  </g>
</svg>
